<?xml version="1.0" encoding="UTF-8" standalone="no"?>
<svg xmlns:xlink="http://www.w3.org/1999/xlink" height="22.95px" width="160.0px" xmlns="http://www.w3.org/2000/svg">
  <g transform="matrix(1.0, 0.0, 0.0, 1.0, 80.0, 12.2)">
    <path d="M-76.65 -0.5 Q-51.95 -0.3 -31.8 5.0 L-16.6 8.9 Q-8.2 10.7 0.35 10.75 9.15 10.8 17.55 9.0 L32.6 5.05 Q52.5 -0.3 76.8 -0.5 L76.5 -0.5 Q52.2 -1.05 32.15 -6.4 L17.05 -10.35 Q8.7 -12.15 0.1 -12.2 -8.7 -12.25 -17.05 -10.5 L-32.15 -6.55 Q-52.35 -1.1 -76.65 -0.5" fill="#ffffff" fill-rule="evenodd" stroke="none">
      <animate attributeName="fill" dur="2s" repeatCount="indefinite" values="#ffffff;#ffffff"/>
      <animate attributeName="fill-opacity" dur="2s" repeatCount="indefinite" values="1.0;1.0"/>
      <animate attributeName="d" dur="2s" repeatCount="indefinite" values="M-76.65 -0.5 Q-51.95 -0.3 -31.8 5.0 L-16.6 8.9 Q-8.2 10.7 0.35 10.75 9.15 10.8 17.55 9.0 L32.6 5.05 Q52.5 -0.3 76.8 -0.5 L76.5 -0.5 Q52.2 -1.05 32.15 -6.4 L17.05 -10.35 Q8.7 -12.15 0.1 -12.2 -8.7 -12.25 -17.05 -10.5 L-32.15 -6.55 Q-52.35 -1.1 -76.65 -0.5;M-80.0 0.0 Q-56.75 0.0 -33.5 0.0 L-18.4 0.0 Q-9.6 0.0 -0.8 0.0 8.05 0.0 16.9 0.0 L33.6 0.0 Q56.7 0.0 79.8 0.0 L80.0 0.0 Q56.95 -0.6 33.95 -1.15 L18.75 -1.35 Q10.05 -1.4 1.4 -1.45 -7.45 -1.4 -16.25 -1.4 L-33.25 -1.2 Q-56.9 -0.85 -80.0 0.0"/>
    </path>
    <path d="M-76.65 -0.5 Q-52.35 -1.1 -32.15 -6.55 L-17.05 -10.5 Q-8.7 -12.25 0.1 -12.2 8.7 -12.15 17.05 -10.35 L32.15 -6.4 Q52.2 -1.05 76.5 -0.5 L76.8 -0.5 Q52.5 -0.3 32.6 5.05 L17.55 9.0 Q9.15 10.8 0.35 10.75 -8.2 10.7 -16.6 8.9 L-31.8 5.0 Q-51.95 -0.3 -76.65 -0.5" fill="none" stroke="#000000" stroke-linecap="round" stroke-linejoin="round" stroke-opacity="0.0" stroke-width="1.0">
      <animate attributeName="stroke" dur="2s" repeatCount="indefinite" values="#000000;#000001"/>
      <animate attributeName="stroke-width" dur="2s" repeatCount="indefinite" values="0.0;0.0"/>
      <animate attributeName="fill-opacity" dur="2s" repeatCount="indefinite" values="0.0;0.0"/>
      <animate attributeName="d" dur="2s" repeatCount="indefinite" values="M-76.65 -0.5 Q-52.35 -1.1 -32.15 -6.55 L-17.05 -10.5 Q-8.7 -12.25 0.1 -12.2 8.7 -12.15 17.05 -10.35 L32.15 -6.4 Q52.2 -1.05 76.5 -0.5 L76.8 -0.5 Q52.5 -0.3 32.6 5.05 L17.55 9.0 Q9.15 10.8 0.35 10.75 -8.2 10.7 -16.6 8.9 L-31.8 5.0 Q-51.95 -0.3 -76.65 -0.5;M-80.0 0.0 Q-56.9 -0.85 -33.25 -1.2 L-16.25 -1.4 Q-7.45 -1.4 1.4 -1.45 10.05 -1.4 18.75 -1.35 L33.95 -1.15 Q56.95 -0.6 80.0 0.0 L79.8 0.0 Q56.7 0.0 33.6 0.0 L16.9 0.0 Q8.05 0.0 -0.8 0.0 -9.6 0.0 -18.4 0.0 L-33.5 0.0 Q-56.75 0.0 -80.0 0.0"/>
    </path>
  </g>
</svg>
