<?xml version="1.0" encoding="UTF-8" standalone="no"?>
<svg xmlns:xlink="http://www.w3.org/1999/xlink" height="194.6px" width="89.0px" xmlns="http://www.w3.org/2000/svg">
  <g transform="matrix(1.0, 0.0, 0.0, 1.0, 9.1, 8.85)">
    <path d="M43.3 -5.1 L43.15 -4.65 Q40.3 -3.25 37.3 -2.1 L37.3 -1.35 36.7 -1.2 Q34.85 0.3 32.05 0.9 L32.05 0.15 Q36.8 -3.0 42.6 -5.0 L43.3 -5.1" fill="#161612" fill-opacity="0.78431374" fill-rule="evenodd" stroke="none"/>
    <path d="M32.05 0.9 Q34.85 0.3 36.7 -1.2 L37.3 -1.35 Q39.3 0.95 44.6 -4.55 44.8 -4.75 44.8 -5.1 L50.7 -6.95 50.8 -7.35 63.25 -7.95 63.9 -5.95 64.0 -5.5 Q63.35 -2.1 61.5 0.1 61.15 0.5 61.5 1.5 59.8 2.2 58.0 4.5 L57.5 5.0 64.0 8.5 66.75 11.25 67.5 11.5 Q64.65 18.7 60.95 23.45 L60.5 24.0 Q68.85 31.5 75.0 38.5 73.2 38.15 72.9 39.5 L72.5 40.5 61.5 43.0 Q64.2 61.55 60.85 79.55 60.4 82.0 60.5 84.5 58.35 87.5 56.2 91.6 L56.0 92.5 Q56.8 93.9 58.15 94.65 L59.5 94.5 62.5 102.0 64.5 103.5 64.5 106.0 66.0 107.5 Q64.8 110.85 62.15 113.15 62.0 113.25 62.0 113.5 L59.0 115.0 58.0 117.0 55.0 118.0 55.0 121.0 Q58.45 125.45 61.0 130.5 L62.5 131.0 Q69.95 140.95 73.7 152.3 L72.95 153.0 72.1 153.45 71.75 153.6 71.75 154.3 71.75 155.05 Q71.35 155.05 71.3 155.2 70.75 156.35 69.5 156.55 L69.5 157.3 Q69.1 157.3 69.05 157.45 L68.65 158.1 Q55.25 160.25 44.05 156.55 L43.9 155.9 Q43.05 153.85 41.05 152.85 L40.95 152.4 Q35.05 150.2 29.05 148.35 L28.4 148.2 Q12.05 139.2 3.6 122.15 L2.9 122.05 Q1.2 121.55 -0.85 117.65 4.05 116.85 4.35 119.9 L4.65 119.8 Q8.45 118.3 11.85 118.4 23.7 101.35 15.25 78.85 L14.85 78.75 14.9 78.0 Q15.4 74.8 14.1 73.5 L13.9 72.9 13.35 72.75 Q10.25 69.85 6.0 67.95 3.95 67.0 0.65 71.25 L0.65 72.0 0.65 72.75 0.0 72.9 -3.1 75.0 -3.1 75.75 -3.65 75.9 Q-5.15 77.7 -5.35 75.0 L-5.35 74.25 -5.35 69.75 Q-4.1 66.15 -3.9 61.5 L-3.85 60.75 Q-2.5 56.9 -1.7 52.5 L-1.6 51.8 Q-0.15 48.75 0.55 45.05 L0.65 44.3 Q2.7 41.5 3.55 37.55 L3.6 36.8 Q6.2 33.0 8.0 28.5 L8.1 27.85 Q10.35 25.55 11.7 22.5 L11.85 21.85 Q14.0 19.9 15.45 17.25 L15.6 16.6 Q17.6 15.6 18.45 13.55 L18.6 12.85 Q18.95 12.85 19.15 12.65 L19.35 12.1 25.15 6.7 25.35 6.1 Q28.95 4.1 31.9 1.4 L32.05 0.9 M34.3 12.1 Q34.05 10.85 32.25 11.7 10.0 22.2 4.35 49.55 L4.35 50.3 Q3.85 56.05 7.35 57.75 L11.25 57.9 Q29.8 43.15 37.3 17.35 L37.25 16.6 Q36.9 13.3 34.3 12.1 M37.4 6.1 Q37.55 7.75 38.95 6.75 46.95 1.15 37.3 3.15 L37.4 6.1 M31.3 39.05 L30.95 39.15 Q30.5 41.25 29.05 42.05 L29.05 42.8 29.05 43.55 Q28.7 43.55 28.65 43.7 26.75 48.35 23.85 51.8 L23.85 52.55 23.2 52.7 Q22.3 53.25 20.85 53.3 L20.85 56.25 20.85 57.0 Q20.6 62.9 22.9 66.15 L23.1 66.75 22.95 67.4 22.35 68.25 Q22.6 73.35 24.15 68.35 L24.6 68.25 Q24.6 69.0 24.9 69.6 L25.35 69.75 Q25.4 71.9 26.65 72.95 L26.85 73.5 Q31.6 77.25 33.5 67.5 35.1 59.25 33.55 51.05 L33.55 50.3 33.55 48.05 33.95 47.95 Q34.3 46.55 33.55 45.8 L33.65 45.05 Q34.45 40.0 31.3 39.05 M18.6 65.25 L18.6 66.75 18.6 67.85 Q23.3 65.5 18.6 65.25 M21.6 92.95 L21.6 93.7 Q22.0 103.75 23.1 113.15 L23.1 112.4 Q23.8 101.2 21.6 92.95 M21.75 75.75 Q22.8 68.5 19.35 76.5 20.45 84.8 21.75 75.75" fill="#f4f2d2" fill-opacity="0.99607843" fill-rule="evenodd" stroke="none"/>
    <path d="M37.3 -1.35 L37.3 -2.1 Q40.3 -3.25 43.15 -4.65 L43.3 -5.1 44.05 -5.1 44.8 -5.1 Q44.8 -4.75 44.6 -4.55 39.3 0.95 37.3 -1.35" fill="#aaa96b" fill-opacity="0.99215686" fill-rule="evenodd" stroke="none"/>
    <path d="M44.8 -5.1 L44.05 -5.1 43.3 -5.1 43.3 -5.85 50.05 -7.3 50.8 -7.35 50.7 -6.95 44.8 -5.1" fill="#1f1f18" fill-opacity="0.77254903" fill-rule="evenodd" stroke="none"/>
    <path d="M50.8 -7.35 L50.8 -8.1 54.45 -8.45 54.5 -8.85 63.1 -8.85 63.25 -7.95 50.8 -7.35" fill="#23231e" fill-opacity="0.77254903" fill-rule="evenodd" stroke="none"/>
    <path d="M76.65 164.85 L79.35 181.95 79.3 181.95 79.2 182.0 78.5 182.15 72.5 183.5 72.5 184.25 71.75 184.25 Q69.1 184.25 67.25 185.0 L66.5 185.0 55.25 185.0 55.2 184.65 Q46.45 183.35 39.55 180.5 L39.4 180.1 Q34.95 178.0 31.3 175.3 L31.15 174.8 Q29.05 173.4 26.85 172.3 L26.65 171.75 17.85 163.3 17.65 162.7 Q14.6 158.3 11.1 154.3 L10.95 153.65 2.9 138.6 2.8 137.9 1.4 132.6 1.85 132.45 Q4.45 128.5 -0.85 125.9 L-1.0 125.15 Q-3.1 119.15 -4.6 112.4 L-4.6 111.65 Q2.55 109.75 6.45 113.35 L6.6 113.9 Q10.15 111.45 10.35 105.65 L10.35 104.9 10.35 104.15 Q12.45 102.55 13.25 99.65 L13.35 98.95 Q15.8 97.6 14.25 94.35 L14.1 93.7 14.1 92.95 14.1 92.2 Q15.2 91.45 15.55 89.95 L15.6 89.2 16.0 89.15 Q16.55 85.65 14.85 83.95 L14.85 83.2 14.85 81.7 14.85 80.95 14.85 78.75 15.25 78.85 Q23.7 101.35 11.85 118.4 8.45 118.3 4.65 119.8 L4.35 119.9 Q4.05 116.85 -0.85 117.65 1.2 121.55 2.9 122.05 L3.6 122.15 Q12.05 139.2 28.4 148.2 L29.05 148.35 Q29.05 149.45 29.4 150.45 L29.8 150.6 Q30.85 155.55 32.4 160.2 L32.8 160.3 32.65 161.0 32.05 161.8 Q32.05 163.3 32.4 164.7 L32.8 164.8 Q34.05 168.8 36.4 167.5 L36.55 167.05 Q40.4 162.65 43.15 157.25 L43.3 156.55 44.05 156.55 Q55.25 160.25 68.65 158.1 L69.05 157.45 Q69.1 157.3 69.5 157.3 L69.55 158.05 Q70.05 161.25 68.0 161.8 69.8 164.7 74.75 164.1 L75.5 164.05 76.25 164.55 76.65 164.85" fill="#c6c37c" fill-opacity="0.99607843" fill-rule="evenodd" stroke="none"/>
    <path d="M79.35 181.95 L79.9 185.75 69.5 185.75 69.5 185.0 72.4 184.65 72.5 184.25 Q76.3 183.95 79.05 182.5 L79.2 182.0 79.3 181.95 79.35 181.95" fill="#010100" fill-opacity="0.047058824" fill-rule="evenodd" stroke="none"/>
    <path d="M25.35 6.1 L25.35 5.35 Q28.15 2.95 31.4 1.05 L32.05 0.9 31.9 1.4 Q28.95 4.1 25.35 6.1" fill="#1e1e1a" fill-opacity="0.8235294" fill-rule="evenodd" stroke="none"/>
    <path d="M34.3 12.1 Q36.9 13.3 37.25 16.6 L37.3 17.35 Q29.8 43.15 11.25 57.9 L7.35 57.75 Q3.85 56.05 4.35 50.3 L4.35 49.55 Q10.0 22.2 32.25 11.7 34.05 10.85 34.3 12.1" fill="#fefefe" fill-rule="evenodd" stroke="none"/>
    <path d="M37.4 6.1 L37.3 3.15 Q46.95 1.15 38.95 6.75 37.55 7.75 37.4 6.1" fill="#fefefd" fill-rule="evenodd" stroke="none"/>
    <path d="M19.35 12.1 L19.35 11.35 19.35 10.6 24.7 6.3 25.35 6.1 25.15 6.7 19.35 12.1" fill="#070706" fill-opacity="0.72156864" fill-rule="evenodd" stroke="none"/>
    <path d="M15.6 16.6 L15.6 15.85 15.6 15.1 Q17.2 14.45 18.1 13.0 18.2 12.85 18.6 12.85 L18.45 13.55 Q17.6 15.6 15.6 16.6" fill="#1e1e1a" fill-opacity="0.84313726" fill-rule="evenodd" stroke="none"/>
    <path d="M8.1 27.85 L8.1 27.1 8.1 26.35 11.35 22.0 11.85 21.85 11.85 21.1 11.85 20.35 15.05 16.8 15.6 16.6 15.45 17.25 Q14.0 19.9 11.85 21.85 L11.7 22.5 Q10.35 25.55 8.1 27.85" fill="#1d1d19" fill-opacity="0.8156863" fill-rule="evenodd" stroke="none"/>
    <path d="M3.6 36.8 L3.6 36.05 3.6 34.55 Q5.8 31.5 7.65 28.0 7.75 27.85 8.1 27.85 L8.0 28.5 Q6.2 33.0 3.6 36.8" fill="#161613" fill-opacity="0.78039217" fill-rule="evenodd" stroke="none"/>
    <path d="M0.65 43.55 L0.65 42.8 0.65 42.05 Q2.15 39.85 3.2 36.95 3.25 36.8 3.6 36.8 L3.55 37.55 Q2.7 41.5 0.65 44.3 L0.65 43.55" fill="#24241f" fill-opacity="0.8156863" fill-rule="evenodd" stroke="none"/>
    <path d="M-1.6 50.3 L-1.6 49.55 -1.6 48.05 Q-0.1 46.55 0.25 43.6 L0.65 43.55 0.65 44.3 0.55 45.05 Q-0.15 48.75 -1.6 51.8 L-1.6 51.05 -1.6 50.3" fill="#1f1e1a" fill-opacity="0.75686276" fill-rule="evenodd" stroke="none"/>
    <path d="M29.05 43.55 Q30.8 42.65 31.25 40.55 L31.3 39.8 Q32.55 39.7 32.15 41.3 L32.05 42.05 32.05 42.8 Q32.15 48.1 29.05 50.3 L29.05 51.05 Q28.7 51.05 28.55 51.2 26.55 53.75 23.85 55.5 L23.85 56.25 23.45 56.25 Q26.4 67.2 21.6 57.0 L21.6 56.25 21.6 54.75 23.65 53.1 23.85 52.55 23.85 51.8 Q26.75 48.35 28.65 43.7 28.7 43.55 29.05 43.55" fill="#ada6a4" fill-rule="evenodd" stroke="none"/>
    <path d="M29.05 43.55 L29.05 42.8 29.05 42.05 Q30.5 41.25 30.95 39.15 L31.3 39.05 31.3 39.8 31.25 40.55 Q30.8 42.65 29.05 43.55" fill="#66635f" fill-rule="evenodd" stroke="none"/>
    <path d="M31.3 39.8 L31.3 39.05 Q34.45 40.0 33.65 45.05 L33.55 45.8 33.2 45.8 Q33.35 43.0 32.05 42.05 L32.15 41.3 Q32.55 39.7 31.3 39.8" fill="#46423d" fill-rule="evenodd" stroke="none"/>
    <path d="M33.55 45.8 Q34.3 46.55 33.95 47.95 L33.55 48.05 33.15 48.1 Q32.25 52.3 30.55 55.5 30.55 59.25 30.95 62.95 L31.3 63.0 Q32.6 63.6 31.75 65.9 L31.3 66.0 Q31.1 64.75 30.65 66.25 28.4 73.95 25.35 69.0 L25.35 69.75 24.9 69.6 Q24.6 69.0 24.6 68.25 L24.4 67.7 23.1 66.75 22.9 66.15 Q20.6 62.9 20.85 57.0 L21.6 57.0 Q26.4 67.2 23.45 56.25 L23.85 56.25 24.6 56.25 Q30.05 61.4 29.85 52.55 L29.8 51.8 30.25 51.65 Q30.65 50.55 29.05 51.05 L29.05 50.3 Q32.15 48.1 32.05 42.8 L32.05 42.05 Q33.35 43.0 33.2 45.8 L33.55 45.8" fill="#655755" fill-rule="evenodd" stroke="none"/>
    <path d="M33.55 48.05 L33.55 50.3 33.55 51.05 33.2 51.1 Q32.5 54.85 31.3 57.75 L31.3 62.25 31.3 63.0 30.95 62.95 Q30.55 59.25 30.55 55.5 32.25 52.3 33.15 48.1 L33.55 48.05" fill="#322d24" fill-rule="evenodd" stroke="none"/>
    <path d="M33.55 51.05 Q35.1 59.25 33.5 67.5 31.6 77.25 26.85 73.5 30.0 71.05 31.2 66.7 L31.3 66.0 31.75 65.9 Q32.6 63.6 31.3 63.0 L31.3 62.25 31.3 57.75 Q32.5 54.85 33.2 51.1 L33.55 51.05" fill="#c4c27b" fill-rule="evenodd" stroke="none"/>
    <path d="M29.8 51.8 Q29.45 51.8 29.3 51.95 27.3 54.5 24.6 56.25 L23.85 56.25 23.85 55.5 Q26.55 53.75 28.55 51.2 28.7 51.05 29.05 51.05 30.65 50.55 30.25 51.65 L29.8 51.8" fill="#6b6161" fill-rule="evenodd" stroke="none"/>
    <path d="M24.6 56.25 Q27.3 54.5 29.3 51.95 29.45 51.8 29.8 51.8 L29.85 52.55 Q30.05 61.4 24.6 56.25" fill="#9d9190" fill-rule="evenodd" stroke="none"/>
    <path d="M20.85 57.0 L20.85 56.25 20.85 53.3 Q22.3 53.25 23.2 52.7 L23.85 52.55 23.65 53.1 21.6 54.75 21.6 56.25 21.6 57.0 20.85 57.0" fill="#6b6961" fill-rule="evenodd" stroke="none"/>
    <path d="M24.6 68.25 L24.15 68.35 Q22.6 73.35 22.35 68.25 L22.95 67.4 23.1 66.75 24.4 67.7 24.6 68.25" fill="#aba965" fill-rule="evenodd" stroke="none"/>
    <path d="M26.85 73.5 L26.65 72.95 Q25.4 71.9 25.35 69.75 L25.35 69.0 Q28.4 73.95 30.65 66.25 31.1 64.75 31.3 66.0 L31.2 66.7 Q30.0 71.05 26.85 73.5" fill="#3a3429" fill-rule="evenodd" stroke="none"/>
    <path d="M0.65 72.75 L0.65 72.0 0.65 71.25 Q3.95 67.0 6.0 67.95 10.25 69.85 13.35 72.75 L12.75 72.55 Q5.7 66.85 0.65 72.75" fill="#52514a" fill-rule="evenodd" stroke="none"/>
    <path d="M0.65 72.75 L0.45 73.35 Q-0.8 75.05 -3.1 75.75 L-3.1 75.0 0.0 72.9 0.65 72.75" fill="#838174" fill-rule="evenodd" stroke="none"/>
    <path d="M0.65 72.75 Q5.7 66.85 12.75 72.55 L13.35 72.75 13.35 73.5 13.35 74.25 12.75 74.4 Q8.8 77.55 4.35 80.2 L4.35 80.95 Q4.0 80.95 3.9 81.15 2.15 84.3 -0.1 83.2 L0.05 82.6 Q3.65 77.25 5.85 70.5 L5.45 70.6 Q3.1 77.1 -3.85 78.75 L-4.25 78.65 Q-4.45 77.55 -6.1 77.25 L-6.1 76.5 -6.1 75.0 -5.35 75.0 Q-5.15 77.7 -3.65 75.9 L-3.1 75.75 Q-0.8 75.05 0.45 73.35 L0.65 72.75" fill="#b8b1af" fill-opacity="0.99607843" fill-rule="evenodd" stroke="none"/>
    <path d="M-3.85 78.75 Q3.1 77.1 5.45 70.6 L5.85 70.5 Q3.65 77.25 0.05 82.6 L-0.1 83.2 -0.65 83.05 -3.85 78.75" fill="#7d6f6e" fill-rule="evenodd" stroke="none"/>
    <path d="M13.35 72.75 L13.9 72.9 14.1 73.5 14.1 74.25 Q14.15 80.0 12.6 77.25 13.85 77.0 13.45 74.95 L13.35 74.25 13.35 73.5 13.35 72.75" fill="#2c2724" fill-rule="evenodd" stroke="none"/>
    <path d="M18.6 65.25 Q23.3 65.5 18.6 67.85 L18.6 66.75 18.6 65.25" fill="#86837c" fill-rule="evenodd" stroke="none"/>
    <path d="M14.1 73.5 Q15.4 74.8 14.9 78.0 L14.85 78.75 14.85 80.95 14.85 81.7 14.5 81.7 Q14.6 79.7 13.35 79.45 L13.35 81.7 13.35 82.45 13.35 89.95 13.35 90.7 Q12.05 89.0 12.5 85.45 12.6 84.35 12.3 84.25 6.3 82.55 1.4 86.95 L1.4 86.2 1.4 84.7 Q3.75 83.3 4.75 80.95 L4.35 80.95 4.35 80.2 Q8.8 77.55 12.75 74.4 L13.35 74.25 13.45 74.95 Q13.85 77.0 12.6 77.25 14.15 80.0 14.1 74.25 L14.1 73.5 M5.85 81.7 L5.85 82.1 Q17.1 77.55 5.85 81.7" fill="#7b6e6a" fill-rule="evenodd" stroke="none"/>
    <path d="M13.35 82.45 L13.35 81.7 13.35 79.45 Q14.6 79.7 14.5 81.7 L14.85 81.7 14.85 83.2 14.85 83.95 14.95 84.7 Q15.3 86.3 14.1 86.2 L14.15 85.45 Q14.65 83.05 13.35 82.45" fill="#4d4a28" fill-rule="evenodd" stroke="none"/>
    <path d="M1.4 86.95 Q6.3 82.55 12.3 84.25 12.6 84.35 12.5 85.45 12.05 89.0 13.35 90.7 L13.35 91.45 13.35 92.95 13.35 93.7 13.35 95.95 13.35 96.7 12.65 96.55 Q5.6 94.0 7.35 95.95 11.35 99.15 8.4 104.7 6.7 107.9 2.9 102.7 L2.7 102.2 Q0.7 101.1 1.4 97.45 L1.4 96.7 1.4 87.7 1.4 86.95" fill="#bdb6b5" fill-rule="evenodd" stroke="none"/>
    <path d="M13.35 82.45 Q14.65 83.05 14.15 85.45 L14.1 86.2 14.1 89.2 14.1 89.95 13.95 90.65 13.35 91.45 13.35 90.7 13.35 89.95 13.35 82.45" fill="#0e0e0b" fill-rule="evenodd" stroke="none"/>
    <path d="M14.1 86.2 Q15.3 86.3 14.95 84.7 L14.85 83.95 Q16.55 85.65 16.0 89.15 L15.6 89.2 14.95 89.35 14.1 89.95 14.1 89.2 14.1 86.2" fill="#918f46" fill-rule="evenodd" stroke="none"/>
    <path d="M-6.85 101.95 L-6.85 101.2 -6.85 98.95 -6.85 98.2 -6.85 97.45 Q-4.05 99.55 -4.0 97.45 -3.85 89.2 -7.6 83.95 L-7.6 83.2 -7.6 81.7 Q-6.35 80.35 -6.15 77.95 L-6.1 77.25 Q-4.45 77.55 -4.25 78.65 L-3.85 78.75 -0.65 83.05 -0.1 83.2 Q2.15 84.3 3.9 81.15 4.0 80.95 4.35 80.95 L4.75 80.95 Q3.75 83.3 1.4 84.7 L1.4 86.2 1.4 86.95 1.4 87.7 0.65 87.7 Q0.65 92.55 1.0 97.4 L1.4 97.45 Q0.7 101.1 2.7 102.2 L2.9 102.7 Q5.85 115.1 9.95 105.05 10.0 104.9 10.35 104.9 L10.35 105.65 Q10.15 111.45 6.6 113.9 L6.45 113.35 Q2.55 109.75 -4.6 111.65 L-4.8 111.1 Q-6.3 109.6 -6.1 106.4 -5.0 109.4 -3.9 108.6 -1.95 107.2 -2.15 105.0 -2.3 102.9 -6.1 99.7 L-6.1 101.2 -6.1 101.95 -6.85 101.95" fill="#433534" fill-opacity="0.99607843" fill-rule="evenodd" stroke="none"/>
    <path d="M5.85 81.7 Q17.1 77.55 5.85 82.1 L5.85 81.7" fill="#a79c9c" fill-rule="evenodd" stroke="none"/>
    <path d="M1.4 87.7 L1.4 96.7 1.4 97.45 1.0 97.4 Q0.65 92.55 0.65 87.7 L1.4 87.7" fill="#847d7d" fill-rule="evenodd" stroke="none"/>
    <path d="M13.35 93.7 L13.35 92.95 13.35 91.45 13.95 90.65 14.1 89.95 14.95 89.35 15.6 89.2 15.55 89.95 Q15.2 91.45 14.1 92.2 L14.1 92.95 14.1 93.7 13.35 93.7" fill="#696735" fill-rule="evenodd" stroke="none"/>
    <path d="M13.35 96.7 L13.35 95.95 13.35 93.7 14.1 93.7 14.25 94.35 Q15.8 97.6 13.35 98.95 L13.35 98.2 13.35 96.7" fill="#67615a" fill-rule="evenodd" stroke="none"/>
    <path d="M2.9 102.7 Q6.7 107.9 8.4 104.7 11.35 99.15 7.35 95.95 5.6 94.0 12.65 96.55 L13.35 96.7 13.35 98.2 13.35 98.95 13.25 99.65 Q12.45 102.55 10.35 104.15 L10.35 104.9 Q10.0 104.9 9.95 105.05 5.85 115.1 2.9 102.7" fill="#7f716f" fill-rule="evenodd" stroke="none"/>
    <path d="M21.6 92.95 Q23.8 101.2 23.1 112.4 L23.1 113.15 Q22.0 103.75 21.6 93.7 L21.6 92.95" fill="#b8b675" fill-rule="evenodd" stroke="none"/>
    <path d="M21.75 75.75 Q20.45 84.8 19.35 76.5 22.8 68.5 21.75 75.75" fill="#acaa62" fill-rule="evenodd" stroke="none"/>
    <path d="M74.1 153.6 L75.4 158.35 70.25 159.55 70.25 158.8 70.25 157.3 Q71.5 157.1 71.7 155.8 L71.75 155.05 73.1 154.3 73.55 154.0 74.1 153.6" fill="#b9b1b0" fill-rule="evenodd" stroke="none"/>
    <path d="M-0.85 125.9 Q4.45 128.5 1.85 132.45 L1.4 132.6 1.0 132.6 Q1.1 131.05 -0.1 131.1 L-0.15 130.4 -0.85 125.9" fill="#868338" fill-opacity="0.99215686" fill-rule="evenodd" stroke="none"/>
    <path d="M2.9 138.6 L2.4 138.45 Q0.65 135.25 -0.1 131.1 1.1 131.05 1.0 132.6 L1.4 132.6 2.8 137.9 2.9 138.6" fill="#1a190f" fill-opacity="0.7882353" fill-rule="evenodd" stroke="none"/>
    <path d="M29.8 150.6 L29.8 149.85 29.8 149.1 Q35.4 149.4 32.55 154.15 L32.05 154.3 31.7 154.3 Q31.5 151.55 29.8 150.6" fill="#b3abab" fill-rule="evenodd" stroke="none"/>
    <path d="M32.05 154.3 Q33.35 161.8 33.95 154.35 L34.3 154.3 34.3 155.05 34.3 155.8 34.5 156.4 Q36.5 158.45 33.55 161.8 L33.65 161.1 Q34.05 159.45 32.8 159.55 L32.8 160.3 32.4 160.2 Q30.85 155.55 29.8 150.6 31.5 151.55 31.7 154.3 L32.05 154.3" fill="#504942" fill-rule="evenodd" stroke="none"/>
    <path d="M29.05 148.35 Q35.05 150.2 40.95 152.4 L41.05 152.85 40.3 152.8 Q36.05 152.35 34.3 154.3 L33.95 154.35 Q33.35 161.8 32.05 154.3 L32.55 154.15 Q35.4 149.4 29.8 149.1 L29.8 149.85 29.8 150.6 29.4 150.45 Q29.05 149.45 29.05 148.35" fill="#6d6560" fill-rule="evenodd" stroke="none"/>
    <path d="M34.3 154.3 Q36.05 152.35 40.3 152.8 L41.05 152.85 41.15 153.55 Q42.35 157.7 34.3 155.8 L34.3 155.05 34.3 154.3" fill="#b6aeae" fill-rule="evenodd" stroke="none"/>
    <path d="M33.55 161.8 Q36.75 165.5 40.85 159.15 41.8 157.7 43.3 156.55 L43.15 157.25 Q40.4 162.65 36.55 167.05 L35.9 166.9 32.8 164.8 32.4 164.7 Q32.05 163.3 32.05 161.8 L32.65 161.0 32.8 160.3 32.8 159.55 Q34.05 159.45 33.65 161.1 L33.55 161.8" fill="#382e2a" fill-rule="evenodd" stroke="none"/>
    <path d="M41.05 152.85 Q43.05 153.85 43.9 155.9 L44.05 156.55 43.3 156.55 Q41.8 157.7 40.85 159.15 36.75 165.5 33.55 161.8 36.5 158.45 34.5 156.4 L34.3 155.8 Q42.35 157.7 41.15 153.55 L41.05 152.85" fill="#796b6a" fill-rule="evenodd" stroke="none"/>
    <path d="M26.85 172.3 L26.2 172.1 Q21.05 168.75 17.85 163.3 L26.65 171.75 26.85 172.3" fill="#0d0d08" fill-opacity="0.7764706" fill-rule="evenodd" stroke="none"/>
    <path d="M32.8 164.8 L35.9 166.9 36.55 167.05 36.4 167.5 Q34.05 168.8 32.8 164.8" fill="#1d1a15" fill-rule="evenodd" stroke="none"/>
    <path d="M11.1 154.3 L10.6 154.15 Q5.75 147.35 2.9 138.6 L10.95 153.65 11.1 154.3" fill="#17170e" fill-opacity="0.8" fill-rule="evenodd" stroke="none"/>
    <path d="M31.3 175.3 L30.6 175.2 Q27.8 174.7 26.85 172.3 29.05 173.4 31.15 174.8 L31.3 175.3" fill="#1b1b11" fill-opacity="0.8235294" fill-rule="evenodd" stroke="none"/>
    <path d="M73.7 152.3 L74.1 153.6 73.55 154.0 73.1 154.3 71.75 155.05 71.75 154.3 71.75 153.6 72.1 153.45 72.95 153.0 73.7 152.3" fill="#46433f" fill-rule="evenodd" stroke="none"/>
    <path d="M75.95 160.65 L76.35 163.0 76.65 164.85 76.25 164.55 75.5 164.05 74.75 164.1 Q69.8 164.7 68.0 161.8 70.05 161.25 69.55 158.05 L69.5 157.3 69.5 156.55 Q70.75 156.35 71.3 155.2 71.35 155.05 71.75 155.05 L71.7 155.8 Q71.5 157.1 70.25 157.3 L70.25 158.8 70.25 159.55 Q72.9 161.8 75.8 160.7 L75.95 160.65" fill="#413732" fill-rule="evenodd" stroke="none"/>
    <path d="M75.4 158.35 L75.95 160.65 75.8 160.7 Q72.9 161.8 70.25 159.55 L75.4 158.35" fill="#7f706f" fill-rule="evenodd" stroke="none"/>
    <path d="M55.25 185.0 L54.5 185.0 Q45.05 184.75 39.55 180.5 46.45 183.35 55.2 184.65 L55.25 185.0" fill="#222215" fill-opacity="0.7921569" fill-rule="evenodd" stroke="none"/>
    <path d="M67.25 185.75 L66.5 185.75 55.25 185.75 55.25 185.0 66.5 185.0 67.25 185.0 67.25 185.75" fill="#212114" fill-opacity="0.827451" fill-rule="evenodd" stroke="none"/>
    <path d="M72.5 184.25 L72.5 183.5 78.5 182.15 79.2 182.0 79.05 182.5 Q76.3 183.95 72.5 184.25" fill="#2c2c1b" fill-opacity="0.84313726" fill-rule="evenodd" stroke="none"/>
    <path d="M69.5 185.75 L68.75 185.75 67.25 185.75 67.25 185.0 Q69.1 184.25 71.75 184.25 L72.5 184.25 72.4 184.65 69.5 185.0 69.5 185.75" fill="#15150d" fill-opacity="0.7294118" fill-rule="evenodd" stroke="none"/>
    <path d="M-3.85 60.75 L-3.85 60.0 -3.85 56.25 Q-2.35 54.05 -2.0 50.3 L-1.6 50.3 -1.6 51.05 -1.6 51.8 -1.7 52.5 Q-2.5 56.9 -3.85 60.75" fill="#252520" fill-opacity="0.7647059" fill-rule="evenodd" stroke="none"/>
    <path d="M-5.35 67.5 L-5.35 66.75 -5.35 63.0 Q-4.1 62.75 -4.25 60.75 L-3.85 60.75 -3.9 61.5 Q-4.1 66.15 -5.35 69.75 L-5.35 69.0 -5.35 67.5" fill="#3e3e36" fill-opacity="0.8117647" fill-rule="evenodd" stroke="none"/>
    <path d="M-6.1 72.75 L-6.1 72.0 -6.1 67.5 -5.35 67.5 -5.35 69.0 -5.35 69.75 -5.35 74.25 -5.35 75.0 -6.1 75.0 -6.1 74.25 -6.1 72.75" fill="#31312a" fill-opacity="0.77254903" fill-rule="evenodd" stroke="none"/>
    <path d="M-8.35 83.95 L-8.35 83.2 -8.35 79.45 Q-6.0 77.7 -6.5 72.75 L-6.1 72.75 -6.1 74.25 -6.1 75.0 -6.1 76.5 -6.1 77.25 -6.15 77.95 Q-6.35 80.35 -7.6 81.7 L-7.6 83.2 -7.6 83.95 -8.35 83.95" fill="#0e0d0c" fill-opacity="0.7764706" fill-rule="evenodd" stroke="none"/>
    <path d="M-8.35 93.7 L-8.35 92.95 -8.35 83.95 -7.6 83.95 -6.9 91.45 -6.85 92.2 -7.25 92.2 Q-7.15 93.8 -8.35 93.7" fill="#191716" fill-opacity="0.8039216" fill-rule="evenodd" stroke="none"/>
    <path d="M-7.6 83.95 Q-3.85 89.2 -4.0 97.45 -4.05 99.55 -6.85 97.45 -6.85 97.05 -7.0 97.0 -8.1 96.45 -7.6 94.45 -6.4 94.55 -6.75 92.95 L-6.85 92.2 -6.9 91.45 -7.6 83.95" fill="#786868" fill-rule="evenodd" stroke="none"/>
    <path d="M-6.85 98.95 L-7.3 98.8 Q-7.8 97.65 -9.1 97.45 L-9.1 96.7 -9.1 95.2 -8.5 94.35 -8.35 93.7 Q-7.15 93.8 -7.25 92.2 L-6.85 92.2 -6.75 92.95 Q-6.4 94.55 -7.6 94.45 -8.1 96.45 -7.0 97.0 -6.85 97.05 -6.85 97.45 L-6.85 98.2 -6.85 98.95" fill="#161313" fill-opacity="0.8156863" fill-rule="evenodd" stroke="none"/>
    <path d="M-4.6 113.9 L-5.0 113.8 Q-6.15 110.2 -7.6 107.15 -6.3 105.85 -6.8 102.65 L-6.85 101.95 -6.1 101.95 -6.1 105.65 -6.1 106.4 Q-6.3 109.6 -4.8 111.1 L-4.6 111.65 -4.6 112.4 -4.6 113.15 -4.6 113.9" fill="#0a0908" fill-opacity="0.7764706" fill-rule="evenodd" stroke="none"/>
    <path d="M-6.1 101.95 L-6.1 101.2 -6.1 99.7 Q-2.3 102.9 -2.15 105.0 -1.95 107.2 -3.9 108.6 -5.0 109.4 -6.1 106.4 L-6.1 105.65 -6.1 101.95" fill="#786968" fill-rule="evenodd" stroke="none"/>
    <path d="M-0.1 131.1 L-0.55 131.0 Q-3.35 123.15 -4.6 113.9 L-4.6 113.15 -4.6 112.4 Q-3.1 119.15 -1.0 125.15 L-0.85 125.9 -0.15 130.4 -0.1 131.1" fill="#222114" fill-opacity="0.78039217" fill-rule="evenodd" stroke="none"/>
  </g>
</svg>
