<?xml version="1.0" encoding="UTF-8" standalone="no"?>
<svg xmlns:xlink="http://www.w3.org/1999/xlink" height="190.8px" width="75.1px" xmlns="http://www.w3.org/2000/svg">
  <g transform="matrix(1.0, 0.0, 0.0, 1.0, 7.45, 8.85)">
    <path d="M8.55 -7.35 L7.8 -7.4 6.5 -7.55 2.2 -7.9 1.9 -7.9 1.55 -7.9 1.45 -7.9 1.3 -7.95 1.2 -7.95 0.8 -7.95 0.65 -8.85 1.3 -8.85 1.45 -8.85 1.5 -8.85 1.55 -8.85 1.8 -8.85 2.3 -8.85 4.8 -8.85 5.05 -8.85 5.55 -8.85 Q6.15 -7.6 8.55 -7.75 L8.55 -7.35" fill="#23231e" fill-opacity="0.77254903" fill-rule="evenodd" stroke="none"/>
    <path d="M0.8 -7.95 L1.2 -7.95 1.3 -7.95 1.45 -7.9 1.55 -7.9 1.9 -7.9 2.2 -7.9 6.5 -7.55 7.8 -7.4 8.55 -7.35 17.55 -4.45 18.25 -4.35 22.85 -1.55 Q23.15 -1.35 23.5 -1.35 L24.25 -1.35 28.1 1.45 28.75 1.65 Q30.5 3.25 32.6 4.45 L33.25 4.6 35.65 7.45 36.25 7.6 Q38.4 10.7 41.3 13.1 L41.45 13.6 40.8 13.75 40.0 14.35 Q40.0 18.65 41.75 21.7 L42.2 21.85 Q42.0 24.3 44.45 24.1 L45.2 24.1 Q47.1 26.3 50.45 27.0 L51.2 27.1 52.65 33.6 53.45 37.95 53.45 37.55 53.85 37.6 Q58.2 69.2 52.7 98.2 L52.7 101.95 52.7 102.7 52.5 103.2 48.2 106.4 48.2 107.15 47.5 107.3 43.7 107.15 43.7 106.4 43.65 105.7 42.95 101.2 42.95 100.45 Q44.35 98.05 45.1 95.15 L45.2 94.45 45.6 94.35 Q47.65 87.7 44.45 93.7 L44.45 94.45 44.35 95.15 Q43.5 97.25 42.2 98.95 L42.2 99.7 42.2 100.45 41.45 100.45 41.45 101.2 41.45 101.95 41.1 101.95 Q40.9 103.95 39.25 104.15 L39.25 104.9 38.85 105.0 Q38.25 107.35 36.25 107.9 L36.25 108.65 35.55 108.8 Q34.35 109.4 33.25 110.15 L33.25 110.9 Q32.85 110.9 32.8 111.05 30.85 115.3 29.5 119.9 L29.5 120.65 29.4 121.35 Q26.8 131.05 21.25 137.85 L21.25 138.6 21.1 139.15 19.75 140.1 19.75 140.85 19.4 140.9 Q19.15 142.85 17.5 143.1 L17.5 143.85 17.5 144.6 Q17.15 144.6 17.05 144.75 15.45 147.4 13.05 149.1 L13.05 149.85 12.6 149.95 Q12.15 151.35 11.25 152.3 7.5 140.95 0.05 131.0 L-1.45 130.5 Q-4.0 125.45 -7.45 121.0 L-7.45 118.0 -4.45 117.0 -3.45 115.0 -0.45 113.5 -0.3 113.15 Q2.35 110.85 3.55 107.5 L2.05 106.0 2.05 103.5 0.05 102.0 -2.95 94.5 -4.3 94.65 Q-5.65 93.9 -6.45 92.5 L-6.25 91.6 Q-4.1 87.5 -1.95 84.5 -2.05 82.0 -1.6 79.55 1.75 61.55 -0.95 43.0 L10.05 40.5 10.45 39.5 Q10.75 38.15 12.55 38.5 6.4 31.5 -1.95 24.0 L-1.5 23.45 Q2.2 18.7 5.05 11.5 L4.3 11.25 1.55 8.5 -4.95 5.0 -4.45 4.5 Q-2.65 2.2 -0.95 1.5 -1.3 0.5 -0.95 0.1 0.9 -2.1 1.55 -5.5 L1.45 -5.95 0.8 -7.95 M42.3 56.55 Q44.2 50.15 40.75 51.8 41.45 52.55 41.55 54.0 L41.65 56.05 42.3 56.55 M37.75 59.25 Q40.05 61.8 39.65 54.8 39.65 54.2 37.75 59.25" fill="#f4f2d2" fill-opacity="0.99607843" fill-rule="evenodd" stroke="none"/>
    <path d="M23.5 -1.35 Q23.15 -1.35 22.85 -1.55 L18.25 -4.35 Q21.8 -4.15 23.35 -2.0 L23.5 -1.35" fill="#393931" fill-opacity="0.85882354" fill-rule="evenodd" stroke="none"/>
    <path d="M56.45 36.05 L57.5 37.9 Q58.6 40.15 59.35 42.8 L59.45 43.55 59.0 43.4 Q57.55 40.55 56.45 37.55 L56.45 37.0 56.45 36.8 56.45 36.05" fill="#28270d" fill-opacity="0.8862745" fill-rule="evenodd" stroke="none"/>
    <path d="M36.25 7.6 L35.65 7.45 33.25 4.6 Q36.4 6.35 35.15 1.7 L34.75 1.65 34.75 0.9 Q38.0 2.85 39.15 6.9 L39.25 7.6 39.05 8.15 Q38.2 9.0 36.25 6.85 L36.25 7.6" fill="#332a2a" fill-opacity="0.95686275" fill-rule="evenodd" stroke="none"/>
    <path d="M41.45 13.6 L41.3 13.1 Q38.4 10.7 36.25 7.6 L36.25 6.85 Q38.2 9.0 39.05 8.15 L39.25 7.6 Q41.65 9.3 42.15 12.85 L42.2 13.6 41.45 13.6" fill="#1f1b1a" fill-opacity="0.95686275" fill-rule="evenodd" stroke="none"/>
    <path d="M45.85 14.8 Q46.35 15.2 46.5 15.9 48.7 24.6 42.2 21.85 L42.1 21.15 41.45 19.6 Q45.4 18.3 43.85 15.05 L43.7 14.35 45.2 14.5 45.85 14.8" fill="#847a79" fill-opacity="0.99607843" fill-rule="evenodd" stroke="none"/>
    <path d="M45.2 24.1 L44.45 24.1 Q42.0 24.3 42.2 21.85 48.7 24.6 46.5 15.9 46.35 15.2 45.85 14.8 50.3 17.3 50.45 24.1 L50.45 24.85 Q50.1 24.85 49.95 24.65 48.15 22.15 45.2 24.1 M45.2 14.5 L43.7 14.35 42.95 14.35 42.2 14.35 42.2 13.6 Q43.85 13.9 45.2 14.5" fill="#231e1b" fill-opacity="0.9411765" fill-rule="evenodd" stroke="none"/>
    <path d="M42.2 21.85 L41.75 21.7 Q40.0 18.65 40.0 14.35 L40.8 13.75 41.45 13.6 42.2 13.6 42.2 14.35 41.45 14.35 41.45 18.85 41.45 19.6 42.1 21.15 42.2 21.85" fill="#4a4842" fill-rule="evenodd" stroke="none"/>
    <path d="M43.7 14.35 L43.85 15.05 Q45.4 18.3 41.45 19.6 L41.45 18.85 41.45 14.35 42.2 14.35 42.95 14.35 43.7 14.35" fill="#bab3b2" fill-rule="evenodd" stroke="none"/>
    <path d="M51.2 27.1 L50.45 27.0 Q47.1 26.3 45.2 24.1 48.15 22.15 49.95 24.65 50.1 24.85 50.45 24.85 50.45 25.6 50.75 26.2 L51.2 26.35 51.2 27.1" fill="#c5c27b" fill-opacity="0.99607843" fill-rule="evenodd" stroke="none"/>
    <path d="M34.75 0.9 L34.75 1.65 34.55 2.2 Q32.45 4.5 29.5 0.9 29.1 0.9 28.95 0.7 L28.75 0.15 Q32.15 -0.25 34.05 0.75 L34.75 0.9" fill="#b8b1b1" fill-rule="evenodd" stroke="none"/>
    <path d="M33.25 4.6 L32.6 4.45 Q30.5 3.25 28.75 1.65 L29.3 1.45 29.5 0.9 Q32.45 4.5 34.55 2.2 L34.75 1.65 35.15 1.7 Q36.4 6.35 33.25 4.6" fill="#686260" fill-opacity="0.9843137" fill-rule="evenodd" stroke="none"/>
    <path d="M28.75 1.65 L28.1 1.45 24.25 -1.35 Q30.4 -2.0 34.6 0.4 L34.75 0.9 34.05 0.75 Q32.15 -0.25 28.75 0.15 L28.95 0.7 Q29.1 0.9 29.5 0.9 L29.3 1.45 28.75 1.65" fill="#272625" fill-opacity="0.92941177" fill-rule="evenodd" stroke="none"/>
    <path d="M53.45 37.55 L53.45 37.95 52.65 33.6 51.2 27.1 51.2 26.35 Q54.95 29.65 56.05 36.0 L56.45 36.05 56.45 36.8 56.45 37.0 56.45 37.55 56.0 37.4 Q55.15 35.45 53.45 34.55 L53.45 36.8 53.45 37.55" fill="#605e25" fill-opacity="0.95686275" fill-rule="evenodd" stroke="none"/>
    <path d="M52.7 102.7 L52.7 101.95 52.7 98.2 Q58.2 69.2 53.85 37.6 L53.45 37.55 53.45 36.8 53.45 34.55 Q55.15 35.45 56.0 37.4 L56.45 37.55 Q57.55 40.55 59.0 43.4 L59.45 43.55 62.05 53.2 62.45 53.3 Q62.8 56.25 63.55 59.2 L63.95 59.25 Q64.3 63.0 65.05 66.7 L65.45 66.75 Q64.9 70.3 66.0 72.1 L66.15 72.75 Q66.2 76.5 66.55 80.2 L66.9 80.2 66.9 85.45 66.9 86.2 66.9 96.7 66.9 97.45 66.9 98.2 66.9 98.95 66.15 98.95 66.15 104.15 66.15 104.9 65.8 104.9 Q65.95 108.45 64.7 110.15 L64.7 113.9 64.7 114.65 64.3 114.65 Q64.45 117.05 63.2 117.65 L63.2 120.65 63.2 121.4 62.8 121.4 Q62.95 123.4 61.7 123.65 L61.7 125.9 61.7 126.65 61.3 126.75 Q55.4 147.65 42.95 161.8 L42.95 162.55 Q42.6 162.55 42.5 162.75 41.6 164.15 40.0 164.8 L40.0 165.55 40.0 166.3 Q39.6 166.3 39.4 166.5 30.25 176.0 17.3 181.8 L16.9 181.95 14.2 164.85 14.25 164.85 Q19.9 168.35 25.6 166.0 L25.75 165.55 Q27.25 164.8 28.8 164.2 L29.5 164.05 Q34.0 162.55 39.15 161.45 L39.25 161.05 39.25 160.3 40.55 159.4 40.75 158.8 45.05 150.5 45.2 149.85 49.55 143.7 49.7 143.1 Q54.95 136.75 57.85 128.1 L57.95 127.4 57.95 126.65 Q59.7 123.9 60.8 120.6 L60.95 119.9 Q62.5 117.7 63.1 114.65 L63.2 113.9 Q64.6 112.1 63.55 109.25 61.2 103.05 56.45 102.7 L56.35 102.3 Q53.9 101.65 52.7 102.7" fill="#c6c37c" fill-opacity="0.99607843" fill-rule="evenodd" stroke="none"/>
    <path d="M42.3 56.55 L41.65 56.05 41.55 54.0 Q41.45 52.55 40.75 51.8 44.2 50.15 42.3 56.55" fill="#a09e50" fill-rule="evenodd" stroke="none"/>
    <path d="M42.2 100.45 L42.2 99.7 42.2 98.95 Q43.5 97.25 44.35 95.15 L44.45 94.45 45.2 94.45 45.1 95.15 Q44.35 98.05 42.95 100.45 L42.95 101.2 42.4 101.0 42.2 100.45" fill="#a19f51" fill-rule="evenodd" stroke="none"/>
    <path d="M44.45 94.45 L44.45 93.7 Q47.65 87.7 45.6 94.35 L45.2 94.45 44.45 94.45" fill="#b6b573" fill-rule="evenodd" stroke="none"/>
    <path d="M37.75 59.25 Q39.65 54.2 39.65 54.8 40.05 61.8 37.75 59.25" fill="#a3a256" fill-rule="evenodd" stroke="none"/>
    <path d="M62.45 53.3 Q64.1 54.95 63.95 58.5 L63.95 59.25 63.55 59.2 Q62.8 56.25 62.45 53.3" fill="#373622" fill-opacity="0.85490197" fill-rule="evenodd" stroke="none"/>
    <path d="M63.95 59.25 Q65.6 61.7 65.45 66.0 L65.45 66.75 65.05 66.7 Q64.3 63.0 63.95 59.25" fill="#363521" fill-opacity="0.84313726" fill-rule="evenodd" stroke="none"/>
    <path d="M66.9 80.2 L67.65 80.2 67.65 85.45 67.65 86.2 66.9 86.2 66.9 85.45 66.9 80.2" fill="#19190f" fill-opacity="0.7882353" fill-rule="evenodd" stroke="none"/>
    <path d="M66.15 72.75 Q67.5 75.2 66.95 79.5 L66.9 80.2 66.55 80.2 Q66.2 76.5 66.15 72.75" fill="#3c3b24" fill-opacity="0.84313726" fill-rule="evenodd" stroke="none"/>
    <path d="M67.65 86.2 L67.65 96.7 67.65 97.45 66.9 97.45 66.9 96.7 66.9 86.2 67.65 86.2" fill="#1c1c11" fill-opacity="0.8156863" fill-rule="evenodd" stroke="none"/>
    <path d="M66.9 98.95 L66.95 99.7 Q67.45 103.2 66.15 104.9 L66.15 104.15 66.15 98.95 66.9 98.95" fill="#272718" fill-opacity="0.80784315" fill-rule="evenodd" stroke="none"/>
    <path d="M13.05 149.85 L13.05 149.1 Q15.45 147.4 17.05 144.75 17.15 144.6 17.5 144.6 17.5 145.35 17.15 145.6 16.25 146.3 16.45 146.35 20.4 147.7 14.55 150.6 L13.85 150.45 13.05 149.85" fill="#635c57" fill-rule="evenodd" stroke="none"/>
    <path d="M17.5 144.6 L17.5 143.85 17.5 143.1 Q19.15 142.85 19.4 140.9 L19.75 140.85 20.6 141.45 21.25 141.6 21.15 142.3 Q19.7 145.55 17.5 144.6" fill="#6f6c67" fill-rule="evenodd" stroke="none"/>
    <path d="M12.95 158.35 L11.65 153.6 14.35 151.15 14.55 150.6 Q20.4 147.7 16.45 146.35 16.25 146.3 17.15 145.6 17.5 145.35 17.5 144.6 19.7 145.55 21.15 142.3 L21.25 141.6 21.25 140.85 21.85 140.65 22.0 140.1 Q26.3 139.55 28.9 137.3 29.1 137.1 29.5 137.1 31.8 138.25 37.45 136.05 39.05 135.4 38.5 138.6 35.65 142.9 31.15 145.6 31.0 145.7 31.0 146.1 L30.5 146.25 Q29.6 147.7 28.0 148.35 L28.0 149.1 27.6 149.2 Q27.05 150.75 25.0 150.6 L25.0 151.35 24.45 151.5 Q21.3 154.35 17.5 156.55 L17.5 157.3 16.8 157.4 14.1 158.05 13.15 158.3 12.95 158.35 M24.25 143.1 L24.25 143.45 Q30.75 138.85 24.25 143.1" fill="#b9b1b0" fill-rule="evenodd" stroke="none"/>
    <path d="M11.25 152.3 Q12.15 151.35 12.6 149.95 L13.05 149.85 13.85 150.45 14.55 150.6 14.35 151.15 11.65 153.6 11.25 152.3" fill="#46433f" fill-rule="evenodd" stroke="none"/>
    <path d="M13.5 160.65 L12.95 158.35 13.15 158.3 14.1 158.05 16.8 157.4 17.5 157.3 17.35 157.9 Q15.7 159.6 14.15 160.4 L13.5 160.65" fill="#7f706f" fill-rule="evenodd" stroke="none"/>
    <path d="M14.2 164.85 L13.9 163.0 13.5 160.65 14.15 160.4 Q15.7 159.6 17.35 157.9 L17.5 157.3 17.5 156.55 Q21.3 154.35 24.45 151.5 L25.0 151.35 25.4 151.35 Q21.9 155.7 19.75 161.8 21.05 167.7 24.4 165.0 24.65 164.8 25.0 164.8 L25.2 165.35 25.75 165.55 25.6 166.0 Q19.9 168.35 14.25 164.85 L14.2 164.85" fill="#413732" fill-rule="evenodd" stroke="none"/>
    <path d="M64.7 114.65 L64.7 115.4 Q64.7 119.2 63.2 121.4 L63.2 120.65 63.2 117.65 Q64.45 117.05 64.3 114.65 L64.7 114.65" fill="#32311f" fill-opacity="0.84313726" fill-rule="evenodd" stroke="none"/>
    <path d="M60.95 119.15 L60.95 118.4 60.95 116.9 Q62.3 113.4 63.15 113.5 L63.2 113.9 63.1 114.65 Q62.5 117.7 60.95 119.9 L60.95 119.15" fill="#1e1b16" fill-rule="evenodd" stroke="none"/>
    <path d="M63.2 113.9 L63.15 113.5 Q62.3 113.4 60.95 116.9 L60.95 118.4 60.95 119.15 60.5 119.25 Q59.05 122.9 57.2 125.9 57.2 126.65 57.5 127.25 L57.95 127.4 57.85 128.1 Q54.95 136.75 49.7 143.1 L49.7 142.7 Q46.6 145.2 44.45 149.1 L44.65 149.65 Q44.85 149.85 45.2 149.85 L45.05 150.5 40.75 158.8 40.65 158.1 Q40.25 156.0 38.5 159.55 38.5 160.3 38.8 160.9 38.85 161.05 39.25 161.05 L39.15 161.45 Q34.0 162.55 29.5 164.05 L29.4 163.65 27.25 163.3 27.25 162.55 Q32.8 157.6 37.0 155.8 L36.7 156.4 36.25 156.55 Q38.75 158.95 40.9 153.15 41.35 151.95 42.2 150.6 40.5 143.2 40.7 133.35 L40.75 132.6 Q44.95 128.6 47.35 122.85 L47.45 122.15 47.45 121.4 47.45 119.9 48.3 119.3 48.95 119.15 Q53.0 118.7 53.8 115.4 L53.45 115.4 53.45 114.65 Q63.2 111.9 57.7 103.6 57.55 103.45 57.2 103.45 56.8 103.45 56.65 103.25 L56.45 102.7 Q61.2 103.05 63.55 109.25 64.6 112.1 63.2 113.9 M32.5 161.05 L32.5 161.45 Q38.65 158.0 32.5 161.05" fill="#443534" fill-rule="evenodd" stroke="none"/>
    <path d="M60.95 119.15 L60.95 119.9 60.8 120.6 Q59.7 123.9 57.95 126.65 L57.95 127.4 57.5 127.25 Q57.2 126.65 57.2 125.9 59.05 122.9 60.5 119.25 L60.95 119.15" fill="#16150f" fill-rule="evenodd" stroke="none"/>
    <path d="M63.2 121.4 L63.2 122.15 Q63.2 125.15 61.7 126.65 L61.7 125.9 61.7 123.65 Q62.95 123.4 62.8 121.4 L63.2 121.4" fill="#31301e" fill-opacity="0.8509804" fill-rule="evenodd" stroke="none"/>
    <path d="M56.45 102.7 L56.65 103.25 Q56.8 103.45 57.2 103.45 L57.1 104.15 55.7 110.9 55.15 111.1 Q52.95 113.8 49.7 115.4 L49.3 115.3 Q48.55 113.2 47.45 111.65 L47.35 111.25 Q45.8 110.7 45.95 108.65 46.75 107.95 48.1 107.55 L48.2 107.15 Q52.15 105.1 55.8 102.85 56.05 102.7 56.45 102.7" fill="#bcb5b4" fill-rule="evenodd" stroke="none"/>
    <path d="M57.2 103.45 Q57.55 103.45 57.7 103.6 63.2 111.9 53.45 114.65 L53.45 115.4 Q53.1 115.4 53.0 115.55 52.5 116.7 51.2 116.9 L50.45 116.9 Q49.25 117.0 49.7 115.4 52.95 113.8 55.15 111.1 L55.7 110.9 57.1 104.15 57.2 103.45" fill="#817271" fill-rule="evenodd" stroke="none"/>
    <path d="M48.2 107.15 L48.2 106.4 52.5 103.2 52.7 102.7 Q53.9 101.65 56.35 102.3 L56.45 102.7 Q56.05 102.7 55.8 102.85 52.15 105.1 48.2 107.15" fill="#545245" fill-rule="evenodd" stroke="none"/>
    <path d="M41.45 101.95 L41.45 101.2 41.45 100.45 42.2 100.45 42.4 101.0 42.95 101.2 43.65 105.7 43.7 106.4 42.95 106.4 42.9 105.7 Q42.4 103.6 41.45 101.95" fill="#b1b06b" fill-rule="evenodd" stroke="none"/>
    <path d="M39.25 104.9 L39.25 104.15 Q40.9 103.95 41.1 101.95 L41.45 101.95 Q42.4 103.6 42.9 105.7 L42.95 106.4 42.25 106.45 Q40.15 106.6 39.25 104.9" fill="#d5d4a6" fill-rule="evenodd" stroke="none"/>
    <path d="M36.25 108.65 L36.25 107.9 Q38.25 107.35 38.85 105.0 L39.25 104.9 Q40.15 106.6 42.25 106.45 L42.95 106.4 43.7 106.4 43.7 107.15 42.95 107.15 42.2 107.15 41.5 107.25 37.0 108.65 36.25 108.65" fill="#726f58" fill-rule="evenodd" stroke="none"/>
    <path d="M37.0 108.65 L41.5 107.25 42.2 107.15 42.2 107.9 42.3 108.65 Q44.95 120.1 41.45 128.85 L41.35 129.3 31.75 133.35 31.75 134.1 31.0 134.15 Q27.0 134.3 24.25 136.35 L24.25 135.6 Q28.35 129.6 30.15 121.35 L30.25 120.65 Q35.1 121.6 33.75 112.95 L33.25 110.9 Q35.45 110.5 36.8 109.2 L37.0 108.65" fill="#bcb4b4" fill-rule="evenodd" stroke="none"/>
    <path d="M43.7 107.15 L47.5 107.3 48.2 107.15 48.1 107.55 Q46.75 107.95 45.95 108.65 L45.2 108.7 Q43.2 108.85 42.2 107.9 L42.2 107.15 42.95 107.15 43.7 107.15" fill="#48413e" fill-rule="evenodd" stroke="none"/>
    <path d="M25.0 151.35 L25.0 150.6 Q27.05 150.75 27.6 149.2 L28.0 149.1 Q29.85 149.45 31.35 146.1 L31.0 146.1 Q31.0 145.7 31.15 145.6 35.65 142.9 38.5 138.6 39.05 135.4 37.45 136.05 31.8 138.25 29.5 137.1 L29.5 136.35 Q31.9 136.15 32.1 134.1 L31.75 134.1 31.75 133.35 41.35 129.3 41.45 128.85 Q44.95 120.1 42.3 108.65 L42.2 107.9 Q43.2 108.85 45.2 108.7 L45.95 108.65 Q45.8 110.7 47.35 111.25 L47.45 111.65 46.7 111.65 Q47.55 115.3 49.55 117.8 L49.7 118.4 48.95 118.4 48.95 119.15 48.3 119.3 47.45 119.9 47.45 119.15 Q47.4 113.6 44.45 110.9 44.1 118.0 46.95 121.95 47.1 122.15 47.45 122.15 L47.35 122.85 Q44.95 128.6 40.75 132.6 L40.7 133.35 Q40.5 143.2 42.2 150.6 41.35 151.95 40.9 153.15 38.75 158.95 36.25 156.55 L36.7 156.4 37.0 155.8 Q32.8 157.6 27.25 162.55 L27.25 163.3 Q26.9 163.3 26.8 163.45 26.3 164.6 25.0 164.8 24.65 164.8 24.4 165.0 21.05 167.7 19.75 161.8 21.9 155.7 25.4 151.35 L25.0 151.35" fill="#7d6d6d" fill-rule="evenodd" stroke="none"/>
    <path d="M47.45 119.9 L47.45 121.4 47.45 122.15 Q47.1 122.15 46.95 121.95 44.1 118.0 44.45 110.9 47.4 113.6 47.45 119.15 L47.45 119.9" fill="#b5acac" fill-rule="evenodd" stroke="none"/>
    <path d="M47.45 111.65 Q48.55 113.2 49.3 115.3 L49.7 115.4 Q49.25 117.0 50.45 116.9 L51.2 116.9 51.0 117.45 49.7 118.4 49.55 117.8 Q47.55 115.3 46.7 111.65 L47.45 111.65" fill="#544343" fill-rule="evenodd" stroke="none"/>
    <path d="M53.45 115.4 L53.8 115.4 Q53.0 118.7 48.95 119.15 L48.95 118.4 49.7 118.4 51.0 117.45 51.2 116.9 Q52.5 116.7 53.0 115.55 53.1 115.4 53.45 115.4" fill="#191414" fill-rule="evenodd" stroke="none"/>
    <path d="M33.25 110.9 L33.25 110.15 Q34.35 109.4 35.55 108.8 L36.25 108.65 37.0 108.65 36.8 109.2 Q35.45 110.5 33.25 110.9" fill="#474640" fill-rule="evenodd" stroke="none"/>
    <path d="M29.5 120.65 L29.5 119.9 Q30.85 115.3 32.8 111.05 32.85 110.9 33.25 110.9 L33.75 112.95 Q35.1 121.6 30.25 120.65 L29.5 120.65" fill="#655d59" fill-rule="evenodd" stroke="none"/>
    <path d="M21.25 138.6 L21.25 137.85 Q26.8 131.05 29.4 121.35 L29.5 120.65 30.25 120.65 30.15 121.35 Q28.35 129.6 24.25 135.6 L24.25 136.35 23.9 136.4 Q23.65 138.4 22.0 138.6 L21.25 138.6" fill="#2f2e2b" fill-rule="evenodd" stroke="none"/>
    <path d="M29.5 137.1 Q29.1 137.1 28.9 137.3 26.3 139.55 22.0 140.1 L22.0 139.35 22.0 138.6 Q23.65 138.4 23.9 136.4 L24.25 136.35 Q27.0 134.3 31.0 134.15 L31.75 134.1 32.1 134.1 Q31.9 136.15 29.5 136.35 L29.5 137.1" fill="#564848" fill-rule="evenodd" stroke="none"/>
    <path d="M19.75 140.85 L19.75 140.1 21.1 139.15 21.25 138.6 22.0 138.6 22.0 139.35 22.0 140.1 21.85 140.65 21.25 140.85 21.25 141.6 20.6 141.45 19.75 140.85" fill="#2c2625" fill-rule="evenodd" stroke="none"/>
    <path d="M24.25 143.1 Q30.75 138.85 24.25 143.45 L24.25 143.1" fill="#847574" fill-rule="evenodd" stroke="none"/>
    <path d="M28.0 149.1 L28.0 148.35 Q29.6 147.7 30.5 146.25 L31.0 146.1 31.35 146.1 Q29.85 149.45 28.0 149.1" fill="#645554" fill-rule="evenodd" stroke="none"/>
    <path d="M45.2 149.85 Q44.85 149.85 44.65 149.65 L44.45 149.1 Q46.6 145.2 49.7 142.7 L49.7 143.1 49.55 143.7 45.2 149.85" fill="#1f1d15" fill-rule="evenodd" stroke="none"/>
    <path d="M39.25 161.05 Q38.85 161.05 38.8 160.9 38.5 160.3 38.5 159.55 40.25 156.0 40.65 158.1 L40.75 158.8 40.55 159.4 39.25 160.3 39.25 161.05" fill="#1e1b15" fill-rule="evenodd" stroke="none"/>
    <path d="M42.95 162.55 L42.85 163.25 Q41.95 165.3 40.0 166.3 L40.0 165.55 40.0 164.8 Q41.6 164.15 42.5 162.75 42.6 162.55 42.95 162.55" fill="#242416" fill-opacity="0.88235295" fill-rule="evenodd" stroke="none"/>
    <path d="M25.75 165.55 L25.2 165.35 25.0 164.8 Q26.3 164.6 26.8 163.45 26.9 163.3 27.25 163.3 L29.4 163.65 29.5 164.05 28.8 164.2 Q27.25 164.8 25.75 165.55" fill="#2a2320" fill-rule="evenodd" stroke="none"/>
    <path d="M32.5 161.05 Q38.65 158.0 32.5 161.45 L32.5 161.05" fill="#7b6b6b" fill-rule="evenodd" stroke="none"/>
  </g>
</svg>
