<?xml version="1.0" encoding="UTF-8" standalone="no"?>
<svg xmlns:xlink="http://www.w3.org/1999/xlink" height="288.0px" width="316.85px" xmlns="http://www.w3.org/2000/svg">
  <g transform="matrix(1.0, 0.0, 0.0, 1.0, 141.85, 172.0)">
    <path d="M146.8 -16.7 Q118.6 -12.0 112.0 -12.0 L-112.0 -12.0 Q-122.15 -12.9 -133.8 -19.65 -145.5 -26.4 -140.2 -31.55 -134.95 -36.7 -126.75 -40.35 -118.6 -44.0 -112.0 -44.0 L112.0 -44.0 Q118.6 -44.0 146.8 -39.3 175.0 -34.6 175.0 -28.0 175.0 -21.4 146.8 -16.7" fill="#ffffff" fill-rule="evenodd" stroke="none"/>
    <path d="M48.0 -172.0 L32.0 -44.0 -16.0 -44.0 32.0 -172.0 48.0 -172.0 M170.95 -76.0 L162.95 -29.55 138.95 -29.55 162.95 -76.0 170.95 -76.0 M48.0 116.0 L32.0 116.0 -16.0 -12.0 32.0 -12.0 48.0 116.0 M139.95 -24.55 L163.95 -24.55 171.95 20.0 163.95 20.0 139.95 -24.55" fill="#ffffff" fill-rule="evenodd" stroke="none"/>
    <path d="M61.95 -123.75 Q31.9 -118.6 -2.05 -118.55 L-2.05 -134.2 Q31.9 -135.95 61.95 -128.95 L61.95 -123.75 M51.0 -81.2 Q20.95 -76.05 -13.0 -76.0 L-13.0 -91.65 Q20.95 -93.4 51.0 -86.4 L51.0 -81.2 M-13.05 19.85 Q20.9 18.05 50.95 25.25 L50.95 30.65 Q20.9 35.95 -13.05 36.0 L-13.05 19.85 M-2.05 62.8 Q31.9 61.05 61.95 68.05 L61.95 73.25 Q31.9 78.4 -2.05 78.45 L-2.05 62.8" fill="#ffffff" fill-rule="evenodd" stroke="none"/>
  </g>
</svg>
