<?xml version="1.0" encoding="UTF-8" standalone="no"?>
<svg xmlns:xlink="http://www.w3.org/1999/xlink" height="87.75px" width="95.65px" xmlns="http://www.w3.org/2000/svg">
  <g transform="matrix(1.0, 0.0, 0.0, 1.0, 47.75, 47.85)">
    <path d="M12.85 -45.0 Q25.45 -51.25 37.2 -43.9 42.4 -40.6 45.0 -35.1 52.45 -19.5 40.9 -7.0 46.35 -4.3 47.6 1.7 48.5 5.9 46.25 9.4 39.75 19.65 29.0 13.75 L22.7 22.5 Q23.8 24.3 23.9 26.55 24.4 36.0 15.45 39.25 10.15 41.05 5.65 37.7 2.15 35.1 0.0 32.0 -9.05 32.1 -16.7 27.35 -19.75 33.05 -26.25 31.55 -28.95 30.8 -30.35 28.3 -34.35 21.1 -27.35 16.75 L-27.9 15.8 Q-31.35 15.55 -34.95 14.5 -43.85 11.65 -47.15 3.1 -48.65 -0.85 -46.55 -4.45 -40.4 -14.85 -27.9 -15.8 -35.05 -26.0 -29.35 -37.2 -25.1 -45.5 -15.9 -47.3 -2.7 -49.6 4.95 -38.7 8.2 -42.7 12.85 -45.0" fill="url(#gradient0)" fill-rule="evenodd" stroke="none"/>
    <path d="M10.15 -2.75 Q5.95 1.5 0.0 1.5 -5.95 1.5 -10.2 -2.75 -14.4 -6.95 -14.4 -12.9 -14.4 -18.85 -10.2 -23.1 -5.95 -27.3 0.0 -27.3 5.95 -27.3 10.15 -23.1 14.4 -18.85 14.4 -12.9 14.4 -6.95 10.15 -2.75" fill="url(#gradient1)" fill-rule="evenodd" stroke="none"/>
    <path d="M26.4 -8.25 Q32.35 -2.3 32.35 6.05 32.35 14.4 26.4 20.35 20.45 26.35 12.1 26.35 3.7 26.35 -2.25 20.35 -8.2 14.4 -8.2 6.05 -8.2 -2.3 -2.25 -8.25 3.7 -14.25 12.1 -14.25 20.45 -14.25 26.4 -8.25" fill="url(#gradient2)" fill-rule="evenodd" stroke="none"/>
    <path d="M-14.6 -21.3 Q-5.35 -21.3 1.25 -14.75 7.8 -8.15 7.8 1.1 7.8 10.35 1.25 16.95 -5.35 23.5 -14.6 23.5 -23.9 23.5 -30.45 16.95 -37.0 10.35 -37.0 1.1 -37.0 -8.15 -30.45 -14.75 -23.9 -21.3 -14.6 -21.3" fill="url(#gradient3)" fill-rule="evenodd" stroke="none"/>
    <path d="M30.85 -32.85 Q39.5 -24.15 39.5 -11.95 39.5 0.25 30.85 8.9 22.2 17.55 9.95 17.55 -2.25 17.55 -10.9 8.9 -19.55 0.25 -19.55 -11.95 -19.55 -24.15 -10.9 -32.85 -2.25 -41.5 9.95 -41.5 22.2 -41.5 30.85 -32.85" fill="url(#gradient4)" fill-rule="evenodd" stroke="none"/>
  </g>
  <defs>
    <radialGradient cx="0" cy="0" gradientTransform="matrix(0.0679, 0.0, 0.0, 0.0679, 1.0, -3.0)" gradientUnits="userSpaceOnUse" id="gradient0" r="819.2" spreadMethod="pad">
      <stop offset="0.0" stop-color="#999999" stop-opacity="0.7529412"/>
      <stop offset="1.0" stop-color="#000000" stop-opacity="0.0"/>
    </radialGradient>
    <radialGradient cx="0" cy="0" gradientTransform="matrix(0.0177, 0.0, 0.0, 0.0177, 0.0, -12.9)" gradientUnits="userSpaceOnUse" id="gradient1" r="819.2" spreadMethod="pad">
      <stop offset="0.0" stop-color="#999999" stop-opacity="0.7529412"/>
      <stop offset="1.0" stop-color="#000000" stop-opacity="0.0"/>
    </radialGradient>
    <radialGradient cx="0" cy="0" gradientTransform="matrix(0.0253, 0.0, 0.0, 0.0253, 12.1, 6.05)" gradientUnits="userSpaceOnUse" id="gradient2" r="819.2" spreadMethod="pad">
      <stop offset="0.0" stop-color="#999999" stop-opacity="0.7529412"/>
      <stop offset="1.0" stop-color="#000000" stop-opacity="0.0"/>
    </radialGradient>
    <radialGradient cx="0" cy="0" gradientTransform="matrix(0.0284, 0.0, 0.0, 0.0284, -14.6, 1.1)" gradientUnits="userSpaceOnUse" id="gradient3" r="819.2" spreadMethod="pad">
      <stop offset="0.0" stop-color="#999999" stop-opacity="0.7529412"/>
      <stop offset="1.0" stop-color="#000000" stop-opacity="0.0"/>
    </radialGradient>
    <radialGradient cx="0" cy="0" gradientTransform="matrix(0.0362, 0.0, 0.0, 0.0362, 9.95, -11.95)" gradientUnits="userSpaceOnUse" id="gradient4" r="819.2" spreadMethod="pad">
      <stop offset="0.0" stop-color="#999999" stop-opacity="0.7529412"/>
      <stop offset="1.0" stop-color="#000000" stop-opacity="0.0"/>
    </radialGradient>
  </defs>
</svg>
