<?xml version="1.0" encoding="UTF-8" standalone="no"?>
<svg xmlns:xlink="http://www.w3.org/1999/xlink" height="203.55px" width="91.85px" xmlns="http://www.w3.org/2000/svg">
  <g transform="matrix(1.0, 0.0, 0.0, 1.0, 6.85, 16.45)">
    <path d="M16.7 10.25 L16.7 9.65 16.7 9.0 Q22.05 2.95 28.25 -2.3 L28.75 -2.45 28.75 -1.8 28.3 -1.65 16.7 10.25" fill="#0e0d0c" fill-opacity="0.85882354" fill-rule="evenodd" stroke="none"/>
    <path d="M67.0 -15.8 L67.0 -15.0 Q68.4 -13.95 68.5 -11.5 L65.8 -4.6 65.5 -4.5 Q63.6 -3.95 62.0 -2.0 65.95 2.45 72.5 5.0 68.8 12.9 65.0 18.5 66.7 20.2 69.5 21.5 71.65 24.6 75.0 26.0 77.35 28.95 78.5 33.5 74.3 37.65 66.5 38.0 L66.5 38.5 Q66.05 56.3 64.9 75.95 64.65 80.15 63.5 84.5 L62.0 85.0 60.5 90.0 Q65.05 93.35 66.0 99.5 L70.0 106.5 Q68.1 110.6 65.0 114.5 L58.0 119.0 63.5 126.3 Q58.15 130.25 50.4 131.75 L50.4 131.15 Q50.85 122.95 48.5 117.8 L48.35 117.2 Q39.5 98.15 33.25 76.45 33.2 75.15 32.8 74.4 31.3 71.65 32.4 67.85 33.95 62.5 30.7 60.5 30.35 60.5 30.2 60.7 22.4 69.45 20.5 84.05 L20.5 85.95 20.5 86.6 20.5 94.85 20.5 95.5 Q20.5 97.75 20.8 99.9 L21.15 99.95 21.15 101.85 21.15 102.5 Q21.15 103.15 21.4 103.65 21.45 103.8 21.8 103.8 25.75 108.05 27.45 114.6 L27.5 115.25 27.15 115.35 Q25.75 119.55 22.4 121.6 L22.4 122.25 22.25 122.75 19.85 125.4 19.85 126.05 Q19.55 126.05 19.5 126.2 17.05 130.55 12.85 133.05 L12.7 132.55 Q2.6 121.35 -4.3 106.95 L-4.45 106.4 -4.95 105.7 -4.9 105.05 Q-4.5 102.7 -5.6 101.85 L-5.6 101.25 -5.6 97.4 -5.6 96.8 -5.6 94.25 -5.6 93.6 -5.6 91.7 Q-4.6 92.6 -3.5 92.1 L-3.35 92.0 Q-5.05 90.55 -5.6 84.05 L-5.6 83.4 -5.6 77.05 -5.6 76.45 -5.6 71.35 -5.1 71.2 -4.95 70.7 -2.55 68.65 -2.4 68.15 -1.3 67.35 -1.1 66.9 Q0.25 66.35 0.7 64.95 L0.8 64.35 Q2.0 62.05 4.5 60.9 L5.25 60.55 Q2.8 60.75 0.15 58.0 L0.0 57.5 Q-0.8 56.7 -1.1 55.45 L-1.1 54.8 -1.1 49.7 -1.1 49.05 -1.1 47.15 Q0.1 44.55 0.7 41.45 L0.8 40.8 Q3.95 32.85 7.65 25.45 L7.8 24.9 13.35 15.3 13.5 14.7 Q15.55 13.25 16.55 10.85 L16.7 10.25 28.3 -1.65 28.75 -1.8 35.9 -7.4 36.4 -7.55 Q40.5 -9.8 44.75 -11.85 L45.3 -12.0 Q50.2 -13.8 55.5 -15.1 L56.15 -15.2 67.0 -15.8 M77.65 146.55 L81.0 151.5 81.45 154.2 76.5 156.6 76.5 155.95 76.5 148.95 77.65 146.55 M40.7 -0.7 Q41.05 0.25 42.05 -0.7 48.5 -6.75 40.2 -3.75 40.25 -2.15 40.7 -0.7 M36.6 20.55 Q40.95 11.8 36.4 5.2 34.15 3.95 32.45 4.95 11.7 17.35 5.85 44.6 L5.85 45.25 Q4.85 51.65 9.7 52.25 10.2 53.35 11.65 52.15 27.2 39.55 36.6 20.55 M2.05 94.85 L3.2 94.6 3.35 94.25 3.35 93.6 4.6 93.6 5.25 93.6 5.85 93.5 Q12.05 91.05 5.25 92.35 L5.25 92.95 4.6 93.0 -2.4 92.35 -1.9 93.05 Q-1.75 93.3 -1.75 93.6 -0.65 96.5 1.95 95.25 L2.05 94.85" fill="#f4f3d3" fill-opacity="0.99607843" fill-rule="evenodd" stroke="none"/>
    <path d="M28.75 -2.45 L28.75 -3.1 Q32.15 -5.75 35.85 -8.05 L36.4 -8.2 36.4 -7.55 35.9 -7.4 28.75 -1.8 28.75 -2.45" fill="#141412" fill-opacity="0.85490197" fill-rule="evenodd" stroke="none"/>
    <path d="M36.4 -8.2 L36.4 -8.8 Q40.3 -10.95 44.7 -12.55 L45.3 -12.65 45.3 -12.0 44.75 -11.85 Q40.5 -9.8 36.4 -7.55 L36.4 -8.2" fill="#12110f" fill-opacity="0.8117647" fill-rule="evenodd" stroke="none"/>
    <path d="M45.3 -12.65 L45.3 -13.25 Q50.05 -14.9 55.5 -15.75 L56.15 -15.8 56.15 -15.2 55.5 -15.1 Q50.2 -13.8 45.3 -12.0 L45.3 -12.65" fill="#1c1c18" fill-opacity="0.8" fill-rule="evenodd" stroke="none"/>
    <path d="M56.15 -15.8 Q56.45 -15.8 56.6 -15.95 L56.75 -16.45 67.0 -16.45 67.0 -15.8 56.15 -15.2 56.15 -15.8" fill="#2c2c26" fill-opacity="0.8392157" fill-rule="evenodd" stroke="none"/>
    <path d="M40.7 -0.7 Q40.25 -2.15 40.2 -3.75 48.5 -6.75 42.05 -0.7 41.05 0.25 40.7 -0.7 M36.6 20.55 Q27.2 39.55 11.65 52.15 10.2 53.35 9.7 52.25 4.85 51.65 5.85 45.25 L5.85 44.6 Q11.7 17.35 32.45 4.95 34.15 3.95 36.4 5.2 40.95 11.8 36.6 20.55" fill="#ffffff" fill-rule="evenodd" stroke="none"/>
    <path d="M74.6 142.0 L77.35 146.1 77.65 146.55 76.5 148.95 76.5 155.95 76.5 156.6 81.45 154.2 Q83.6 167.8 84.95 181.95 L82.85 182.65 82.85 183.3 82.2 183.3 81.55 183.3 81.5 182.65 Q80.05 175.15 77.75 181.4 78.2 185.8 80.05 180.45 L80.25 182.0 Q80.3 182.65 80.95 183.3 L80.85 183.65 Q75.05 185.7 67.6 185.85 L67.6 186.5 66.95 186.5 62.5 186.5 62.45 186.15 56.75 185.85 56.75 185.5 Q54.1 185.3 52.3 184.55 L51.7 184.5 Q45.85 182.75 40.85 180.1 L40.4 179.95 40.2 179.5 40.7 179.3 40.85 178.85 Q44.6 176.2 49.0 174.15 L49.15 173.75 51.55 172.85 51.65 172.5 59.2 170.3 59.3 169.95 Q62.7 169.85 63.65 167.35 L63.75 166.75 Q66.05 163.6 65.7 157.85 L65.65 157.2 65.65 156.6 Q68.6 158.2 67.0 150.85 L66.95 150.2 66.95 149.6 66.95 148.95 Q67.9 146.1 71.35 145.45 L71.4 145.15 74.4 142.45 74.6 142.0 M-4.3 106.95 Q2.6 121.35 12.7 132.55 L12.85 133.05 12.7 133.55 Q9.05 138.05 4.6 136.2 L4.25 136.1 Q-0.75 125.35 -3.65 112.7 L-3.65 112.05 -3.65 110.8 -3.75 110.15 Q-4.2 108.75 -4.3 106.95" fill="#c7c47d" fill-opacity="0.99607843" fill-rule="evenodd" stroke="none"/>
    <path d="M64.45 127.6 L72.05 138.3 65.65 142.6 65.35 142.65 Q64.6 147.35 62.5 153.4 L61.85 153.35 50.4 152.15 50.0 152.25 Q47.85 156.25 45.3 159.75 L44.75 159.9 Q40.55 162.0 34.5 162.3 L33.95 162.15 27.5 158.5 27.45 157.85 Q26.55 150.85 24.3 145.15 L23.9 145.0 Q20.95 140.7 21.15 147.05 21.55 148.75 20.5 148.8 8.65 149.4 -1.1 147.65 L-1.2 147.3 Q-3.5 146.55 -4.95 145.15 L-4.8 144.55 Q-3.6 142.25 -4.95 140.05 L-4.9 139.4 Q-4.15 131.75 -5.6 126.7 L-5.6 126.05 -5.6 122.85 Q-4.05 119.9 -4.3 115.25 L-4.3 114.6 Q-3.25 116.7 -3.05 119.7 L-3.05 120.3 Q-3.1 125.45 -2.45 129.85 L-2.4 130.5 Q0.0 131.6 1.05 134.2 L1.4 134.3 Q2.2 136.35 4.6 136.55 L4.6 136.2 Q9.05 138.05 12.7 133.55 L12.85 133.05 Q17.05 130.55 19.5 126.2 19.55 126.05 19.85 126.05 21.9 126.15 22.75 122.25 L22.4 122.25 22.4 121.6 Q25.75 119.55 27.15 115.35 L27.5 115.25 27.5 115.55 Q29.6 112.9 30.05 108.25 L29.45 108.1 24.95 106.3 24.8 105.85 21.8 103.15 21.8 103.8 Q21.45 103.8 21.4 103.65 21.15 103.15 21.15 102.5 L21.45 102.45 Q22.25 98.55 21.15 96.15 L21.15 99.35 21.15 99.95 20.8 99.9 Q20.5 97.75 20.5 95.5 L20.85 95.45 Q21.6 90.25 20.5 86.6 L20.5 85.95 20.5 84.05 Q22.4 69.45 30.2 60.7 30.35 60.5 30.7 60.5 L30.6 61.15 Q28.9 67.0 28.15 73.9 L28.5 74.0 Q29.7 76.45 31.3 78.35 L31.3 78.95 31.3 85.35 31.2 85.9 27.5 91.7 Q30.35 92.1 31.9 98.7 L31.95 99.35 Q37.3 102.6 40.45 108.1 L40.85 108.25 Q41.5 108.9 41.8 110.05 L42.15 110.15 45.8 114.7 45.95 115.25 Q47.3 116.7 45.75 117.25 39.8 119.35 43.4 123.5 L43.4 124.15 Q43.1 131.55 35.75 134.95 40.15 138.75 49.15 138.45 52.05 138.4 53.6 140.05 54.2 138.4 56.0 134.9 L56.15 134.3 Q60.6 131.25 64.45 127.6 M28.15 122.25 L27.7 121.55 27.5 120.95 Q25.7 122.35 23.05 126.7 L23.15 127.05 Q28.15 128.9 28.15 122.25" fill="#6a7c56" fill-opacity="0.99607843" fill-rule="evenodd" stroke="none"/>
    <path d="M13.5 14.7 L13.5 14.1 13.5 13.45 Q15.1 12.2 16.3 10.4 16.35 10.25 16.7 10.25 L16.55 10.85 Q15.55 13.25 13.5 14.7" fill="#1a1a17" fill-opacity="0.90588236" fill-rule="evenodd" stroke="none"/>
    <path d="M7.8 23.65 L7.8 23.0 13.1 14.85 Q13.2 14.7 13.5 14.7 L13.35 15.3 7.8 24.9 7.8 24.25 7.8 23.65" fill="#1d1d19" fill-opacity="0.88235295" fill-rule="evenodd" stroke="none"/>
    <path d="M0.8 39.55 L0.8 38.9 0.8 38.25 7.4 23.75 7.8 23.65 7.8 24.25 7.8 24.9 7.65 25.45 Q3.95 32.85 0.8 40.8 L0.8 40.15 0.8 39.55" fill="#161613" fill-opacity="0.8235294" fill-rule="evenodd" stroke="none"/>
    <path d="M-2.4 50.35 L-2.4 49.7 -2.4 47.8 Q-0.45 44.35 0.45 39.6 L0.8 39.55 0.8 40.15 0.8 40.8 0.7 41.45 Q0.1 44.55 -1.1 47.15 L-1.1 49.05 -1.1 49.7 -1.75 49.7 -1.75 51.0 -1.75 51.6 -2.4 51.6 -2.4 51.0 -2.4 50.35" fill="#14140b" fill-opacity="0.8" fill-rule="evenodd" stroke="none"/>
    <path d="M30.7 60.5 Q33.95 62.5 32.4 67.85 31.3 71.65 32.8 74.4 33.2 75.15 33.25 76.45 35.55 89.4 39.5 100.65 L39.6 101.25 38.95 101.25 Q39.5 104.8 40.75 107.65 L40.85 108.25 40.45 108.1 Q37.3 102.6 31.95 99.35 L31.9 98.7 Q30.35 92.1 27.5 91.7 L31.2 85.9 31.3 85.35 31.3 78.95 31.3 78.35 Q29.7 76.45 28.5 74.0 L28.15 73.9 Q28.9 67.0 30.6 61.15 L30.7 60.5 M30.75 90.9 L32.0 91.45 32.55 92.3 Q35.2 90.35 30.05 90.4 L30.75 90.9" fill="#3c4d27" fill-rule="evenodd" stroke="none"/>
    <path d="M0.15 58.0 Q2.8 60.75 5.25 60.55 L4.5 60.9 Q2.0 62.05 0.8 64.35 L0.85 63.75 Q1.65 61.15 0.15 58.6 L0.15 58.0" fill="#a2a052" fill-rule="evenodd" stroke="none"/>
    <path d="M-1.1 55.45 Q-0.8 56.7 0.0 57.5 L0.15 58.0 0.15 58.6 -0.35 58.45 Q-2.4 56.5 -3.65 59.25 L-3.65 58.6 -3.65 56.7 Q-2.25 55.25 -2.4 52.25 L-2.4 51.6 -1.75 51.6 -1.45 55.4 -1.1 55.45" fill="#898634" fill-opacity="0.99215686" fill-rule="evenodd" stroke="none"/>
    <path d="M0.8 64.35 L0.7 64.95 Q0.25 66.35 -1.1 66.9 -1.1 66.55 -1.25 66.35 -2.55 64.5 -4.3 65.6 L-4.3 65.0 -4.3 61.15 Q-3.25 61.25 -3.6 59.85 L-3.65 59.25 Q-2.4 56.5 -0.35 58.45 L0.15 58.6 Q1.65 61.15 0.85 63.75 L0.8 64.35" fill="#edecc8" fill-opacity="0.99607843" fill-rule="evenodd" stroke="none"/>
    <path d="M2.05 94.85 L1.4 94.9 Q-0.3 95.0 -0.5 93.6 1.9 93.15 2.85 94.1 L3.35 94.25 3.2 94.6 2.05 94.85" fill="#d9d8a9" fill-rule="evenodd" stroke="none"/>
    <path d="M-0.5 93.6 Q-0.3 95.0 1.4 94.9 L2.05 94.85 1.95 95.25 Q-0.65 96.5 -1.75 93.6 L-1.1 93.6 -0.5 93.6" fill="#aeab64" fill-rule="evenodd" stroke="none"/>
    <path d="M3.35 94.25 L2.85 94.1 Q1.9 93.15 -0.5 93.6 L-1.1 93.6 -1.75 93.6 Q-1.75 93.3 -1.9 93.05 L-2.4 92.35 4.6 93.0 5.25 92.95 5.25 93.6 4.6 93.6 3.35 93.6 3.35 94.25" fill="#9a9845" fill-rule="evenodd" stroke="none"/>
    <path d="M5.25 93.6 L5.25 92.95 5.25 92.35 Q12.05 91.05 5.85 93.5 L5.25 93.6" fill="#b7b573" fill-rule="evenodd" stroke="none"/>
    <path d="M20.5 95.5 L20.5 94.85 20.5 86.6 Q21.6 90.25 20.85 95.45 L20.5 95.5" fill="#32372a" fill-rule="evenodd" stroke="none"/>
    <path d="M30.75 90.9 L30.05 90.4 Q35.2 90.35 32.55 92.3 L32.0 91.45 30.75 90.9" fill="#6b7d57" fill-rule="evenodd" stroke="none"/>
    <path d="M63.5 126.3 L64.45 127.6 Q60.6 131.25 56.15 134.3 L56.0 134.9 Q54.2 138.4 53.6 140.05 52.05 138.4 49.15 138.45 40.15 138.75 35.75 134.95 43.1 131.55 43.4 124.15 L43.4 123.5 Q39.8 119.35 45.75 117.25 47.3 116.7 45.95 115.25 L46.45 115.05 46.6 114.6 Q47.65 115.75 48.15 117.7 L48.5 117.8 48.55 118.4 Q48.95 121.1 47.85 122.25 L47.85 120.95 47.85 120.3 45.95 125.4 Q45.95 126.35 46.25 127.2 L46.6 127.3 46.45 127.85 Q45.5 129.4 44.7 131.15 L44.7 130.8 Q44.05 130.8 43.4 131.15 42.45 138.95 46.25 134.95 L45.95 134.95 45.95 134.3 Q48.3 133.5 50.25 132.2 L50.4 131.75 Q58.15 130.25 63.5 126.3" fill="#3a4a26" fill-rule="evenodd" stroke="none"/>
    <path d="M72.05 138.3 L74.45 141.75 71.4 143.85 71.4 144.5 70.8 144.6 Q67.05 145.9 65.65 149.6 65.65 150.55 65.95 151.4 L66.3 151.5 66.35 152.1 Q66.75 153.85 65.65 154.05 L65.75 153.4 Q66.05 152.05 65.05 152.15 65.05 154.65 65.35 157.2 L65.65 157.2 65.7 157.85 Q66.05 163.6 63.75 166.75 L63.75 166.45 Q62.4 169.2 58.05 169.3 L58.75 169.8 59.3 169.95 59.2 170.3 51.65 172.5 51.65 171.85 Q51.55 170.65 49.15 173.1 L49.15 173.75 49.0 174.15 Q44.6 176.2 40.85 178.85 L40.85 178.55 Q37.95 181.0 31.95 180.75 L31.4 180.6 Q28.8 178.8 25.6 177.55 L25.45 177.05 Q23.45 174.65 20.5 173.1 L20.4 172.75 Q16.4 171.5 16.7 166.1 17.25 160.55 20.5 164.55 L20.5 164.2 Q21.6 164.4 22.15 165.25 L22.75 166.15 Q22.05 160.45 16.05 155.3 L16.35 155.3 15.55 155.05 13.85 154.6 3.95 154.05 3.4 153.9 Q1.65 153.15 0.8 151.5 L0.65 151.0 Q-1.35 148.55 -4.3 147.05 L-4.8 146.9 -4.95 146.4 -4.95 145.75 -4.95 145.15 Q-3.5 146.55 -1.2 147.3 L-1.1 147.65 Q8.65 149.4 20.5 148.8 21.55 148.75 21.15 147.05 20.95 140.7 23.9 145.0 L24.3 145.15 Q26.55 150.85 27.45 157.85 L27.5 158.5 33.95 162.15 34.5 162.3 Q40.55 162.0 44.75 159.9 L45.3 159.75 Q47.85 156.25 50.0 152.25 L50.4 152.15 61.85 153.35 62.5 153.4 Q64.6 147.35 65.35 142.65 L65.65 142.6 72.05 138.3" fill="#344521" fill-opacity="0.99607843" fill-rule="evenodd" stroke="none"/>
    <path d="M42.15 109.5 Q45.05 111.0 46.45 114.0 L46.6 114.6 46.45 115.05 45.95 115.25 45.8 114.7 42.15 110.15 42.15 109.5" fill="#252a17" fill-rule="evenodd" stroke="none"/>
    <path d="M39.6 101.25 Q40.7 105.2 42.05 108.9 L42.15 109.5 42.15 110.15 41.8 110.05 Q41.5 108.9 40.85 108.25 L40.75 107.65 Q39.5 104.8 38.95 101.25 L39.6 101.25" fill="#202514" fill-rule="evenodd" stroke="none"/>
    <path d="M33.25 76.45 Q39.5 98.15 48.35 117.2 L48.5 117.8 48.15 117.7 Q47.65 115.75 46.6 114.6 L46.45 114.0 Q45.05 111.0 42.15 109.5 L42.05 108.9 Q40.7 105.2 39.6 101.25 L39.5 100.65 Q35.55 89.4 33.25 76.45" fill="#c1bf7a" fill-rule="evenodd" stroke="none"/>
    <path d="M47.85 122.25 L47.85 122.85 Q47.85 125.4 46.6 126.7 L46.6 127.3 46.25 127.2 Q45.95 126.35 45.95 125.4 L47.85 120.3 47.85 120.95 47.85 122.25" fill="#13160c" fill-rule="evenodd" stroke="none"/>
    <path d="M48.5 117.8 Q50.85 122.95 50.4 131.15 L50.4 131.75 50.25 132.2 Q48.3 133.5 45.95 134.3 L45.95 134.95 Q45.65 134.95 45.4 135.1 43.45 136.2 44.05 132.4 L44.55 131.7 44.7 131.15 Q45.5 129.4 46.45 127.85 L46.6 127.3 46.6 126.7 Q47.85 125.4 47.85 122.85 L47.85 122.25 Q48.95 121.1 48.55 118.4 L48.5 117.8" fill="#c2c07a" fill-rule="evenodd" stroke="none"/>
    <path d="M44.7 131.15 L44.55 131.7 44.05 132.4 Q43.45 136.2 45.4 135.1 45.65 134.95 45.95 134.95 L46.25 134.95 Q42.45 138.95 43.4 131.15 44.05 130.8 44.7 130.8 L44.7 131.15" fill="#11140b" fill-rule="evenodd" stroke="none"/>
    <path d="M74.45 141.75 L74.6 142.0 74.4 142.45 71.4 145.15 71.4 144.5 71.4 143.85 74.45 141.75" fill="#1d1d12" fill-rule="evenodd" stroke="none"/>
    <path d="M71.4 145.15 L71.35 145.45 Q67.9 146.1 66.95 148.95 L66.95 149.6 66.95 150.2 66.3 150.2 66.3 150.85 66.3 151.5 65.95 151.4 Q65.65 150.55 65.65 149.6 67.05 145.9 70.8 144.6 L71.4 144.5 71.4 145.15" fill="#12140c" fill-rule="evenodd" stroke="none"/>
    <path d="M27.5 115.25 L27.45 114.6 Q25.75 108.05 21.8 103.8 L21.8 103.15 24.8 105.85 24.95 106.3 29.45 108.1 30.05 108.25 Q29.6 112.9 27.5 115.55 L27.5 115.25" fill="#364325" fill-rule="evenodd" stroke="none"/>
    <path d="M21.15 102.5 L21.15 101.85 21.15 99.95 21.15 99.35 21.15 96.15 Q22.25 98.55 21.45 102.45 L21.15 102.5" fill="#313729" fill-rule="evenodd" stroke="none"/>
    <path d="M19.85 126.05 L19.85 125.4 22.25 122.75 22.4 122.25 22.75 122.25 Q21.9 126.15 19.85 126.05" fill="#303528" fill-rule="evenodd" stroke="none"/>
    <path d="M28.15 122.25 Q28.15 128.9 23.15 127.05 L23.05 126.7 Q25.7 122.35 27.5 120.95 L27.7 121.55 28.15 122.25" fill="#3f5328" fill-rule="evenodd" stroke="none"/>
    <path d="M1.4 134.3 L1.05 134.2 Q0.0 131.6 -2.4 130.5 L-2.45 129.85 Q-3.1 125.45 -3.05 120.3 -0.6 126.8 1.35 133.7 L1.4 134.3" fill="#3e5127" fill-rule="evenodd" stroke="none"/>
    <path d="M4.6 136.2 L4.6 136.55 Q2.2 136.35 1.4 134.3 L1.35 133.7 Q-0.6 126.8 -3.05 120.3 L-3.05 119.7 Q-3.25 116.7 -4.3 114.6 L-4.3 113.95 -4.3 112.7 -3.65 112.7 Q-0.75 125.35 4.25 136.1 L4.6 136.2" fill="#222617" fill-opacity="0.972549" fill-rule="evenodd" stroke="none"/>
    <path d="M20.5 173.1 L19.9 173.05 Q16.3 171.9 15.4 168.05 16.5 167.55 16.35 165.5 L16.7 165.5 16.7 166.1 Q16.4 171.5 20.4 172.75 L20.5 173.1" fill="#050804" fill-opacity="0.77254903" fill-rule="evenodd" stroke="none"/>
    <path d="M16.7 165.5 L16.7 164.85 Q16.65 159.65 14.3 156.8 L20.35 163.7 20.5 164.2 20.5 164.55 Q17.25 160.55 16.7 166.1 L16.7 165.5" fill="#0c0e08" fill-opacity="0.9137255" fill-rule="evenodd" stroke="none"/>
    <path d="M14.3 156.8 L14.15 156.6 14.05 156.0 13.5 154.65 13.85 154.6 15.55 155.05 15.65 155.2 16.05 155.3 Q22.05 160.45 22.75 166.15 L22.15 165.25 Q21.6 164.4 20.5 164.2 L20.35 163.7 14.3 156.8" fill="#bdbb77" fill-opacity="0.99607843" fill-rule="evenodd" stroke="none"/>
    <path d="M14.15 156.6 L13.55 156.45 Q9.2 154.85 3.95 154.05 L13.85 154.6 13.5 154.65 14.05 156.0 14.15 156.6 M15.55 155.05 L16.35 155.3 16.05 155.3 15.65 155.2 15.55 155.05" fill="#0f130b" fill-opacity="0.827451" fill-rule="evenodd" stroke="none"/>
    <path d="M0.8 151.5 L0.25 151.35 Q-2.5 149.65 -4.3 147.05 -1.35 148.55 0.65 151.0 L0.8 151.5" fill="#060803" fill-opacity="0.81960785" fill-rule="evenodd" stroke="none"/>
    <path d="M40.85 181.4 L40.25 181.3 Q36.8 180.5 32.6 182.05 L32.5 181.7 Q27.8 180.45 24.95 177.55 L25.6 177.55 Q28.8 178.8 31.4 180.6 L31.95 180.75 Q37.95 181.0 40.85 178.55 L40.85 178.85 40.7 179.3 40.2 179.5 40.4 179.95 40.85 180.1 40.85 180.75 40.85 181.4" fill="#060804" fill-opacity="0.88235295" fill-rule="evenodd" stroke="none"/>
    <path d="M24.95 177.55 L24.5 177.4 20.5 173.1 Q23.45 174.65 25.45 177.05 L25.6 177.55 24.95 177.55" fill="#070a05" fill-opacity="0.9411765" fill-rule="evenodd" stroke="none"/>
    <path d="M66.3 151.5 L66.3 150.85 66.3 150.2 66.95 150.2 67.0 150.85 Q68.6 158.2 65.65 156.6 L65.65 155.95 65.65 154.05 Q66.75 153.85 66.35 152.1 L66.3 151.5" fill="#757226" fill-rule="evenodd" stroke="none"/>
    <path d="M65.65 156.6 L65.65 157.2 65.35 157.2 Q65.05 154.65 65.05 152.15 66.05 152.05 65.75 153.4 L65.65 154.05 65.65 155.95 65.65 156.6" fill="#070904" fill-rule="evenodd" stroke="none"/>
    <path d="M63.75 166.75 L63.65 167.35 Q62.7 169.85 59.3 169.95 L58.75 169.8 58.05 169.3 Q62.4 169.2 63.75 166.45 L63.75 166.75" fill="#1d1f12" fill-rule="evenodd" stroke="none"/>
    <path d="M51.65 172.5 L51.55 172.85 49.15 173.75 49.15 173.1 Q51.55 170.65 51.65 171.85 L51.65 172.5" fill="#1a2011" fill-rule="evenodd" stroke="none"/>
    <path d="M56.75 185.85 L56.15 185.9 Q53.45 186.3 52.3 185.2 L52.3 184.55 Q54.1 185.3 56.75 185.5 L56.75 185.85" fill="#2b2b1b" fill-opacity="0.84705883" fill-rule="evenodd" stroke="none"/>
    <path d="M52.3 185.2 L51.7 185.15 Q45.7 183.85 40.85 181.4 L40.85 180.75 40.85 180.1 Q45.85 182.75 51.7 184.5 L52.3 184.55 52.3 185.2" fill="#1a1910" fill-opacity="0.8352941" fill-rule="evenodd" stroke="none"/>
    <path d="M58.65 186.5 L58.05 186.55 Q56.7 186.9 56.75 185.85 L62.45 186.15 62.5 186.5 61.85 186.5 58.65 186.5" fill="#373622" fill-opacity="0.8862745" fill-rule="evenodd" stroke="none"/>
    <path d="M70.75 186.5 L70.75 187.1 70.1 187.1 58.65 187.1 58.65 186.5 61.85 186.5 62.5 186.5 66.95 186.5 67.6 186.5 70.1 186.5 70.75 186.5" fill="#000000" fill-opacity="0.7176471" fill-rule="evenodd" stroke="none"/>
    <path d="M80.95 183.3 Q80.3 182.65 80.25 182.0 L80.05 180.45 Q78.2 185.8 77.75 181.4 80.05 175.15 81.5 182.65 L81.55 183.3 80.95 183.3" fill="#7f7b2a" fill-rule="evenodd" stroke="none"/>
    <path d="M83.5 183.3 L83.35 183.65 Q78.0 186.1 70.75 186.5 L70.1 186.5 67.6 186.5 67.6 185.85 Q75.05 185.7 80.85 183.65 L80.95 183.3 81.55 183.3 82.2 183.3 82.85 183.3 83.5 183.3" fill="#1f1e12" fill-opacity="0.8235294" fill-rule="evenodd" stroke="none"/>
    <path d="M84.95 181.95 L85.0 182.8 83.5 183.3 82.85 183.3 82.85 182.65 84.95 181.95" fill="#16160d" fill-opacity="0.87058824" fill-rule="evenodd" stroke="none"/>
    <path d="M-1.1 49.7 L-1.1 54.8 -1.1 55.45 -1.45 55.4 -1.75 51.6 -1.75 51.0 -1.75 49.7 -1.1 49.7" fill="#b1ae6a" fill-rule="evenodd" stroke="none"/>
    <path d="M-3.65 56.05 L-3.65 55.45 -3.65 52.9 Q-2.6 52.4 -2.7 50.35 L-2.4 50.35 -2.4 51.0 -2.4 51.6 -2.4 52.25 Q-2.25 55.25 -3.65 56.7 L-3.65 56.05" fill="#100f05" fill-opacity="0.78431374" fill-rule="evenodd" stroke="none"/>
    <path d="M-4.95 61.15 L-4.95 60.5 -4.95 59.25 Q-3.85 58.45 -4.0 56.05 L-3.65 56.05 -3.65 56.7 -3.65 58.6 -3.65 59.25 -3.6 59.85 Q-3.25 61.25 -4.3 61.15 L-4.95 61.15" fill="#181812" fill-opacity="0.76862746" fill-rule="evenodd" stroke="none"/>
    <path d="M-5.6 65.6 L-5.6 65.0 -5.6 63.05 Q-4.55 63.15 -4.85 61.8 L-4.95 61.15 -4.3 61.15 -4.3 65.0 -4.3 65.6 -4.95 65.6 -5.6 65.6" fill="#2d2c27" fill-opacity="0.8117647" fill-rule="evenodd" stroke="none"/>
    <path d="M-1.1 66.9 L-1.3 67.35 -2.4 68.15 -2.95 68.3 Q-3.7 68.75 -4.95 68.8 L-4.95 68.15 -4.95 65.6 -4.3 65.6 Q-2.55 64.5 -1.25 66.35 -1.1 66.55 -1.1 66.9" fill="#ebeac6" fill-rule="evenodd" stroke="none"/>
    <path d="M-5.6 70.05 L-5.6 69.45 -5.6 65.6 -4.95 65.6 -4.95 68.15 -4.95 68.8 -4.95 70.05 -4.95 70.7 -5.1 71.2 -5.6 71.35 -5.6 70.7 -5.6 70.05" fill="#3b3a21" fill-opacity="0.89411765" fill-rule="evenodd" stroke="none"/>
    <path d="M-6.2 73.9 L-6.2 73.25 -6.2 70.05 -5.6 70.05 -5.6 70.7 -5.6 71.35 -5.6 76.45 -5.6 77.05 -6.2 77.05 -6.2 76.45 -6.2 73.9" fill="#2b2b24" fill-opacity="0.85882354" fill-rule="evenodd" stroke="none"/>
    <path d="M-6.2 97.4 L-6.15 96.8 Q-5.8 95.45 -6.85 95.5 L-6.85 94.85 -6.85 73.9 -6.2 73.9 -6.2 76.45 -6.2 77.05 -6.2 83.4 -6.2 84.05 -6.2 88.5 -6.2 89.15 -5.9 94.2 -5.6 94.25 -5.6 96.8 -5.6 97.4 -6.2 97.4" fill="#10100c" fill-opacity="0.80784315" fill-rule="evenodd" stroke="none"/>
    <path d="M-2.4 68.15 L-2.55 68.65 -4.95 70.7 -4.95 70.05 -4.95 68.8 Q-3.7 68.75 -2.95 68.3 L-2.4 68.15" fill="#a6a358" fill-rule="evenodd" stroke="none"/>
    <path d="M-5.6 77.05 L-5.6 83.4 -5.6 84.05 -6.2 84.05 -6.2 83.4 -6.2 77.05 -5.6 77.05" fill="#a3a17a" fill-opacity="0.9647059" fill-rule="evenodd" stroke="none"/>
    <path d="M-5.6 84.05 Q-5.05 90.55 -3.35 92.0 L-3.5 92.1 Q-4.6 92.6 -5.6 91.7 L-5.5 91.05 Q-5.15 89.35 -6.2 89.15 L-6.2 88.5 -6.2 84.05 -5.6 84.05" fill="#949141" fill-rule="evenodd" stroke="none"/>
    <path d="M-5.6 91.7 L-5.6 93.6 -5.6 94.25 -5.9 94.2 -6.2 89.15 Q-5.15 89.35 -5.5 91.05 L-5.6 91.7" fill="#706f42" fill-opacity="0.93333334" fill-rule="evenodd" stroke="none"/>
    <path d="M-5.6 102.5 L-5.9 102.45 -6.2 97.4 -5.6 97.4 -5.6 101.25 -5.6 101.85 -5.6 102.5" fill="#060605" fill-opacity="0.7490196" fill-rule="evenodd" stroke="none"/>
    <path d="M-4.95 107.6 L-5.25 107.55 -5.6 102.5 -5.6 101.85 Q-4.5 102.7 -4.9 105.05 L-4.95 105.7 -4.95 106.95 -4.95 107.6" fill="#0e0e0b" fill-opacity="0.7490196" fill-rule="evenodd" stroke="none"/>
    <path d="M-4.95 109.5 L-4.95 108.85 -4.95 107.6 -4.95 106.95 -4.95 105.7 -4.45 106.4 -4.3 106.95 Q-4.2 108.75 -3.75 110.15 L-3.65 110.8 -4.0 110.8 Q-3.9 109.45 -4.95 109.5" fill="#353421" fill-opacity="0.8784314" fill-rule="evenodd" stroke="none"/>
    <path d="M-5.6 122.85 L-5.6 122.25 -5.6 119.05 Q-4.3 114.15 -4.9 110.15 L-4.95 109.5 Q-3.9 109.45 -4.0 110.8 L-3.65 110.8 -3.65 112.05 -3.65 112.7 -4.3 112.7 -4.3 113.95 -4.3 114.6 -4.3 115.25 Q-4.05 119.9 -5.6 122.85" fill="#171b12" fill-opacity="0.7764706" fill-rule="evenodd" stroke="none"/>
    <path d="M-5.6 127.95 L-5.9 127.9 -6.2 122.85 -5.6 122.85 -5.6 126.05 -5.6 126.7 -5.6 127.3 -5.6 127.95" fill="#050604" fill-opacity="0.7058824" fill-rule="evenodd" stroke="none"/>
    <path d="M-5.6 140.05 L-5.6 139.4 -5.6 127.95 -5.6 127.3 -5.6 126.7 Q-4.15 131.75 -4.9 139.4 L-4.95 140.05 -5.6 140.05" fill="#21261a" fill-opacity="0.89411765" fill-rule="evenodd" stroke="none"/>
    <path d="M-4.95 146.4 L-5.25 146.4 Q-5.05 142.5 -5.6 140.05 L-4.95 140.05 Q-3.6 142.25 -4.8 144.55 L-4.95 145.15 -4.95 145.75 -4.95 146.4" fill="#151911" fill-opacity="0.80784315" fill-rule="evenodd" stroke="none"/>
  </g>
</svg>
