<?xml version="1.0" encoding="UTF-8" standalone="no"?>
<svg xmlns:xlink="http://www.w3.org/1999/xlink" height="199.25px" width="78.9px" xmlns="http://www.w3.org/2000/svg">
  <g transform="matrix(1.0, 0.0, 0.0, 1.0, 9.0, 11.95)">
    <path d="M2.5 -11.95 L5.05 -11.95 5.65 -11.95 Q17.95 -9.25 27.15 -3.45 L27.3 -3.05 26.65 -3.05 26.1 -3.2 Q20.05 -6.95 12.65 -9.4 L12.05 -9.4 11.4 -9.4 10.8 -9.5 Q7.2 -10.95 2.5 -11.3 L2.5 -11.95" fill="#1e1e19" fill-opacity="0.8509804" fill-rule="evenodd" stroke="none"/>
    <path d="M2.5 -11.3 Q7.2 -10.95 10.8 -9.5 L11.4 -9.4 Q13.25 -5.55 15.45 -1.9 15.55 -1.75 15.85 -1.75 23.5 -2.65 25.45 2.85 L25.4 2.7 Q23.7 -1.25 27.3 -1.75 L27.95 -1.75 31.2 0.0 31.75 0.15 37.6 5.7 38.1 5.85 40.8 8.9 41.3 9.05 Q43.05 14.3 43.8 20.5 L43.85 21.15 43.5 21.15 Q43.5 23.95 41.95 24.95 L41.95 25.6 Q41.6 25.6 41.45 25.75 40.65 26.5 39.4 26.85 L38.95 26.7 Q38.05 25.65 36.2 25.6 38.9 27.0 38.75 31.3 L38.75 31.95 38.45 31.95 Q38.2 34.85 36.2 35.75 L36.2 36.4 36.05 36.9 Q33.55 39.45 31.75 42.75 34.15 41.65 36.7 37.6 L36.85 37.05 Q37.9 35.2 39.2 33.7 L39.4 33.2 39.4 32.6 Q41.65 31.35 42.45 28.75 L42.55 28.15 43.85 25.25 43.85 25.6 43.85 26.2 Q44.0 45.15 36.2 56.1 35.85 61.95 39.25 57.3 L39.4 56.75 39.4 56.1 40.1 55.6 40.65 55.5 Q49.2 50.05 54.65 41.8 L54.65 42.1 Q58.35 48.3 57.75 59.35 56.85 76.15 55.3 91.75 L54.65 91.7 Q52.15 91.45 50.85 92.4 53.35 91.9 55.15 93.8 L55.3 94.3 55.15 94.85 53.4 97.45 53.4 98.1 Q53.05 98.1 52.95 98.25 49.05 104.3 44.45 109.55 46.0 110.1 49.2 105.95 51.5 102.9 53.4 99.35 L53.7 99.35 Q46.6 141.4 14.45 158.7 L14.0 156.0 10.65 151.05 Q16.55 138.75 24.0 127.95 26.85 123.75 26.65 116.55 L26.75 115.95 Q28.1 110.25 24.1 107.0 L24.0 106.65 Q22.7 106.2 22.85 104.45 L22.85 103.85 Q23.15 99.7 20.3 98.75 L20.15 98.3 Q19.2 97.6 19.65 95.55 L19.65 95.25 Q16.95 95.35 15.85 97.45 L15.85 98.1 15.7 98.6 13.95 100.0 13.95 101.3 13.95 101.9 14.05 102.5 Q17.5 110.0 12.05 114.0 L12.05 114.65 Q11.7 114.65 11.6 114.8 8.95 117.9 5.65 120.35 L5.65 121.0 5.5 121.5 3.1 123.55 3.1 124.2 Q2.8 124.2 2.7 124.35 0.15 128.15 -3.5 130.8 L-9.0 123.5 -2.0 119.0 Q1.1 115.1 3.0 111.0 L-1.0 104.0 Q-1.95 97.85 -6.5 94.5 L-5.0 89.5 -3.5 89.0 Q-2.35 84.65 -2.1 80.45 -0.95 60.8 -0.5 43.0 L-0.5 42.5 Q7.3 42.15 11.5 38.0 10.35 33.45 8.0 30.5 4.65 29.1 2.5 26.0 -0.3 24.7 -2.0 23.0 1.8 17.4 5.5 9.5 -1.05 6.95 -5.0 2.5 -3.4 0.55 -1.5 0.0 L-1.2 -0.1 1.5 -7.0 Q1.4 -9.45 0.0 -10.5 L0.0 -11.3 1.85 -11.3 2.5 -11.3 M42.55 113.35 L42.55 117.2 42.55 118.15 Q44.1 117.75 42.55 113.35 M41.25 127.4 L41.3 127.0 Q40.05 124.1 39.4 131.2 40.65 134.3 41.25 127.4" fill="#f4f3d3" fill-opacity="0.99607843" fill-rule="evenodd" stroke="none"/>
    <path d="M11.4 -9.4 L12.05 -9.4 12.65 -9.4 Q13.45 -6.4 15.7 -4.75 L15.85 -4.3 Q20.65 -2.8 26.65 -2.75 L26.65 -3.05 27.3 -3.05 27.8 -2.35 27.95 -1.75 27.3 -1.75 Q23.7 -1.25 25.4 2.7 L25.45 2.85 Q23.5 -2.65 15.85 -1.75 15.55 -1.75 15.45 -1.9 13.25 -5.55 11.4 -9.4" fill="#9c9949" fill-opacity="0.99607843" fill-rule="evenodd" stroke="none"/>
    <path d="M2.5 -11.95 L2.5 -11.3 1.85 -11.3 0.0 -11.3 0.0 -11.95 1.85 -11.95 2.5 -11.95" fill="#2c2c26" fill-opacity="0.8392157" fill-rule="evenodd" stroke="none"/>
    <path d="M12.65 -9.4 Q20.05 -6.95 26.1 -3.2 L26.65 -3.05 26.65 -2.75 Q20.65 -2.8 15.85 -4.3 L15.7 -4.75 Q13.45 -6.4 12.65 -9.4" fill="#edeccb" fill-opacity="0.99607843" fill-rule="evenodd" stroke="none"/>
    <path d="M27.3 -3.05 Q30.0 -1.4 34.3 -2.1 L34.3 -1.75 33.65 -1.8 Q31.95 -1.9 31.1 -1.15 L31.6 -0.45 31.75 0.15 31.2 0.0 27.95 -1.75 27.8 -2.35 27.3 -3.05" fill="#141510" fill-opacity="0.8784314" fill-rule="evenodd" stroke="none"/>
    <path d="M34.3 -1.75 Q35.9 -0.85 38.1 -0.55 L38.75 -0.5 Q43.4 0.9 47.7 2.55 L48.3 2.7 51.0 5.7 51.45 5.85 52.4 8.95 52.75 9.05 Q54.3 19.45 54.95 28.75 L55.3 28.75 55.3 29.4 54.95 29.4 Q55.0 33.85 53.4 36.4 L53.4 36.1 Q51.9 38.1 49.55 42.75 L49.7 43.25 50.2 43.4 50.05 43.9 41.3 53.55 Q40.95 53.55 40.9 53.7 40.1 54.95 38.75 55.5 L39.0 56.65 39.4 56.75 39.25 57.3 Q35.85 61.95 36.2 56.1 44.0 45.15 43.85 26.2 L43.85 25.6 44.45 25.6 44.45 25.9 Q46.05 23.35 44.45 20.5 L44.45 23.05 44.45 23.65 44.15 23.6 Q43.85 22.4 43.85 21.15 L43.8 20.5 Q43.05 14.3 41.3 9.05 L41.2 8.45 Q40.45 6.7 38.75 5.85 L38.6 5.35 Q35.85 2.1 31.75 0.15 L31.6 -0.45 31.1 -1.15 Q31.95 -1.9 33.65 -1.8 L34.3 -1.75" fill="#5b6c47" fill-opacity="0.99607843" fill-rule="evenodd" stroke="none"/>
    <path d="M38.75 -0.5 Q44.6 0.0 48.8 2.3 L48.9 2.7 48.3 2.7 47.7 2.55 Q43.4 0.9 38.75 -0.5" fill="#0c0e09" fill-opacity="0.88235295" fill-rule="evenodd" stroke="none"/>
    <path d="M48.9 2.7 Q50.6 3.55 51.35 5.3 L51.45 5.85 51.0 5.7 48.3 2.7 48.9 2.7" fill="#13160f" fill-opacity="0.85882354" fill-rule="evenodd" stroke="none"/>
    <path d="M55.3 28.75 Q65.35 46.05 68.6 70.1 L68.65 70.75 68.0 70.75 67.95 70.1 Q64.0 47.4 55.3 29.4 L55.3 28.75" fill="#1a1a10" fill-opacity="0.83137256" fill-rule="evenodd" stroke="none"/>
    <path d="M40.0 171.25 L39.85 171.75 38.1 173.15 Q37.8 173.15 37.65 173.3 29.9 182.0 17.95 186.45 16.6 172.3 14.45 158.7 46.6 141.4 53.7 99.35 L53.4 99.35 53.4 98.75 57.7 96.0 57.85 95.55 Q61.55 93.25 64.65 90.3 L64.85 89.85 64.35 90.0 Q61.85 92.3 56.55 91.75 L55.9 91.75 55.3 91.75 Q56.85 76.15 57.75 59.35 58.35 48.3 54.65 42.1 L54.65 41.8 Q49.2 50.05 40.65 55.5 L40.65 54.85 41.15 54.15 41.3 53.55 50.05 43.9 50.2 43.4 Q52.25 40.7 53.3 37.0 L53.4 36.4 Q55.0 33.85 54.95 29.4 L55.3 29.4 Q64.0 47.4 67.95 70.1 L68.0 70.75 Q68.0 73.3 68.3 75.8 L68.65 75.85 68.65 80.95 68.65 81.55 68.35 81.6 Q68.05 87.0 64.85 89.2 L64.85 89.85 Q67.4 89.25 68.85 87.45 68.95 87.3 69.3 87.3 L69.3 87.9 Q69.75 93.8 68.65 98.1 L68.65 100.0 68.65 100.65 68.65 103.2 68.65 103.85 68.35 103.85 Q68.5 107.15 67.35 108.9 L67.35 109.55 67.35 110.2 67.45 110.8 Q67.85 113.2 66.75 114.0 L66.75 114.65 66.75 115.3 66.8 115.9 Q67.15 117.6 66.1 117.8 L66.1 119.75 66.1 120.35 65.8 120.35 Q65.75 123.8 64.2 125.45 L64.2 126.75 64.2 127.35 63.85 127.45 Q60.3 141.6 53.4 152.15 46.85 154.9 39.85 156.6 31.65 158.55 24.75 159.15 29.65 168.0 40.2 170.15 L40.0 171.25 M10.65 151.05 L10.35 150.6 7.6 146.5 7.6 146.45 Q9.6 144.35 11.25 141.9 L11.4 141.35 Q13.4 140.2 14.45 138.1 L14.55 137.55 Q22.9 129.65 26.3 116.65 L26.65 116.55 Q26.85 123.75 24.0 127.95 16.55 138.75 10.65 151.05" fill="#c7c47d" fill-opacity="0.99607843" fill-rule="evenodd" stroke="none"/>
    <path d="M52.75 9.05 Q56.05 16.55 55.3 28.15 L55.3 28.75 54.95 28.75 Q54.3 19.45 52.75 9.05" fill="#0f1309" fill-opacity="0.88235295" fill-rule="evenodd" stroke="none"/>
    <path d="M41.3 9.05 L40.8 8.9 38.1 5.85 38.75 5.85 Q40.45 6.7 41.2 8.45 L41.3 9.05" fill="#12130e" fill-opacity="0.9490196" fill-rule="evenodd" stroke="none"/>
    <path d="M38.1 5.85 L37.6 5.7 31.75 0.15 Q35.85 2.1 38.6 5.35 L38.75 5.85 38.1 5.85" fill="#151810" fill-opacity="0.96862745" fill-rule="evenodd" stroke="none"/>
    <path d="M43.85 25.6 L43.85 25.25 42.55 28.15 42.45 27.55 41.95 26.85 41.95 26.2 41.95 25.6 41.95 24.95 Q43.5 23.95 43.5 21.15 L43.85 21.15 Q43.85 22.4 44.15 23.6 L44.45 23.65 44.45 24.95 44.45 25.6 43.85 25.6" fill="#a6a45f" fill-rule="evenodd" stroke="none"/>
    <path d="M42.55 28.15 L42.45 28.75 Q41.65 31.35 39.4 32.6 L39.4 33.2 39.0 33.1 Q38.75 32.6 38.75 31.95 L38.75 31.3 Q38.9 27.0 36.2 25.6 38.05 25.65 38.95 26.7 L39.4 26.85 Q39.9 32.15 41.8 27.45 L41.95 26.85 42.45 27.55 42.55 28.15" fill="#989542" fill-rule="evenodd" stroke="none"/>
    <path d="M39.4 26.85 Q40.65 26.5 41.45 25.75 41.6 25.6 41.95 25.6 L41.95 26.2 41.95 26.85 41.8 27.45 Q39.9 32.15 39.4 26.85" fill="#e2e1b6" fill-rule="evenodd" stroke="none"/>
    <path d="M44.45 23.65 L44.45 23.05 44.45 20.5 Q46.05 23.35 44.45 25.9 L44.45 25.6 44.45 24.95 44.45 23.65" fill="#1b1f16" fill-rule="evenodd" stroke="none"/>
    <path d="M53.4 36.4 L53.3 37.0 Q52.25 40.7 50.2 43.4 L49.7 43.25 49.55 42.75 Q51.9 38.1 53.4 36.1 L53.4 36.4" fill="#2f321e" fill-rule="evenodd" stroke="none"/>
    <path d="M39.4 33.2 L39.2 33.7 Q37.9 35.2 36.85 37.05 L36.7 36.55 36.2 36.4 36.2 35.75 Q38.2 34.85 38.45 31.95 L38.75 31.95 Q38.75 32.6 39.0 33.1 L39.4 33.2" fill="#b3b06c" fill-rule="evenodd" stroke="none"/>
    <path d="M36.85 37.05 L36.7 37.6 Q34.15 41.65 31.75 42.75 33.55 39.45 36.05 36.9 L36.2 36.4 36.7 36.55 36.85 37.05 M53.4 98.1 L53.4 98.75 53.4 99.35 Q51.5 102.9 49.2 105.95 46.0 110.1 44.45 109.55 49.05 104.3 52.95 98.25 53.05 98.1 53.4 98.1" fill="#a09d4e" fill-rule="evenodd" stroke="none"/>
    <path d="M40.65 55.5 L40.1 55.6 39.4 56.1 39.4 56.75 39.0 56.65 38.75 55.5 Q40.1 54.95 40.9 53.7 40.95 53.55 41.3 53.55 L41.15 54.15 40.65 54.85 40.65 55.5" fill="#28301a" fill-rule="evenodd" stroke="none"/>
    <path d="M5.05 142.8 L-2.55 132.1 Q0.75 128.95 3.6 125.35 L3.75 124.8 Q8.0 123.5 6.1 121.15 L5.65 121.0 5.65 120.35 Q8.95 117.9 11.6 114.8 11.7 114.65 12.05 114.65 18.8 110.95 15.3 102.5 L15.2 101.9 15.2 101.3 15.2 100.0 Q16.6 99.8 16.2 98.2 L15.85 98.1 15.85 97.45 Q16.95 95.35 19.65 95.25 L19.65 95.55 19.05 95.55 Q19.7 102.85 23.05 107.5 L23.5 107.65 23.6 108.25 Q25.2 111.95 24.75 117.8 24.45 117.8 24.3 118.0 19.95 122.55 13.3 124.8 L13.2 125.4 Q12.1 128.05 10.1 129.9 10.1 130.25 10.25 130.5 11.8 134.05 10.75 138.8 10.45 138.8 10.25 138.95 L5.05 142.8" fill="#6a7c56" fill-opacity="0.99607843" fill-rule="evenodd" stroke="none"/>
    <path d="M15.2 101.9 L15.3 102.5 Q18.8 110.95 12.05 114.65 L12.05 114.0 Q17.5 110.0 14.05 102.5 L13.95 101.9 14.55 101.9 15.2 101.9" fill="#2e3423" fill-rule="evenodd" stroke="none"/>
    <path d="M15.85 98.1 L16.2 98.2 Q16.6 99.8 15.2 100.0 L15.2 101.3 15.2 101.9 14.55 101.9 13.95 101.9 13.95 101.3 13.95 100.0 15.7 98.6 15.85 98.1" fill="#292d22" fill-rule="evenodd" stroke="none"/>
    <path d="M19.65 95.55 Q19.2 97.6 20.15 98.3 L20.3 98.75 22.5 104.35 22.85 104.45 Q22.7 106.2 24.0 106.65 L24.1 107.0 23.95 107.5 23.5 107.65 23.05 107.5 Q19.7 102.85 19.05 95.55 L19.65 95.55" fill="#2e351f" fill-rule="evenodd" stroke="none"/>
    <path d="M53.4 98.75 L53.4 98.1 53.4 97.45 55.15 94.85 55.3 94.3 56.4 93.5 56.55 93.0 Q60.0 92.8 57.5 95.55 L57.85 95.55 57.7 96.0 53.4 98.75" fill="#928f3f" fill-rule="evenodd" stroke="none"/>
    <path d="M68.65 70.75 L68.65 72.65 68.65 73.3 68.65 75.2 68.65 75.85 68.3 75.8 Q68.0 73.3 68.0 70.75 L68.65 70.75" fill="#3c3b25" fill-opacity="0.88235295" fill-rule="evenodd" stroke="none"/>
    <path d="M68.65 73.3 Q69.75 76.0 69.6 80.3 L69.9 80.3 69.9 99.35 69.9 100.0 69.3 100.0 69.3 100.65 68.65 100.65 68.65 100.0 68.65 98.1 Q69.75 93.8 69.3 87.9 L69.3 87.3 69.3 86.65 Q69.65 83.45 68.65 81.55 L68.65 80.95 68.65 75.85 68.65 75.2 68.65 73.3" fill="#080703" fill-opacity="0.78431374" fill-rule="evenodd" stroke="none"/>
    <path d="M68.65 81.55 Q69.65 83.45 69.3 86.65 L69.3 87.3 Q68.95 87.3 68.85 87.45 67.4 89.25 64.85 89.85 L64.85 89.2 Q68.05 87.0 68.35 81.6 L68.65 81.55" fill="#736f24" fill-opacity="0.9882353" fill-rule="evenodd" stroke="none"/>
    <path d="M57.85 95.55 L57.5 95.55 Q60.0 92.8 56.55 93.0 L56.55 92.4 56.55 91.75 Q61.85 92.3 64.35 90.0 L64.85 89.85 64.65 90.3 Q61.55 93.25 57.85 95.55" fill="#7e7a29" fill-rule="evenodd" stroke="none"/>
    <path d="M56.55 93.0 L56.4 93.5 55.3 94.3 55.15 93.8 Q53.35 91.9 50.85 92.4 52.15 91.45 54.65 91.7 L55.3 91.75 55.9 91.75 56.55 91.75 56.55 92.4 56.55 93.0" fill="#b0ae67" fill-rule="evenodd" stroke="none"/>
    <path d="M69.3 100.65 L69.3 101.3 Q69.75 104.6 68.65 106.35 L68.65 105.75 68.65 103.85 68.65 103.2 68.65 100.65 69.3 100.65" fill="#060603" fill-opacity="0.75686276" fill-rule="evenodd" stroke="none"/>
    <path d="M-2.55 132.1 L-3.5 130.8 Q0.15 128.15 2.7 124.35 2.8 124.2 3.1 124.2 L3.3 124.65 3.75 124.8 3.6 125.35 Q0.75 128.95 -2.55 132.1" fill="#3a4a26" fill-rule="evenodd" stroke="none"/>
    <path d="M5.65 121.0 L6.1 121.15 Q8.0 123.5 3.75 124.8 L3.3 124.65 3.1 124.2 3.1 123.55 5.5 121.5 5.65 121.0" fill="#303824" fill-rule="evenodd" stroke="none"/>
    <path d="M7.45 146.25 L5.05 142.8 10.25 138.95 Q10.45 138.8 10.75 138.8 11.8 134.05 10.25 130.5 10.1 130.25 10.1 129.9 12.1 128.05 13.2 125.4 L13.3 124.8 Q19.95 122.55 24.3 118.0 24.45 117.8 24.75 117.8 25.2 111.95 23.6 108.25 L23.5 107.65 23.95 107.5 24.1 107.0 Q28.1 110.25 26.75 115.95 L26.65 116.55 26.3 116.65 Q22.9 129.65 14.55 137.55 14.25 137.55 14.15 137.7 13.1 139.25 11.4 140.1 L11.4 140.7 11.4 141.35 11.25 141.9 Q9.6 144.35 7.6 146.45 L7.6 146.15 7.45 146.25 M15.85 129.9 Q18.85 124.7 13.3 129.9 14.35 132.55 15.85 129.9" fill="#344521" fill-opacity="0.99607843" fill-rule="evenodd" stroke="none"/>
    <path d="M11.4 141.35 L11.4 140.7 11.4 140.1 Q13.1 139.25 14.15 137.7 14.25 137.55 14.55 137.55 L14.45 138.1 Q13.4 140.2 11.4 141.35" fill="#16190f" fill-rule="evenodd" stroke="none"/>
    <path d="M7.6 146.5 L7.45 146.25 7.6 146.15 7.6 146.45 7.6 146.5" fill="#1d1d12" fill-rule="evenodd" stroke="none"/>
    <path d="M68.65 106.35 L68.7 107.0 Q69.1 110.0 68.0 111.45 L67.9 110.9 67.35 110.2 67.35 109.55 67.35 108.9 Q68.5 107.15 68.35 103.85 L68.65 103.85 68.65 105.75 68.65 106.35" fill="#2d2c1c" fill-opacity="0.81960785" fill-rule="evenodd" stroke="none"/>
    <path d="M68.0 111.45 L68.05 112.1 Q68.45 114.45 67.35 115.3 L66.75 115.3 66.75 114.65 66.75 114.0 Q67.85 113.2 67.45 110.8 L67.35 110.2 67.9 110.9 68.0 111.45" fill="#17170e" fill-opacity="0.7921569" fill-rule="evenodd" stroke="none"/>
    <path d="M67.35 115.3 L67.35 115.9 Q67.3 119.35 66.1 121.65 L66.1 121.0 66.1 120.35 66.1 119.75 66.1 117.8 Q67.15 117.6 66.8 115.9 L66.75 115.3 67.35 115.3" fill="#070704" fill-opacity="0.7607843" fill-rule="evenodd" stroke="none"/>
    <path d="M66.1 121.65 L66.15 122.25 Q66.55 124.0 65.45 124.2 L65.45 126.75 65.45 127.35 Q65.15 127.35 65.1 127.5 64.5 128.8 64.2 127.35 L64.2 126.75 64.2 125.45 Q65.75 123.8 65.8 120.35 L66.1 120.35 66.1 121.0 66.1 121.65" fill="#0e0e08" fill-opacity="0.8392157" fill-rule="evenodd" stroke="none"/>
    <path d="M65.45 127.35 Q67.45 128.55 66.8 132.45 L66.75 133.1 66.1 133.1 Q67.1 134.95 67.05 138.2 L67.35 138.2 67.7 138.2 Q68.25 156.95 56.55 166.8 L55.9 166.8 49.55 166.8 49.55 167.45 49.5 167.75 43.85 168.7 43.7 169.15 40.0 171.25 40.2 170.15 Q29.65 168.0 24.75 159.15 31.65 158.55 39.85 156.6 46.85 154.9 53.4 152.15 60.3 141.6 63.85 127.45 L64.2 127.35 Q64.5 128.8 65.1 127.5 65.15 127.35 65.45 127.35" fill="#2e3c1d" fill-opacity="0.99215686" fill-rule="evenodd" stroke="none"/>
    <path d="M66.75 133.1 Q67.85 134.55 67.4 137.55 L67.35 138.2 67.05 138.2 Q67.1 134.95 66.1 133.1 L66.75 133.1" fill="#050703" fill-opacity="0.8039216" fill-rule="evenodd" stroke="none"/>
    <path d="M42.55 113.35 Q44.1 117.75 42.55 118.15 L42.55 117.2 42.55 113.35" fill="#c0be81" fill-rule="evenodd" stroke="none"/>
    <path d="M41.25 127.4 Q40.65 134.3 39.4 131.2 40.05 124.1 41.3 127.0 L41.25 127.4" fill="#b9b776" fill-rule="evenodd" stroke="none"/>
    <path d="M20.3 98.75 Q23.15 99.7 22.85 103.85 L22.85 104.45 22.5 104.35 20.3 98.75" fill="#c2c07a" fill-rule="evenodd" stroke="none"/>
    <path d="M38.1 173.15 L37.95 173.65 Q30.35 182.9 18.0 187.3 L17.95 186.45 Q29.9 182.0 37.65 173.3 37.8 173.15 38.1 173.15" fill="#16160d" fill-opacity="0.87058824" fill-rule="evenodd" stroke="none"/>
    <path d="M56.55 166.8 L56.5 167.15 49.55 167.45 49.55 166.8 55.9 166.8 56.55 166.8" fill="#020401" fill-opacity="0.7764706" fill-rule="evenodd" stroke="none"/>
    <path d="M15.85 129.9 Q14.35 132.55 13.3 129.9 18.85 124.7 15.85 129.9" fill="#647750" fill-rule="evenodd" stroke="none"/>
  </g>
</svg>
