<?xml version="1.0" encoding="UTF-8" standalone="no"?>
<svg xmlns:xlink="http://www.w3.org/1999/xlink" height="226.4px" width="106.9px" xmlns="http://www.w3.org/2000/svg">
  <g transform="matrix(1.0, 0.0, 0.0, 1.0, 18.45, 24.75)">
    <path d="M-6.9 43.4 L-6.9 42.85 -6.9 41.1 Q1.2 16.55 16.35 -0.95 L16.8 -1.05 16.8 -0.5 16.65 -0.05 Q1.1 17.9 -6.9 43.4" fill="#161613" fill-opacity="0.9098039" fill-rule="evenodd" stroke="none"/>
    <path d="M16.8 -1.05 L16.8 -1.65 Q21.2 -5.35 25.05 -9.6 L25.45 -9.75 25.45 -9.15 25.45 -8.6 25.05 -8.45 Q21.2 -4.15 16.8 -0.5 L16.8 -1.05" fill="#1b1b17" fill-opacity="0.9372549" fill-rule="evenodd" stroke="none"/>
    <path d="M51.45 -22.45 L52.0 -22.45 56.6 -23.3 56.65 -23.6 61.25 -23.6 61.85 -23.6 68.2 -23.6 68.25 -23.6 68.5 -20.5 68.5 -20.0 67.0 -18.5 Q67.05 -12.9 62.9 -11.2 L62.0 -11.0 61.0 -9.0 72.0 -3.5 74.0 0.5 Q68.4 6.1 65.1 13.05 L65.0 13.5 Q70.8 16.3 77.1 22.4 L77.5 22.5 Q77.65 23.75 78.5 24.0 L79.0 24.0 79.0 26.0 Q80.3 26.8 80.05 29.0 L80.0 29.5 Q74.8 33.3 67.6 35.35 L66.0 35.5 67.5 37.0 Q65.1 52.3 65.25 69.05 L64.15 70.0 64.2 69.4 Q64.55 65.8 63.55 63.6 L63.55 63.05 63.0 50.9 62.7 50.85 Q61.25 45.4 57.8 42.25 L57.7 41.75 Q57.1 40.65 56.05 39.95 L55.5 39.95 52.0 39.95 Q51.75 39.65 51.4 39.5 50.3 39.05 49.8 39.5 42.75 45.7 38.15 54.4 L38.15 54.95 38.05 55.5 Q37.55 57.25 36.4 58.4 36.3 62.25 37.45 64.8 L37.6 65.35 Q37.15 67.2 38.0 67.85 L38.15 68.25 Q37.75 70.1 38.6 70.75 L38.75 71.15 Q39.7 77.95 42.95 82.55 L43.35 82.7 Q43.85 86.8 45.85 89.5 L46.25 89.6 Q46.85 90.45 48.0 90.7 L48.55 90.75 Q49.8 91.25 50.5 92.35 L50.85 92.5 Q55.5 99.7 61.85 105.1 62.8 105.9 63.45 104.95 64.0 104.15 63.55 102.3 64.55 101.0 64.2 98.25 L64.15 97.7 64.15 97.1 64.15 95.95 Q65.4 99.6 68.0 102.5 L68.5 103.0 69.5 110.0 71.0 111.5 Q65.7 114.95 62.6 120.05 L62.5 120.5 Q60.65 120.6 59.5 121.35 59.75 116.0 58.95 111.55 L58.85 111.05 58.35 110.4 58.45 109.85 Q58.75 108.6 57.8 108.65 L57.65 108.2 Q54.65 104.35 50.85 106.35 L50.85 106.95 50.3 107.05 49.15 107.5 49.15 108.1 49.15 108.65 48.85 108.65 Q48.9 109.9 47.95 109.85 47.7 115.6 51.3 117.55 L51.45 117.9 Q53.05 120.05 53.7 123.15 L53.75 123.7 53.75 124.85 53.75 125.4 53.75 126.6 53.75 127.15 53.25 127.05 52.6 126.6 52.45 126.15 Q46.6 119.6 40.45 113.3 L40.15 113.2 Q39.1 110.05 35.85 109.25 L35.7 108.8 35.25 108.65 35.25 108.4 28.9 108.1 28.35 108.1 27.75 108.1 27.6 107.65 Q24.05 103.1 19.65 99.45 L19.55 99.0 Q16.85 95.9 13.3 93.65 L13.05 93.65 Q13.15 95.2 12.15 95.4 L12.15 97.1 12.15 97.7 11.65 97.8 11.0 98.3 Q10.6 102.4 11.5 105.25 L11.6 105.8 11.5 106.1 Q9.6 106.95 9.25 109.25 L9.25 109.85 9.15 110.35 8.7 111.0 8.7 111.55 8.7 112.15 8.3 112.0 Q2.35 105.5 -2.3 97.7 L-2.6 97.6 -5.75 88.45 -5.75 87.9 -5.75 83.85 -5.45 83.75 Q-5.05 82.3 -6.3 82.1 L-6.3 81.55 -6.3 80.95 -6.3 76.9 -6.3 76.35 -6.3 75.15 Q-5.35 74.7 -5.7 72.85 L-5.75 72.3 Q-4.3 69.4 -4.05 65.35 L-4.0 64.8 -3.7 64.7 Q-1.55 57.45 -4.6 64.2 L-4.6 64.8 -4.65 65.35 -6.3 70.0 -6.3 70.55 -6.3 71.15 -6.4 71.7 Q-7.25 74.45 -8.65 71.15 L-8.75 70.6 Q-10.75 66.85 -10.35 60.75 L-10.35 60.15 -10.35 58.4 Q-9.25 56.35 -9.2 53.2 L-9.2 52.65 Q-8.3 51.25 -8.1 49.2 L-8.05 48.6 -8.05 48.05 Q-7.0 46.5 -6.9 44.0 L-6.9 43.4 Q1.1 17.9 16.65 -0.05 L16.8 -0.5 Q21.2 -4.15 25.05 -8.45 L25.45 -8.6 Q34.15 -16.05 45.7 -20.6 L46.25 -20.7 Q48.5 -21.6 51.4 -22.15 L51.45 -22.45 M65.25 70.65 L65.35 75.0 65.5 82.5 65.3 82.8 65.25 82.7 64.15 73.45 64.15 72.85 64.15 72.3 65.25 70.65 M59.25 124.25 L66.85 136.4 64.7 136.4 64.7 137.0 64.2 137.1 63.55 137.55 63.55 138.15 63.25 138.2 Q63.05 139.05 61.85 138.7 L61.7 138.35 Q57.0 135.75 54.9 130.6 L54.9 130.05 54.9 126.0 54.9 125.4 54.9 124.25 Q57.2 128.05 58.85 124.8 L58.95 124.25 59.25 124.25 M37.0 -10.3 L37.05 -9.75 Q37.75 -3.85 42.2 -6.85 43.05 -7.4 43.1 -8.05 43.5 -16.25 37.0 -10.3 M32.95 -1.65 L30.45 -1.55 Q6.0 11.85 -0.55 43.4 L-0.55 44.0 Q-0.4 51.1 5.8 52.05 7.55 51.8 8.75 50.8 16.75 44.5 22.85 35.95 29.7 26.3 35.15 14.75 40.05 4.3 32.95 -1.65 M-4.0 49.75 L-3.95 50.35 Q-3.3 54.55 -2.3 58.4 L-2.25 57.85 Q-1.95 52.6 -4.0 49.75" fill="#f4f3d3" fill-opacity="0.99607843" fill-rule="evenodd" stroke="none"/>
    <path d="M37.0 -10.3 Q43.5 -16.25 43.1 -8.05 43.05 -7.4 42.2 -6.85 37.75 -3.85 37.05 -9.75 L37.0 -10.3" fill="#fefefc" fill-rule="evenodd" stroke="none"/>
    <path d="M25.45 -9.75 Q34.35 -17.3 46.3 -21.75 L46.8 -21.85 46.65 -21.45 Q46.55 -21.3 46.25 -21.3 L46.25 -20.7 45.7 -20.6 Q34.15 -16.05 25.45 -8.6 L25.45 -9.15 25.45 -9.75" fill="#151512" fill-opacity="0.8745098" fill-rule="evenodd" stroke="none"/>
    <path d="M32.95 -1.65 Q40.05 4.3 35.15 14.75 29.7 26.3 22.85 35.95 16.75 44.5 8.75 50.8 7.55 51.8 5.8 52.05 -0.4 51.1 -0.55 44.0 L-0.55 43.4 Q6.0 11.85 30.45 -1.55 L32.95 -1.65" fill="#fefefe" fill-rule="evenodd" stroke="none"/>
    <path d="M56.65 -23.6 L56.65 -24.15 58.35 -24.15 58.95 -24.15 61.25 -24.15 61.85 -24.15 61.85 -23.6 61.25 -23.6 56.65 -23.6" fill="#34332c" fill-opacity="0.89411765" fill-rule="evenodd" stroke="none"/>
    <path d="M52.0 -22.45 L52.0 -23.0 Q53.45 -23.9 56.05 -23.6 L56.65 -23.6 56.6 -23.3 52.0 -22.45" fill="#34342d" fill-opacity="0.8980392" fill-rule="evenodd" stroke="none"/>
    <path d="M58.95 -24.15 L58.95 -24.75 68.0 -24.75 68.15 -24.15 61.85 -24.15 61.25 -24.15 58.95 -24.15" fill="#020202" fill-opacity="0.8039216" fill-rule="evenodd" stroke="none"/>
    <path d="M46.8 -21.85 L50.85 -22.4 51.45 -22.45 51.4 -22.15 Q48.5 -21.6 46.25 -20.7 L46.25 -21.3 Q46.55 -21.3 46.65 -21.45 L46.8 -21.85" fill="#3b3b33" fill-opacity="0.9254902" fill-rule="evenodd" stroke="none"/>
    <path d="M68.15 -24.15 L68.25 -23.6 68.2 -23.6 61.85 -23.6 61.85 -24.15 68.15 -24.15" fill="#9e9d88" fill-opacity="0.9372549" fill-rule="evenodd" stroke="none"/>
    <path d="M-6.3 71.15 L-6.3 70.55 -6.3 70.0 -4.65 65.35 -4.6 64.8 -4.0 64.8 -4.05 65.35 Q-4.3 69.4 -5.75 72.3 L-5.85 71.75 -6.3 71.15" fill="#adac65" fill-rule="evenodd" stroke="none"/>
    <path d="M52.0 39.95 L51.45 39.95 Q52.2 40.95 54.35 40.55 L54.9 40.5 55.05 41.0 Q56.3 43.15 56.65 46.3 L56.5 46.8 54.35 50.9 54.3 51.5 Q53.85 58.3 56.65 61.9 L56.65 62.45 Q56.7 71.5 54.9 78.65 53.9 75.05 53.5 71.6 52.05 59.0 47.4 50.35 L47.1 50.35 Q46.35 65.05 44.5 74.0 L44.5 74.3 Q40.2 68.5 37.6 60.75 L37.55 60.15 37.6 57.85 Q38.85 57.1 38.45 55.0 L38.15 54.95 38.15 54.4 Q42.75 45.7 49.8 39.5 50.3 39.05 51.4 39.5 51.75 39.65 52.0 39.95 M35.85 109.25 L35.25 109.25 Q39.3 111.55 40.75 116.7 L41.05 116.75 Q43.55 121.8 44.45 128.3 L44.5 128.9 44.55 129.45 Q44.9 131.9 43.95 132.95 L43.9 132.35 Q43.25 125.55 39.9 121.4 L39.6 121.35 Q39.4 119.8 38.15 119.65 L38.05 119.1 Q36.05 114.55 31.8 112.15 L31.65 111.65 30.05 109.25 34.05 108.95 34.1 108.65 34.7 108.65 35.25 108.65 35.7 108.8 35.85 109.25" fill="#6c5c3e" fill-rule="evenodd" stroke="none"/>
    <path d="M26.0 109.85 Q26.3 113.0 27.1 115.65 L27.2 116.2 27.2 116.45 Q24.4 111.45 22.0 105.8 L21.85 105.3 Q20.2 102.95 19.1 100.0 L19.65 100.0 Q24.15 103.35 25.7 109.75 L26.0 109.85" fill="#accfed" fill-rule="evenodd" stroke="none"/>
    <path d="M56.05 39.95 L55.95 40.3 54.9 40.5 54.35 40.55 Q52.2 40.95 51.45 39.95 L52.0 39.95 55.5 39.95 56.05 39.95" fill="#343229" fill-rule="evenodd" stroke="none"/>
    <path d="M56.05 39.95 Q57.1 40.65 57.7 41.75 L57.8 42.25 Q57.6 44.2 58.25 45.2 L58.35 45.7 58.35 46.85 58.35 47.45 57.8 47.45 Q57.1 51.3 58.95 52.35 L58.95 52.05 59.4 52.7 59.5 53.2 58.95 53.2 Q58.95 56.4 59.25 59.55 L59.5 59.6 Q59.2 62.5 60.0 64.25 L60.1 64.8 59.8 64.8 Q59.95 66.65 58.95 67.1 L58.95 67.65 58.95 68.25 Q57.6 74.4 56.55 80.45 54.9 89.9 52.6 82.1 L52.55 81.55 Q52.3 79.25 50.85 78.05 L51.4 83.85 51.45 84.4 51.05 85.05 50.85 85.55 Q47.35 85.0 43.35 81.55 L43.35 82.1 43.35 82.7 42.95 82.55 Q39.7 77.95 38.75 71.15 L39.05 71.05 Q39.75 69.0 38.75 68.25 L38.8 67.65 Q39.15 65.8 38.15 65.35 L38.15 64.8 37.6 60.75 Q40.2 68.5 44.5 74.3 L44.5 74.0 Q46.35 65.05 47.1 50.35 L47.4 50.35 Q52.05 59.0 53.5 71.6 53.9 75.05 54.9 78.65 56.7 71.5 56.65 62.45 L56.65 61.9 Q53.85 58.3 54.3 51.5 L54.35 50.9 56.5 46.8 56.65 46.3 Q56.3 43.15 55.05 41.0 L54.9 40.5 55.95 40.3 56.05 39.95 M41.05 116.75 L41.5 116.6 41.6 116.2 46.1 122.65 46.25 123.1 Q46.25 124.25 46.9 124.7 L47.4 124.85 47.4 125.4 46.8 125.4 Q50.2 141.95 51.4 160.65 L51.45 161.25 51.45 161.8 Q52.4 169.7 49.15 175.1 L49.0 174.75 Q40.15 170.8 33.55 164.7 L33.55 164.1 Q33.8 164.1 34.05 164.25 39.9 166.7 45.65 166.45 L45.95 166.4 Q46.65 160.8 45.65 156.6 L45.5 156.2 Q39.65 151.15 30.65 152.0 L30.65 152.55 30.05 152.55 30.05 159.5 30.05 160.1 29.5 160.1 29.1 159.95 Q28.15 158.55 27.75 156.6 29.35 155.35 28.25 152.2 26.3 146.75 24.3 143.35 L23.85 143.2 Q19.5 138.9 17.35 132.35 20.05 134.3 22.15 136.85 L22.55 137.0 Q24.05 139.55 28.9 138.75 L29.5 138.7 Q32.3 140.25 35.85 140.95 L36.4 141.0 38.05 141.3 38.15 141.6 Q43.85 145.2 43.4 140.35 L43.1 138.75 42.45 135.75 41.05 128.3 41.0 127.75 Q40.7 124.3 39.9 121.4 43.25 125.55 43.9 132.35 L43.95 132.95 Q45.55 135.8 44.8 128.9 L44.5 128.9 44.45 128.3 Q43.55 121.8 41.05 116.75 M25.45 142.15 Q25.45 142.45 25.6 142.6 32.9 150.55 43.95 149.1 L44.2 148.55 Q34.5 145.55 25.45 142.15" fill="#493a1d" fill-rule="evenodd" stroke="none"/>
    <path d="M58.95 52.05 L58.95 52.35 Q57.1 51.3 57.8 47.45 L58.35 47.45 Q58.35 48.9 58.65 50.3 L58.95 50.35 58.95 51.5 58.95 52.05" fill="#1d1a12" fill-rule="evenodd" stroke="none"/>
    <path d="M57.8 42.25 Q61.25 45.4 62.7 50.85 L63.0 50.9 63.55 63.05 63.55 63.6 63.55 70.0 63.55 70.55 63.55 71.15 63.25 71.05 Q61.85 67.65 60.1 64.8 L60.0 64.25 Q59.2 62.5 59.5 59.6 L59.55 59.0 59.5 53.2 59.4 52.7 58.95 52.05 58.95 51.5 58.95 50.35 59.0 49.75 Q59.35 47.05 58.35 45.7 L58.25 45.2 Q57.6 44.2 57.8 42.25" fill="#c7c47e" fill-rule="evenodd" stroke="none"/>
    <path d="M58.35 47.45 L58.35 46.85 58.35 45.7 Q59.35 47.05 59.0 49.75 L58.95 50.35 58.65 50.3 Q58.35 48.9 58.35 47.45" fill="#a7a56b" fill-rule="evenodd" stroke="none"/>
    <path d="M37.6 60.75 L38.15 64.8 38.15 65.35 37.6 65.35 37.45 64.8 Q36.3 62.25 36.4 58.4 37.55 57.25 38.05 55.5 L38.15 54.95 38.45 55.0 Q38.85 57.1 37.6 57.85 L37.55 60.15 37.6 60.75" fill="#3a372e" fill-rule="evenodd" stroke="none"/>
    <path d="M38.15 65.35 Q39.15 65.8 38.8 67.65 L38.75 68.25 38.15 68.25 38.0 67.85 Q37.15 67.2 37.6 65.35 L38.15 65.35" fill="#434036" fill-rule="evenodd" stroke="none"/>
    <path d="M38.75 68.25 Q39.75 69.0 39.05 71.05 L38.75 71.15 38.6 70.75 Q37.75 70.1 38.15 68.25 L38.75 68.25" fill="#4d493a" fill-rule="evenodd" stroke="none"/>
    <path d="M13.3 93.65 L13.3 94.25 13.4 94.8 Q13.7 96.05 12.75 95.95 L12.75 98.3 12.75 98.85 12.15 98.85 12.15 98.3 12.15 97.7 12.15 97.1 12.15 95.4 Q13.15 95.2 13.05 93.65 L13.3 93.65" fill="#778992" fill-rule="evenodd" stroke="none"/>
    <path d="M15.05 95.95 L14.9 95.55 13.3 94.25 13.3 93.65 Q16.85 95.9 19.55 99.0 L19.65 99.45 19.2 99.3 Q17.05 97.7 15.05 95.95" fill="#5b6d79" fill-rule="evenodd" stroke="none"/>
    <path d="M13.3 94.25 L14.9 95.55 15.05 95.95 15.1 96.55 Q15.45 99.0 14.45 100.0 L14.35 99.55 Q13.85 98.85 12.75 98.85 L12.75 98.3 12.75 95.95 Q13.7 96.05 13.4 94.8 L13.3 94.25" fill="#b1d1ed" fill-rule="evenodd" stroke="none"/>
    <path d="M12.15 97.7 L12.15 98.3 12.15 98.85 11.6 98.85 Q11.55 101.75 12.1 104.05 L12.15 104.65 12.15 105.2 12.15 105.8 11.6 105.8 11.5 105.25 Q10.6 102.4 11.0 98.3 L11.65 97.8 12.15 97.7" fill="#5b6f79" fill-rule="evenodd" stroke="none"/>
    <path d="M12.75 98.85 Q13.85 98.85 14.35 99.55 L14.45 100.0 Q15.1 102.0 16.65 103.1 L16.8 103.5 16.2 103.5 16.2 107.5 16.2 108.1 15.9 108.05 Q15.5 105.65 13.9 104.65 L13.9 105.8 13.9 106.35 13.3 106.35 13.2 105.9 12.15 104.65 12.1 104.05 Q11.55 101.75 11.6 98.85 L12.15 98.85 12.75 98.85" fill="#2e7bc4" fill-rule="evenodd" stroke="none"/>
    <path d="M15.05 95.95 Q17.05 97.7 19.2 99.3 L19.65 99.45 19.65 100.0 19.1 100.0 Q20.2 102.95 21.85 105.3 L22.0 105.8 21.4 105.8 20.85 105.8 20.85 106.35 20.55 106.35 Q20.55 104.35 19.1 104.05 L20.75 109.3 20.85 109.85 20.5 109.7 Q18.8 106.35 16.8 103.5 L16.65 103.1 Q15.1 102.0 14.45 100.0 15.45 99.0 15.1 96.55 L15.05 95.95" fill="#619fd8" fill-rule="evenodd" stroke="none"/>
    <path d="M65.25 69.05 L65.25 70.65 64.15 72.3 63.7 72.15 Q63.55 72.0 63.55 71.7 L63.85 71.7 63.55 71.15 63.55 70.55 64.0 70.4 64.15 70.0 65.25 69.05" fill="#aead66" fill-rule="evenodd" stroke="none"/>
    <path d="M63.55 63.6 Q64.55 65.8 64.2 69.4 L64.15 70.0 64.0 70.4 63.55 70.55 63.55 70.0 63.55 63.6" fill="#e7e5b9" fill-rule="evenodd" stroke="none"/>
    <path d="M60.7 76.9 Q62.1 75.15 62.9 72.85 L63.0 72.3 63.0 71.7 63.55 71.7 Q63.55 72.0 63.7 72.15 L64.15 72.3 64.15 72.85 64.15 73.45 63.8 73.55 Q62.6 76.2 60.7 78.05 L60.7 77.5 60.7 76.9" fill="#9b9a46" fill-rule="evenodd" stroke="none"/>
    <path d="M63.0 72.3 L62.7 72.2 Q62.1 69.75 60.7 68.25 L60.7 68.8 60.7 69.4 60.1 69.4 60.1 68.8 60.1 64.8 Q61.85 67.65 63.25 71.05 L63.55 71.15 63.85 71.7 63.55 71.7 63.0 71.7 63.0 72.3" fill="#9c9a4e" fill-rule="evenodd" stroke="none"/>
    <path d="M60.7 69.4 L60.7 68.8 60.7 68.25 Q62.1 69.75 62.7 72.2 L63.0 72.3 62.9 72.85 Q62.1 75.15 60.7 76.9 L60.7 76.35 60.7 69.4" fill="#c5c37a" fill-rule="evenodd" stroke="none"/>
    <path d="M65.3 82.8 Q62.3 86.6 60.8 91.15 L60.7 85.0 60.7 84.4 60.7 83.85 60.7 78.05 Q62.6 76.2 63.8 73.55 L64.15 73.45 65.25 82.7 65.3 82.8 M60.75 92.15 L63.5 93.5 64.15 95.95 64.15 97.1 64.15 97.7 63.55 97.7 63.55 101.75 63.55 102.3 Q64.0 104.15 63.45 104.95 62.8 105.9 61.85 105.1 55.5 99.7 50.85 92.5 54.65 95.65 59.55 97.6 L60.1 97.7 60.75 92.15" fill="#c9c67f" fill-rule="evenodd" stroke="none"/>
    <path d="M59.5 59.6 L59.25 59.55 Q58.95 56.4 58.95 53.2 L59.5 53.2 59.55 59.0 59.5 59.6" fill="#959365" fill-rule="evenodd" stroke="none"/>
    <path d="M58.95 68.25 L58.95 67.65 58.95 67.1 Q59.95 66.65 59.8 64.8 L60.1 64.8 60.1 68.8 60.1 69.4 60.1 72.85 60.1 73.45 59.8 73.45 Q59.95 70.15 58.95 68.25" fill="#27261f" fill-rule="evenodd" stroke="none"/>
    <path d="M60.7 69.4 L60.7 76.35 60.7 76.9 60.7 77.5 60.1 77.5 60.1 76.9 60.1 73.45 60.1 72.85 60.1 69.4 60.7 69.4" fill="#515142" fill-rule="evenodd" stroke="none"/>
    <path d="M43.35 82.7 L43.35 82.1 43.35 81.55 Q47.35 85.0 50.85 85.55 L51.05 85.05 51.45 84.4 Q52.4 83.95 52.3 82.1 L52.6 82.1 Q54.9 89.9 56.55 80.45 57.6 74.4 58.95 68.25 59.95 70.15 59.8 73.45 L60.1 73.45 60.1 76.9 60.1 77.5 60.1 83.85 60.1 84.4 60.1 97.1 60.1 97.7 59.55 97.6 Q54.65 95.65 50.85 92.5 L50.5 92.35 Q49.8 91.25 48.55 90.75 L48.5 90.2 Q48.1 88.6 46.25 88.45 L46.25 89.05 46.25 89.6 45.85 89.5 Q43.85 86.8 43.35 82.7" fill="#241c10" fill-rule="evenodd" stroke="none"/>
    <path d="M60.1 77.5 L60.7 77.5 60.7 78.05 60.7 83.85 60.7 84.4 60.1 84.4 60.1 83.85 60.1 77.5" fill="#393928" fill-rule="evenodd" stroke="none"/>
    <path d="M51.45 84.4 L51.4 83.85 50.85 78.05 Q52.3 79.25 52.55 81.55 L52.6 82.1 52.3 82.1 Q52.4 83.95 51.45 84.4" fill="#2f2513" fill-rule="evenodd" stroke="none"/>
    <path d="M60.8 91.15 L60.5 92.0 60.75 92.15 60.1 97.7 60.1 97.1 60.1 84.4 60.7 84.4 60.7 85.0 60.8 91.15" fill="#2c2c23" fill-rule="evenodd" stroke="none"/>
    <path d="M46.25 89.6 L46.25 89.05 46.25 88.45 Q48.1 88.6 48.5 90.2 L48.55 90.75 48.0 90.7 Q46.85 90.45 46.25 89.6" fill="#332c1d" fill-rule="evenodd" stroke="none"/>
    <path d="M63.55 102.3 L63.55 101.75 63.55 97.7 64.15 97.7 64.2 98.25 Q64.55 101.0 63.55 102.3" fill="#e8e7bb" fill-rule="evenodd" stroke="none"/>
    <path d="M50.85 106.95 Q51.45 106.95 51.65 106.65 52.2 105.95 52.35 106.25 53.2 107.8 53.4 109.1 54.85 116.55 49.7 114.45 49.4 114.45 49.35 114.3 48.45 112.8 48.55 110.4 49.5 110.5 49.2 109.25 L49.15 108.65 49.15 108.1 49.15 107.5 50.3 107.05 50.85 106.95" fill="#69593c" fill-rule="evenodd" stroke="none"/>
    <path d="M50.85 106.95 L50.85 106.35 Q54.65 104.35 57.65 108.2 L57.8 108.65 57.8 112.7 57.8 113.3 57.85 113.85 Q58.2 116.3 57.2 117.35 L57.05 116.9 56.65 116.75 56.65 117.9 56.65 118.5 56.25 119.15 56.05 119.65 Q53.1 118.55 49.7 114.45 54.85 116.55 53.4 109.1 53.2 107.8 52.35 106.25 52.2 105.95 51.65 106.65 51.45 106.95 50.85 106.95 M55.25 111.6 L55.5 112.45 Q57.25 109.5 54.9 106.95 54.75 109.7 55.25 111.6" fill="#483a1f" fill-rule="evenodd" stroke="none"/>
    <path d="M57.8 108.65 Q58.75 108.6 58.45 109.85 L58.35 110.4 58.4 110.95 Q58.8 112.85 57.8 113.3 L57.8 112.7 57.8 108.65" fill="#5c5a3d" fill-rule="evenodd" stroke="none"/>
    <path d="M58.95 121.75 L58.85 121.85 Q58.5 122.25 58.5 123.0 L58.95 123.75 58.95 124.25 58.85 124.8 Q57.2 128.05 54.9 124.25 L54.9 123.7 54.9 121.95 56.55 121.7 56.65 121.4 Q57.65 120.35 57.25 117.9 L57.2 117.35 Q58.2 116.3 57.85 113.85 L57.8 113.3 Q58.8 112.85 58.4 110.95 L58.35 110.4 58.85 111.05 58.95 111.55 58.95 121.75" fill="#c8c67f" fill-rule="evenodd" stroke="none"/>
    <path d="M49.15 108.65 L49.2 109.25 Q49.5 110.5 48.55 110.4 48.45 112.8 49.35 114.3 49.4 114.45 49.7 114.45 53.1 118.55 56.05 119.65 L56.25 119.15 56.65 118.5 56.65 120.8 56.65 121.4 56.05 121.4 Q54.9 121.35 54.35 120.8 L54.2 120.35 51.45 117.9 51.3 117.55 Q47.7 115.6 47.95 109.85 48.9 109.9 48.85 108.65 L49.15 108.65" fill="#2b271b" fill-rule="evenodd" stroke="none"/>
    <path d="M41.6 116.2 L41.5 115.7 Q40.7 114.75 40.45 113.3 46.6 119.6 52.45 126.15 L52.6 126.6 52.0 126.6 51.55 126.45 Q49.35 124.35 46.25 123.1 L46.1 122.65 41.6 116.2" fill="#c7c47f" fill-rule="evenodd" stroke="none"/>
    <path d="M41.6 116.2 L41.5 116.6 41.05 116.75 40.75 116.7 Q39.3 111.55 35.25 109.25 L35.85 109.25 Q39.1 110.05 40.15 113.2 L40.45 113.3 Q40.7 114.75 41.5 115.7 L41.6 116.2" fill="#433d2c" fill-rule="evenodd" stroke="none"/>
    <path d="M56.65 118.5 L56.65 117.9 56.65 116.75 57.05 116.9 57.2 117.35 57.25 117.9 Q57.65 120.35 56.65 121.4 L56.65 120.8 56.65 118.5" fill="#575640" fill-rule="evenodd" stroke="none"/>
    <path d="M55.25 111.6 Q54.75 109.7 54.9 106.95 57.25 109.5 55.5 112.45 L55.25 111.6" fill="#6c5b3c" fill-rule="evenodd" stroke="none"/>
    <path d="M51.45 117.9 L54.2 120.35 54.35 120.8 54.4 121.35 Q54.75 123.25 53.75 123.7 L53.7 123.15 Q53.05 120.05 51.45 117.9" fill="#cdcb8d" fill-rule="evenodd" stroke="none"/>
    <path d="M54.35 120.8 Q54.9 121.35 56.05 121.4 L56.65 121.4 56.55 121.7 54.9 121.95 54.9 123.7 54.9 124.25 54.9 125.4 54.9 126.0 54.35 126.0 54.2 125.55 Q54.05 125.4 53.75 125.4 L53.75 124.85 53.75 123.7 Q54.75 123.25 54.4 121.35 L54.35 120.8" fill="#9b9952" fill-rule="evenodd" stroke="none"/>
    <path d="M59.5 121.35 L58.95 121.75 58.95 111.55 Q59.75 116.0 59.5 121.35 M58.95 123.75 L59.25 124.25 58.95 124.25 58.95 123.75" fill="#dddba5" fill-rule="evenodd" stroke="none"/>
    <path d="M54.9 130.6 Q57.0 135.75 61.7 138.35 L61.85 138.7 61.3 138.8 60.7 139.3 60.25 139.15 Q58.5 137.45 56.05 136.4 L56.0 136.1 53.75 135.8 53.65 135.3 Q52.7 132.55 52.0 129.45 52.4 128.1 53.65 127.5 L53.75 127.15 53.75 126.6 53.75 125.4 Q54.05 125.4 54.2 125.55 L54.35 126.0 Q54.3 128.3 54.6 130.6 L54.9 130.6" fill="#94933f" fill-rule="evenodd" stroke="none"/>
    <path d="M54.9 126.0 L54.9 130.05 54.9 130.6 54.6 130.6 Q54.3 128.3 54.35 126.0 L54.9 126.0" fill="#dcdaa8" fill-rule="evenodd" stroke="none"/>
    <path d="M53.75 127.15 L53.65 127.5 Q52.4 128.1 52.0 129.45 L52.0 128.9 Q52.0 127.75 51.45 127.15 L51.85 127.0 52.0 126.6 52.6 126.6 53.25 127.05 53.75 127.15" fill="#a7a555" fill-rule="evenodd" stroke="none"/>
    <path d="M47.4 124.85 L46.9 124.7 Q46.25 124.25 46.25 123.1 49.35 124.35 51.55 126.45 L52.0 126.6 51.85 127.0 51.45 127.15 51.0 127.0 Q49.55 125.6 47.4 124.85" fill="#989747" fill-rule="evenodd" stroke="none"/>
    <path d="M47.4 125.4 L47.4 124.85 Q49.55 125.6 51.0 127.0 L51.45 127.15 Q52.0 127.75 52.0 128.9 L52.0 129.45 Q52.7 132.55 53.65 135.3 L53.75 135.8 53.75 136.4 53.35 136.25 Q49.85 131.35 47.4 125.4" fill="#bdbb76" fill-rule="evenodd" stroke="none"/>
    <path d="M53.75 135.8 L56.0 136.1 56.05 136.4 55.5 136.4 54.9 136.4 Q55.6 137.15 55.75 138.7 L56.05 138.7 56.15 139.25 Q59.15 148.35 65.3 154.3 L65.25 154.85 Q63.75 161.7 60.1 166.45 L59.95 165.95 Q53.45 155.15 52.6 138.7 53.85 138.55 53.75 136.95 L53.75 136.4 53.75 135.8" fill="#6d5c3d" fill-rule="evenodd" stroke="none"/>
    <path d="M51.45 161.25 L51.4 160.65 Q50.2 141.95 46.8 125.4 L47.4 125.4 Q49.85 131.35 53.35 136.25 L53.75 136.4 53.75 136.95 Q53.85 138.55 52.6 138.7 L52.0 138.7 Q51.7 148.6 53.1 156.6 L53.15 157.2 53.15 157.5 Q51.8 157.65 51.45 161.25" fill="#271f12" fill-rule="evenodd" stroke="none"/>
    <path d="M44.5 128.9 L44.8 128.9 Q45.55 135.8 43.95 132.95 44.9 131.9 44.55 129.45 L44.5 128.9" fill="#5e4e2f" fill-rule="evenodd" stroke="none"/>
    <path d="M39.9 121.4 Q40.7 124.3 41.0 127.75 L41.05 128.3 40.45 128.3 40.4 127.75 Q39.7 123.3 38.15 119.65 39.4 119.8 39.6 121.35 L39.9 121.4" fill="#1a1b1a" fill-rule="evenodd" stroke="none"/>
    <path d="M42.45 135.75 L43.1 138.75 43.4 140.35 Q42.75 142.65 38.15 141.6 L38.05 141.3 36.4 141.0 36.3 140.7 29.5 138.15 28.9 138.15 Q24.35 138.65 22.55 136.4 L22.4 135.95 16.8 130.6 16.65 130.2 Q15.35 129.15 15.65 126.6 20.65 129.9 25.35 129.5 L25.2 128.8 Q24.85 127.75 24.3 127.15 L24.85 127.15 25.45 127.15 Q28.85 129.8 31.6 133.25 L32.1 133.2 31.8 132.95 Q28.75 126.15 27.15 119.1 L27.85 119.25 Q28.7 119.5 27.75 118.5 L27.8 117.95 Q28.15 116.35 27.2 116.2 L27.1 115.65 Q26.3 113.0 26.0 109.85 L26.0 109.25 26.0 108.65 Q27.15 109.9 28.9 110.1 L28.9 109.85 Q30.45 110.6 31.4 112.0 31.5 112.15 31.8 112.15 35.05 115.55 37.75 119.5 L38.15 119.65 Q39.7 123.3 40.4 127.75 L40.45 128.3 Q41.15 129.95 41.5 132.3 41.7 133.9 42.45 135.75" fill="#185db2" fill-rule="evenodd" stroke="none"/>
    <path d="M41.05 128.3 L42.45 135.75 Q41.7 133.9 41.5 132.3 41.15 129.95 40.45 128.3 L41.05 128.3 M43.4 140.35 Q43.85 145.2 38.15 141.6 42.75 142.65 43.4 140.35" fill="#1f2b35" fill-rule="evenodd" stroke="none"/>
    <path d="M75.3 148.9 L77.05 151.4 76.9 152.0 76.85 152.55 76.45 152.7 Q72.4 157.35 67.6 161.25 L67.6 161.8 Q65.25 164.95 66.35 170.95 L66.45 171.6 66.45 172.5 66.55 172.45 Q67.1 178.0 63.0 178.55 57.15 176.65 55.9 169.45 54.85 163.3 53.15 157.2 L53.1 156.6 Q51.7 148.6 52.0 138.7 L52.6 138.7 Q53.45 155.15 59.95 165.95 L60.1 166.45 Q63.75 161.7 65.25 154.85 L65.3 154.3 Q59.15 148.35 56.15 139.25 L56.05 138.7 Q61.15 146.9 68.2 152.85 L68.2 152.55 Q73.1 156.6 75.3 148.9 M-1.1 135.25 L7.4 152.05 7.55 152.55 Q9.65 149.75 9.85 145.05 L9.85 144.5 Q10.7 146.25 10.95 148.55 L11.0 149.1 Q11.7 154.5 11.55 160.1 11.45 165.9 6.95 161.25 L6.8 160.8 Q6.1 160.05 5.8 158.9 5.8 157.8 5.45 157.1 L4.85 155.75 Q1.3 146.4 -1.1 136.4 L-1.1 135.8 -1.1 135.25" fill="#4a3a1c" fill-rule="evenodd" stroke="none"/>
    <path d="M56.05 136.4 Q58.5 137.45 60.25 139.15 L60.7 139.3 60.95 140.95 61.25 141.0 Q64.15 147.1 68.05 152.1 L68.2 152.55 68.2 152.85 Q61.15 146.9 56.05 138.7 L55.75 138.7 Q55.6 137.15 54.9 136.4 L55.5 136.4 56.05 136.4" fill="#281f12" fill-rule="evenodd" stroke="none"/>
    <path d="M77.05 151.4 L77.6 152.15 Q80.45 156.2 82.5 160.85 82.7 162.5 83.55 163.45 87.2 173.35 87.5 186.0 87.6 189.95 88.3 194.35 L84.95 194.15 84.35 194.15 79.75 194.15 79.65 194.45 Q77.5 195.1 75.7 195.9 L75.2 196.0 Q73.0 197.2 69.35 197.05 L68.75 197.05 62.4 197.6 Q62.4 197.9 62.55 198.05 L63.0 198.2 62.85 198.55 61.85 198.8 61.8 198.5 58.95 198.2 58.95 198.8 58.95 199.35 58.35 199.4 53.75 200.5 53.15 200.5 47.95 200.5 47.85 200.15 Q43.4 197.6 38.75 195.3 L38.25 195.2 35.85 193.6 35.7 193.1 Q32.8 188.8 28.35 186.05 L28.2 185.65 Q26.75 184.15 24.3 183.75 L24.3 183.2 Q24.5 180.45 20.85 179.15 L20.4 179.0 Q20.25 178.85 20.25 178.55 L20.1 178.05 Q19.05 176.3 16.8 175.65 L16.2 175.65 Q15.2 175.5 15.05 174.5 L15.35 174.5 Q13.05 171.3 9.25 169.3 L8.9 169.2 Q7.95 167.75 5.8 167.6 L5.75 167.05 Q5.35 165.45 3.5 165.3 L3.1 165.15 Q0.75 161.65 -0.55 157.2 L-0.55 156.6 Q-0.1 149.85 -1.1 144.5 L-1.0 147.95 Q-0.5 154.05 -2.3 152.55 L-2.6 152.5 -3.45 149.1 Q-1.05 154.15 -1.5 145.65 L-1.7 138.15 -1.7 137.55 -1.7 136.4 -1.1 136.4 Q1.3 146.4 4.85 155.75 L5.45 157.1 Q5.8 157.8 5.8 158.9 L5.25 158.9 Q5.85 162.05 6.85 161.6 L6.95 161.25 Q11.45 165.9 11.55 160.1 11.7 154.5 11.0 149.1 12.0 148.05 12.15 146.2 L12.15 145.65 Q13.15 147.55 13.6 150.2 L13.9 150.25 Q14.95 155.25 17.25 159.0 L17.35 159.5 Q20.7 168.3 25.1 176.15 L25.45 176.25 Q27.3 174.65 29.3 170.1 32.0 164.1 26.6 163.55 L26.6 162.95 27.2 162.95 27.75 162.95 Q30.45 163.65 30.6 161.8 L30.65 161.25 Q30.95 161.25 31.1 161.4 L31.2 161.8 Q31.95 163.4 33.1 164.55 L33.55 164.7 Q40.15 170.8 49.0 174.75 L49.15 175.1 Q52.4 169.7 51.45 161.8 L51.45 161.25 Q51.8 157.65 53.15 157.5 L53.15 157.2 Q54.85 163.3 55.9 169.45 57.15 176.65 63.0 178.55 67.1 178.0 66.55 172.45 67.8 171.7 66.45 167.6 L66.45 171.6 66.35 170.95 Q65.25 164.95 67.6 161.8 L69.4 162.3 69.9 162.4 70.5 162.4 70.35 162.8 69.9 162.95 Q69.9 163.25 70.05 163.4 L70.5 163.55 70.5 163.85 Q69.1 162.95 68.2 163.55 71.0 165.75 74.4 162.8 L74.55 162.4 Q80.15 160.2 77.85 154.15 L76.85 154.3 76.4 154.15 76.3 153.75 Q77.25 153.55 77.15 152.6 L76.85 152.55 76.9 152.0 77.05 151.4 M43.35 177.4 L42.85 177.3 Q38.5 175.0 33.55 173.35 L34.05 178.55 34.1 179.15 Q38.55 183.6 42.95 184.9 L43.4 184.4 43.95 183.75 Q45.75 183.85 46.55 180.3 L46.25 180.3 Q46.25 180.0 46.4 179.9 47.05 179.4 45.65 178.55 L46.0 178.45 Q46.5 177.45 43.35 176.85 L43.35 177.4" fill="#251c0f" fill-opacity="0.99607843" fill-rule="evenodd" stroke="none"/>
    <path d="M67.5 137.45 L75.3 148.9 Q73.1 156.6 68.2 152.55 L68.05 152.1 Q64.15 147.1 61.25 141.0 L61.25 140.45 61.25 139.85 Q63.4 139.7 63.85 138.15 L63.55 138.15 63.55 137.55 64.2 137.1 64.7 137.0 Q66.1 137.95 67.5 137.45 M30.65 152.55 L30.65 152.0 Q39.65 151.15 45.5 156.2 L45.65 156.6 Q46.65 160.8 45.95 166.4 L45.65 166.45 Q39.9 166.7 34.05 164.25 33.8 164.1 33.55 164.1 L33.4 163.6 Q32.85 162.5 31.8 161.8 L31.7 161.3 Q29.95 158.15 30.65 152.55" fill="#6d5d3e" fill-rule="evenodd" stroke="none"/>
    <path d="M66.85 136.4 L67.5 137.45 Q66.1 137.95 64.7 137.0 L64.7 136.4 66.85 136.4" fill="#4e493b" fill-rule="evenodd" stroke="none"/>
    <path d="M61.85 138.7 Q63.05 139.05 63.25 138.2 L63.55 138.15 63.85 138.15 Q63.4 139.7 61.25 139.85 L61.25 140.45 61.25 141.0 60.95 140.95 60.7 139.3 61.3 138.8 61.85 138.7" fill="#4c4630" fill-rule="evenodd" stroke="none"/>
    <path d="M28.9 108.1 L35.25 108.4 35.25 108.65 34.7 108.65 34.1 108.65 33.55 108.65 29.5 108.65 29.05 108.55 Q28.9 108.4 28.9 108.1" fill="#dddcc0" fill-rule="evenodd" stroke="none"/>
    <path d="M29.5 108.65 L33.55 108.65 34.1 108.65 34.05 108.95 30.05 109.25 29.65 109.1 Q29.5 108.95 29.5 108.65" fill="#4b4a42" fill-rule="evenodd" stroke="none"/>
    <path d="M16.8 103.5 Q18.8 106.35 20.5 109.7 L20.85 109.85 Q21.25 111.45 22.4 112.3 L22.55 112.7 Q23.3 114.3 24.15 115.7 L24.3 116.2 Q25.9 121.2 26.9 126.6 L26.6 126.6 26.45 126.1 21.4 119.05 21.3 118.55 16.2 109.25 16.2 108.65 16.2 108.1 16.2 107.5 16.2 103.5 16.8 103.5" fill="#1f64b7" fill-rule="evenodd" stroke="none"/>
    <path d="M27.2 116.2 Q28.15 116.35 27.8 117.95 L27.75 118.5 27.25 118.35 Q25.55 117.5 24.3 116.2 L24.15 115.7 Q23.3 114.3 22.55 112.7 L22.85 112.7 20.85 106.35 20.85 105.8 21.4 105.8 22.0 105.8 Q24.4 111.45 27.2 116.45 L27.2 116.2" fill="#609ed8" fill-rule="evenodd" stroke="none"/>
    <path d="M20.85 109.85 L20.75 109.3 19.1 104.05 Q20.55 104.35 20.55 106.35 L20.85 106.35 22.85 112.7 22.55 112.7 22.4 112.3 Q21.25 111.45 20.85 109.85" fill="#8ebbe5" fill-rule="evenodd" stroke="none"/>
    <path d="M31.8 112.15 Q31.5 112.15 31.4 112.0 30.45 110.6 28.9 109.85 L28.8 109.5 Q27.95 109.1 27.75 108.1 L28.35 108.1 28.9 108.1 Q28.9 108.4 29.05 108.55 L29.5 108.65 Q29.5 108.95 29.65 109.1 L30.05 109.25 31.65 111.65 31.8 112.15" fill="#383832" fill-rule="evenodd" stroke="none"/>
    <path d="M28.9 109.85 L28.9 110.1 Q27.15 109.9 26.0 108.65 L26.0 109.25 26.0 109.85 25.7 109.75 Q24.15 103.35 19.65 100.0 L19.65 99.45 Q24.05 103.1 27.6 107.65 L27.75 108.1 Q27.95 109.1 28.8 109.5 L28.9 109.85" fill="#5a7e9e" fill-rule="evenodd" stroke="none"/>
    <path d="M16.2 109.25 L21.3 118.55 21.4 119.05 Q23.05 123.75 23.45 126.6 L23.15 126.6 22.6 126.5 Q17.95 124.55 14.45 121.4 L14.35 120.85 13.9 120.25 13.75 119.7 Q13.05 118.45 13.3 116.2 14.3 115.45 13.95 113.3 L13.9 112.7 13.9 112.15 13.9 106.95 Q15.2 107.65 15.85 109.15 L16.2 109.25" fill="#b0d2ee" fill-rule="evenodd" stroke="none"/>
    <path d="M27.75 118.5 Q28.7 119.5 27.85 119.25 L27.15 119.1 Q28.75 126.15 31.8 132.95 L32.1 133.2 31.6 133.25 Q28.85 129.8 25.45 127.15 L26.5 126.95 26.6 126.6 26.9 126.6 Q25.9 121.2 24.3 116.2 25.55 117.5 27.25 118.35 L27.75 118.5" fill="#2c79c3" fill-rule="evenodd" stroke="none"/>
    <path d="M38.15 119.65 L37.75 119.5 Q35.05 115.55 31.8 112.15 36.05 114.55 38.05 119.1 L38.15 119.65" fill="#323432" fill-rule="evenodd" stroke="none"/>
    <path d="M13.9 106.35 L13.9 105.8 13.9 104.65 Q15.5 105.65 15.9 108.05 L16.2 108.1 16.2 108.65 16.2 109.25 15.85 109.15 Q15.2 107.65 13.9 106.95 L13.9 106.35" fill="#639fd8" fill-rule="evenodd" stroke="none"/>
    <path d="M13.9 106.35 L13.9 106.95 13.9 112.15 13.9 112.7 13.6 112.7 Q13.3 109.55 13.3 106.35 L13.9 106.35" fill="#408acc" fill-rule="evenodd" stroke="none"/>
    <path d="M12.15 104.65 L13.2 105.9 13.3 106.35 Q13.3 109.55 13.6 112.7 L13.9 112.7 13.95 113.3 Q14.3 115.45 13.3 116.2 L13.2 115.65 12.75 115.05 12.75 114.45 Q13.15 110.0 12.15 106.95 L12.15 106.35 12.15 105.8 12.15 105.2 12.15 104.65" fill="#327fc3" fill-rule="evenodd" stroke="none"/>
    <path d="M12.15 105.8 L12.15 106.35 12.15 106.95 12.15 109.25 12.15 109.85 11.85 109.8 Q11.45 105.0 9.85 109.85 L9.25 109.85 9.25 109.25 Q9.6 106.95 11.5 106.1 L11.6 105.8 12.15 105.8" fill="#413b2e" fill-rule="evenodd" stroke="none"/>
    <path d="M12.15 106.95 Q13.15 110.0 12.75 114.45 L12.75 115.05 12.75 115.6 12.75 116.2 12.45 116.15 Q12.15 113.0 12.15 109.85 L12.15 109.25 12.15 106.95" fill="#304a5d" fill-rule="evenodd" stroke="none"/>
    <path d="M-12.65 127.75 L-12.65 127.15 -12.65 125.4 -12.65 124.85 -12.65 123.1 -12.4 123.1 Q-12.15 116.4 -9.2 112.7 L-9.2 112.15 Q-8.2 100.1 -10.35 90.75 L-10.4 91.35 -12.65 107.5 -13.0 107.45 Q-14.0 104.2 -15.55 101.75 L-15.5 101.2 Q-15.15 99.3 -16.15 98.85 L-16.1 98.3 Q-15.95 95.5 -16.7 93.65 L-16.7 93.1 Q-16.3 88.35 -17.3 85.0 L-17.3 84.4 -17.3 79.8 Q-16.35 79.85 -16.65 78.6 L-16.7 78.05 Q-15.5 76.65 -15.05 74.6 L-15.0 74.0 Q-11.4 75.0 -9.8 77.2 L-9.8 76.9 -9.3 77.55 -9.2 78.05 -9.8 78.05 -1.8 115.05 Q-0.35 121.7 -0.55 128.05 L-0.55 128.3 Q3.5 130.05 5.45 126.7 L5.8 126.6 Q8.05 129.55 9.55 133.4 L9.85 133.5 Q17.75 138.1 10.9 133.05 L10.45 132.95 10.35 132.4 Q8.8 128.2 9.25 121.95 10.3 119.8 9.9 116.2 L9.85 115.6 9.85 115.05 9.85 109.85 Q11.45 105.0 11.85 109.8 L12.15 109.85 Q12.15 113.0 12.45 116.15 L12.75 116.2 13.0 120.2 13.3 120.25 Q13.95 126.55 16.45 131.1 L16.8 131.2 17.25 131.85 17.35 132.35 Q19.5 138.9 23.85 143.2 L24.3 143.35 Q26.3 146.75 28.25 152.2 29.35 155.35 27.75 156.6 L27.6 156.15 Q24.95 152.45 20.25 150.85 L19.8 150.7 11.6 142.75 11.25 142.65 Q10.85 141.75 9.85 141.6 L9.85 143.9 9.85 144.5 9.85 145.05 Q9.65 149.75 7.55 152.55 L7.4 152.05 -1.1 135.25 -1.2 134.7 Q-2.9 128.95 -4.6 126.0 L-4.6 126.6 Q-5.15 131.5 -4.6 138.15 L-5.0 138.0 Q-7.15 135.5 -9.8 133.5 L-10.1 133.4 Q-11.25 130.35 -12.65 127.75" fill="#6c5c3d" fill-opacity="0.99607843" fill-rule="evenodd" stroke="none"/>
    <path d="M9.25 109.85 L9.85 109.85 9.85 115.05 9.85 115.6 9.25 115.6 9.25 121.4 9.25 121.95 Q8.8 128.2 10.35 132.4 L10.45 132.95 10.3 133.35 9.85 133.5 9.55 133.4 Q8.05 129.55 5.8 126.6 L5.8 126.0 Q7.2 124.75 7.25 122.55 L6.95 122.55 6.95 121.95 Q8.3 117.85 8.7 112.7 L8.7 112.15 8.7 111.55 8.7 111.0 9.15 110.35 9.25 109.85" fill="#46391f" fill-rule="evenodd" stroke="none"/>
    <path d="M8.7 112.15 L8.7 112.7 Q8.3 117.85 6.95 121.95 L6.95 122.55 6.85 123.0 5.8 124.25 5.75 123.7 Q4.9 120.25 5.25 115.6 L5.1 115.15 Q1.55 111.5 0.05 105.8 L-0.05 105.2 Q-0.65 102.4 -1.7 100.0 L-1.8 99.65 Q-2.7 99.25 -2.3 97.7 2.35 105.5 8.3 112.0 L8.7 112.15" fill="#bfbd7a" fill-rule="evenodd" stroke="none"/>
    <path d="M5.8 126.6 L5.45 126.7 Q3.5 130.05 -0.55 128.3 L-0.55 128.05 -0.15 126.85 Q0.6 125.7 0.75 124.7 2.05 115.6 -0.55 106.35 L-0.55 105.8 0.05 105.8 Q1.55 111.5 5.1 115.15 L5.25 115.6 Q4.9 120.25 5.75 123.7 L5.8 124.25 5.7 124.8 5.25 125.4 Q5.25 125.7 5.4 125.85 L5.8 126.0 5.8 126.6" fill="#231c10" fill-rule="evenodd" stroke="none"/>
    <path d="M9.85 115.6 L9.9 116.2 Q10.3 119.8 9.25 121.95 L9.25 121.4 9.25 115.6 9.85 115.6" fill="#5a4a2b" fill-rule="evenodd" stroke="none"/>
    <path d="M5.8 124.25 L6.85 123.0 6.95 122.55 7.25 122.55 Q7.2 124.75 5.8 126.0 L5.4 125.85 Q5.25 125.7 5.25 125.4 L5.7 124.8 5.8 124.25" fill="#15120b" fill-rule="evenodd" stroke="none"/>
    <path d="M12.75 115.05 L13.2 115.65 13.3 116.2 Q13.05 118.45 13.75 119.7 L13.9 120.25 13.3 120.25 13.0 120.2 12.75 116.2 12.75 115.6 12.75 115.05" fill="#414f59" fill-rule="evenodd" stroke="none"/>
    <path d="M15.65 126.6 Q15.35 129.15 16.65 130.2 L16.8 130.6 16.8 131.2 16.45 131.1 Q13.95 126.55 13.3 120.25 L13.9 120.25 14.35 120.85 14.45 121.4 Q14.25 124.5 15.5 126.1 L15.65 126.6" fill="#192630" fill-rule="evenodd" stroke="none"/>
    <path d="M24.3 127.15 Q24.85 127.75 25.2 128.8 L25.35 129.5 Q20.65 129.9 15.65 126.6 L15.5 126.1 Q14.25 124.5 14.45 121.4 17.95 124.55 22.6 126.5 L23.15 126.6 23.75 127.05 24.3 127.15" fill="#307fc6" fill-rule="evenodd" stroke="none"/>
    <path d="M10.45 132.95 L10.9 133.05 Q17.75 138.1 9.85 133.5 L10.3 133.35 10.45 132.95" fill="#4f3f21" fill-rule="evenodd" stroke="none"/>
    <path d="M22.55 137.0 L22.15 136.85 Q20.05 134.3 17.35 132.35 L17.25 131.85 16.8 131.2 16.8 130.6 22.4 135.95 22.55 136.4 22.55 137.0" fill="#05090e" fill-rule="evenodd" stroke="none"/>
    <path d="M9.85 144.5 L9.85 143.9 9.85 141.6 Q10.85 141.75 11.25 142.65 L11.6 142.75 Q11.45 144.3 12.05 145.15 L12.15 145.65 12.15 146.2 Q12.0 148.05 11.0 149.1 L10.95 148.55 Q10.7 146.25 9.85 144.5" fill="#271e10" fill-rule="evenodd" stroke="none"/>
    <path d="M11.6 142.75 L19.8 150.7 20.25 150.85 20.25 152.0 20.25 152.55 Q20.15 157.55 21.1 161.75 L21.4 161.8 Q21.4 162.1 21.55 162.25 L22.0 162.4 22.0 162.95 Q23.3 163.95 26.05 163.6 L26.6 163.55 Q32.0 164.1 29.3 170.1 27.3 174.65 25.45 176.25 L25.1 176.15 Q20.7 168.3 17.35 159.5 L17.65 159.5 Q18.0 152.8 13.9 150.25 L13.6 150.2 Q13.15 147.55 12.15 145.65 L12.05 145.15 Q11.45 144.3 11.6 142.75" fill="#49391c" fill-rule="evenodd" stroke="none"/>
    <path d="M25.45 127.15 L24.85 127.15 24.3 127.15 23.75 127.05 23.15 126.6 23.45 126.6 Q23.05 123.75 21.4 119.05 L26.45 126.1 26.6 126.6 26.5 126.95 25.45 127.15" fill="#5f9dd8" fill-rule="evenodd" stroke="none"/>
    <path d="M29.5 138.7 L28.9 138.75 Q24.05 139.55 22.55 137.0 L22.55 136.4 Q24.35 138.65 28.9 138.15 L29.5 138.15 29.5 138.7" fill="#0c1827" fill-rule="evenodd" stroke="none"/>
    <path d="M36.4 141.0 L35.85 140.95 Q32.3 140.25 29.5 138.7 L29.5 138.15 36.3 140.7 36.4 141.0" fill="#142941" fill-rule="evenodd" stroke="none"/>
    <path d="M25.45 142.15 Q34.5 145.55 44.2 148.55 L43.95 149.1 Q32.9 150.55 25.6 142.6 25.45 142.45 25.45 142.15" fill="#6b5b3c" fill-rule="evenodd" stroke="none"/>
    <path d="M20.25 150.85 Q24.95 152.45 27.6 156.15 L27.75 156.6 27.25 156.5 24.85 154.9 24.75 154.45 Q23.1 152.6 20.85 151.4 L20.85 152.0 20.85 152.55 20.25 152.55 20.25 152.0 20.25 150.85" fill="#454640" fill-rule="evenodd" stroke="none"/>
    <path d="M24.85 154.9 L24.75 155.25 22.55 156.6 22.55 157.2 22.55 157.75 22.25 157.75 Q22.4 159.9 21.4 160.65 L21.4 160.1 21.4 157.2 21.45 156.6 Q21.8 153.9 20.85 152.55 L20.85 152.0 20.85 151.4 Q23.1 152.6 24.75 154.45 L24.85 154.9" fill="#b0d0eb" fill-rule="evenodd" stroke="none"/>
    <path d="M20.25 152.55 L20.85 152.55 Q20.8 154.9 21.1 157.15 L21.4 157.2 21.4 160.1 21.4 160.65 21.4 161.25 21.4 161.8 21.1 161.75 Q20.15 157.55 20.25 152.55" fill="#2d2920" fill-rule="evenodd" stroke="none"/>
    <path d="M27.75 156.6 Q28.15 158.55 29.1 159.95 L29.5 160.1 29.6 160.55 Q31.05 162.75 27.75 162.4 L27.75 162.95 27.2 162.95 26.6 162.95 26.0 162.95 22.0 162.95 22.0 162.4 Q23.0 161.1 22.6 158.35 L22.55 157.75 22.55 157.2 22.55 156.6 24.75 155.25 24.85 154.9 27.25 156.5 27.75 156.6" fill="#2f7ec5" fill-rule="evenodd" stroke="none"/>
    <path d="M21.4 157.2 L21.1 157.15 Q20.8 154.9 20.85 152.55 21.8 153.9 21.45 156.6 L21.4 157.2" fill="#8a9fb1" fill-rule="evenodd" stroke="none"/>
    <path d="M22.55 157.75 L22.6 158.35 Q23.0 161.1 22.0 162.4 L21.55 162.25 Q21.4 162.1 21.4 161.8 L21.4 161.25 21.4 160.65 Q22.4 159.9 22.25 157.75 L22.55 157.75" fill="#709cc2" fill-rule="evenodd" stroke="none"/>
    <path d="M29.5 160.1 L30.05 160.1 30.55 160.7 30.65 161.25 30.6 161.8 Q30.45 163.65 27.75 162.95 L27.75 162.4 Q31.05 162.75 29.6 160.55 L29.5 160.1" fill="#172631" fill-rule="evenodd" stroke="none"/>
    <path d="M30.05 160.1 L30.05 159.5 30.05 152.55 30.65 152.55 Q29.95 158.15 31.7 161.3 L31.8 161.8 31.2 161.8 31.1 161.4 Q30.95 161.25 30.65 161.25 L30.55 160.7 30.05 160.1" fill="#524224" fill-rule="evenodd" stroke="none"/>
    <path d="M22.0 162.95 L26.0 162.95 26.6 162.95 26.6 163.55 26.05 163.6 Q23.3 163.95 22.0 162.95" fill="#182f41" fill-rule="evenodd" stroke="none"/>
    <path d="M33.55 164.1 L33.55 164.7 33.1 164.55 Q31.95 163.4 31.2 161.8 L31.8 161.8 Q32.85 162.5 33.4 163.6 L33.55 164.1 M-15.55 101.75 Q-14.0 104.2 -13.0 107.45 L-12.65 107.5 -10.4 91.35 -10.35 90.75 Q-8.2 100.1 -9.2 112.15 L-9.2 112.7 Q-12.15 116.4 -12.4 123.1 L-12.65 123.1 -12.75 122.55 -13.85 115.6 -13.9 115.05 Q-14.3 113.15 -15.0 111.55 L-14.95 111.0 Q-14.55 108.85 -15.55 108.1 L-15.55 107.5 -15.55 103.5 -15.55 102.9 -15.55 101.75" fill="#4a3a1d" fill-rule="evenodd" stroke="none"/>
    <path d="M17.35 159.5 L17.25 159.0 Q14.95 155.25 13.9 150.25 18.0 152.8 17.65 159.5 L17.35 159.5" fill="#665639" fill-rule="evenodd" stroke="none"/>
    <path d="M6.95 161.25 L6.85 161.6 Q5.85 162.05 5.25 158.9 L5.8 158.9 Q6.1 160.05 6.8 160.8 L6.95 161.25 M76.85 152.55 L77.15 152.6 Q77.25 153.55 76.3 153.75 L76.4 154.15 76.85 154.3 76.7 154.75 76.3 154.9 76.3 155.45 76.3 156.05 76.15 156.45 75.7 156.6 75.7 156.3 Q72.5 158.3 69.9 161.25 L69.9 161.8 69.9 162.4 69.4 162.3 67.6 161.8 67.6 161.25 Q72.4 157.35 76.45 152.7 L76.85 152.55" fill="#241c0f" fill-rule="evenodd" stroke="none"/>
    <path d="M8.7 169.9 L8.2 169.8 Q6.7 169.0 5.8 167.6 7.95 167.75 8.9 169.2 L9.25 169.3 9.15 169.75 8.7 169.9" fill="#040403" fill-opacity="0.9490196" fill-rule="evenodd" stroke="none"/>
    <path d="M15.05 174.5 L14.55 174.4 8.7 169.9 9.15 169.75 9.25 169.3 Q13.05 171.3 15.35 174.5 L15.05 174.5" fill="#0e0e0b" fill-opacity="0.91764706" fill-rule="evenodd" stroke="none"/>
    <path d="M5.8 167.6 L5.3 167.45 Q4.05 166.75 3.5 165.3 5.35 165.45 5.75 167.05 L5.8 167.6" fill="#110e0a" fill-opacity="0.92941177" fill-rule="evenodd" stroke="none"/>
    <path d="M20.25 178.55 L19.75 178.45 Q17.85 177.5 16.8 175.65 19.05 176.3 20.1 178.05 L20.25 178.55" fill="#0c0a08" fill-opacity="0.94509804" fill-rule="evenodd" stroke="none"/>
    <path d="M43.95 183.75 L43.4 184.4 42.95 184.9 Q38.55 183.6 34.1 179.15 L34.05 178.55 33.55 173.35 Q38.5 175.0 42.85 177.3 L43.35 177.4 Q43.95 178.25 45.1 178.5 L45.65 178.55 Q47.05 179.4 46.4 179.9 46.25 180.0 46.25 180.3 L46.1 180.75 43.95 183.2 43.95 183.75" fill="#49391b" fill-rule="evenodd" stroke="none"/>
    <path d="M23.7 183.75 L23.35 183.65 20.85 179.15 Q24.5 180.45 24.3 183.2 L24.3 183.75 23.7 183.75" fill="#100e0a" fill-opacity="0.9647059" fill-rule="evenodd" stroke="none"/>
    <path d="M27.75 186.05 L27.25 185.95 23.7 183.75 24.3 183.75 Q26.75 184.15 28.2 185.65 L28.35 186.05 27.75 186.05" fill="#12100d" fill-opacity="0.92156863" fill-rule="evenodd" stroke="none"/>
    <path d="M35.85 193.6 L35.4 193.45 Q31.75 189.55 27.75 186.05 L28.35 186.05 Q32.8 188.8 35.7 193.1 L35.85 193.6" fill="#171410" fill-opacity="0.92941177" fill-rule="evenodd" stroke="none"/>
    <path d="M76.85 154.3 L77.85 154.15 Q80.15 160.2 74.55 162.4 L73.95 162.4 73.95 161.8 Q78.05 160.95 76.85 155.75 L76.3 156.05 76.3 155.45 76.3 154.9 76.7 154.75 76.85 154.3" fill="#221f16" fill-rule="evenodd" stroke="none"/>
    <path d="M70.5 162.4 L69.9 162.4 69.9 161.8 69.9 161.25 Q72.5 158.3 75.7 156.3 L75.7 156.6 75.55 157.05 70.5 161.8 70.5 162.4" fill="#0b0906" fill-rule="evenodd" stroke="none"/>
    <path d="M70.5 163.55 L70.05 163.4 Q69.9 163.25 69.9 162.95 L70.35 162.8 70.5 162.4 70.5 161.8 75.55 157.05 75.7 156.6 76.15 156.45 76.3 156.05 76.85 155.75 Q78.05 160.95 73.95 161.8 L73.95 162.4 73.45 162.5 70.5 163.55" fill="#bbb978" fill-rule="evenodd" stroke="none"/>
    <path d="M74.55 162.4 L74.4 162.8 Q71.0 165.75 68.2 163.55 69.1 162.95 70.5 163.85 L70.5 163.55 73.45 162.5 73.95 162.4 74.55 162.4" fill="#16130c" fill-rule="evenodd" stroke="none"/>
    <path d="M66.45 171.6 L66.45 167.6 Q67.8 171.7 66.55 172.45 L66.45 172.5 66.45 171.6" fill="#231b0e" fill-rule="evenodd" stroke="none"/>
    <path d="M43.35 177.4 L43.35 176.85 Q46.5 177.45 46.0 178.45 L45.65 178.55 45.1 178.5 Q43.95 178.25 43.35 177.4" fill="#261e10" fill-rule="evenodd" stroke="none"/>
    <path d="M46.25 180.3 L46.55 180.3 Q45.75 183.85 43.95 183.75 L43.95 183.2 46.1 180.75 46.25 180.3" fill="#261d10" fill-rule="evenodd" stroke="none"/>
    <path d="M73.4 197.6 L73.35 197.9 64.7 198.2 64.7 197.6 68.75 197.6 69.35 197.6 72.8 197.6 73.4 197.6" fill="#111314" fill-opacity="0.7607843" fill-rule="evenodd" stroke="none"/>
    <path d="M64.7 198.2 L64.15 198.2 63.0 198.2 62.55 198.05 Q62.4 197.9 62.4 197.6 L68.75 197.05 69.35 197.05 69.35 197.6 68.75 197.6 64.7 197.6 64.7 198.2" fill="#0b0905" fill-opacity="0.99607843" fill-rule="evenodd" stroke="none"/>
    <path d="M76.3 196.45 L76.2 196.75 73.4 197.6 72.8 197.6 69.35 197.6 69.35 197.05 Q73.0 197.2 75.2 196.0 L75.7 195.9 Q75.7 196.2 75.85 196.3 L76.3 196.45" fill="#110f0a" fill-opacity="0.96862745" fill-rule="evenodd" stroke="none"/>
    <path d="M84.95 195.3 L84.35 195.35 76.3 196.45 75.85 196.3 Q75.7 196.2 75.7 195.9 77.5 195.1 79.65 194.45 L79.75 194.15 84.35 194.15 84.95 194.15 84.95 194.75 84.95 195.3" fill="#060504" fill-opacity="0.9254902" fill-rule="evenodd" stroke="none"/>
    <path d="M88.3 194.35 L88.4 194.85 84.95 194.75 84.95 194.15 88.3 194.35" fill="#100e0a" fill-opacity="0.9607843" fill-rule="evenodd" stroke="none"/>
    <path d="M88.4 194.85 L88.45 195.3 84.95 195.3 84.95 194.75 88.4 194.85" fill="#0a0b0c" fill-opacity="0.49411765" fill-rule="evenodd" stroke="none"/>
    <path d="M61.85 198.8 L61.45 198.9 Q60.8 199.75 58.95 199.35 L58.95 198.8 58.95 198.2 61.8 198.5 61.85 198.8" fill="#12100d" fill-opacity="0.9098039" fill-rule="evenodd" stroke="none"/>
    <path d="M58.95 199.35 L58.85 199.7 Q56.7 200.85 53.75 201.1 L53.75 200.5 58.35 199.4 58.95 199.35" fill="#0a0a08" fill-opacity="0.79607844" fill-rule="evenodd" stroke="none"/>
    <path d="M53.75 201.1 L53.15 201.1 50.85 201.1 50.85 201.65 50.3 201.65 48.55 201.65 48.55 201.4 Q47.35 201.45 47.4 200.5 L47.95 200.5 53.15 200.5 53.75 200.5 53.75 201.1" fill="#0f0e0d" fill-opacity="0.8784314" fill-rule="evenodd" stroke="none"/>
    <path d="M47.4 200.5 L46.85 200.4 Q42.3 198.4 38.75 195.3 43.4 197.6 47.85 200.15 L47.95 200.5 47.4 200.5" fill="#14120f" fill-opacity="0.9411765" fill-rule="evenodd" stroke="none"/>
    <path d="M-8.05 46.3 L-8.05 45.7 -8.05 45.15 Q-7.1 44.95 -7.2 43.4 L-6.9 43.4 -6.9 44.0 Q-7.0 46.5 -8.05 48.05 L-8.05 47.45 -8.05 46.3" fill="#2f2f29" fill-opacity="0.9254902" fill-rule="evenodd" stroke="none"/>
    <path d="M-9.2 49.75 L-9.2 49.2 -9.2 47.45 Q-8.25 47.5 -8.35 46.3 L-8.05 46.3 -8.05 47.45 -8.05 48.05 -8.05 48.6 -8.35 48.6 Q-8.25 49.85 -9.2 49.75" fill="#000000" fill-opacity="0.6627451" fill-rule="evenodd" stroke="none"/>
    <path d="M-8.05 48.6 L-8.1 49.2 Q-8.3 51.25 -9.2 52.65 L-9.2 52.05 -9.2 49.75 Q-8.25 49.85 -8.35 48.6 L-8.05 48.6" fill="#3f3f37" fill-opacity="0.91764706" fill-rule="evenodd" stroke="none"/>
    <path d="M-4.0 49.75 Q-1.95 52.6 -2.25 57.85 L-2.3 58.4 Q-3.3 54.55 -3.95 50.35 L-4.0 49.75" fill="#e3e2b8" fill-rule="evenodd" stroke="none"/>
    <path d="M-10.35 54.4 L-10.35 53.8 -10.35 52.05 Q-9.4 51.6 -9.5 49.75 L-9.2 49.75 -9.2 52.05 -9.2 52.65 -9.5 52.65 Q-9.4 54.2 -10.35 54.4" fill="#000000" fill-opacity="0.5058824" fill-rule="evenodd" stroke="none"/>
    <path d="M-10.35 57.25 L-10.35 56.7 -10.35 54.4 Q-9.4 54.2 -9.5 52.65 L-9.2 52.65 -9.2 53.2 Q-9.25 56.35 -10.35 58.4 L-10.35 57.85 -10.35 57.25" fill="#393831" fill-opacity="0.9137255" fill-rule="evenodd" stroke="none"/>
    <path d="M-11.5 61.3 L-11.5 60.75 -11.5 60.15 Q-10.55 59.4 -10.65 57.25 L-10.35 57.25 -10.35 57.85 -10.35 58.4 -10.35 60.15 -10.35 60.75 -10.95 60.75 -10.95 61.3 -11.5 61.3" fill="#12120f" fill-opacity="0.88235295" fill-rule="evenodd" stroke="none"/>
    <path d="M-10.35 60.75 Q-10.75 66.85 -8.75 70.6 L-8.65 71.15 -8.8 71.55 -9.2 71.7 Q-9.2 71.4 -9.35 71.25 -11.4 68.3 -12.1 71.7 L-12.1 71.15 -12.1 68.8 Q-11.15 68.65 -11.45 67.05 L-11.5 66.5 Q-10.5 64.9 -10.9 61.9 L-10.95 61.3 -10.95 60.75 -10.35 60.75" fill="#959349" fill-opacity="0.9882353" fill-rule="evenodd" stroke="none"/>
    <path d="M-11.5 62.45 L-11.5 61.9 -11.5 61.3 -10.95 61.3 -10.9 61.9 Q-10.5 64.9 -11.5 66.5 L-11.5 65.95 -11.5 62.45" fill="#3a3a1e" fill-opacity="0.9254902" fill-rule="evenodd" stroke="none"/>
    <path d="M-12.65 72.85 L-12.65 72.3 -12.65 68.25 Q-11.65 66.05 -11.8 62.45 L-11.5 62.45 -11.5 65.95 -11.5 66.5 -11.45 67.05 Q-11.15 68.65 -12.1 68.8 L-12.1 71.15 -12.1 71.7 -12.1 72.3 -12.1 72.85 -12.65 72.85" fill="#070703" fill-opacity="0.8352941" fill-rule="evenodd" stroke="none"/>
    <path d="M-15.0 74.0 L-15.0 73.45 Q-14.15 72.75 -12.65 73.15 L-12.65 72.85 -12.1 72.85 Q-11.25 74.9 -9.95 76.45 -9.8 76.6 -9.8 76.9 L-9.8 77.2 Q-11.4 75.0 -15.0 74.0" fill="#2d2a20" fill-opacity="0.9529412" fill-rule="evenodd" stroke="none"/>
    <path d="M-9.2 78.05 L-9.3 77.55 -9.8 76.9 Q-9.8 76.6 -9.95 76.45 -11.25 74.9 -12.1 72.85 L-12.1 72.3 -12.1 71.7 Q-11.4 68.3 -9.35 71.25 -9.2 71.4 -9.2 71.7 -8.2 73.0 -7.55 74.65 L-7.5 75.15 -7.5 76.35 -7.5 76.9 -7.75 76.9 Q-7.5 78.9 -9.2 78.65 L-9.2 78.05" fill="#ecebc9" fill-rule="evenodd" stroke="none"/>
    <path d="M-16.7 78.05 L-16.7 77.5 -16.7 75.75 Q-15.85 75.15 -15.35 74.15 -15.25 74.0 -15.0 74.0 L-15.05 74.6 Q-15.5 76.65 -16.7 78.05" fill="#13110f" fill-opacity="0.90588236" fill-rule="evenodd" stroke="none"/>
    <path d="M-4.6 64.8 L-4.6 64.2 Q-1.55 57.45 -3.7 64.7 L-4.0 64.8 -4.6 64.8" fill="#c6c58c" fill-rule="evenodd" stroke="none"/>
    <path d="M-8.65 71.15 Q-7.25 74.45 -6.4 71.7 L-6.3 71.15 -5.85 71.75 -5.75 72.3 -5.7 72.85 Q-5.35 74.7 -6.3 75.15 L-6.4 74.6 Q-6.6 73.75 -7.5 75.15 L-7.55 74.65 Q-8.2 73.0 -9.2 71.7 L-8.8 71.55 -8.65 71.15" fill="#aaa960" fill-rule="evenodd" stroke="none"/>
    <path d="M-6.3 75.15 L-6.3 76.35 -6.3 76.9 -6.9 76.9 -6.6 81.5 -6.3 81.55 -6.3 82.1 -6.3 82.4 -7.5 82.1 -7.5 82.7 -7.5 83.25 -7.8 83.2 -8.05 80.95 -8.05 80.35 Q-7.05 79.65 -7.45 77.5 L-7.5 76.9 -7.5 76.35 -7.5 75.15 Q-6.6 73.75 -6.4 74.6 L-6.3 75.15" fill="#908f3e" fill-rule="evenodd" stroke="none"/>
    <path d="M-6.3 76.9 L-6.3 80.95 -6.3 81.55 -6.6 81.5 -6.9 76.9 -6.3 76.9" fill="#d4d2a0" fill-rule="evenodd" stroke="none"/>
    <path d="M-0.55 128.05 Q-0.35 121.7 -1.8 115.05 L-9.8 78.05 -9.2 78.05 -9.2 78.65 Q-8.5 79.4 -8.35 80.9 L-8.05 80.95 -7.8 83.2 -7.5 83.25 Q-7.6 84.85 -7.05 85.65 -6.9 85.85 -6.9 86.15 -6.2 86.9 -6.05 88.45 L-5.75 88.45 -2.6 97.6 -2.3 97.7 Q-2.7 99.25 -1.8 99.65 L-1.7 100.0 -2.3 100.0 Q-1.3 102.75 -0.85 106.35 L-0.55 106.35 Q2.05 115.6 0.75 124.7 0.6 125.7 -0.15 126.85 L-0.55 128.05" fill="#47391e" fill-rule="evenodd" stroke="none"/>
    <path d="M-9.2 78.65 Q-7.5 78.9 -7.75 76.9 L-7.5 76.9 -7.45 77.5 Q-7.05 79.65 -8.05 80.35 L-8.05 80.95 -8.35 80.9 Q-8.5 79.4 -9.2 78.65" fill="#a3a261" fill-rule="evenodd" stroke="none"/>
    <path d="M-6.3 82.1 Q-5.05 82.3 -5.45 83.75 L-5.75 83.85 -6.05 83.85 Q-5.9 85.7 -6.9 86.15 -6.9 85.85 -7.05 85.65 -7.6 84.85 -7.5 83.25 L-7.5 82.7 -7.5 82.1 -6.3 82.4 -6.3 82.1" fill="#b8b77f" fill-rule="evenodd" stroke="none"/>
    <path d="M-5.75 83.85 L-5.75 87.9 -5.75 88.45 -6.05 88.45 Q-6.2 86.9 -6.9 86.15 -5.9 85.7 -6.05 83.85 L-5.75 83.85" fill="#84833f" fill-rule="evenodd" stroke="none"/>
    <path d="M-17.85 85.0 L-18.0 84.45 -18.45 83.85 -18.45 83.25 -18.45 79.8 Q-17.6 79.2 -17.05 78.2 -17.0 78.05 -16.7 78.05 L-16.65 78.6 Q-16.35 79.85 -17.3 79.8 L-17.3 84.4 -17.3 85.0 -17.85 85.0" fill="#24221d" fill-opacity="0.8117647" fill-rule="evenodd" stroke="none"/>
    <path d="M-17.3 93.65 L-17.3 93.1 -17.3 90.75 -17.25 90.2 Q-16.85 87.45 -17.85 86.15 L-17.85 85.55 -17.85 85.0 -17.3 85.0 Q-16.3 88.35 -16.7 93.1 L-16.7 93.65 -17.3 93.65" fill="#2b261d" fill-opacity="0.972549" fill-rule="evenodd" stroke="none"/>
    <path d="M-17.3 90.75 L-17.6 90.75 -17.85 86.15 Q-16.85 87.45 -17.25 90.2 L-17.3 90.75" fill="#262725" fill-opacity="0.6509804" fill-rule="evenodd" stroke="none"/>
    <path d="M-16.7 98.85 Q-16.7 98.55 -16.85 98.35 -17.6 96.6 -17.3 93.65 L-16.7 93.65 Q-15.95 95.5 -16.1 98.3 L-16.15 98.85 -16.7 98.85" fill="#211e18" fill-opacity="0.8509804" fill-rule="evenodd" stroke="none"/>
    <path d="M-16.15 104.65 L-16.45 104.6 -16.7 98.85 -16.15 98.85 -16.15 102.9 -16.15 103.5 -16.15 104.05 -16.15 104.65" fill="#000000" fill-opacity="0.4627451" fill-rule="evenodd" stroke="none"/>
    <path d="M-1.7 100.0 Q-0.65 102.4 -0.05 105.2 L0.05 105.8 -0.55 105.8 -0.55 106.35 -0.85 106.35 Q-1.3 102.75 -2.3 100.0 L-1.7 100.0" fill="#2f2c20" fill-rule="evenodd" stroke="none"/>
    <path d="M-16.15 98.85 Q-15.15 99.3 -15.5 101.2 L-15.55 101.75 -15.55 102.9 -15.55 103.5 -16.15 103.5 -16.15 102.9 -16.15 98.85" fill="#2d2b26" fill-opacity="0.91764706" fill-rule="evenodd" stroke="none"/>
    <path d="M-16.15 108.1 L-16.15 107.5 -16.15 104.65 -16.15 104.05 -16.15 103.5 -15.55 103.5 -15.55 107.5 -15.55 108.1 -16.15 108.1" fill="#181815" fill-opacity="0.9372549" fill-rule="evenodd" stroke="none"/>
    <path d="M-15.0 114.45 L-15.3 114.4 Q-15.6 111.0 -16.15 108.1 L-15.55 108.1 Q-14.55 108.85 -14.95 111.0 L-15.0 111.55 -15.0 113.85 -15.0 114.45" fill="#181713" fill-opacity="0.75686276" fill-rule="evenodd" stroke="none"/>
    <path d="M-15.0 115.05 L-15.0 114.45 -15.0 113.85 -15.0 111.55 Q-14.3 113.15 -13.9 115.05 L-13.85 115.6 -14.35 115.5 -15.0 115.05" fill="#251e10" fill-opacity="0.99607843" fill-rule="evenodd" stroke="none"/>
    <path d="M-12.65 125.4 L-12.95 125.4 Q-13.8 119.9 -15.0 115.05 L-14.35 115.5 -13.85 115.6 -12.75 122.55 -12.65 123.1 -12.65 124.85 -12.65 125.4" fill="#1c1a14" fill-opacity="0.8666667" fill-rule="evenodd" stroke="none"/>
    <path d="M-1.7 138.15 L-1.5 145.65 Q-1.05 154.15 -3.45 149.1 L-3.45 148.55 Q-3.4 145.35 -5.15 143.9 L-5.25 143.35 Q-7.4 138.35 -9.8 133.5 -7.15 135.5 -5.0 138.0 L-4.6 138.15 Q-5.15 131.5 -4.6 126.6 L-4.6 126.0 Q-2.9 128.95 -1.2 134.7 L-1.1 135.25 -1.4 135.25 Q-1.35 134.0 -2.3 134.1 L-2.0 138.1 -1.7 138.15" fill="#493a1c" fill-opacity="0.99607843" fill-rule="evenodd" stroke="none"/>
    <path d="M-5.15 143.9 L-5.55 143.75 Q-10.2 136.8 -12.65 127.75 -11.25 130.35 -10.1 133.4 L-9.8 133.5 Q-7.4 138.35 -5.25 143.35 L-5.15 143.9" fill="#14120d" fill-opacity="0.90588236" fill-rule="evenodd" stroke="none"/>
    <path d="M-1.1 136.4 L-1.7 136.4 -1.7 137.55 -1.7 138.15 -2.0 138.1 -2.3 134.1 Q-1.35 134.0 -1.4 135.25 L-1.1 135.25 -1.1 135.8 -1.1 136.4" fill="#312613" fill-rule="evenodd" stroke="none"/>
    <path d="M-0.55 157.2 L-0.85 157.1 -2.3 152.55 Q-0.5 154.05 -1.0 147.95 L-1.1 144.5 Q-0.1 149.85 -0.55 156.6 L-0.55 157.2" fill="#1d180f" fill-opacity="0.9529412" fill-rule="evenodd" stroke="none"/>
    <path d="M-3.45 149.1 L-3.75 149.0 -5.15 143.9 Q-3.4 145.35 -3.45 148.55 L-3.45 149.1" fill="#1a1813" fill-opacity="0.8745098" fill-rule="evenodd" stroke="none"/>
  </g>
</svg>
