<?xml version="1.0" encoding="UTF-8" standalone="no"?>
<svg xmlns:xlink="http://www.w3.org/1999/xlink" height="220.1px" width="100.95px" xmlns="http://www.w3.org/2000/svg">
  <g transform="matrix(1.0, 0.0, 0.0, 1.0, 12.5, 18.75)">
    <path d="M1.25 -18.15 L0.65 -18.15 -2.25 -18.15 -2.8 -18.15 -2.85 -18.15 -3.0 -18.75 0.65 -18.75 1.25 -18.75 1.25 -18.15" fill="#020202" fill-opacity="0.8039216" fill-rule="evenodd" stroke="none"/>
    <path d="M-2.25 -18.15 L0.65 -18.15 1.25 -18.15 Q28.8 -12.8 43.25 5.6 L43.4 6.1 42.8 6.1 Q42.55 6.1 42.45 5.95 41.75 4.85 40.5 4.35 L40.35 3.9 38.2 2.05 38.05 1.6 Q32.4 -4.0 25.5 -8.35 L25.4 -8.7 23.2 -9.5 23.05 -9.9 Q13.05 -16.45 -2.25 -17.6 L-2.25 -18.15" fill="#0e0e0b" fill-opacity="0.85490197" fill-rule="evenodd" stroke="none"/>
    <path d="M-2.85 -18.15 L-2.8 -18.15 -2.25 -18.15 -2.25 -17.6 -2.75 -17.6 -2.85 -18.15" fill="#9e9d88" fill-opacity="0.9372549" fill-rule="evenodd" stroke="none"/>
    <path d="M-2.25 -17.6 Q13.05 -16.45 23.05 -9.9 L23.2 -9.5 28.25 0.35 28.4 0.9 Q29.15 4.7 29.5 9.0 L29.55 9.55 Q31.55 15.65 30.4 8.45 L30.1 8.4 30.1 7.8 Q30.2 4.55 29.55 2.05 L29.55 1.45 29.55 0.3 Q35.7 1.4 40.0 4.2 L40.5 4.35 Q41.75 4.85 42.45 5.95 42.55 6.1 42.8 6.1 47.85 12.9 52.5 20.05 L52.65 20.55 Q53.45 25.45 55.2 29.65 L55.55 29.75 Q55.7 33.95 56.4 37.8 L56.7 37.85 56.55 38.3 56.1 38.45 55.65 38.3 55.55 37.85 55.55 37.3 Q55.7 34.5 53.2 34.4 L53.15 34.1 Q52.05 33.8 51.5 33.25 L51.1 33.1 Q49.25 30.85 46.85 29.2 49.05 32.5 51.65 35.4 L52.05 35.55 Q52.35 37.0 53.3 37.7 L53.8 37.85 56.85 41.2 57.25 41.3 Q57.25 44.2 57.55 47.05 L57.85 47.1 57.85 47.65 57.85 62.1 57.85 62.7 57.85 74.25 57.85 74.8 57.25 74.8 57.25 79.45 57.25 80.0 57.1 80.45 54.35 82.9 54.35 83.5 54.35 84.05 53.8 84.05 53.2 84.05 53.2 84.65 Q52.95 84.65 52.8 84.8 52.05 85.5 50.9 85.8 L50.35 85.75 43.4 85.2 43.25 85.6 35.9 90.4 35.5 90.55 Q33.95 93.1 31.85 95.05 L31.85 95.6 31.85 96.2 Q31.55 96.2 31.45 96.35 30.5 97.7 28.95 98.5 28.65 98.5 28.5 98.65 25.55 101.45 23.2 104.85 L23.2 105.45 23.1 106.0 Q22.9 107.15 22.05 107.75 21.9 109.3 22.45 110.15 L22.6 110.65 22.25 110.75 Q21.85 111.6 20.85 111.8 L21.1 112.85 21.45 112.95 23.35 114.55 23.75 114.65 23.75 115.25 23.75 115.85 24.6 123.3 24.9 123.35 24.9 130.85 24.9 131.4 Q24.6 131.4 24.45 131.55 21.5 133.5 16.85 133.75 L16.85 134.3 16.25 134.3 12.2 134.3 11.8 134.45 Q10.65 135.95 8.75 136.6 L8.35 136.5 Q7.55 135.5 5.85 135.45 L5.7 135.05 Q5.55 134.9 5.3 134.9 L5.3 134.3 5.3 132.6 6.9 129.1 7.0 128.55 Q8.6 126.35 9.25 123.3 L9.3 122.75 Q10.3 121.7 10.45 119.85 L10.45 119.3 10.95 119.15 Q15.0 116.15 10.45 118.15 L10.45 117.55 10.8 117.5 Q13.0 110.45 9.9 116.4 L9.9 117.0 9.8 117.55 Q9.0 119.85 7.6 121.6 L7.6 122.2 7.45 122.7 Q5.0 127.7 2.95 133.15 L2.95 133.75 2.95 134.3 2.8 134.75 2.4 134.9 2.4 135.45 2.05 135.55 Q0.5 139.35 -2.25 141.8 L-2.25 142.4 -2.8 142.4 -4.15 142.4 -11.75 130.25 -11.5 127.35 Q-10.35 126.6 -8.5 126.5 L-8.4 126.05 Q-5.3 120.95 0.0 117.5 L-1.5 116.0 -2.5 109.0 -3.0 108.5 Q-5.6 105.6 -6.85 101.95 L-6.85 98.5 Q-5.4 98.25 -5.65 96.2 L-5.7 95.6 -5.4 95.55 Q-4.7 91.7 -5.7 89.25 L-5.7 88.8 -5.5 88.5 Q-5.5 84.7 -5.65 81.0 L-5.75 76.65 -4.65 74.2 -4.55 73.65 -4.2 73.55 Q-1.9 69.25 -5.1 73.1 L-5.1 73.65 -5.25 74.2 -5.75 75.05 Q-5.9 58.3 -3.5 43.0 L-5.0 41.5 -3.4 41.35 Q3.8 39.3 9.0 35.5 L9.05 35.0 Q9.3 32.8 8.0 32.0 L8.0 30.0 7.5 30.0 Q6.65 29.75 6.5 28.5 L6.1 28.4 Q-0.2 22.3 -6.0 19.5 L-5.9 19.05 Q-2.6 12.1 3.0 6.5 L1.0 2.5 -10.0 -3.0 -9.0 -5.0 -8.1 -5.2 Q-3.95 -6.9 -4.0 -12.5 L-2.5 -14.0 -2.5 -14.5 -2.75 -17.6 -2.25 -17.6 M31.25 26.9 L31.6 26.8 Q33.8 19.35 30.7 24.55 L30.7 25.7 30.7 26.3 30.75 26.85 Q31.05 28.95 29.55 30.35 32.85 32.65 31.35 27.45 L31.25 26.9" fill="#f4f3d3" fill-opacity="0.99607843" fill-rule="evenodd" stroke="none"/>
    <path d="M23.2 -9.5 L25.4 -8.7 25.5 -8.35 24.9 -8.35 Q26.65 -3.25 29.55 -2.1 28.75 -4.7 30.9 -0.95 L31.25 -0.85 31.2 -0.55 Q30.4 -0.25 29.55 -0.25 L29.55 0.3 29.55 1.45 29.55 2.05 29.25 2.05 Q29.3 0.8 28.4 0.9 L28.25 0.35 23.2 -9.5" fill="#9c9b4d" fill-opacity="0.99607843" fill-rule="evenodd" stroke="none"/>
    <path d="M25.5 -8.35 Q32.4 -4.0 38.05 1.6 L38.2 2.05 37.7 1.9 Q34.75 0.3 31.25 -0.85 L30.9 -0.95 Q28.75 -4.7 29.55 -2.1 26.65 -3.25 24.9 -8.35 L25.5 -8.35" fill="#e6e5c3" fill-opacity="0.99607843" fill-rule="evenodd" stroke="none"/>
    <path d="M28.4 0.9 Q29.3 0.8 29.25 2.05 L29.55 2.05 Q30.2 4.55 30.1 7.8 L30.1 8.4 30.0 8.9 29.55 9.55 29.5 9.0 Q29.15 4.7 28.4 0.9 M30.7 26.3 L30.7 25.7 30.7 24.55 Q33.8 19.35 31.6 26.8 L31.25 26.9 31.1 26.45 Q31.0 26.3 30.7 26.3" fill="#c7c68d" fill-rule="evenodd" stroke="none"/>
    <path d="M38.2 2.05 L40.35 3.9 40.5 4.35 40.0 4.2 Q35.7 1.4 29.55 0.3 L29.55 -0.25 Q30.4 -0.25 31.2 -0.55 L31.25 -0.85 Q34.75 0.3 37.7 1.9 L38.2 2.05" fill="#a3a258" fill-rule="evenodd" stroke="none"/>
    <path d="M56.7 37.85 L56.4 37.8 Q55.7 33.95 55.55 29.75 L55.2 29.65 Q53.45 25.45 52.65 20.55 L54.25 22.9 54.35 23.4 Q56.35 29.55 56.65 37.3 L56.7 37.85" fill="#dcdaa7" fill-opacity="0.99607843" fill-rule="evenodd" stroke="none"/>
    <path d="M42.8 6.1 L43.4 6.1 Q58.9 24.95 67.95 50.25 L68.2 50.3 Q69.5 50.45 69.95 51.7 L69.4 51.7 68.8 51.75 Q66.15 52.0 65.35 49.4 L65.3 48.85 64.2 45.95 64.1 45.4 Q63.2 42.3 61.9 39.6 L61.8 39.05 Q58.7 30.65 54.35 23.4 L54.25 22.9 52.65 20.55 52.5 20.05 Q47.85 12.9 42.8 6.1" fill="#10100a" fill-opacity="0.8745098" fill-rule="evenodd" stroke="none"/>
    <path d="M56.1 38.45 L56.55 38.3 56.7 37.85 56.65 37.3 Q56.35 29.55 54.35 23.4 58.7 30.65 61.8 39.05 L61.9 39.6 61.8 40.15 Q61.25 42.7 57.85 40.15 L57.7 39.8 56.7 39.6 56.55 39.05 56.1 38.45" fill="#c5c37d" fill-opacity="0.99607843" fill-rule="evenodd" stroke="none"/>
    <path d="M57.85 40.15 Q61.25 42.7 61.8 40.15 L61.9 39.6 Q63.2 42.3 64.1 45.4 L64.2 45.95 63.6 45.95 63.6 46.5 63.25 46.4 Q62.25 44.15 60.15 43.05 L60.0 42.6 57.85 40.15" fill="#918f3b" fill-opacity="0.99607843" fill-rule="evenodd" stroke="none"/>
    <path d="M52.05 35.55 L51.65 35.4 Q49.05 32.5 46.85 29.2 49.25 30.85 51.1 33.1 L51.5 33.25 Q51.5 34.35 51.95 35.05 L52.05 35.55" fill="#aeac65" fill-rule="evenodd" stroke="none"/>
    <path d="M51.5 33.25 Q52.05 33.8 53.15 34.1 L53.2 34.4 53.35 34.9 Q55.55 38.2 52.05 35.55 L51.95 35.05 Q51.5 34.35 51.5 33.25" fill="#e7e6bf" fill-rule="evenodd" stroke="none"/>
    <path d="M53.8 37.85 L53.3 37.7 Q52.35 37.0 52.05 35.55 55.55 38.2 53.35 34.9 L53.2 34.4 Q55.7 34.5 55.55 37.3 L55.55 37.85 54.95 37.85 53.8 37.85" fill="#b6b472" fill-rule="evenodd" stroke="none"/>
    <path d="M57.25 41.3 L56.85 41.2 53.8 37.85 54.95 37.85 55.55 37.85 55.65 38.3 56.1 38.45 56.55 39.05 56.7 39.6 57.15 40.75 57.25 41.3" fill="#adac65" fill-rule="evenodd" stroke="none"/>
    <path d="M56.7 39.6 L57.7 39.8 57.85 40.15 60.0 42.6 60.15 43.05 59.7 42.9 Q59.0 42.2 57.85 41.9 L57.7 41.45 57.25 41.3 57.15 40.75 56.7 39.6" fill="#96953f" fill-rule="evenodd" stroke="none"/>
    <path d="M57.85 47.1 L57.55 47.05 Q57.25 44.2 57.25 41.3 L57.7 41.45 57.85 41.9 57.85 46.5 57.85 47.1" fill="#dcd9a4" fill-rule="evenodd" stroke="none"/>
    <path d="M57.85 47.65 L57.85 47.1 57.85 46.5 57.85 41.9 Q59.0 42.2 59.7 42.9 L60.15 43.05 Q62.25 44.15 63.25 46.4 L63.6 46.5 Q63.95 48.2 64.9 49.25 L65.35 49.4 65.4 50.0 Q65.65 52.0 64.2 52.3 L64.2 52.85 63.65 52.95 62.45 53.45 Q62.2 57.15 63.5 59.3 L63.6 59.8 65.6 68.4 65.9 68.45 65.9 70.8 65.9 71.35 65.5 71.5 Q63.7 73.75 61.3 75.4 L61.3 76.0 61.3 76.55 Q61.0 76.55 60.9 76.7 59.95 78.1 58.4 78.85 L58.4 78.3 58.4 62.7 58.45 62.1 Q58.85 54.15 57.85 47.65" fill="#c7c57d" fill-rule="evenodd" stroke="none"/>
    <path d="M63.6 46.5 L63.6 45.95 64.2 45.95 65.3 48.85 65.35 49.4 64.9 49.25 Q63.95 48.2 63.6 46.5" fill="#8b893c" fill-opacity="0.99215686" fill-rule="evenodd" stroke="none"/>
    <path d="M65.35 49.4 Q66.15 52.0 68.8 51.75 L69.4 51.7 69.45 52.3 Q70.65 59.35 67.65 65.0 L67.65 66.75 67.65 67.3 67.1 67.3 Q66.7 68.85 67.55 69.3 L67.65 69.6 67.15 69.5 65.9 68.45 65.6 68.4 63.6 59.8 63.9 59.8 63.6 53.45 64.05 53.3 64.2 52.85 64.2 52.3 Q65.65 52.0 65.4 50.0 L65.35 49.4" fill="#493b1e" fill-opacity="0.99607843" fill-rule="evenodd" stroke="none"/>
    <path d="M63.6 59.8 L63.5 59.3 Q62.2 57.15 62.45 53.45 L63.65 52.95 64.2 52.85 64.05 53.3 63.6 53.45 63.9 59.8 63.6 59.8" fill="#47442d" fill-rule="evenodd" stroke="none"/>
    <path d="M69.4 51.7 L69.95 51.7 Q71.0 54.75 71.65 58.1 L71.7 58.65 Q71.7 61.8 72.0 64.95 L72.3 65.0 72.15 65.45 69.95 67.3 Q69.7 67.3 69.55 67.45 67.8 69.15 67.65 67.3 L67.65 66.75 67.65 65.0 Q70.65 59.35 69.45 52.3 L69.4 51.7" fill="#201a0f" fill-opacity="0.9882353" fill-rule="evenodd" stroke="none"/>
    <path d="M86.7 49.4 L86.7 48.85 87.85 48.85 88.45 48.85 88.45 52.85 88.45 53.45 87.85 53.45 87.95 52.9 Q88.6 49.85 86.7 49.4" fill="#051220" fill-opacity="0.85882354" fill-rule="evenodd" stroke="none"/>
    <path d="M85.55 51.15 L86.15 51.15 86.05 51.7 Q82.6 60.6 78.05 68.45 L78.05 69.05 77.75 69.1 Q77.1 71.3 75.75 72.5 L75.75 73.1 75.75 73.65 75.45 73.7 Q75.1 75.35 74.0 76.0 74.3 77.45 76.2 75.25 L76.3 74.8 Q81.45 68.4 86.15 64.7 L86.15 65.0 85.85 65.05 Q85.4 66.85 83.85 67.3 L83.85 67.9 83.85 68.45 83.55 68.45 Q83.65 70.9 82.65 71.95 L82.65 71.65 Q81.25 72.5 79.8 73.65 79.5 73.65 79.4 73.8 L74.0 81.15 Q73.7 81.15 73.6 81.3 70.3 85.0 66.5 88.1 67.7 89.5 70.45 86.85 L74.6 82.9 Q77.6 81.3 79.95 79.0 80.05 78.85 80.35 78.85 L80.35 82.9 80.35 83.5 79.8 83.5 Q75.45 86.4 70.15 91.15 67.25 93.8 65.5 97.15 58.25 111.3 52.05 126.25 L52.05 125.65 52.05 124.5 52.05 123.9 52.05 123.35 Q53.05 121.45 52.95 118.75 L52.65 118.7 52.65 118.15 Q58.0 108.75 60.45 99.65 L60.15 99.65 Q60.15 99.35 60.3 99.2 62.75 96.5 62.45 93.9 57.9 96.85 54.7 101.1 52.0 104.7 50.35 103.7 51.35 102.4 51.95 100.75 L52.05 100.25 53.5 96.25 53.8 96.2 Q68.0 80.95 79.1 59.75 L79.2 59.2 Q80.2 58.2 80.85 56.85 L80.95 56.35 80.95 55.75 85.4 51.55 85.55 51.15" fill="#5e9cd8" fill-rule="evenodd" stroke="none"/>
    <path d="M85.55 50.55 L85.55 51.15 85.4 51.55 80.95 55.75 80.95 56.35 80.35 56.35 80.35 55.75 80.35 55.2 Q83.05 53.25 85.15 50.7 85.25 50.55 85.55 50.55" fill="#151e27" fill-opacity="0.73333335" fill-rule="evenodd" stroke="none"/>
    <path d="M85.55 51.15 L85.55 50.55 85.55 50.0 86.2 49.5 86.7 49.4 Q88.6 49.85 87.95 52.9 L87.85 53.45 87.3 53.45 87.35 52.9 Q87.8 49.45 86.15 50.55 L86.15 51.15 85.55 51.15" fill="#13365c" fill-opacity="0.91764706" fill-rule="evenodd" stroke="none"/>
    <path d="M86.15 51.15 L86.15 50.55 Q87.8 49.45 87.35 52.9 L87.3 53.45 87.3 59.2 87.3 59.8 87.3 60.4 86.7 60.4 86.7 65.0 86.7 65.6 86.3 65.45 86.15 65.0 86.15 64.7 Q81.45 68.4 76.3 74.8 L76.3 74.25 76.3 73.65 Q78.7 71.75 78.1 69.6 L78.05 69.05 78.05 68.45 Q82.6 60.6 86.05 51.7 L86.15 51.15 M42.8 109.5 Q47.95 103.6 52.05 99.95 L52.05 100.25 51.95 100.75 Q51.35 102.4 50.35 103.7 52.0 104.7 54.7 101.1 57.9 96.85 62.45 93.9 62.75 96.5 60.3 99.2 60.15 99.35 60.15 99.65 L60.0 100.15 53.8 108.3 53.4 108.45 34.15 130.25 34.15 130.85 33.6 130.75 Q32.0 130.1 31.85 127.95 L31.85 127.4 Q34.9 122.2 38.05 117.45 L38.2 117.0 38.2 116.4 39.2 115.15 39.35 114.65 39.35 114.1 Q41.5 112.5 42.5 109.55 L42.8 109.5" fill="#1a60b5" fill-rule="evenodd" stroke="none"/>
    <path d="M87.85 59.2 L87.85 59.8 87.3 59.8 87.3 59.2 87.3 53.45 87.85 53.45 87.85 58.65 87.85 59.2" fill="#0a2a50" fill-opacity="0.9843137" fill-rule="evenodd" stroke="none"/>
    <path d="M88.45 53.45 L88.45 58.65 88.45 59.2 87.85 59.2 87.85 58.65 87.85 53.45 88.45 53.45" fill="#020b15" fill-opacity="0.57254905" fill-rule="evenodd" stroke="none"/>
    <path d="M31.25 26.9 L31.35 27.45 Q32.85 32.65 29.55 30.35 31.05 28.95 30.75 26.85 L30.7 26.3 Q31.0 26.3 31.1 26.45 L31.25 26.9" fill="#adab64" fill-rule="evenodd" stroke="none"/>
    <path d="M29.55 9.55 L30.0 8.9 30.1 8.4 30.4 8.45 Q31.55 15.65 29.55 9.55" fill="#d8d6a7" fill-rule="evenodd" stroke="none"/>
    <path d="M8.75 136.6 Q10.65 135.95 11.8 134.45 L12.2 134.3 Q13.8 135.3 16.85 134.95 L17.4 134.9 Q23.55 132.4 26.5 133.1 28.5 133.55 27.2 131.4 L27.15 130.85 Q26.75 129.6 26.65 127.95 L26.95 127.9 Q27.65 125.5 26.65 124.5 L26.6 123.95 Q24.2 114.05 23.2 105.45 L23.2 104.85 Q25.55 101.45 28.5 98.65 28.65 98.5 28.95 98.5 30.7 99.35 31.75 96.75 L31.85 96.2 31.85 95.6 31.85 95.05 Q33.95 93.1 35.5 90.55 L35.9 90.4 Q39.6 89.5 43.85 86.2 L43.95 85.8 50.35 86.95 50.9 86.95 50.75 87.4 49.75 88.1 Q49.45 88.1 49.4 88.25 46.35 92.95 42.8 91.55 L42.55 91.3 Q40.45 96.7 36.5 100.25 32.4 103.95 30.1 109.5 29.9 111.4 30.55 112.45 L30.7 112.95 30.1 112.95 30.1 119.85 30.1 120.45 30.15 121.0 Q30.5 122.9 29.55 123.35 29.6 129.3 33.65 131.3 L34.15 131.4 34.6 132.05 34.75 132.6 34.4 132.7 Q33.15 135.9 30.7 137.8 L30.7 138.35 30.7 139.5 30.7 140.1 30.4 140.1 Q30.85 136.75 28.95 136.05 L28.45 136.15 Q27.2 136.9 26.05 137.8 L26.05 138.35 26.05 138.95 26.05 139.5 Q25.85 142.45 24.9 144.7 L24.85 144.15 Q24.6 143.3 23.75 144.7 L23.75 147.6 23.75 148.15 24.55 150.35 24.9 150.5 25.05 150.9 25.5 151.05 25.6 151.4 Q32.95 155.75 37.05 163.2 L36.9 163.7 Q34.6 167.7 31.25 170.7 L30.8 170.55 Q17.75 160.0 11.65 142.4 L11.55 141.85 Q10.9 138.8 8.75 137.2 L8.75 136.6" fill="#6c5c3e" fill-rule="evenodd" stroke="none"/>
    <path d="M35.9 90.4 L43.25 85.6 43.4 85.2 50.35 85.75 50.9 85.8 51.2 86.95 50.9 86.95 50.35 86.95 43.95 85.8 43.85 86.2 Q39.6 89.5 35.9 90.4" fill="#3e3b2f" fill-rule="evenodd" stroke="none"/>
    <path d="M30.7 112.95 L30.55 112.45 Q29.9 111.4 30.1 109.5 32.4 103.95 36.5 100.25 40.45 96.7 42.55 91.3 L42.8 91.55 Q46.35 92.95 49.4 88.25 49.45 88.1 49.75 88.1 L49.75 88.7 49.75 89.25 Q49.45 89.25 49.35 89.4 L46.3 92.75 46.3 93.3 45.95 93.4 Q45.3 94.9 43.95 95.6 43.95 96.2 44.2 96.65 L44.55 96.75 44.4 97.2 43.4 97.9 43.4 97.65 Q41.1 99.35 38.8 101.4 L39.0 102.45 39.35 102.55 39.2 103.0 36.45 105.45 36.1 105.55 Q35.05 107.2 33.6 108.3 L33.6 108.9 33.25 109.0 31.85 110.65 Q31.85 111.2 32.1 111.65 L32.4 111.8 32.3 112.2 31.85 112.35 31.85 112.95 31.25 112.95 30.7 112.95" fill="#48391e" fill-rule="evenodd" stroke="none"/>
    <path d="M50.9 85.8 Q52.05 85.5 52.8 84.8 52.95 84.65 53.2 84.65 54.55 84.95 53.3 85.45 L53.2 85.8 52.85 85.9 Q51.75 88.35 49.75 89.85 L49.75 89.25 49.75 88.7 49.75 88.1 50.75 87.4 50.9 86.95 51.2 86.95 50.9 85.8" fill="#191916" fill-rule="evenodd" stroke="none"/>
    <path d="M49.75 89.25 L49.75 89.85 49.6 90.3 46.85 93.9 46.7 93.45 Q46.55 93.3 46.3 93.3 L46.3 92.75 49.35 89.4 Q49.45 89.25 49.75 89.25" fill="#0e100f" fill-rule="evenodd" stroke="none"/>
    <path d="M46.85 93.9 L49.6 90.3 49.75 89.85 Q51.75 88.35 52.85 85.9 L53.2 85.8 Q55.0 85.25 55.95 83.95 L56.1 83.5 56.55 83.35 Q61.8 77.65 67.65 72.5 L67.5 73.0 Q64.7 77.1 63.05 82.35 L62.55 82.45 Q56.45 87.0 53.8 95.05 L53.8 95.6 53.8 96.2 53.5 96.25 52.05 100.25 52.05 99.95 Q47.95 103.6 42.8 109.5 L42.95 108.95 Q47.35 101.7 50.15 95.5 L35.9 107.15 35.9 106.6 36.35 105.95 36.45 105.45 39.2 103.0 39.35 102.55 39.35 101.95 43.25 98.35 43.4 97.9 44.4 97.2 44.55 96.75 46.7 94.35 46.85 93.9" fill="#3582c7" fill-rule="evenodd" stroke="none"/>
    <path d="M28.95 98.5 Q30.5 97.7 31.45 96.35 31.55 96.2 31.85 96.2 L31.75 96.75 Q30.7 99.35 28.95 98.5" fill="#221d15" fill-rule="evenodd" stroke="none"/>
    <path d="M43.4 97.9 L43.25 98.35 39.35 101.95 39.35 102.55 39.0 102.45 38.8 101.4 Q41.1 99.35 43.4 97.65 L43.4 97.9" fill="#19160d" fill-rule="evenodd" stroke="none"/>
    <path d="M46.3 93.3 Q46.55 93.3 46.7 93.45 L46.85 93.9 46.7 94.35 44.55 96.75 44.2 96.65 Q43.95 96.2 43.95 95.6 45.3 94.9 45.95 93.4 L46.3 93.3" fill="#101211" fill-rule="evenodd" stroke="none"/>
    <path d="M87.85 59.8 L87.9 60.4 Q88.3 63.7 87.3 65.6 L87.3 65.0 87.3 60.4 87.3 59.8 87.85 59.8" fill="#0e1b2b" fill-opacity="0.7921569" fill-rule="evenodd" stroke="none"/>
    <path d="M86.7 65.6 L86.7 65.0 86.7 60.4 87.3 60.4 87.3 65.0 87.3 65.6 86.7 65.6" fill="#1b5292" fill-rule="evenodd" stroke="none"/>
    <path d="M86.7 65.6 L86.6 66.05 85.0 69.05 85.0 68.75 Q84.0 69.4 83.85 68.45 L83.85 67.9 83.85 67.3 Q85.4 66.85 85.85 65.05 L86.15 65.0 86.3 65.45 86.7 65.6" fill="#246bb9" fill-rule="evenodd" stroke="none"/>
    <path d="M87.3 65.6 L87.2 66.15 Q86.35 68.7 85.0 70.8 L85.0 70.2 85.0 69.05 86.6 66.05 86.7 65.6 87.3 65.6" fill="#162d41" fill-opacity="0.8901961" fill-rule="evenodd" stroke="none"/>
    <path d="M80.35 56.35 L80.95 56.35 80.85 56.85 Q80.2 58.2 79.2 59.2 L79.05 58.8 Q78.9 58.65 78.65 58.65 L78.65 58.05 Q79.5 57.5 80.2 56.75 L80.35 56.35" fill="#98bdde" fill-rule="evenodd" stroke="none"/>
    <path d="M75.75 60.95 L75.75 60.4 75.75 59.8 79.9 56.5 Q80.05 56.35 80.35 56.35 L80.2 56.75 Q79.5 57.5 78.65 58.05 L78.65 58.65 Q78.35 58.65 78.25 58.8 77.25 60.15 75.75 60.95" fill="#1b2936" fill-opacity="0.69803923" fill-rule="evenodd" stroke="none"/>
    <path d="M53.8 96.2 L53.8 95.6 53.8 95.05 Q56.45 87.0 62.55 82.45 L63.05 82.35 Q64.7 77.1 67.5 73.0 L67.65 72.5 Q61.8 77.65 56.55 83.35 L56.1 83.5 56.1 82.9 56.1 82.35 Q59.05 80.1 61.15 77.05 L61.3 76.55 Q63.95 74.6 65.8 71.85 L65.9 71.35 67.5 70.05 67.65 69.6 69.8 67.75 69.95 67.3 72.15 65.45 72.3 65.0 Q73.8 64.2 74.5 62.65 L74.6 62.1 75.6 61.4 75.75 60.95 Q77.25 60.15 78.25 58.8 78.35 58.65 78.65 58.65 78.9 58.65 79.05 58.8 L79.2 59.2 79.1 59.75 Q68.0 80.95 53.8 96.2" fill="#adceeb" fill-opacity="0.99607843" fill-rule="evenodd" stroke="none"/>
    <path d="M72.3 63.85 Q73.55 63.35 74.2 62.25 L74.6 62.1 74.5 62.65 Q73.8 64.2 72.3 65.0 L72.3 64.4 72.3 63.85" fill="#1e2326" fill-opacity="0.69411767" fill-rule="evenodd" stroke="none"/>
    <path d="M71.7 58.65 Q72.7 60.25 72.3 63.25 L72.3 63.85 72.3 64.4 72.3 65.0 72.0 64.95 Q71.7 61.8 71.7 58.65" fill="#131516" fill-opacity="0.8156863" fill-rule="evenodd" stroke="none"/>
    <path d="M75.75 73.65 L75.75 73.1 75.75 72.5 Q77.1 71.3 77.75 69.1 L78.05 69.05 78.1 69.6 Q78.7 71.75 76.3 73.65 L75.75 73.65" fill="#3477c3" fill-rule="evenodd" stroke="none"/>
    <path d="M74.0 81.15 L79.4 73.8 Q79.5 73.65 79.8 73.65 L79.65 74.2 Q77.45 78.3 74.6 81.75 L74.6 82.35 74.6 82.9 74.05 82.8 73.45 82.35 73.9 81.7 74.0 81.15" fill="#3c83c9" fill-rule="evenodd" stroke="none"/>
    <path d="M76.3 74.8 L76.2 75.25 Q74.3 77.45 74.0 76.0 75.1 75.35 75.45 73.7 L75.75 73.65 76.3 73.65 76.3 74.25 76.3 74.8" fill="#4788cc" fill-rule="evenodd" stroke="none"/>
    <path d="M79.8 73.65 Q81.25 72.5 82.65 71.65 L82.65 71.95 82.65 72.5 82.65 73.1 Q82.35 75.65 80.95 77.15 L80.95 77.7 80.95 78.3 80.8 78.7 80.35 78.85 Q80.05 78.85 79.95 79.0 77.6 81.3 74.6 82.9 L74.6 82.35 74.6 81.75 Q77.45 78.3 79.65 74.2 L79.8 73.65" fill="#a7ccec" fill-rule="evenodd" stroke="none"/>
    <path d="M80.35 78.85 L80.8 78.7 80.95 78.3 81.55 77.8 82.1 77.7 82.05 78.3 Q81.9 80.15 80.95 81.15 L80.95 82.9 80.95 83.5 80.35 83.5 80.35 82.9 80.35 78.85" fill="#235c9c" fill-rule="evenodd" stroke="none"/>
    <path d="M85.0 69.05 L85.0 70.2 85.0 70.8 84.7 70.8 Q84.8 72.0 83.85 71.95 L83.85 72.5 83.25 72.5 82.65 72.5 82.65 71.95 Q83.65 70.9 83.55 68.45 L83.85 68.45 Q84.0 69.4 85.0 68.75 L85.0 69.05" fill="#327dc2" fill-rule="evenodd" stroke="none"/>
    <path d="M85.0 70.8 L84.95 71.35 Q84.2 74.9 82.65 77.7 L82.1 77.7 82.1 77.15 Q83.15 75.3 83.75 73.05 L83.85 72.5 83.85 71.95 Q84.8 72.0 84.7 70.8 L85.0 70.8" fill="#0c1e2e" fill-opacity="0.8392157" fill-rule="evenodd" stroke="none"/>
    <path d="M83.85 72.5 L83.75 73.05 Q83.15 75.3 82.1 77.15 L82.1 77.7 81.55 77.8 80.95 78.3 80.95 77.7 80.95 77.15 Q82.35 75.65 82.65 73.1 L82.65 72.5 83.25 72.5 83.85 72.5" fill="#3077b7" fill-rule="evenodd" stroke="none"/>
    <path d="M82.65 77.7 L82.65 78.3 Q82.35 81.45 80.95 83.5 L80.95 82.9 80.95 81.15 Q81.9 80.15 82.05 78.3 L82.1 77.7 82.65 77.7" fill="#0e161c" fill-opacity="0.84705883" fill-rule="evenodd" stroke="none"/>
    <path d="M69.95 67.3 L69.8 67.75 67.65 69.6 67.55 69.3 Q66.7 68.85 67.1 67.3 L67.65 67.3 Q67.8 69.15 69.55 67.45 69.7 67.3 69.95 67.3" fill="#302f29" fill-rule="evenodd" stroke="none"/>
    <path d="M57.85 62.7 L57.85 62.1 57.85 47.65 Q58.85 54.15 58.45 62.1 L58.4 62.7 57.85 62.7" fill="#e3e1b2" fill-rule="evenodd" stroke="none"/>
    <path d="M57.85 74.8 L57.85 74.25 57.85 62.7 58.4 62.7 58.4 78.3 58.4 78.85 58.25 79.3 57.85 79.45 57.85 78.85 57.85 74.8" fill="#d4d295" fill-rule="evenodd" stroke="none"/>
    <path d="M57.25 80.0 L57.25 79.45 57.25 74.8 57.85 74.8 57.85 78.85 57.85 79.45 57.7 79.85 57.25 80.0" fill="#e5e4b6" fill-rule="evenodd" stroke="none"/>
    <path d="M54.35 84.05 L54.35 83.5 54.35 82.9 57.1 80.45 57.25 80.0 57.7 79.85 57.85 79.45 58.25 79.3 58.4 78.85 Q59.95 78.1 60.9 76.7 61.0 76.55 61.3 76.55 L61.15 77.05 Q59.05 80.1 56.1 82.35 L56.1 82.9 55.75 83.0 Q55.35 83.9 54.35 84.05" fill="#555852" fill-rule="evenodd" stroke="none"/>
    <path d="M67.65 69.6 L67.5 70.05 65.9 71.35 65.9 70.8 65.9 68.45 67.15 69.5 67.65 69.6" fill="#26241c" fill-rule="evenodd" stroke="none"/>
    <path d="M65.9 71.35 L65.8 71.85 Q63.95 74.6 61.3 76.55 L61.3 76.0 61.3 75.4 Q63.7 73.75 65.5 71.5 L65.9 71.35" fill="#5a5f53" fill-rule="evenodd" stroke="none"/>
    <path d="M35.9 107.15 L50.15 95.5 Q47.35 101.7 42.95 108.95 L42.8 109.5 42.5 109.55 Q41.5 112.5 39.35 114.1 L39.35 114.65 38.9 114.55 38.8 114.1 38.8 113.5 38.8 112.95 Q40.2 111.45 40.5 108.9 L40.5 108.3 40.85 108.2 Q42.35 104.7 39.95 106.0 L39.95 106.6 39.95 107.15 Q39.65 107.15 39.55 107.3 36.05 113.65 31.25 118.7 L31.25 118.15 31.25 117.55 31.25 117.0 Q32.25 115.95 31.9 113.5 L31.85 112.95 31.85 112.35 32.3 112.2 32.4 111.8 32.4 111.2 33.45 110.5 33.6 110.05 Q34.5 108.65 35.75 107.55 L35.9 107.15 M74.6 82.9 L70.45 86.85 Q67.7 89.5 66.5 88.1 70.3 85.0 73.6 81.3 73.7 81.15 74.0 81.15 L73.9 81.7 73.45 82.35 74.05 82.8 74.6 82.9" fill="#accfed" fill-rule="evenodd" stroke="none"/>
    <path d="M53.2 84.65 L53.2 84.05 53.8 84.05 54.35 84.05 Q55.35 83.9 55.75 83.0 L56.1 82.9 56.1 83.5 55.95 83.95 Q55.0 85.25 53.2 85.8 L53.3 85.45 Q54.55 84.95 53.2 84.65" fill="#8aa4b7" fill-rule="evenodd" stroke="none"/>
    <path d="M60.15 99.65 L60.45 99.65 Q58.0 108.75 52.65 118.15 L52.65 118.7 52.5 119.2 51.5 120.45 51.5 121.05 51.5 121.6 51.35 122.1 42.8 137.2 42.45 137.3 Q40.65 141.1 37.6 143.55 L37.6 143.0 37.6 137.2 37.6 136.6 37.6 135.45 Q41.05 130.25 43.85 124.45 L43.95 123.9 53.65 108.8 53.8 108.3 60.0 100.15 60.15 99.65 M52.05 126.25 Q58.25 111.3 65.5 97.15 67.25 93.8 70.15 91.15 75.45 86.4 79.8 83.5 L79.7 84.0 72.85 100.8 72.5 100.7 72.3 99.65 72.3 99.1 Q72.7 92.15 71.1 96.2 L71.1 96.75 Q70.85 96.75 70.8 96.9 62.8 113.6 53.8 129.1 L53.8 129.7 53.8 130.25 53.7 130.8 Q52.85 132.5 51.5 133.75 L51.5 134.3 51.15 134.4 Q49.85 137.25 49.75 134.3 L52.0 126.8 52.05 126.25" fill="#afd1ee" fill-rule="evenodd" stroke="none"/>
    <path d="M80.95 83.5 L80.9 84.05 Q79.9 90.2 77.45 95.05 L77.5 94.45 77.45 92.75 Q79.3 88.8 80.3 84.05 L80.35 83.5 80.95 83.5" fill="#0c161d" fill-opacity="0.8235294" fill-rule="evenodd" stroke="none"/>
    <path d="M79.8 83.5 L80.35 83.5 80.3 84.05 Q79.3 88.8 77.45 92.75 L77.5 94.45 77.45 95.05 77.15 95.15 74.0 103.7 74.0 104.3 74.0 104.85 Q73.7 104.85 73.65 105.0 64.4 118.35 53.8 130.25 L53.8 129.7 53.8 129.1 Q62.8 113.6 70.8 96.9 70.85 96.75 71.1 96.75 72.1 97.25 71.75 99.1 L71.7 99.65 71.7 100.8 71.7 101.4 71.4 101.4 Q71.55 103.55 70.55 104.3 71.2 106.4 72.2 103.65 L72.3 103.1 72.3 102.55 72.3 101.95 72.75 101.35 72.85 100.8 79.7 84.0 79.8 83.5" fill="#317fc4" fill-opacity="0.99607843" fill-rule="evenodd" stroke="none"/>
    <path d="M77.45 95.05 L77.4 95.6 72.85 111.8 72.85 112.95 72.85 113.5 72.3 113.5 72.3 112.95 72.3 112.35 72.3 110.65 Q73.3 108.2 73.95 105.4 L74.0 104.85 74.0 104.3 74.0 103.7 77.15 95.15 77.45 95.05" fill="#151a1c" fill-opacity="0.8862745" fill-rule="evenodd" stroke="none"/>
    <path d="M71.1 96.75 L71.1 96.2 Q72.7 92.15 72.3 99.1 L72.3 99.65 71.7 99.65 71.75 99.1 Q72.1 97.25 71.1 96.75" fill="#5497d3" fill-rule="evenodd" stroke="none"/>
    <path d="M72.3 103.1 L72.2 103.65 Q71.2 106.4 70.55 104.3 71.55 103.55 71.4 101.4 L71.7 101.4 71.95 103.05 72.3 103.1" fill="#5d9cd5" fill-rule="evenodd" stroke="none"/>
    <path d="M72.3 99.65 L72.5 100.7 72.85 100.8 72.75 101.35 72.3 101.95 72.3 102.55 72.3 103.1 71.95 103.05 71.7 101.4 71.7 100.8 71.7 99.65 72.3 99.65" fill="#9dc5e9" fill-rule="evenodd" stroke="none"/>
    <path d="M-5.1 73.65 L-5.1 73.1 Q-1.9 69.25 -4.2 73.55 L-4.55 73.65 -5.1 73.65" fill="#bab97a" fill-rule="evenodd" stroke="none"/>
    <path d="M-5.75 75.05 L-5.25 74.2 -5.1 73.65 -4.55 73.65 -4.65 74.2 -5.75 76.65 -5.75 75.05" fill="#aead66" fill-rule="evenodd" stroke="none"/>
    <path d="M-10.25 98.15 L-10.5 98.0 -10.2 97.15 -10.25 98.15" fill="#2c2c23" fill-rule="evenodd" stroke="none"/>
    <path d="M-5.7 88.8 L-5.7 89.25 -5.7 95.05 -5.7 95.6 -5.65 96.2 Q-5.4 98.25 -6.85 98.5 L-6.85 101.95 -7.5 99.5 Q-8.9 98.8 -10.25 98.15 L-10.2 97.15 Q-8.7 92.6 -5.7 88.8" fill="#c9c67f" fill-rule="evenodd" stroke="none"/>
    <path d="M-5.7 89.25 Q-4.7 91.7 -5.4 95.55 L-5.7 95.6 -5.7 95.05 -5.7 89.25" fill="#dbd9a2" fill-rule="evenodd" stroke="none"/>
    <path d="M9.9 117.0 L9.9 116.4 Q13.0 110.45 10.8 117.5 L10.45 117.55 10.35 117.15 9.9 117.0" fill="#c9c890" fill-rule="evenodd" stroke="none"/>
    <path d="M7.6 122.2 L7.6 121.6 Q9.0 119.85 9.8 117.55 L9.9 117.0 10.35 117.15 10.45 117.55 10.45 118.15 10.45 118.7 10.45 119.3 10.1 119.4 Q9.3 121.0 8.15 122.2 L7.6 122.2" fill="#aaa860" fill-rule="evenodd" stroke="none"/>
    <path d="M2.95 134.3 L2.95 133.75 2.95 133.15 Q5.0 127.7 7.45 122.7 L7.6 122.2 8.15 122.2 8.15 123.35 8.15 123.9 7.85 123.95 Q7.6 126.2 6.45 127.4 L6.9 128.0 7.0 128.55 6.9 129.1 5.3 132.6 5.3 134.3 5.3 134.9 4.95 134.8 Q4.2 133.2 2.95 134.3" fill="#9b9a4b" fill-rule="evenodd" stroke="none"/>
    <path d="M9.3 122.75 L9.25 123.3 Q8.6 126.35 7.0 128.55 L6.9 128.0 6.45 127.4 Q7.6 126.2 7.85 123.95 L8.15 123.9 Q9.1 124.0 9.05 122.75 L9.3 122.75" fill="#bab878" fill-rule="evenodd" stroke="none"/>
    <path d="M10.45 119.3 L10.45 119.85 Q10.3 121.7 9.3 122.75 L9.05 122.75 Q9.1 124.0 8.15 123.9 L8.15 123.35 8.15 122.2 Q9.3 121.0 10.1 119.4 L10.45 119.3" fill="#d5d4a3" fill-rule="evenodd" stroke="none"/>
    <path d="M-12.05 129.75 L-12.5 129.0 Q-12.5 128.25 -12.15 127.85 L-12.05 127.75 -12.05 129.7 -12.05 129.75" fill="#c8c67f" fill-rule="evenodd" stroke="none"/>
    <path d="M-11.5 127.35 L-11.75 130.25 -12.05 129.75 -12.05 129.7 -12.05 127.75 -11.5 127.35" fill="#dddba5" fill-rule="evenodd" stroke="none"/>
    <path d="M2.4 135.45 L2.4 134.9 2.8 134.75 2.95 134.3 Q4.2 133.2 4.95 134.8 L5.3 134.9 Q5.55 134.9 5.7 135.05 L5.85 135.45 5.3 135.45 5.3 136.05 4.75 136.15 4.1 136.6 3.8 136.55 Q3.6 135.7 2.4 136.05 L2.4 135.45" fill="#2e291b" fill-rule="evenodd" stroke="none"/>
    <path d="M5.85 135.45 Q7.55 135.5 8.35 136.5 L8.75 136.6 8.75 137.2 8.15 137.15 Q6.45 136.85 5.3 136.05 L5.3 135.45 5.85 135.45" fill="#181511" fill-rule="evenodd" stroke="none"/>
    <path d="M-2.25 142.4 L-2.25 141.8 Q0.5 139.35 2.05 135.55 L2.4 135.45 2.4 136.05 2.3 136.6 Q0.95 140.35 -2.25 142.4" fill="#474438" fill-rule="evenodd" stroke="none"/>
    <path d="M4.3 154.9 L-3.5 143.45 -2.35 142.8 -2.25 142.4 Q0.95 140.35 2.3 136.6 L2.4 136.05 Q3.6 135.7 3.8 136.55 L4.1 136.6 4.1 137.2 4.1 137.8 Q4.5 139.15 5.15 140.15 L5.3 140.65 5.35 141.2 Q6.55 145.15 6.45 150.5 5.05 151.95 4.4 154.45 L4.3 154.9" fill="#6d5d3e" fill-rule="evenodd" stroke="none"/>
    <path d="M68.8 138.95 L68.65 139.35 68.25 139.5 68.25 139.2 Q65.2 142.85 62.45 147.0 L62.45 148.15 62.45 148.75 62.05 148.9 Q60.05 151.55 58.4 154.55 L58.4 155.7 58.4 156.25 57.9 156.4 56.7 157.4 56.7 160.9 56.7 161.45 Q56.4 161.45 56.25 161.6 L53.8 164.35 53.8 164.9 53.8 165.5 Q53.5 165.5 53.35 165.65 L51.5 167.25 51.5 167.8 51.2 167.85 Q50.65 171.3 49.15 173.6 L49.15 174.75 49.15 175.3 Q48.9 175.3 48.75 175.45 L46.85 177.65 46.85 178.8 46.85 179.35 46.85 179.95 46.35 180.05 Q45.25 180.65 44.55 181.65 L44.55 182.25 Q44.25 182.25 44.15 182.4 40.3 187.25 34.75 190.35 L34.75 190.9 34.75 191.5 Q34.45 191.5 34.25 191.65 L31.25 193.8 31.25 194.4 31.25 194.95 30.8 195.1 Q27.75 197.5 23.75 199.0 L23.75 199.6 23.2 199.65 Q20.9 200.4 17.3 200.35 16.6 195.95 16.5 192.0 16.2 179.35 12.55 169.45 13.45 170.5 15.1 170.7 L16.35 170.35 Q16.0 163.45 12.2 156.25 12.2 159.7 11.65 163.1 11.3 165.3 11.5 166.85 9.45 162.2 6.6 158.15 L6.05 157.4 Q7.3 151.55 8.15 145.3 L7.75 145.15 Q6.4 143.3 5.85 140.65 L6.15 140.65 Q6.0 137.2 4.1 137.8 L4.1 137.2 4.1 136.6 4.75 136.15 5.3 136.05 Q6.45 136.85 8.15 137.15 L8.75 137.2 Q10.9 138.8 11.55 141.85 L11.65 142.4 25.2 187.35 25.5 187.45 Q37.55 184.2 43.05 174.3 43.1 174.15 43.4 174.15 46.2 164.8 40.05 161.8 L39.95 161.45 40.2 161.45 39.95 160.3 43.4 161.15 43.4 160.9 Q49.9 162.7 44.85 158.55 L45.15 158.55 Q47.35 161.3 48.5 157.95 L48.6 157.4 49.15 157.4 49.1 157.95 Q48.0 161.7 50.35 160.3 L50.9 160.25 Q56.2 159.4 54.35 153.95 L53.25 153.3 Q52.35 152.8 51.9 152.7 47.95 152.15 41.65 153.35 L41.3 153.25 41.1 152.2 41.7 152.7 42.25 152.8 Q44.9 152.85 46.15 151.5 L46.3 151.05 53.05 144.0 53.2 143.55 Q54.2 143.4 54.6 142.5 L54.95 142.4 Q57.45 142.0 57.8 139.5 L57.85 138.95 57.85 138.35 Q59.6 137.25 60.4 135.0 60.45 134.9 60.7 134.9 63.55 132.8 65.2 129.65 L65.35 129.1 69.4 124.8 69.4 125.05 Q69.4 130.0 69.7 134.85 L69.95 134.9 69.95 135.45 69.4 135.45 68.8 135.45 Q69.4 136.9 68.9 138.4 L68.8 138.95" fill="#251c0f" fill-opacity="0.99607843" fill-rule="evenodd" stroke="none"/>
    <path d="M6.05 157.4 L4.3 154.9 4.4 154.45 Q5.05 151.95 6.45 150.5 6.55 145.15 5.35 141.2 L5.3 140.65 5.85 140.65 Q6.4 143.3 7.75 145.15 L8.15 145.3 Q7.3 151.55 6.05 157.4" fill="#4a3a1c" fill-rule="evenodd" stroke="none"/>
    <path d="M4.1 137.8 Q6.0 137.2 6.15 140.65 L5.85 140.65 5.3 140.65 5.15 140.15 Q4.5 139.15 4.1 137.8" fill="#2e2413" fill-rule="evenodd" stroke="none"/>
    <path d="M-4.15 142.4 L-2.8 142.4 -2.25 142.4 -2.35 142.8 -3.5 143.45 -4.15 142.4" fill="#4e493b" fill-rule="evenodd" stroke="none"/>
    <path d="M74.0 104.85 L73.95 105.4 Q73.3 108.2 72.3 110.65 L72.3 112.35 72.3 112.95 71.7 112.95 71.7 117.0 71.7 117.55 71.55 118.0 71.1 118.15 71.1 118.7 71.0 119.2 65.35 127.95 65.35 128.55 65.0 128.65 Q63.1 131.8 60.7 134.3 L60.7 134.9 Q60.45 134.9 60.4 135.0 59.6 137.25 57.85 138.35 L57.85 138.95 57.5 139.0 Q56.8 141.1 54.95 141.8 L54.95 142.4 54.6 142.5 Q54.2 143.4 53.2 143.55 L52.7 143.65 Q49.35 145.2 46.3 149.9 L46.3 150.5 46.3 151.05 46.15 151.5 Q44.9 152.85 42.25 152.8 L42.25 152.2 Q47.45 144.15 51.4 134.85 L51.5 134.3 51.5 133.75 Q52.85 132.5 53.7 130.8 L53.8 130.25 Q64.4 118.35 73.65 105.0 73.7 104.85 74.0 104.85" fill="#195db1" fill-rule="evenodd" stroke="none"/>
    <path d="M71.7 117.55 L71.7 117.0 71.7 112.95 72.3 112.95 72.3 113.5 72.3 114.1 Q72.7 116.55 71.7 117.55" fill="#23364d" fill-opacity="0.9882353" fill-rule="evenodd" stroke="none"/>
    <path d="M72.85 113.5 L72.9 114.1 Q73.5 117.6 71.7 118.7 L71.1 118.7 71.1 118.15 71.55 118.0 71.7 117.55 Q72.7 116.55 72.3 114.1 L72.3 113.5 72.85 113.5" fill="#0d1013" fill-opacity="0.8" fill-rule="evenodd" stroke="none"/>
    <path d="M71.7 118.7 L71.65 119.3 Q71.4 120.45 70.55 121.05 L70.55 123.35 70.55 123.9 69.95 123.9 69.95 124.5 69.95 125.05 69.4 125.05 69.4 124.8 65.35 129.1 65.35 128.55 65.35 127.95 71.0 119.2 71.1 118.7 71.7 118.7" fill="#090909" fill-opacity="0.9843137" fill-rule="evenodd" stroke="none"/>
    <path d="M53.8 108.3 L53.65 108.8 43.95 123.9 Q43.7 123.9 43.6 124.05 40.85 128.55 37.6 132.6 L37.05 132.6 36.95 132.25 34.75 131.4 34.6 131.0 34.15 130.85 34.15 130.25 53.4 108.45 53.8 108.3 M39.95 107.15 L40.4 107.8 40.5 108.3 40.5 108.9 Q40.2 111.45 38.8 112.95 L38.8 113.5 38.8 114.1 38.5 114.1 Q38.55 115.3 37.6 115.25 L37.9 116.9 38.2 117.0 38.05 117.45 Q34.9 122.2 31.85 127.4 L31.85 127.95 31.5 127.85 Q30.45 125.6 30.7 122.2 31.7 121.45 31.3 119.3 L31.25 118.7 Q36.05 113.65 39.55 107.3 39.65 107.15 39.95 107.15" fill="#3381c8" fill-rule="evenodd" stroke="none"/>
    <path d="M52.65 118.7 L52.95 118.75 Q53.05 121.45 52.05 123.35 L52.15 122.8 Q52.45 121.55 51.5 121.6 L51.5 121.05 51.5 120.45 52.5 119.2 52.65 118.7" fill="#3c7ec6" fill-rule="evenodd" stroke="none"/>
    <path d="M52.05 123.35 L52.05 123.9 52.05 124.5 Q48.5 130.15 45.25 136.4 43.0 140.65 42.8 137.2 L51.35 122.1 51.5 121.6 Q52.45 121.55 52.15 122.8 L52.05 123.35" fill="#246abb" fill-rule="evenodd" stroke="none"/>
    <path d="M52.05 124.5 L52.05 125.65 52.05 126.25 52.0 126.8 49.75 134.3 Q49.85 137.25 51.15 134.4 L51.5 134.3 51.4 134.85 Q47.45 144.15 42.25 152.2 L42.25 152.8 41.7 152.7 41.1 152.2 40.95 151.7 Q38.85 148.05 37.6 143.55 40.65 141.1 42.45 137.3 L42.8 137.2 Q43.0 140.65 45.25 136.4 48.5 130.15 52.05 124.5" fill="#5c9bd7" fill-rule="evenodd" stroke="none"/>
    <path d="M60.7 134.9 L60.7 134.3 Q63.1 131.8 65.0 128.65 L65.35 128.55 65.35 129.1 65.2 129.65 Q63.55 132.8 60.7 134.9" fill="#101316" fill-rule="evenodd" stroke="none"/>
    <path d="M70.55 123.9 L70.55 124.5 Q70.95 131.55 69.95 137.2 L69.95 136.6 69.95 135.45 69.95 134.9 69.95 134.3 69.95 125.05 69.95 124.5 69.95 123.9 70.55 123.9" fill="#0e1010" fill-opacity="0.8039216" fill-rule="evenodd" stroke="none"/>
    <path d="M69.4 125.05 L69.95 125.05 69.95 134.3 69.95 134.9 69.7 134.85 Q69.4 130.0 69.4 125.05" fill="#1c160c" fill-rule="evenodd" stroke="none"/>
    <path d="M69.95 137.2 L69.85 137.7 68.8 138.95 68.9 138.4 Q69.4 136.9 68.8 135.45 L69.4 135.45 69.95 135.45 69.95 136.6 69.95 137.2" fill="#1e1b15" fill-opacity="0.9137255" fill-rule="evenodd" stroke="none"/>
    <path d="M68.25 139.5 L68.1 140.0 62.45 148.75 62.45 148.15 62.45 147.0 Q65.2 142.85 68.25 139.2 L68.25 139.5" fill="#13110d" fill-opacity="0.92941177" fill-rule="evenodd" stroke="none"/>
    <path d="M54.95 142.4 L54.95 141.8 Q56.8 141.1 57.5 139.0 L57.85 138.95 57.8 139.5 Q57.45 142.0 54.95 142.4" fill="#161716" fill-rule="evenodd" stroke="none"/>
    <path d="M41.65 153.35 Q47.95 152.15 51.9 152.7 52.35 152.8 53.25 153.3 L54.35 153.95 Q56.2 159.4 50.9 160.25 L50.35 160.3 Q48.0 161.7 49.1 157.95 L49.15 157.4 49.5 157.3 Q51.2 154.1 49.15 152.8 L49.15 153.35 49.15 153.95 Q48.9 153.95 48.75 154.1 46.6 156.0 45.15 158.55 L44.85 158.55 Q49.9 162.7 43.4 160.9 L43.0 160.75 Q40.8 158.25 36.45 158.0 37.25 160.4 39.4 161.35 L39.95 161.45 40.05 161.8 Q46.2 164.8 43.4 174.15 43.1 174.15 43.05 174.3 37.55 184.2 25.5 187.45 L25.2 187.35 11.65 142.4 Q17.75 160.0 30.8 170.55 L31.25 170.7 Q34.6 167.7 36.9 163.7 L37.05 163.2 Q32.95 155.75 25.6 151.4 L25.5 151.05 33.0 152.5 33.0 152.2 Q33.15 145.75 31.0 138.45 L30.7 138.35 30.7 137.8 Q33.15 135.9 34.4 132.7 L34.75 132.6 36.4 132.85 36.45 133.15 36.45 134.3 36.45 134.9 36.5 135.45 Q36.9 138.8 35.9 140.65 35.75 142.25 36.35 143.05 L36.45 143.55 37.0 145.85 37.05 146.45 36.65 146.3 34.15 143.55 Q34.5 152.45 41.75 154.15 42.6 154.35 41.65 153.35" fill="#493a1c" fill-rule="evenodd" stroke="none"/>
    <path d="M46.3 151.05 L46.3 150.5 46.3 149.9 Q49.35 145.2 52.7 143.65 L53.2 143.55 53.05 144.0 46.3 151.05" fill="#2b79c1" fill-rule="evenodd" stroke="none"/>
    <path d="M62.45 148.75 L62.35 149.25 Q60.55 152.95 58.4 156.25 L58.4 155.7 58.4 154.55 Q60.05 151.55 62.05 148.9 L62.45 148.75" fill="#100f0c" fill-opacity="0.8745098" fill-rule="evenodd" stroke="none"/>
    <path d="M39.95 107.15 L39.95 106.6 39.95 106.0 Q42.35 104.7 40.85 108.2 L40.5 108.3 40.4 107.8 39.95 107.15" fill="#63a0d7" fill-rule="evenodd" stroke="none"/>
    <path d="M36.45 105.45 L36.35 105.95 35.9 106.6 35.9 107.15 35.75 107.55 Q34.5 108.65 33.6 110.05 L33.6 109.5 33.6 108.9 33.6 108.3 Q35.05 107.2 36.1 105.55 L36.45 105.45" fill="#222d33" fill-rule="evenodd" stroke="none"/>
    <path d="M32.4 111.8 L32.1 111.65 Q31.85 111.2 31.85 110.65 L33.25 109.0 33.6 108.9 33.6 109.5 33.6 110.05 33.45 110.5 32.4 111.2 32.4 111.8" fill="#262319" fill-rule="evenodd" stroke="none"/>
    <path d="M30.7 112.95 L31.25 112.95 31.85 112.95 31.9 113.5 Q32.25 115.95 31.25 117.0 L31.25 117.55 30.7 117.55 30.7 117.0 30.7 112.95" fill="#535249" fill-rule="evenodd" stroke="none"/>
    <path d="M30.7 112.95 L30.7 117.0 30.7 117.55 30.7 119.85 30.7 120.45 30.1 120.45 30.1 119.85 30.1 112.95 30.7 112.95" fill="#544528" fill-rule="evenodd" stroke="none"/>
    <path d="M38.8 114.1 L38.9 114.55 39.35 114.65 39.2 115.15 38.2 116.4 38.2 117.0 37.9 116.9 37.6 115.25 Q38.55 115.3 38.5 114.1 L38.8 114.1" fill="#74aadd" fill-rule="evenodd" stroke="none"/>
    <path d="M31.25 118.7 L31.3 119.3 Q31.7 121.45 30.7 122.2 L30.7 121.6 30.7 120.45 30.7 119.85 30.7 117.55 31.25 117.55 31.25 118.15 31.25 118.7" fill="#385468" fill-rule="evenodd" stroke="none"/>
    <path d="M34.15 130.85 L34.6 131.0 34.75 131.4 34.15 131.4 33.65 131.3 Q29.6 129.3 29.55 123.35 30.5 122.9 30.15 121.0 L30.1 120.45 30.7 120.45 30.7 121.6 30.7 122.2 Q30.45 125.6 31.5 127.85 L31.85 127.95 Q32.0 130.1 33.6 130.75 L34.15 130.85" fill="#33342e" fill-rule="evenodd" stroke="none"/>
    <path d="M37.6 132.6 Q40.85 128.55 43.6 124.05 43.7 123.9 43.95 123.9 L43.85 124.45 Q41.05 130.25 37.6 135.45 L37.6 134.9 37.6 132.6" fill="#478fcf" fill-rule="evenodd" stroke="none"/>
    <path d="M23.75 115.85 L23.75 115.25 23.75 114.65 23.7 114.1 23.2 111.8 23.05 111.25 22.6 110.65 22.45 110.15 Q21.9 109.3 22.05 107.75 22.9 107.15 23.1 106.0 L23.2 105.45 Q24.2 114.05 26.6 123.95 L26.65 124.5 26.05 124.5 25.95 123.95 24.9 121.6 24.95 121.05 Q25.25 117.5 23.75 115.85" fill="#403c2e" fill-rule="evenodd" stroke="none"/>
    <path d="M21.45 112.95 L21.1 112.85 20.85 111.8 Q21.85 111.6 22.25 110.75 L22.6 110.65 23.05 111.25 23.2 111.8 22.7 111.9 21.45 112.95" fill="#919043" fill-rule="evenodd" stroke="none"/>
    <path d="M23.75 114.65 L23.35 114.55 21.45 112.95 22.7 111.9 23.2 111.8 23.7 114.1 23.75 114.65" fill="#a7a665" fill-rule="evenodd" stroke="none"/>
    <path d="M10.45 118.15 Q15.0 116.15 10.95 119.15 L10.45 119.3 10.45 118.7 10.45 118.15" fill="#d1cf9c" fill-rule="evenodd" stroke="none"/>
    <path d="M24.9 123.35 L24.6 123.3 23.75 115.85 Q25.25 117.5 24.95 121.05 L24.9 121.6 24.9 122.75 24.9 123.35" fill="#d1cf99" fill-rule="evenodd" stroke="none"/>
    <path d="M24.9 131.4 L24.9 130.85 24.9 123.35 24.9 122.75 24.9 121.6 25.95 123.95 26.05 124.5 Q25.85 126.45 26.5 127.45 L26.65 127.95 Q26.75 129.6 27.15 130.85 L27.2 131.4 26.65 131.4 24.9 131.4" fill="#c6c380" fill-rule="evenodd" stroke="none"/>
    <path d="M26.05 124.5 L26.65 124.5 Q27.65 125.5 26.95 127.9 L26.65 127.95 26.5 127.45 Q25.85 126.45 26.05 124.5" fill="#4f4e38" fill-rule="evenodd" stroke="none"/>
    <path d="M16.85 134.3 L16.85 133.75 Q21.5 133.5 24.45 131.55 24.6 131.4 24.9 131.4 L26.65 131.4 27.2 131.4 Q28.5 133.55 26.5 133.1 23.55 132.4 17.4 134.9 L17.25 134.45 Q17.1 134.3 16.85 134.3" fill="#3b372c" fill-rule="evenodd" stroke="none"/>
    <path d="M26.05 138.95 L26.05 138.35 26.05 137.8 Q27.2 136.9 28.45 136.15 L28.95 136.05 28.8 136.5 26.05 138.95" fill="#363733" fill-rule="evenodd" stroke="none"/>
    <path d="M24.9 144.7 Q25.85 142.45 26.05 139.5 L26.05 138.95 28.8 136.5 28.95 136.05 Q30.85 136.75 30.4 140.1 L30.7 140.1 30.7 141.8 30.7 142.4 30.7 146.45 30.7 147.0 30.55 147.45 Q27.95 150.3 24.9 145.85 L24.9 145.3 24.9 144.7" fill="#b0d0ec" fill-rule="evenodd" stroke="none"/>
    <path d="M12.2 134.3 L16.25 134.3 16.85 134.3 Q17.1 134.3 17.25 134.45 L17.4 134.9 16.85 134.95 Q13.8 135.3 12.2 134.3" fill="#25231e" fill-rule="evenodd" stroke="none"/>
    <path d="M24.9 144.7 L24.9 145.3 24.9 145.85 24.6 145.85 Q24.75 147.7 23.75 148.15 L23.75 147.6 23.75 144.7 Q24.6 143.3 24.85 144.15 L24.9 144.7" fill="#3a3324" fill-rule="evenodd" stroke="none"/>
    <path d="M23.75 148.15 Q24.75 147.7 24.6 145.85 L24.9 145.85 24.9 149.9 24.9 150.5 24.55 150.35 23.75 148.15" fill="#273e4f" fill-rule="evenodd" stroke="none"/>
    <path d="M30.7 138.35 L31.0 138.45 Q33.15 145.75 33.0 152.2 L33.0 152.5 25.5 151.05 25.05 150.9 24.9 150.5 Q34.25 154.05 31.6 145.35 L31.25 145.3 31.3 144.7 Q31.7 142.85 30.7 142.4 L30.7 141.8 30.7 140.1 30.7 139.5 30.7 138.35" fill="#222b2f" fill-rule="evenodd" stroke="none"/>
    <path d="M24.9 145.85 Q27.95 150.3 30.55 147.45 L30.7 147.0 Q31.65 147.1 31.35 145.85 L31.25 145.3 31.6 145.35 Q34.25 154.05 24.9 150.5 L24.9 149.9 24.9 145.85" fill="#317fc5" fill-rule="evenodd" stroke="none"/>
    <path d="M34.75 131.4 L36.95 132.25 37.05 132.6 36.9 133.0 36.45 133.15 36.4 132.85 34.75 132.6 34.6 132.05 34.15 131.4 34.75 131.4" fill="#1b1a15" fill-rule="evenodd" stroke="none"/>
    <path d="M37.05 132.6 L37.6 132.6 37.6 134.9 37.6 135.45 37.6 136.6 37.6 137.2 37.05 137.2 37.1 136.65 Q37.45 135.1 36.45 134.9 L36.45 134.3 36.45 133.15 36.9 133.0 37.05 132.6" fill="#272b28" fill-rule="evenodd" stroke="none"/>
    <path d="M36.45 143.55 L36.35 143.05 Q35.75 142.25 35.9 140.65 36.9 138.8 36.5 135.45 L36.45 134.9 Q37.45 135.1 37.1 136.65 L37.05 137.2 37.05 143.0 37.05 143.55 36.45 143.55" fill="#070603" fill-rule="evenodd" stroke="none"/>
    <path d="M37.6 137.2 L37.6 143.0 37.6 143.55 37.05 143.55 37.05 143.0 37.05 137.2 37.6 137.2" fill="#8a9daa" fill-rule="evenodd" stroke="none"/>
    <path d="M37.05 146.45 L37.0 145.85 36.45 143.55 37.05 143.55 37.6 143.55 Q38.85 148.05 40.95 151.7 L41.1 152.2 40.7 152.1 37.05 146.45" fill="#302f27" fill-rule="evenodd" stroke="none"/>
    <path d="M41.65 153.35 Q42.6 154.35 41.75 154.15 34.5 152.45 34.15 143.55 L36.65 146.3 37.05 146.45 40.7 152.1 41.1 152.2 41.3 153.25 41.65 153.35" fill="#6c5c3d" fill-rule="evenodd" stroke="none"/>
    <path d="M30.7 147.0 L30.7 146.45 30.7 142.4 Q31.7 142.85 31.3 144.7 L31.25 145.3 31.35 145.85 Q31.65 147.1 30.7 147.0" fill="#67a1d4" fill-rule="evenodd" stroke="none"/>
    <path d="M49.15 153.95 L49.15 153.35 49.15 152.8 Q51.2 154.1 49.5 157.3 L49.15 157.4 48.6 157.4 48.6 156.85 Q49.55 155.8 49.45 153.95 L49.15 153.95" fill="#252825" fill-rule="evenodd" stroke="none"/>
    <path d="M45.15 158.55 Q46.6 156.0 48.75 154.1 48.9 153.95 49.15 153.95 L49.45 153.95 Q49.55 155.8 48.6 156.85 L48.6 157.4 48.5 157.95 Q47.35 161.3 45.15 158.55" fill="#2d76b8" fill-rule="evenodd" stroke="none"/>
    <path d="M39.95 161.45 L39.4 161.35 Q37.25 160.4 36.45 158.0 40.8 158.25 43.0 160.75 L43.4 160.9 43.4 161.15 39.95 160.3 40.2 161.45 39.95 161.45" fill="#281f10" fill-rule="evenodd" stroke="none"/>
    <path d="M49.15 175.3 L49.1 175.9 Q48.5 178.1 46.85 179.35 L46.85 178.8 46.85 177.65 48.75 175.45 Q48.9 175.3 49.15 175.3" fill="#13120e" fill-opacity="0.88235295" fill-rule="evenodd" stroke="none"/>
    <path d="M51.5 168.95 L51.5 169.55 Q51.4 173.5 49.15 175.3 L49.15 174.75 49.15 173.6 Q50.65 171.3 51.2 167.85 L51.5 167.8 51.5 168.4 51.5 168.95" fill="#100e0a" fill-opacity="0.94509804" fill-rule="evenodd" stroke="none"/>
    <path d="M12.55 169.45 Q11.7 168.5 11.5 166.85 11.3 165.3 11.65 163.1 12.2 159.7 12.2 156.25 16.0 163.45 16.35 170.35 L15.1 170.7 Q13.45 170.5 12.55 169.45" fill="#48391b" fill-rule="evenodd" stroke="none"/>
    <path d="M19.15 201.3 L18.55 201.3 17.45 201.3 17.4 200.85 19.1 201.0 19.15 201.3" fill="#0a0b0c" fill-opacity="0.49411765" fill-rule="evenodd" stroke="none"/>
    <path d="M23.75 200.15 L23.65 200.5 Q21.9 201.5 19.15 201.3 L19.1 201.0 17.4 200.85 17.3 200.35 Q20.9 200.4 23.2 199.65 L23.75 199.6 23.75 200.15" fill="#100e0a" fill-opacity="0.9607843" fill-rule="evenodd" stroke="none"/>
    <path d="M31.25 194.95 L31.1 195.4 Q28.0 198.3 23.75 200.15 L23.75 199.6 23.75 199.0 Q27.75 197.5 30.8 195.1 L31.25 194.95" fill="#0f0d0a" fill-opacity="0.91764706" fill-rule="evenodd" stroke="none"/>
    <path d="M46.85 179.95 L46.75 180.45 Q45.95 181.95 44.55 182.85 L44.55 182.25 44.55 181.65 Q45.25 180.65 46.35 180.05 L46.85 179.95" fill="#14130f" fill-opacity="0.92156863" fill-rule="evenodd" stroke="none"/>
    <path d="M44.55 182.85 L44.4 183.3 Q40.25 188.05 34.75 191.5 L34.75 190.9 34.75 190.35 Q40.3 187.25 44.15 182.4 44.25 182.25 44.55 182.25 L44.55 182.85" fill="#110f0b" fill-opacity="0.9529412" fill-rule="evenodd" stroke="none"/>
    <path d="M34.75 191.5 L34.6 191.95 31.25 194.95 31.25 194.4 31.25 193.8 34.25 191.65 Q34.45 191.5 34.75 191.5" fill="#110f0c" fill-opacity="0.9607843" fill-rule="evenodd" stroke="none"/>
    <path d="M58.4 156.25 L58.3 156.8 56.7 161.45 56.7 160.9 56.7 157.4 57.9 156.4 58.4 156.25" fill="#10100e" fill-opacity="0.8235294" fill-rule="evenodd" stroke="none"/>
    <path d="M53.8 165.5 L53.65 166.0 Q52.75 167.6 51.5 168.95 L51.5 168.4 51.5 167.8 51.5 167.25 53.35 165.65 Q53.5 165.5 53.8 165.5" fill="#12110f" fill-opacity="0.8666667" fill-rule="evenodd" stroke="none"/>
    <path d="M56.7 161.45 L56.6 162.0 Q55.65 164.2 53.8 165.5 L53.8 164.9 53.8 164.35 56.25 161.6 Q56.4 161.45 56.7 161.45" fill="#12110d" fill-opacity="0.9490196" fill-rule="evenodd" stroke="none"/>
  </g>
</svg>
