<?xml version="1.0" encoding="UTF-8" standalone="no"?>
<svg xmlns:xlink="http://www.w3.org/1999/xlink" height="225.25px" width="102.8px" xmlns="http://www.w3.org/2000/svg">
  <g transform="matrix(1.0, 0.0, 0.0, 1.0, 21.8, 24.05)">
    <path d="M20.95 -3.85 L20.8 -3.4 Q20.1 -2.65 19.2 -2.1 L19.2 -1.5 19.05 -1.1 16.35 1.35 16.35 1.95 Q16.05 1.95 15.95 2.1 14.9 3.7 13.45 4.85 L13.45 4.25 13.45 3.7 20.55 -4.25 20.95 -4.4 20.95 -3.85" fill="#121210" fill-opacity="0.88235295" fill-rule="evenodd" stroke="none"/>
    <path d="M19.2 -1.5 L19.2 -2.1 Q20.1 -2.65 20.8 -3.4 L20.95 -3.85 21.6 -4.3 22.1 -4.4 Q24.15 -3.8 25.3 -6.7 L25.0 -6.7 25.0 -7.3 Q26.1 -8.5 27.75 -9.25 L27.9 -9.6 Q30.8 -11.3 33.2 -13.5 L33.65 -13.65 Q35.3 -12.6 36.9 -14.5 L37.55 -15.05 Q41.45 -17.4 46.05 -19.15 L45.8 -19.4 45.8 -20.0 Q48.2 -20.2 49.7 -21.35 L49.85 -21.75 51.55 -21.75 52.15 -21.75 56.1 -22.6 56.2 -22.9 57.35 -22.9 57.9 -22.9 Q59.5 -21.9 62.55 -22.35 65.75 -22.85 61.4 -22.9 L61.4 -23.45 65.7 -23.45 68.0 -15.0 70.0 -13.0 71.0 -2.0 Q65.8 3.7 60.8 11.5 60.1 12.55 58.0 12.0 59.7 14.3 64.0 14.0 L65.0 14.0 72.0 18.0 64.0 26.0 57.0 38.0 Q64.55 42.2 74.05 46.9 75.8 47.8 76.0 49.0 L70.35 53.95 69.85 53.7 69.6 53.6 Q66.2 52.35 63.05 53.15 L58.55 54.15 58.2 54.2 Q59.6 55.1 58.55 55.75 L58.2 55.95 Q57.85 54.35 56.75 56.25 57.6 57.4 58.2 57.7 L57.9 58.0 Q57.55 58.4 58.75 59.95 L58.85 60.1 Q59.5 61.55 60.2 61.7 56.15 64.5 52.0 67.0 L61.85 66.55 61.95 68.35 Q59.55 70.05 58.05 72.5 57.9 72.7 57.9 73.0 L57.75 73.4 Q53.95 76.8 51.55 81.65 L51.55 82.8 51.55 83.4 51.0 83.4 51.0 83.95 50.85 84.45 49.25 87.45 49.25 88.0 49.25 88.6 48.65 88.6 48.65 89.75 48.65 90.3 Q49.2 92.4 49.25 94.95 L49.25 95.5 48.95 95.55 Q48.8 98.85 47.5 100.7 L47.5 104.2 47.5 104.75 Q47.4 106.4 46.85 107.6 45.9 109.5 45.1 108.95 44.15 108.35 42.8 110.5 L37.35 118.35 Q36.3 119.75 37.1 118.6 36.55 116.95 35.9 118.0 L35.5 118.25 Q33.95 117.75 32.25 118.75 L31.45 119.05 28.5 119.35 Q28.0 119.35 27.9 122.1 27.3 123.45 27.2 121.5 27.05 118.75 25.7 122.15 25.2 123.3 26.15 123.25 28.8 123.15 27.1 124.05 L27.0 124.1 Q26.9 125.5 25.0 124.4 L25.55 129.55 25.75 129.85 Q26.5 131.1 25.05 131.3 L25.1 131.9 Q25.85 135.7 26.95 138.95 L26.75 139.45 Q25.45 141.0 26.15 141.7 L26.0 142.2 23.25 145.75 Q22.95 144.45 22.25 145.45 21.1 147.0 21.15 144.05 21.15 141.5 20.35 139.4 L20.35 140.55 20.35 141.15 20.05 141.05 Q19.8 140.3 19.8 139.4 L19.8 138.85 Q20.75 138.65 20.6 137.1 20.2 134.0 18.65 134.8 L18.65 134.2 18.55 133.7 Q17.0 130.35 14.6 127.85 L14.9 127.85 Q13.95 126.5 11.7 126.15 L11.25 126.0 5.35 122.1 5.2 121.6 3.6 119.2 3.45 118.75 Q1.25 116.65 1.3 112.25 L1.6 112.2 Q2.3 109.25 1.3 107.65 L1.3 111.1 1.3 111.7 Q1.0 111.4 1.0 111.1 0.85 107.5 1.2 104.15 1.75 99.4 0.75 96.1 0.65 100.65 0.2 104.75 L-0.1 105.5 Q-1.25 106.2 -3.9 106.5 L-4.2 106.4 -6.2 101.3 -5.9 101.25 Q-5.65 99.0 -6.8 97.85 L-6.8 98.4 -7.1 98.35 Q-7.9 94.6 -9.1 91.45 L-10.1 83.35 Q-10.55 79.35 -12.0 76.45 L-12.0 75.9 -12.0 74.7 -12.0 74.15 -12.0 71.85 Q-10.95 69.95 -11.1 66.65 L-11.0 66.0 -10.8 64.9 -10.8 64.35 -10.8 63.15 Q-9.6 60.9 -9.65 57.4 L-9.65 56.8 Q-8.7 56.35 -8.8 54.5 L-8.5 54.5 Q-7.95 55.85 -7.45 54.5 L-7.35 53.95 Q-6.6 56.05 -5.4 57.85 -4.8 58.8 -5.55 55.8 -6.75 51.3 -6.2 44.7 L-6.2 44.1 -6.2 42.95 Q-5.25 43.05 -5.35 41.8 L-5.05 41.8 Q-4.65 42.45 -4.0 40.6 -3.2 38.5 -3.9 37.75 L-3.9 37.2 -3.9 36.6 Q-2.9 36.4 -3.0 34.85 L-2.75 34.85 Q-1.7 35.6 -1.35 32.6 L-1.15 31.9 Q0.4 28.15 2.05 24.85 L3.6 22.15 Q5.15 19.95 4.75 18.7 L4.75 18.1 4.75 17.55 5.8 16.3 5.95 15.8 Q7.05 15.2 7.35 13.55 L7.65 13.5 Q10.1 12.8 10.25 10.05 L9.95 10.05 9.95 9.45 Q11.0 8.75 11.6 7.65 L11.7 7.15 Q12.75 6.45 13.3 5.35 L13.45 4.85 Q14.9 3.7 15.95 2.1 16.05 1.95 16.35 1.95 17.4 2.15 19.25 0.25 20.35 -0.95 19.2 -1.5 M37.7 -9.6 L37.7 -9.05 Q38.2 -2.65 43.45 -5.55 L44.7 -7.85 Q46.5 -10.9 43.45 -11.9 39.7 -13.1 37.7 -9.6 M38.25 3.1 L37.95 3.0 Q36.45 -0.3 33.1 -1.5 26.4 -1.25 23.0 2.3 14.55 11.15 7.9 21.75 4.5 27.1 2.65 33.75 L-0.4 43.55 -0.4 44.1 -0.4 48.75 -0.3 49.2 Q1.4 51.8 4.2 53.35 11.0 53.2 13.75 49.15 L14.3 48.4 Q22.15 38.95 29.0 28.5 32.4 23.2 35.3 17.2 38.0 11.5 38.25 3.1 M16.35 79.35 L16.3 79.9 Q16.0 86.3 19.8 88.6 L20.35 88.65 Q24.75 89.9 27.9 87.45 L28.6 86.45 Q29.8 85.3 29.9 83.35 30.15 78.8 27.9 76.45 25.8 75.05 22.15 75.55 18.05 76.15 16.35 79.35" fill="#efe8c6" fill-opacity="0.99607843" fill-rule="evenodd" stroke="none"/>
    <path d="M16.35 1.95 L16.35 1.35 19.05 -1.1 19.2 -1.5 Q20.35 -0.95 19.25 0.25 17.4 2.15 16.35 1.95" fill="#f5f4d5" fill-rule="evenodd" stroke="none"/>
    <path d="M33.65 -14.25 L33.65 -13.65 33.2 -13.5 Q30.8 -11.3 27.9 -9.6 L27.9 -10.2 27.9 -10.75 33.15 -14.1 33.65 -14.25" fill="#0f0f0d" fill-opacity="0.87058824" fill-rule="evenodd" stroke="none"/>
    <path d="M33.65 -13.65 L33.65 -14.25 33.65 -14.8 37.75 -17.0 38.25 -17.1 38.25 -16.55 38.15 -16.2 33.65 -13.65" fill="#171614" fill-opacity="0.8627451" fill-rule="evenodd" stroke="none"/>
    <path d="M33.65 -13.65 L38.15 -16.2 38.25 -16.55 Q40.65 -17.65 43.4 -18.55 L43.45 -18.85 Q44.6 -18.85 45.3 -19.3 L45.8 -19.4 46.05 -19.15 Q41.45 -17.4 37.55 -15.05 L36.9 -14.5 Q35.3 -12.6 33.65 -13.65" fill="#edecce" fill-opacity="0.99607843" fill-rule="evenodd" stroke="none"/>
    <path d="M38.25 -16.55 L38.25 -17.1 38.25 -17.7 Q41.1 -18.6 43.55 -19.9 L44.05 -20.0 43.9 -19.55 43.45 -19.4 43.45 -18.85 43.4 -18.55 Q40.65 -17.65 38.25 -16.55" fill="#1d1d19" fill-opacity="0.8352941" fill-rule="evenodd" stroke="none"/>
    <path d="M27.9 -10.2 L27.9 -9.6 27.75 -9.25 Q26.1 -8.5 25.0 -7.3 L25.0 -7.85 25.0 -8.45 27.4 -10.05 27.9 -10.2" fill="#0f0f0d" fill-opacity="0.8666667" fill-rule="evenodd" stroke="none"/>
    <path d="M25.0 -6.7 L25.3 -6.7 Q24.15 -3.8 22.1 -4.4 23.65 -5.2 24.6 -6.6 L25.0 -6.7 M11.7 126.15 Q13.95 126.5 14.9 127.85 L14.6 127.85 14.05 127.8 Q12.4 127.45 11.7 126.15" fill="#f8f7d7" fill-rule="evenodd" stroke="none"/>
    <path d="M20.95 -3.85 L20.95 -4.4 20.95 -5.0 24.5 -7.75 25.0 -7.85 25.0 -7.3 25.0 -6.7 24.6 -6.6 Q23.65 -5.2 22.1 -4.4 L21.6 -4.3 20.95 -3.85" fill="#181815" fill-opacity="0.827451" fill-rule="evenodd" stroke="none"/>
    <path d="M37.7 -9.6 Q39.7 -13.1 43.45 -11.9 46.5 -10.9 44.7 -7.85 L43.45 -5.55 Q38.2 -2.65 37.7 -9.05 L37.7 -9.6" fill="#fdfdf9" fill-rule="evenodd" stroke="none"/>
    <path d="M56.2 -22.9 L56.2 -23.45 57.35 -23.45 57.9 -23.45 60.8 -23.45 61.4 -23.45 61.4 -22.9 60.8 -22.9 57.9 -22.9 57.35 -22.9 56.2 -22.9" fill="#57564c" fill-opacity="0.98039216" fill-rule="evenodd" stroke="none"/>
    <path d="M57.9 -23.45 L57.9 -24.05 65.55 -24.0 65.7 -23.45 61.4 -23.45 60.8 -23.45 57.9 -23.45" fill="#0f0f0e" fill-opacity="0.8666667" fill-rule="evenodd" stroke="none"/>
    <path d="M52.15 -21.75 L52.15 -22.3 Q53.3 -23.15 55.6 -22.9 L56.2 -22.9 56.1 -22.6 52.15 -21.75" fill="#43423b" fill-opacity="0.972549" fill-rule="evenodd" stroke="none"/>
    <path d="M45.8 -19.4 L45.3 -19.3 Q44.6 -18.85 43.45 -18.85 L43.45 -19.4 43.9 -19.55 44.05 -20.0 Q46.3 -21.2 49.25 -21.7 L49.85 -21.75 49.7 -21.35 Q48.2 -20.2 45.8 -20.0 L45.8 -19.4" fill="#23221e" fill-opacity="0.8745098" fill-rule="evenodd" stroke="none"/>
    <path d="M57.9 -22.9 L60.8 -22.9 61.4 -22.9 Q65.75 -22.85 62.55 -22.35 59.5 -21.9 57.9 -22.9" fill="#fdfcdb" fill-rule="evenodd" stroke="none"/>
    <path d="M38.25 3.1 Q38.0 11.5 35.3 17.2 32.4 23.2 29.0 28.5 22.15 38.95 14.3 48.4 L13.75 49.15 Q11.0 53.2 4.2 53.35 1.4 51.8 -0.3 49.2 L-0.4 48.75 -0.4 44.1 -0.4 43.55 2.65 33.75 Q4.5 27.1 7.9 21.75 14.55 11.15 23.0 2.3 26.4 -1.25 33.1 -1.5 36.45 -0.3 37.95 3.0 L38.25 3.1" fill="#fefdfc" fill-rule="evenodd" stroke="none"/>
    <path d="M13.45 4.25 L13.45 4.85 13.3 5.35 Q12.75 6.45 11.7 7.15 L11.7 6.55 11.7 6.0 11.7 5.4 Q12.7 5.25 13.1 4.35 L13.45 4.25" fill="#191916" fill-opacity="0.8980392" fill-rule="evenodd" stroke="none"/>
    <path d="M5.95 14.65 L5.95 14.1 11.3 6.7 Q11.4 6.55 11.7 6.55 L11.7 7.15 11.6 7.65 Q11.0 8.75 9.95 9.45 L9.95 10.05 9.85 10.45 Q8.55 11.5 7.65 12.9 L7.65 13.5 7.35 13.55 Q7.05 15.2 5.95 15.8 L5.95 15.25 5.95 14.65" fill="#131311" fill-opacity="0.8980392" fill-rule="evenodd" stroke="none"/>
    <path d="M9.95 10.05 L10.25 10.05 Q10.1 12.8 7.65 13.5 L7.65 12.9 Q8.55 11.5 9.85 10.45 L9.95 10.05" fill="#e3e3c6" fill-opacity="0.99607843" fill-rule="evenodd" stroke="none"/>
    <path d="M-1.6 29.1 L-1.6 28.5 -1.6 27.95 Q2.15 21.6 5.6 14.75 L5.95 14.65 5.95 15.25 5.95 15.8 5.8 16.3 4.75 17.55 4.75 18.1 4.75 18.7 Q4.5 18.7 4.45 18.8 2.3 23.7 -0.4 27.95 L-0.4 28.5 -0.95 28.65 -1.6 29.1" fill="#151513" fill-opacity="0.84313726" fill-rule="evenodd" stroke="none"/>
    <path d="M4.75 18.7 Q5.15 19.95 3.6 22.15 L2.05 24.85 Q0.4 28.15 -1.15 31.9 L-1.35 32.6 Q-1.7 35.6 -2.75 34.85 L-2.75 34.3 -2.75 33.7 Q-1.8 33.8 -2.1 32.55 L-2.15 32.0 Q-1.05 30.8 -0.5 29.05 L-0.4 28.5 -0.4 27.95 Q2.3 23.7 4.45 18.8 4.5 18.7 4.75 18.7" fill="#eeedce" fill-rule="evenodd" stroke="none"/>
    <path d="M16.35 79.35 Q18.05 76.15 22.15 75.55 25.8 75.05 27.9 76.45 30.15 78.8 29.9 83.35 29.8 85.3 28.6 86.45 L27.9 87.45 Q24.75 89.9 20.35 88.65 L19.8 88.6 Q16.0 86.3 16.3 79.9 L16.35 79.35" fill="#f7f6de" fill-rule="evenodd" stroke="none"/>
    <path d="M70.35 53.95 L60.2 61.7 Q59.5 61.55 58.85 60.1 L58.75 59.95 Q57.55 58.4 57.9 58.0 L58.2 57.7 Q57.6 57.4 56.75 56.25 57.85 54.35 58.2 55.95 L58.55 55.75 Q59.6 55.1 58.2 54.2 L58.55 54.15 63.05 53.15 Q66.2 52.35 69.6 53.6 L69.85 53.7 70.35 53.95 M61.85 66.55 Q71.75 67.6 80.0 75.0 L78.25 77.45 76.4 75.9 76.25 75.45 Q75.0 74.4 74.1 73.0 L73.7 72.85 Q72.7 71.45 71.2 70.7 L71.05 70.2 Q69.65 68.5 66.0 68.95 L65.4 69.0 Q60.2 69.5 57.9 73.0 57.9 72.7 58.05 72.5 59.55 70.05 61.95 68.35 L61.85 66.55" fill="#fbf6d3" fill-rule="evenodd" stroke="none"/>
    <path d="M51.55 83.4 L51.55 82.8 51.55 81.65 Q53.95 76.8 57.75 73.4 L57.9 73.0 Q60.2 69.5 65.4 69.0 L66.0 68.95 Q66.75 69.95 68.9 69.8 L68.9 70.1 68.3 70.1 63.1 70.1 62.55 70.1 Q62.25 70.1 62.15 70.25 61.15 71.65 59.65 72.4 L59.65 73.0 Q59.35 73.0 59.2 73.15 54.65 77.5 51.55 83.4" fill="#574d45" fill-rule="evenodd" stroke="none"/>
    <path d="M77.65 78.25 L72.5 84.05 Q71.6 76.9 66.0 74.7 L65.45 74.85 Q60.95 76.9 59.65 82.25 L59.65 82.8 59.05 82.8 Q59.05 86.85 59.35 90.9 L59.65 90.9 59.7 91.45 Q60.6 97.75 66.0 99.55 68.25 98.6 69.75 96.85 L71.0 97.0 Q69.0 101.65 65.15 104.4 L64.85 104.2 64.2 103.65 63.55 102.9 Q63.05 101.35 61.9 100.9 53.1 97.7 49.85 89.15 L49.85 88.6 49.85 88.0 Q51.0 86.3 51.25 83.95 L51.0 83.95 51.0 83.4 51.55 83.4 Q54.65 77.5 59.2 73.15 59.35 73.0 59.65 73.0 61.1 73.25 62.4 70.6 L62.55 70.1 63.1 70.1 69.4 70.4 69.45 70.1 70.1 70.55 70.6 70.7 Q71.65 72.85 74.1 73.3 L74.1 73.0 Q75.0 74.4 76.25 75.45 L76.4 75.9 Q76.55 77.5 77.65 78.25" fill="#d4a393" fill-rule="evenodd" stroke="none"/>
    <path d="M62.55 70.1 L62.4 70.6 Q61.1 73.25 59.65 73.0 L59.65 72.4 Q61.15 71.65 62.15 70.25 62.25 70.1 62.55 70.1" fill="#bb9183" fill-rule="evenodd" stroke="none"/>
    <path d="M63.1 70.1 L68.3 70.1 68.9 70.1 69.45 70.1 69.4 70.4 63.1 70.1" fill="#e0ad9b" fill-rule="evenodd" stroke="none"/>
    <path d="M68.9 70.1 L68.9 69.8 Q66.75 69.95 66.0 68.95 69.65 68.5 71.05 70.2 L71.2 70.7 70.6 70.7 70.1 70.55 69.45 70.1 68.9 70.1" fill="#282723" fill-rule="evenodd" stroke="none"/>
    <path d="M70.6 70.7 L71.2 70.7 Q72.7 71.45 73.7 72.85 L74.1 73.0 74.1 73.3 Q71.65 72.85 70.6 70.7" fill="#443b36" fill-rule="evenodd" stroke="none"/>
    <path d="M72.5 84.05 Q67.9 88.65 62.0 93.0 64.7 96.1 69.75 96.85 68.25 98.6 66.0 99.55 60.6 97.75 59.7 91.45 L59.65 90.9 59.65 90.3 59.65 82.8 59.65 82.25 Q60.95 76.9 65.45 74.85 L66.0 74.7 Q71.6 76.9 72.5 84.05" fill="#fdfcfb" fill-rule="evenodd" stroke="none"/>
    <path d="M59.65 82.8 L59.65 90.3 59.65 90.9 59.35 90.9 Q59.05 86.85 59.05 82.8 L59.65 82.8" fill="#e8cec4" fill-rule="evenodd" stroke="none"/>
    <path d="M49.25 88.6 L49.25 88.0 49.25 87.45 50.85 84.45 51.0 83.95 51.25 83.95 Q51.0 86.3 49.85 88.0 L49.85 88.6 49.85 89.15 49.4 89.0 49.25 88.6" fill="#5a4f45" fill-rule="evenodd" stroke="none"/>
    <path d="M65.15 104.4 Q62.9 106.0 60.0 107.0 L54.0 115.0 77.2 122.75 76.4 125.55 76.4 127.25 Q72.25 130.2 68.2 133.35 L66.6 120.95 Q65.15 125.85 65.15 131.9 L65.0 135.9 60.0 140.0 58.0 145.0 63.6 145.2 Q63.45 150.0 67.15 150.95 68.8 149.7 69.2 147.45 L69.25 147.35 Q71.55 148.8 73.3 151.25 L70.05 149.8 Q69.75 149.8 69.65 149.95 67.85 152.8 65.4 152.1 65.25 151.15 64.65 150.55 64.1 150.0 63.15 150.1 58.15 150.95 54.45 153.3 L53.9 153.2 Q49.55 151.9 45.2 153.3 45.6 151.75 44.05 152.0 L43.4 151.95 Q42.4 148.95 42.9 144.05 42.05 143.2 41.4 144.2 40.7 145.3 40.1 146.75 39.4 148.6 37.7 149.8 L37.7 149.25 Q38.75 147.7 38.55 145.2 L38.25 145.2 38.25 144.6 Q39.25 144.15 39.15 142.3 L39.45 142.3 Q40.0 144.1 40.85 140.65 L41.75 136.55 41.75 135.95 41.75 131.35 Q42.65 129.05 42.55 126.15 42.4 122.15 44.05 120.35 L44.65 120.35 Q44.75 126.55 45.2 132.5 L45.2 133.05 Q48.6 139.45 54.0 143.9 L54.45 144.05 Q55.9 136.8 55.7 128.45 55.6 125.55 54.8 122.7 53.8 119.0 52.3 115.3 L51.2 112.2 Q50.5 109.95 50.15 112.8 L49.85 113.4 49.7 112.9 49.25 112.25 49.25 111.7 Q50.25 110.65 50.1 108.2 L50.4 108.2 Q51.3 108.8 51.25 105.35 51.25 105.05 51.4 104.7 L51.55 103.6 51.9 103.5 Q52.55 101.75 51.55 101.3 51.75 99.35 51.4 98.25 50.85 96.8 50.75 95.5 50.4 92.05 48.65 90.3 L48.65 89.75 48.65 88.6 49.25 88.6 49.4 89.0 49.85 89.15 Q53.1 97.7 61.9 100.9 63.05 101.35 63.55 102.9 L64.2 103.65 64.85 104.2 65.15 104.4" fill="#b47664" fill-rule="evenodd" stroke="none"/>
    <path d="M47.5 104.75 L47.5 104.2 47.5 100.7 Q48.8 98.85 48.95 95.55 L49.25 95.5 50.35 99.0 50.4 99.55 50.05 99.65 47.5 104.75" fill="#d9b250" fill-rule="evenodd" stroke="none"/>
    <path d="M49.25 95.5 L49.25 94.95 Q49.2 92.4 48.65 90.3 50.4 92.05 50.75 95.5 50.85 96.8 51.4 98.25 51.75 99.35 51.55 101.3 L51.0 101.3 50.9 100.75 50.4 99.55 50.35 99.0 49.25 95.5" fill="#5f4938" fill-rule="evenodd" stroke="none"/>
    <path d="M78.25 77.45 L77.65 78.25 Q76.55 77.5 76.4 75.9 L78.25 77.45" fill="#4e4540" fill-rule="evenodd" stroke="none"/>
    <path d="M26.15 141.7 Q25.45 141.0 26.75 139.45 L26.95 138.95 Q25.85 135.7 25.1 131.9 L25.05 131.3 Q26.5 131.1 25.75 129.85 L25.55 129.55 25.0 124.4 Q26.9 125.5 27.0 124.1 L27.1 124.05 Q28.8 123.15 26.15 123.25 25.2 123.3 25.7 122.15 27.05 118.75 27.2 121.5 27.3 123.45 27.9 122.1 28.0 119.35 28.5 119.35 L31.45 119.05 32.25 118.75 Q33.95 117.75 35.5 118.25 L35.9 118.0 Q36.55 116.95 37.1 118.6 36.3 119.75 37.35 118.35 L42.8 110.5 Q44.15 108.35 45.1 108.95 45.9 109.5 46.85 107.6 47.4 106.4 47.5 104.75 L50.05 99.65 50.4 99.55 50.9 100.75 51.0 101.3 51.0 103.05 51.0 103.6 50.85 104.05 50.4 104.2 50.4 107.65 50.4 108.2 50.1 108.2 Q50.25 110.65 49.25 111.7 L49.25 112.25 49.25 112.85 Q49.0 115.8 46.95 116.9 L46.95 117.45 46.95 118.05 Q46.65 118.05 46.5 118.2 L43.45 119.8 43.45 120.35 Q41.3 121.05 41.75 124.4 42.15 127.4 41.15 129.0 L41.15 130.75 41.15 131.35 41.15 131.9 40.85 131.9 Q41.15 137.65 39.45 141.15 L39.45 141.7 39.45 142.3 39.15 142.3 Q39.25 144.15 38.25 144.6 L38.25 145.2 38.2 145.75 Q37.9 147.1 37.1 148.1 L37.1 148.65 37.0 149.2 34.8 153.85 34.8 154.45 34.8 155.0 Q32.5 157.7 28.5 156.05 25.65 154.9 23.25 153.3 L23.25 152.7 Q24.4 150.1 26.15 148.1 27.65 146.4 27.85 142.9 27.9 142.6 28.45 142.35 30.3 141.6 28.45 140.55 30.05 138.4 30.45 135.35 L30.5 135.1 Q29.6 137.35 27.9 138.85 L27.9 139.4 27.9 140.0 27.6 140.0 Q27.4 141.55 26.15 141.7" fill="#f9f3ce" fill-rule="evenodd" stroke="none"/>
    <path d="M51.55 101.3 Q52.55 101.75 51.9 103.5 L51.55 103.6 51.0 103.6 51.0 103.05 51.0 101.3 51.55 101.3" fill="#6a5045" fill-rule="evenodd" stroke="none"/>
    <path d="M51.55 103.6 L51.4 104.7 Q51.25 105.05 51.25 105.35 51.3 108.8 50.4 108.2 L50.4 107.65 50.4 104.2 50.85 104.05 51.0 103.6 51.55 103.6" fill="#503f37" fill-rule="evenodd" stroke="none"/>
    <path d="M49.25 112.25 L49.7 112.9 49.85 113.4 49.8 114.0 Q49.25 116.9 46.95 118.05 L46.95 117.45 46.95 116.9 Q49.0 115.8 49.25 112.85 L49.25 112.25" fill="#5d554c" fill-rule="evenodd" stroke="none"/>
    <path d="M49.85 113.4 L50.15 112.8 Q50.5 109.95 51.2 112.2 L52.3 115.3 Q53.8 119.0 54.8 122.7 55.6 125.55 55.7 128.45 55.9 136.8 54.45 144.05 L54.0 143.9 Q48.6 139.45 45.2 133.05 L45.2 132.5 Q44.75 126.55 44.65 120.35 L46.8 118.5 46.95 118.05 Q49.25 116.9 49.8 114.0 L49.85 113.4 M51.0 131.9 Q55.2 129.65 51.5 126.8 48.1 124.2 46.35 128.45 L46.4 129.0 Q47.25 133.3 51.0 131.9" fill="#d6a695" fill-rule="evenodd" stroke="none"/>
    <path d="M44.65 120.35 L44.05 120.35 43.45 120.35 43.45 119.8 46.5 118.2 Q46.65 118.05 46.95 118.05 L46.8 118.5 44.65 120.35" fill="#827468" fill-rule="evenodd" stroke="none"/>
    <path d="M44.05 120.35 Q42.4 122.15 42.55 126.15 42.65 129.05 41.75 131.35 L41.15 131.35 41.15 130.75 41.15 129.0 Q42.15 127.4 41.75 124.4 41.3 121.05 43.45 120.35 L44.05 120.35" fill="#59473d" fill-rule="evenodd" stroke="none"/>
    <path d="M51.0 131.9 Q47.25 133.3 46.4 129.0 L46.35 128.45 Q48.1 124.2 51.5 126.8 55.2 129.65 51.0 131.9" fill="#fbf7f6" fill-rule="evenodd" stroke="none"/>
    <path d="M41.75 131.35 L41.75 135.95 41.75 136.55 41.45 136.5 Q41.15 134.2 41.15 131.9 L41.15 131.35 41.75 131.35" fill="#412a25" fill-rule="evenodd" stroke="none"/>
    <path d="M41.75 136.55 L40.85 140.65 Q40.0 144.1 39.45 142.3 L39.45 141.7 39.45 141.15 Q41.15 137.65 40.85 131.9 L41.15 131.9 Q41.15 134.2 41.45 136.5 L41.75 136.55" fill="#6d6054" fill-rule="evenodd" stroke="none"/>
    <path d="M37.7 149.8 Q39.4 148.6 40.1 146.75 40.7 145.3 41.4 144.2 42.05 143.2 42.9 144.05 42.4 148.95 43.4 151.95 L44.05 152.0 Q45.6 151.75 45.2 153.3 L45.1 153.8 44.75 154.1 Q41.85 153.2 41.75 155.6 L41.4 155.65 Q39.25 162.3 30.75 162.5 L30.65 162.15 Q27.3 159.9 23.85 157.9 L23.7 157.4 Q23.05 156.35 22.7 155.0 L22.7 154.45 Q27.0 156.5 32.0 157.5 L33.1 157.4 Q34.85 156.8 35.4 155.0 L37.6 150.35 37.7 149.8" fill="#a28d87" fill-rule="evenodd" stroke="none"/>
    <path d="M77.2 122.75 L81.0 124.0 76.4 127.25 76.4 125.55 77.2 122.75" fill="#d5a594" fill-rule="evenodd" stroke="none"/>
    <path d="M68.2 133.35 L65.0 135.9 65.15 131.9 Q65.15 125.85 66.6 120.95 L68.2 133.35 M63.6 145.2 Q66.75 145.75 69.25 147.35 L69.2 147.45 Q68.8 149.7 67.15 150.95 63.45 150.0 63.6 145.2" fill="#d4a493" fill-rule="evenodd" stroke="none"/>
    <path d="M1.3 111.7 L1.3 111.1 1.3 107.65 Q2.3 109.25 1.6 112.2 L1.3 112.25 1.3 111.7" fill="#f9f7d9" fill-rule="evenodd" stroke="none"/>
    <path d="M-3.9 106.5 Q-1.25 106.2 -0.1 105.5 L0.2 104.75 Q0.65 100.65 0.75 96.1 1.75 99.4 1.2 104.15 0.85 107.5 1.0 111.1 1.0 111.4 1.3 111.7 L1.3 112.25 Q1.25 116.65 3.45 118.75 L3.6 119.2 3.1 119.05 0.75 117.45 Q0.45 117.45 0.35 117.3 -2.5 113.8 -3.9 108.8 L-3.9 108.2 -3.9 106.5 M-1.0 111.7 L-0.7 111.6 Q0.6 107.2 -3.3 107.65 L-3.05 109.9 -2.75 109.95 Q-2.35 112.2 -1.0 112.85 L-1.0 112.25 -1.0 111.7" fill="#8c8a48" fill-rule="evenodd" stroke="none"/>
    <path d="M-14.85 63.15 Q-14.25 62.6 -13.2 62.3 L-13.15 62.0 Q-10.9 61.5 -11.35 63.75 L-11.4 64.35 -11.7 64.35 Q-11.55 66.75 -12.55 67.8 L-12.55 69.55 -12.55 70.1 -12.55 71.25 -12.55 71.85 -13.15 71.85 -12.85 76.4 -12.55 76.45 Q-10.75 83.6 -9.7 91.5 L-9.65 92.05 Q-8.2 96.35 -7.1 101.25 L-6.8 101.3 -4.2 108.7 -3.9 108.8 Q-2.5 113.8 0.35 117.3 0.45 117.45 0.75 117.45 2.05 120.5 4.85 121.95 L5.35 122.1 Q7.45 125.2 11.0 126.95 14.2 128.55 16.35 131.35 17.05 132.05 17.15 133.6 17.65 140.1 17.5 147.5 L17.2 147.55 Q16.1 151.9 12.3 153.3 L12.15 152.95 11.4 152.4 Q7.55 148.5 5.15 143.0 L3.35 138.7 Q0.75 132.45 -0.1 124.45 -0.55 120.75 -1.6 117.45 -1.45 122.75 -2.2 127.25 -2.95 131.7 -6.2 133.65 -6.8 133.65 -6.9 133.4 -7.35 132.5 -7.9 131.85 -15.75 122.4 -17.15 106.5 -13.95 101.05 -13.3 93.2 -13.15 91.2 -12.65 89.3 -11.85 85.85 -13.15 82.8 -13.75 85.1 -13.95 88.0 L-13.95 88.55 Q-13.45 93.45 -16.0 94.95 L-16.0 95.25 -20.65 91.45 -20.65 90.9 -20.65 87.45 Q-19.65 86.95 -20.0 85.1 L-20.05 84.55 Q-18.5 81.8 -18.35 77.6 L-18.35 77.05 Q-16.75 73.7 -16.6 68.95 L-16.6 68.35 -15.65 64.85 Q-15.45 63.75 -14.85 63.15" fill="#918e8d" fill-opacity="0.99607843" fill-rule="evenodd" stroke="none"/>
    <path d="M3.6 119.2 L5.2 121.6 5.35 122.1 4.85 121.95 Q2.05 120.5 0.75 117.45 L3.1 119.05 3.6 119.2" fill="#3e3d2e" fill-rule="evenodd" stroke="none"/>
    <path d="M-19.5 97.85 L-19.6 97.35 Q-20.6 96.05 -20.65 93.8 L-20.65 93.2 -20.65 91.45 -16.0 95.25 -16.0 94.95 Q-13.45 93.45 -13.95 88.55 L-13.95 88.0 Q-13.75 85.1 -13.15 82.8 -11.85 85.85 -12.65 89.3 -13.15 91.2 -13.3 93.2 -13.95 101.05 -17.15 106.5 -15.75 122.4 -7.9 131.85 -7.35 132.5 -6.9 133.4 -6.8 133.65 -6.2 133.65 -2.95 131.7 -2.2 127.25 -1.45 122.75 -1.6 117.45 -0.55 120.75 -0.1 124.45 0.75 132.45 3.35 138.7 L5.15 143.0 Q7.55 148.5 11.4 152.4 L12.15 152.95 12.3 153.3 Q16.1 151.9 17.2 147.55 L17.5 147.5 Q17.65 140.1 17.15 133.6 17.05 132.05 16.35 131.35 14.2 128.55 11.0 126.95 7.45 125.2 5.35 122.1 L11.25 126.0 11.7 126.15 Q12.4 127.45 14.05 127.8 L14.6 127.85 Q17.0 130.35 18.55 133.7 L18.65 134.2 18.05 134.2 Q18.25 136.95 19.2 138.55 L19.2 138.25 19.65 138.4 19.8 138.85 19.8 139.4 Q18.85 139.35 19.1 140.6 19.9 145.1 19.35 150.35 L19.1 153.3 Q18.4 161.1 13.45 164.25 10.7 160.65 9.0 156.1 7.2 151.45 5.2 147.3 3.7 144.25 1.75 141.8 -1.05 138.3 -1.0 131.9 -1.8 130.85 -1.85 133.65 L-1.85 134.8 Q-1.7 139.9 -5.05 141.15 -5.6 142.5 -6.45 141.3 -13.4 131.05 -18.35 118.6 L-18.35 118.05 -18.35 103.05 Q-16.5 100.5 -15.3 97.3 L-15.15 96.95 -18.9 99.0 -19.0 98.45 -19.5 97.85" fill="#4e4d4c" fill-opacity="0.99607843" fill-rule="evenodd" stroke="none"/>
    <path d="M18.65 134.2 L18.65 134.8 Q19.45 135.75 19.25 137.7 L19.2 138.25 19.2 138.55 Q18.25 136.95 18.05 134.2 L18.65 134.2" fill="#232221" fill-rule="evenodd" stroke="none"/>
    <path d="M75.85 156.5 L76.0 157.0 Q73.9 161.3 70.9 164.95 L70.0 166.0 69.0 171.95 63.7 172.35 Q60.75 170.65 58.05 168.7 56.9 167.85 56.05 166.8 54.6 165.0 53.85 165.4 50.25 170.45 47.85 176.5 45.65 182.0 39.45 183.3 L39.3 182.9 35.95 179.85 35.8 179.4 Q33.75 177.15 31.35 175.2 L27.9 175.25 24.5 175.6 19.2 175.8 18.85 175.65 5.75 153.95 5.15 152.6 Q4.0 148.3 0.15 146.9 0.3 152.3 2.6 155.35 3.6 156.75 4.2 158.45 L3.6 158.45 3.0 158.05 2.1 157.6 Q-3.2 153.7 -7.35 148.65 -7.05 146.05 -7.85 144.55 L-16.6 127.3 Q-16.6 127.0 -16.75 126.85 -18.65 124.7 -18.9 120.95 -17.95 120.75 -18.25 119.2 L-18.35 118.6 Q-13.4 131.05 -6.45 141.3 -5.6 142.5 -5.05 141.15 -1.7 139.9 -1.85 134.8 L-1.85 133.65 Q-1.8 130.85 -1.0 131.9 -1.05 138.3 1.75 141.8 3.7 144.25 5.2 147.3 7.2 151.45 9.0 156.1 10.7 160.65 13.45 164.25 18.4 161.1 19.1 153.3 L19.35 150.35 Q19.9 145.1 19.1 140.6 18.85 139.35 19.8 139.4 19.8 140.3 20.05 141.05 L20.35 141.15 Q20.2 145.65 21.4 148.7 L21.5 149.25 Q22.2 150.85 22.4 153.25 L22.7 153.3 22.55 153.7 22.1 153.85 22.35 154.9 22.7 155.0 Q23.05 156.35 23.7 157.4 L23.85 157.9 Q26.65 168.95 36.0 173.4 L36.55 173.5 Q40.45 170.75 43.1 166.7 43.2 166.55 43.45 166.55 44.15 162.05 45.15 157.9 L45.2 157.3 48.7 157.0 56.3 156.65 63.2 154.75 Q68.05 153.35 71.95 155.15 L73.95 155.95 75.85 156.5" fill="#272524" fill-opacity="0.99607843" fill-rule="evenodd" stroke="none"/>
    <path d="M18.65 134.8 Q20.2 134.0 20.6 137.1 20.75 138.65 19.8 138.85 L19.65 138.4 19.2 138.25 19.25 137.7 Q19.45 135.75 18.65 134.8" fill="#e1e0c3" fill-rule="evenodd" stroke="none"/>
    <path d="M27.9 140.0 L27.9 139.4 27.9 138.85 Q29.6 137.35 30.5 135.1 L30.45 135.35 Q30.05 138.4 28.45 140.55 L28.3 140.15 27.9 140.0" fill="#dbb54f" fill-rule="evenodd" stroke="none"/>
    <path d="M23.25 145.75 L26.0 142.2 26.15 141.7 Q27.4 141.55 27.6 140.0 L27.9 140.0 28.3 140.15 28.45 140.55 Q30.3 141.6 28.45 142.35 27.9 142.6 27.85 142.9 27.65 146.4 26.15 148.1 24.4 150.1 23.25 152.7 L23.25 153.3 22.7 153.3 22.4 153.25 Q22.2 150.85 21.5 149.25 22.25 147.65 23.15 146.25 L23.25 145.75" fill="#aea350" fill-rule="evenodd" stroke="none"/>
    <path d="M20.35 141.15 L20.35 140.55 20.35 139.4 Q21.15 141.5 21.15 144.05 21.1 147.0 22.25 145.45 22.95 144.45 23.25 145.75 L23.15 146.25 Q22.25 147.65 21.5 149.25 L21.4 148.7 Q20.2 145.65 20.35 141.15" fill="#e9e8c9" fill-rule="evenodd" stroke="none"/>
    <path d="M38.25 145.2 L38.55 145.2 Q38.75 147.7 37.7 149.25 L37.55 148.8 Q37.4 148.65 37.1 148.65 L37.1 148.1 Q37.9 147.1 38.2 145.75 L38.25 145.2" fill="#785f53" fill-rule="evenodd" stroke="none"/>
    <path d="M37.7 149.25 L37.7 149.8 37.6 150.35 35.4 155.0 34.8 155.0 34.8 154.45 34.8 153.85 37.0 149.2 37.1 148.65 Q37.4 148.65 37.55 148.8 L37.7 149.25" fill="#39302c" fill-rule="evenodd" stroke="none"/>
    <path d="M23.25 153.3 Q25.65 154.9 28.5 156.05 32.5 157.7 34.8 155.0 L35.4 155.0 Q34.85 156.8 33.1 157.4 L32.0 157.5 Q27.0 156.5 22.7 154.45 L22.7 155.0 22.35 154.9 22.1 153.85 22.55 153.7 22.7 153.3 23.25 153.3" fill="#413f3b" fill-rule="evenodd" stroke="none"/>
    <path d="M73.3 151.25 Q74.8 153.45 75.85 156.5 L73.95 155.95 71.95 155.15 Q68.05 153.35 63.2 154.75 L56.3 156.65 48.7 157.0 45.2 157.3 45.15 157.9 Q44.15 162.05 43.45 166.55 43.2 166.55 43.1 166.7 40.45 170.75 36.55 173.5 L36.0 173.4 Q26.65 168.95 23.85 157.9 27.3 159.9 30.65 162.15 L30.75 162.5 Q39.25 162.3 41.4 155.65 L41.75 155.6 Q41.85 153.2 44.75 154.1 L45.1 153.8 45.2 153.3 Q49.55 151.9 53.9 153.2 L54.45 153.3 Q58.15 150.95 63.15 150.1 64.1 150.0 64.65 150.55 65.25 151.15 65.4 152.1 67.85 152.8 69.65 149.95 69.75 149.8 70.05 149.8 L73.3 151.25" fill="#5c4f4c" fill-rule="evenodd" stroke="none"/>
    <path d="M7.1 163.65 L6.7 163.55 3.6 158.45 4.2 158.45 Q5.9 160.2 7.0 162.55 L7.1 163.1 7.1 163.65" fill="#14140e" fill-opacity="0.8980392" fill-rule="evenodd" stroke="none"/>
    <path d="M4.2 158.45 Q3.6 156.75 2.6 155.35 0.3 152.3 0.15 146.9 4.0 148.3 5.15 152.6 L5.75 153.95 18.85 175.65 19.2 175.8 24.5 175.6 27.9 175.25 31.35 175.2 Q33.75 177.15 35.8 179.4 L35.95 179.85 36.15 181.55 36.3 182.2 Q36.55 183.9 37.05 185.45 38.15 188.9 34.8 188.5 37.35 189.45 37.4 192.55 L37.1 192.55 36.6 192.4 29.6 187.95 29.5 187.6 Q27.85 186.8 26.7 185.6 L26.6 185.2 Q21.75 181.35 17.5 176.95 L17.35 176.5 Q11.8 170.25 7.1 163.1 L7.0 162.55 Q5.9 160.2 4.2 158.45" fill="#c2bf78" fill-opacity="0.99607843" fill-rule="evenodd" stroke="none"/>
    <path d="M17.5 177.55 L17.05 177.4 Q11.3 171.3 7.1 163.65 L7.1 163.1 Q11.8 170.25 17.35 176.5 L17.5 176.95 17.5 177.55" fill="#0e0e0a" fill-opacity="0.8901961" fill-rule="evenodd" stroke="none"/>
    <path d="M26.7 186.2 L26.25 186.05 Q21.45 182.25 17.5 177.55 L17.5 176.95 Q21.75 181.35 26.6 185.2 L26.7 185.6 26.7 186.2" fill="#171710" fill-opacity="0.93333334" fill-rule="evenodd" stroke="none"/>
    <path d="M35.95 179.85 L39.3 182.9 39.45 183.3 38.85 183.3 Q39.6 187.45 41.55 190.4 L45.8 196.6 45.25 196.5 37.7 193.15 37.25 193.0 37.1 192.55 37.4 192.55 Q37.35 189.45 34.8 188.5 38.15 188.9 37.05 185.45 36.55 183.9 36.3 182.2 L36.15 181.55 35.95 179.85" fill="#959444" fill-opacity="0.99607843" fill-rule="evenodd" stroke="none"/>
    <path d="M69.0 171.95 L67.0 184.0 Q69.8 184.3 75.0 182.0 L75.0 188.0 70.0 196.0 Q70.1 198.25 69.75 200.05 L68.3 200.05 68.3 200.65 66.0 200.7 Q61.85 201.0 59.15 199.9 L58.45 199.75 48.65 198.35 48.55 197.95 45.8 196.6 41.55 190.4 Q39.6 187.45 38.85 183.3 L39.45 183.3 Q45.65 182.0 47.85 176.5 50.25 170.45 53.85 165.4 54.6 165.0 56.05 166.8 56.9 167.85 58.05 168.7 60.75 170.65 63.7 172.35 L69.0 171.95" fill="#c7c37c" fill-opacity="0.99607843" fill-rule="evenodd" stroke="none"/>
    <path d="M37.7 193.7 L37.15 193.6 Q32.85 191.6 29.6 188.5 L29.6 187.95 36.6 192.4 37.1 192.55 37.25 193.0 37.7 193.15 37.7 193.7" fill="#0c0d09" fill-opacity="0.8666667" fill-rule="evenodd" stroke="none"/>
    <path d="M29.6 188.5 L29.1 188.4 Q27.5 187.7 26.7 186.2 L26.7 185.6 Q27.85 186.8 29.5 187.6 L29.6 187.95 29.6 188.5" fill="#0f0f0b" fill-opacity="0.8862745" fill-rule="evenodd" stroke="none"/>
    <path d="M48.65 198.35 L48.1 198.25 Q42.15 196.8 37.7 193.7 L37.7 193.15 45.25 196.5 45.8 196.6 48.55 197.95 48.65 198.35" fill="#12130c" fill-opacity="0.8784314" fill-rule="evenodd" stroke="none"/>
    <path d="M69.75 200.05 L69.65 200.65 68.3 200.65 68.3 200.05 69.75 200.05" fill="#696846" fill-rule="evenodd" stroke="none"/>
    <path d="M69.65 200.65 L69.5 201.2 58.5 201.2 58.45 200.9 Q52.7 200.4 48.65 198.35 L58.45 199.75 59.15 199.9 Q61.85 201.0 66.0 200.7 L68.3 200.65 69.65 200.65" fill="#14140e" fill-opacity="0.8352941" fill-rule="evenodd" stroke="none"/>
    <path d="M-2.15 32.0 L-2.15 31.4 -2.15 29.65 -1.7 29.55 -1.6 29.1 -0.95 28.65 -0.4 28.5 -0.5 29.05 Q-1.05 30.8 -2.15 32.0" fill="#373730" fill-opacity="0.9529412" fill-rule="evenodd" stroke="none"/>
    <path d="M-5.05 39.5 L-5.05 38.9 -5.05 37.75 -2.5 32.1 -2.15 32.0 -2.1 32.55 Q-1.8 33.8 -2.75 33.7 L-2.75 34.3 -2.75 34.85 -3.0 34.85 Q-2.9 36.4 -3.9 36.6 L-3.9 37.2 -3.9 37.75 -4.0 38.25 -5.05 39.5" fill="#2b2a25" fill-opacity="0.93333334" fill-rule="evenodd" stroke="none"/>
    <path d="M-5.05 40.05 L-5.05 39.5 -4.0 38.25 -3.9 37.75 Q-3.2 38.5 -4.0 40.6 -4.65 42.45 -5.05 41.8 L-5.05 41.2 -5.05 40.05" fill="#f0efd1" fill-rule="evenodd" stroke="none"/>
    <path d="M-6.8 44.1 L-6.8 43.55 -6.8 41.8 Q-5.5 41.65 -5.35 40.1 L-5.05 40.05 -5.05 41.2 -5.05 41.8 -5.35 41.8 Q-5.25 43.05 -6.2 42.95 L-6.2 44.1 -6.2 44.7 -6.8 44.7 -6.8 44.1" fill="#22211b" fill-opacity="0.92156863" fill-rule="evenodd" stroke="none"/>
    <path d="M-8.5 51.6 L-8.5 51.05 -8.5 49.3 Q-6.4 48.55 -6.75 45.25 L-6.8 44.7 -6.2 44.7 Q-6.75 51.3 -5.55 55.8 -4.8 58.8 -5.4 57.85 -6.6 56.05 -7.35 53.95 L-7.35 53.35 Q-7.0 48.45 -8.5 51.6" fill="#989652" fill-opacity="0.99607843" fill-rule="evenodd" stroke="none"/>
    <path d="M-8.5 49.3 L-8.5 48.75 -8.5 47.6 Q-7.35 46.4 -7.05 44.15 L-6.8 44.1 -6.8 44.7 -6.75 45.25 Q-6.4 48.55 -8.5 49.3" fill="#13130a" fill-opacity="0.8509804" fill-rule="evenodd" stroke="none"/>
    <path d="M-8.5 52.2 L-8.5 51.6 Q-7.0 48.45 -7.35 53.35 L-7.35 53.95 -7.45 54.5 Q-7.95 55.85 -8.5 54.5 L-8.5 53.95 -8.5 52.2" fill="#f0efcf" fill-rule="evenodd" stroke="none"/>
    <path d="M-9.65 56.8 L-9.65 56.25 -9.65 53.95 Q-8.7 53.75 -8.8 52.2 L-8.5 52.2 -8.5 53.95 -8.5 54.5 -8.8 54.5 Q-8.7 56.35 -9.65 56.8" fill="#47463e" fill-opacity="0.99215686" fill-rule="evenodd" stroke="none"/>
    <path d="M-10.8 60.3 L-10.8 59.7 Q-9.85 58.95 -9.95 56.8 L-9.65 56.8 -9.65 57.4 Q-9.6 60.9 -10.8 63.15 L-10.8 62.6 -10.8 60.3" fill="#46453d" fill-opacity="0.98039216" fill-rule="evenodd" stroke="none"/>
    <path d="M-13.15 62.0 L-13.15 61.45 Q-11.55 61.55 -11.15 60.4 L-10.8 60.3 -10.8 62.6 -10.8 63.15 -10.8 64.35 -10.8 64.9 -11.25 64.75 -11.4 64.35 -11.35 63.75 Q-10.9 61.5 -13.15 62.0" fill="#10100f" fill-opacity="0.8392157" fill-rule="evenodd" stroke="none"/>
    <path d="M-10.8 64.9 L-11.0 66.0 -11.1 66.65 Q-10.95 69.95 -12.0 71.85 L-11.9 71.25 Q-11.6 70.05 -12.55 70.1 L-12.55 69.55 -12.55 67.8 Q-11.55 66.75 -11.7 64.35 L-11.4 64.35 -11.25 64.75 -10.8 64.9" fill="#41403b" fill-opacity="0.95686275" fill-rule="evenodd" stroke="none"/>
    <path d="M-16.6 67.2 L-16.6 66.65 -16.6 64.35 -15.35 63.3 -14.85 63.15 Q-15.45 63.75 -15.65 64.85 L-16.6 68.35 -16.6 67.8 -16.6 67.2" fill="#171616" fill-opacity="0.9137255" fill-rule="evenodd" stroke="none"/>
    <path d="M-18.9 77.05 L-18.9 76.45 -18.9 75.9 Q-17.0 72.6 -16.9 67.2 L-16.6 67.2 -16.6 67.8 -16.6 68.35 -16.6 68.95 Q-16.75 73.7 -18.35 77.05 L-18.9 77.05" fill="#121211" fill-opacity="0.8392157" fill-rule="evenodd" stroke="none"/>
    <path d="M-12.0 74.7 L-12.0 75.9 -12.0 76.45 -12.55 76.45 -12.85 76.4 -13.15 71.85 -12.55 71.85 -12.3 74.65 -12.0 74.7" fill="#3b3937" fill-opacity="0.94509804" fill-rule="evenodd" stroke="none"/>
    <path d="M-12.0 71.85 L-12.0 74.15 -12.0 74.7 -12.3 74.65 -12.55 71.85 -12.55 71.25 -12.55 70.1 Q-11.6 70.05 -11.9 71.25 L-12.0 71.85" fill="#0a0a09" fill-opacity="0.91764706" fill-rule="evenodd" stroke="none"/>
    <path d="M-21.2 88.6 L-21.2 88.0 -21.2 86.85 Q-20.25 86.65 -20.6 85.1 L-20.65 84.55 -20.05 84.55 -20.0 85.1 Q-19.65 86.95 -20.65 87.45 L-20.65 90.9 -20.65 91.45 -20.95 91.4 -21.2 88.6" fill="#282727" fill-opacity="0.9254902" fill-rule="evenodd" stroke="none"/>
    <path d="M-20.65 84.55 L-20.65 83.95 -20.65 82.8 Q-19.65 80.35 -18.95 77.6 L-18.9 77.05 -18.35 77.05 -18.35 77.6 Q-18.5 81.8 -20.05 84.55 L-20.65 84.55" fill="#131313" fill-opacity="0.87058824" fill-rule="evenodd" stroke="none"/>
    <path d="M-20.65 93.8 L-20.95 93.7 Q-21.8 91.5 -21.8 88.6 L-21.2 88.6 -20.95 91.4 -20.65 91.45 -20.65 93.2 -20.65 93.8" fill="#030303" fill-opacity="0.8117647" fill-rule="evenodd" stroke="none"/>
    <path d="M-12.0 76.45 Q-10.55 79.35 -10.1 83.35 L-9.1 91.45 Q-9.1 91.75 -9.25 91.9 L-9.65 92.05 -9.7 91.5 Q-10.75 83.6 -12.55 76.45 L-12.0 76.45" fill="#2d2c28" fill-rule="evenodd" stroke="none"/>
    <path d="M-16.6 127.3 L-17.1 127.15 Q-19.8 125.6 -20.05 121.5 -18.7 116.5 -18.65 109.95 -18.65 103.35 -19.5 97.85 L-19.0 98.45 -18.9 99.0 Q-18.05 100.15 -18.3 102.45 L-18.35 103.05 -18.35 118.05 -18.35 118.6 -18.25 119.2 Q-17.95 120.75 -18.9 120.95 -18.65 124.7 -16.75 126.85 -16.6 127.0 -16.6 127.3" fill="#050505" fill-opacity="0.8117647" fill-rule="evenodd" stroke="none"/>
    <path d="M-18.9 99.0 L-15.15 96.95 -15.3 97.3 Q-16.5 100.5 -18.35 103.05 L-18.3 102.45 Q-18.05 100.15 -18.9 99.0" fill="#262525" fill-opacity="0.99607843" fill-rule="evenodd" stroke="none"/>
    <path d="M-9.1 91.45 Q-7.9 94.6 -7.1 98.35 L-6.8 98.4 -6.8 100.15 -6.8 100.7 -6.8 101.3 -7.1 101.25 Q-8.2 96.35 -9.65 92.05 L-9.25 91.9 Q-9.1 91.75 -9.1 91.45" fill="#363530" fill-rule="evenodd" stroke="none"/>
    <path d="M-6.8 98.4 L-6.8 97.85 Q-5.65 99.0 -5.9 101.25 L-6.2 101.3 Q-6.2 101.0 -6.35 100.85 -6.5 100.7 -6.8 100.7 L-6.8 100.15 -6.8 98.4" fill="#edeacc" fill-rule="evenodd" stroke="none"/>
    <path d="M-6.2 101.3 L-4.2 106.4 -3.9 106.5 -3.9 108.2 -3.9 108.8 -4.2 108.7 -6.8 101.3 -6.8 100.7 Q-6.5 100.7 -6.35 100.85 -6.2 101.0 -6.2 101.3" fill="#33322f" fill-rule="evenodd" stroke="none"/>
    <path d="M-2.75 109.95 L-3.05 109.9 -3.3 107.65 Q0.6 107.2 -0.7 111.6 L-1.0 111.7 -1.0 110.55 Q-0.85 108.15 -1.2 109.45 -1.65 111.25 -2.75 109.4 L-2.75 109.95" fill="#e3e1ba" fill-rule="evenodd" stroke="none"/>
    <path d="M-2.75 109.95 L-2.75 109.4 Q-1.65 111.25 -1.2 109.45 -0.85 108.15 -1.0 110.55 L-1.0 111.7 -1.0 112.25 -1.0 112.85 Q-2.35 112.2 -2.75 109.95" fill="#f2f0d0" fill-rule="evenodd" stroke="none"/>
  </g>
</svg>
