<?xml version="1.0" encoding="UTF-8" standalone="no"?>
<svg xmlns:xlink="http://www.w3.org/1999/xlink" height="225.2px" width="101.95px" xmlns="http://www.w3.org/2000/svg">
  <g transform="matrix(1.0, 0.0, 0.0, 1.0, 21.0, 18.0)">
    <path d="M9.15 -15.75 L15.0 -12.95 15.55 -12.85 Q17.45 -10.15 21.3 -9.65 L21.3 -9.95 22.5 -9.45 23.05 -9.4 Q24.05 -8.35 25.4 -7.75 L25.9 -7.65 Q26.6 -6.6 27.7 -6.05 L28.25 -5.9 28.25 -5.35 Q30.75 -3.2 30.85 0.75 L30.5 0.55 29.95 0.45 Q27.4 -2.45 29.25 1.1 L29.4 1.6 Q35.6 6.95 38.55 15.5 L38.65 16.05 Q45.05 18.25 49.35 22.65 L51.15 24.35 Q55.15 27.55 58.25 31.65 L59.1 33.8 59.4 33.95 63.15 44.25 63.45 44.35 65.45 51.2 65.8 51.25 Q66.35 51.85 66.35 53.0 L66.35 53.6 67.2 57.55 67.5 57.6 67.5 58.2 Q67.5 61.1 68.55 62.9 L68.65 63.4 69.5 69.1 69.8 69.15 69.8 69.75 69.8 70.35 69.8 70.9 Q69.05 77.65 66.9 83.0 64.75 88.35 63.05 94.05 61.1 100.85 58.25 106.7 58.05 107.5 58.45 110.25 58.85 112.8 58.4 115.3 L56.55 123.45 56.55 124.05 56.55 124.6 56.4 125.05 Q55.65 125.8 54.8 126.35 L54.8 126.95 54.35 127.05 Q50.4 130.9 45.55 133.85 45.25 133.85 45.1 134.0 43.45 135.2 42.1 136.75 L42.1 137.35 41.5 137.35 41.15 137.45 39.2 140.8 39.45 142.45 39.8 142.55 Q39.35 148.15 37.85 152.85 L37.75 153.5 Q37.9 156.8 36.9 158.7 L36.9 159.3 36.35 159.35 35.15 159.85 34.75 159.7 Q32.65 157.2 29.95 155.25 L29.95 154.65 29.95 154.1 Q30.1 152.5 28.85 152.15 L28.6 151.9 Q29.4 149.45 30.55 147.15 L34.0 139.65 34.0 139.05 Q33.0 139.45 33.1 138.5 L33.25 137.3 34.25 133.75 34.3 133.3 Q34.35 130.05 33.55 128.05 32.65 125.85 31.1 125.2 32.65 125.55 32.05 124.15 31.1 122.0 29.7 120.25 L25.6 115.7 23.8 113.5 Q22.05 111.15 20.7 110.75 19.85 103.3 21.5 95.8 L21.6 95.45 21.3 95.15 Q22.15 94.6 21.9 92.3 21.85 91.15 21.2 90.8 L20.7 90.55 Q21.6 89.85 20.7 88.8 L20.25 88.7 Q12.85 83.65 9.15 74.95 L9.45 74.95 Q8.35 72.75 8.0 68.0 7.75 68.0 7.5 68.15 L7.15 68.3 Q6.15 67.05 6.85 67.1 8.1 67.2 7.6 66.6 6.5 65.25 7.45 64.55 8.25 63.7 6.4 62.6 L3.7 60.75 3.4 60.5 Q2.4 60.9 2.4 59.95 2.35 57.2 1.1 59.35 L1.1 59.95 Q0.5 59.95 -0.5 60.3 L-2.65 59.95 3.0 55.0 Q2.8 53.8 1.05 52.9 -8.45 48.2 -16.0 44.0 L-9.0 32.0 -1.0 24.0 -8.0 20.0 -9.0 20.0 Q-13.3 20.3 -15.0 18.0 -12.9 18.55 -12.2 17.5 -7.2 9.7 -2.0 4.0 L-3.0 -7.0 -5.0 -9.0 -7.3 -17.45 -2.4 -17.45 -1.8 -17.45 -1.8 -16.9 -2.4 -16.9 -4.7 -16.9 1.05 -16.6 1.1 -16.9 Q4.6 -16.05 8.6 -15.75 L9.15 -15.75 M-11.15 72.55 L-21.0 73.0 -12.8 67.7 Q-12.2 67.8 -11.6 66.85 -10.9 67.6 -11.1 69.8 L-11.15 72.55 M31.7 20.65 L31.55 21.1 29.4 22.95 29.4 23.55 29.4 24.1 28.8 24.1 28.8 23.85 25.35 26.45 25.5 26.85 25.9 27.0 25.8 27.45 22.45 30.45 22.05 30.6 Q20.8 32.3 19.0 33.35 19.0 33.65 19.15 33.8 L19.55 33.95 19.4 34.35 17.85 35.65 Q18.3 37.35 20.15 35.1 L22.45 32.2 24.35 30.05 Q24.5 29.9 24.75 29.9 25.85 30.1 27.45 28.0 L31.95 22.7 31.7 22.4 31.7 21.8 32.15 21.15 32.3 20.65 34.9 18.1 35.15 17.75 Q33.45 18.65 31.7 20.1 L31.7 20.65 M36.8 14.3 L36.9 13.7 Q36.4 15.0 35.15 16.05 36.3 18.15 36.8 14.3 M9.75 46.65 L9.75 46.05 13.2 45.8 13.2 45.5 Q16.1 45.2 15.55 41.45 L15.55 40.85 Q16.25 38.95 17.55 37.7 L17.85 37.4 10.9 43.2 10.9 43.75 10.9 44.35 10.5 44.45 Q9.55 45.85 8.0 46.65 L8.0 47.2 8.0 47.8 7.85 48.25 6.3 49.55 Q6.25 52.15 8.25 49.75 9.95 47.7 9.75 46.65 M32.3 61.1 Q31.35 66.35 34.55 67.5 38.4 68.9 40.35 65.7 41.7 63.6 40.6 61.55 L40.1 60.85 Q35.95 57.2 32.3 61.1 M59.1 64.55 L59.15 64.85 Q59.85 61.55 58.85 59.35 58.85 61.95 59.1 64.55 M-1.3 11.9 Q-6.15 11.1 -7.6 14.3 -8.25 19.6 -4.2 20.4 -0.3 21.2 1.1 17.2 2.25 14.55 -0.05 12.55 -0.65 12.0 -1.3 11.9" fill="#efe8c6" fill-opacity="0.99607843" fill-rule="evenodd" stroke="none"/>
    <path d="M15.55 -12.85 L15.0 -12.95 9.15 -15.75 Q17.35 -13.8 23.5 -9.75 L23.6 -9.4 23.05 -9.4 22.5 -9.45 21.3 -9.95 21.2 -10.3 15.55 -12.85" fill="#0e0d0c" fill-opacity="0.8666667" fill-rule="evenodd" stroke="none"/>
    <path d="M9.15 -15.75 L8.6 -15.75 Q4.6 -16.05 1.1 -16.9 L0.5 -16.9 -1.8 -16.9 -1.8 -17.45 1.1 -17.45 1.65 -17.45 Q5.65 -17.15 9.1 -16.05 L9.15 -15.75" fill="#31302b" fill-opacity="0.8980392" fill-rule="evenodd" stroke="none"/>
    <path d="M-1.8 -17.45 L-2.4 -17.45 -7.3 -17.45 -7.45 -18.0 1.65 -17.75 1.65 -17.45 1.1 -17.45 -1.8 -17.45" fill="#0f0f0e" fill-opacity="0.8666667" fill-rule="evenodd" stroke="none"/>
    <path d="M1.1 -16.9 L1.05 -16.6 -4.7 -16.9 -2.4 -16.9 -1.8 -16.9 0.5 -16.9 1.1 -16.9" fill="#fdfcdc" fill-rule="evenodd" stroke="none"/>
    <path d="M25.9 -7.65 L25.4 -7.75 Q24.05 -8.35 23.05 -9.4 L23.6 -9.4 Q25.3 -9.05 26.35 -8.05 L26.5 -7.65 25.9 -7.65" fill="#191816" fill-opacity="0.9019608" fill-rule="evenodd" stroke="none"/>
    <path d="M28.25 -5.9 L27.7 -6.05 Q26.6 -6.6 25.9 -7.65 L26.5 -7.65 29.25 -6.3 29.4 -5.9 28.8 -5.9 28.25 -5.9" fill="#141410" fill-opacity="0.88235295" fill-rule="evenodd" stroke="none"/>
    <path d="M21.3 -9.95 L21.3 -9.65 Q17.45 -10.15 15.55 -12.85 L21.2 -10.3 21.3 -9.95" fill="#d7d5bb" fill-opacity="0.99607843" fill-rule="evenodd" stroke="none"/>
    <path d="M28.25 -5.35 L28.25 -5.9 28.8 -5.9 29.4 -5.9 Q37.2 -0.4 43.1 6.9 L43.25 7.35 42.65 7.35 42.3 7.25 Q38.2 1.45 32.3 -2.45 L32.15 -2.85 Q30.35 -4.3 28.25 -5.35" fill="#0f0f0d" fill-opacity="0.8980392" fill-rule="evenodd" stroke="none"/>
    <path d="M58.25 31.65 Q55.15 27.55 51.15 24.35 L49.35 22.65 Q45.05 18.25 38.65 16.05 L38.55 15.5 Q35.6 6.95 29.4 1.6 L29.25 1.1 Q27.4 -2.45 29.95 0.45 L30.5 0.55 30.85 0.75 Q30.75 -3.2 28.25 -5.35 30.35 -4.3 32.15 -2.85 L32.3 -2.45 32.85 2.75 32.85 3.35 Q37.05 7.8 39.1 14.35 L39.2 14.9 Q41.4 15.85 43.25 17.2 45.65 19.0 47.85 18.35 47.4 14.5 45.7 11.9 L45.55 11.4 Q53.0 20.15 58.15 31.1 L58.25 31.65" fill="#9f9d54" fill-opacity="0.99607843" fill-rule="evenodd" stroke="none"/>
    <path d="M32.3 -2.45 Q38.2 1.45 42.3 7.25 L42.65 7.35 45.4 10.95 45.55 11.4 45.7 11.9 Q47.4 14.5 47.85 18.35 45.65 19.0 43.25 17.2 41.4 15.85 39.2 14.9 L39.1 14.35 Q37.05 7.8 32.85 3.35 L32.85 2.75 32.3 -2.45" fill="#f1efcf" fill-opacity="0.99607843" fill-rule="evenodd" stroke="none"/>
    <path d="M59.4 33.95 L59.1 33.8 58.25 31.65 58.15 31.1 Q53.0 20.15 45.55 11.4 L45.4 10.95 42.65 7.35 43.25 7.35 Q51.55 16.35 57.55 27.65 59.1 30.55 60.0 33.95 L59.4 33.95" fill="#11110d" fill-opacity="0.87058824" fill-rule="evenodd" stroke="none"/>
    <path d="M63.45 44.35 L63.15 44.25 59.4 33.95 60.0 33.95 Q62.95 38.8 64.55 44.95 L64.6 45.5 64.35 45.5 Q64.4 44.25 63.45 44.35" fill="#2b2b1d" fill-opacity="0.88235295" fill-rule="evenodd" stroke="none"/>
    <path d="M65.8 51.25 L65.45 51.2 63.45 44.35 Q64.4 44.25 64.35 45.5 L64.6 45.5 65.7 48.4 65.8 48.95 65.8 50.7 65.8 51.25" fill="#4d4c33" fill-opacity="0.9529412" fill-rule="evenodd" stroke="none"/>
    <path d="M25.9 27.0 L25.5 26.85 25.35 26.45 28.8 23.85 28.8 24.1 28.65 24.55 25.9 27.0" fill="#f0efcc" fill-rule="evenodd" stroke="none"/>
    <path d="M24.75 29.9 Q24.5 29.9 24.35 30.05 L22.45 32.2 21.9 32.2 21.9 31.65 22.35 31.0 22.45 30.45 25.8 27.45 25.9 27.0 28.65 24.55 28.8 24.1 29.4 24.1 29.25 24.6 Q27.45 27.35 24.75 29.3 L24.75 29.9" fill="#a3a157" fill-rule="evenodd" stroke="none"/>
    <path d="M31.7 22.4 L31.95 22.7 27.45 28.0 Q25.85 30.1 24.75 29.9 L24.75 29.3 Q27.45 27.35 29.25 24.6 L29.4 24.1 Q30.65 23.65 31.35 22.5 L31.7 22.4" fill="#eeedc9" fill-rule="evenodd" stroke="none"/>
    <path d="M29.4 24.1 L29.4 23.55 29.4 22.95 31.55 21.1 31.7 20.65 32.3 20.65 32.15 21.15 31.7 21.8 31.7 22.4 31.35 22.5 Q30.65 23.65 29.4 24.1" fill="#a09e52" fill-rule="evenodd" stroke="none"/>
    <path d="M36.8 14.3 Q36.3 18.15 35.15 16.05 36.4 15.0 36.9 13.7 L36.8 14.3" fill="#a6a45d" fill-rule="evenodd" stroke="none"/>
    <path d="M31.7 20.65 L31.7 20.1 Q33.45 18.65 35.15 17.75 L34.9 18.1 32.3 20.65 31.7 20.65" fill="#a6a45b" fill-rule="evenodd" stroke="none"/>
    <path d="M19.55 33.95 L19.15 33.8 Q19.0 33.65 19.0 33.35 20.8 32.3 22.05 30.6 L22.45 30.45 22.35 31.0 21.9 31.65 21.9 32.2 Q21.6 32.2 21.5 32.35 20.8 33.45 19.55 33.95" fill="#f0efcd" fill-rule="evenodd" stroke="none"/>
    <path d="M22.45 32.2 L20.15 35.1 Q18.3 37.35 17.85 35.65 L19.4 34.35 19.55 33.95 Q20.8 33.45 21.5 32.35 21.6 32.2 21.9 32.2 L22.45 32.2" fill="#aba963" fill-rule="evenodd" stroke="none"/>
    <path d="M9.75 46.65 L9.4 46.75 Q9.0 47.65 8.0 47.8 L8.0 47.2 8.0 46.65 Q9.55 45.85 10.5 44.45 L10.9 44.35 Q11.1 45.3 12.65 44.95 L13.2 44.9 13.2 45.5 13.2 45.8 9.75 46.05 9.75 46.65" fill="#a8a65e" fill-rule="evenodd" stroke="none"/>
    <path d="M8.0 47.8 Q9.0 47.65 9.4 46.75 L9.75 46.65 Q9.95 47.7 8.25 49.75 6.25 52.15 6.3 49.55 L7.85 48.25 8.0 47.8" fill="#f4f3d3" fill-rule="evenodd" stroke="none"/>
    <path d="M10.9 44.35 L10.9 43.75 10.9 43.2 17.85 37.4 17.55 37.7 Q16.25 38.95 15.55 40.85 L15.0 41.0 Q14.65 41.15 14.35 41.45 14.1 41.45 14.0 41.6 12.7 43.25 10.9 44.35" fill="#b1af6c" fill-rule="evenodd" stroke="none"/>
    <path d="M13.2 45.5 L13.2 44.9 13.2 44.35 Q15.0 44.4 14.45 42.0 L14.35 41.45 Q14.65 41.15 15.0 41.0 L15.55 40.85 15.55 41.45 Q16.1 45.2 13.2 45.5" fill="#a4a259" fill-rule="evenodd" stroke="none"/>
    <path d="M13.2 44.9 L12.65 44.95 Q11.1 45.3 10.9 44.35 12.7 43.25 14.0 41.6 14.1 41.45 14.35 41.45 L14.45 42.0 Q15.0 44.4 13.2 44.35 L13.2 44.9" fill="#efedca" fill-rule="evenodd" stroke="none"/>
    <path d="M32.3 61.1 Q35.95 57.2 40.1 60.85 L40.6 61.55 Q41.7 63.6 40.35 65.7 38.4 68.9 34.55 67.5 31.35 66.35 32.3 61.1 M-1.3 11.9 Q-0.65 12.0 -0.05 12.55 2.25 14.55 1.1 17.2 -0.3 21.2 -4.2 20.4 -8.25 19.6 -7.6 14.3 -6.15 11.1 -1.3 11.9" fill="#f7f6de" fill-rule="evenodd" stroke="none"/>
    <path d="M-2.65 59.95 L-0.5 60.3 Q0.5 59.95 1.1 59.95 L1.1 59.35 Q2.35 57.2 2.4 59.95 2.4 60.9 3.4 60.5 L3.7 60.75 6.4 62.6 Q8.25 63.7 7.45 64.55 6.5 65.25 7.6 66.6 8.1 67.2 6.85 67.1 6.15 67.05 7.15 68.3 L7.5 68.15 Q7.75 68.0 8.0 68.0 8.35 72.75 9.45 74.95 L9.15 74.95 Q12.85 83.65 20.25 88.7 L20.7 88.8 Q21.6 89.85 20.7 90.55 L21.2 90.8 Q21.85 91.15 21.9 92.3 22.15 94.6 21.3 95.15 L21.6 95.45 21.5 95.8 Q19.85 103.3 20.7 110.75 22.05 111.15 23.8 113.5 L25.6 115.7 29.7 120.25 Q31.1 122.0 32.05 124.15 32.65 125.55 31.1 125.2 32.65 125.85 33.55 128.05 34.35 130.05 34.3 133.3 L34.25 133.75 33.25 137.3 33.1 138.5 Q33.0 139.45 34.0 139.05 L34.0 139.65 30.55 147.15 Q29.4 149.45 28.6 151.9 L28.85 152.15 Q30.1 152.5 29.95 154.1 29.7 154.1 29.6 153.95 29.2 153.1 28.25 152.9 26.9 150.2 26.25 146.6 L26.2 146.0 Q26.2 142.15 23.6 143.7 25.1 145.05 25.6 147.65 L25.9 147.7 Q26.85 155.15 25.65 161.55 L25.35 161.6 25.0 161.5 21.9 154.1 21.8 153.5 Q21.35 151.45 20.15 150.05 L20.1 149.45 Q19.6 146.0 18.4 143.1 L18.4 142.55 18.4 138.5 Q19.25 139.05 19.7 140.15 L19.85 140.5 Q20.4 137.65 18.4 136.75 17.4 136.0 17.55 133.85 L17.55 133.3 Q18.3 126.45 13.8 125.2 L13.8 124.6 Q13.85 123.7 12.65 124.05 L12.5 123.65 Q10.65 122.0 9.75 119.4 L9.75 118.85 Q9.7 114.3 8.6 110.75 L8.5 110.25 8.0 109.6 8.0 109.05 8.0 107.3 Q8.95 107.35 8.65 106.1 L8.6 105.55 Q10.1 101.85 10.45 96.9 10.6 94.6 9.75 93.45 L9.65 92.9 9.15 92.3 9.1 91.7 Q8.55 90.0 7.45 88.8 L7.4 88.25 Q6.9 85.9 5.7 84.2 L5.55 83.75 5.25 83.45 7.0 81.0 Q-1.25 73.6 -11.15 72.55 L-11.1 69.8 Q-10.9 67.6 -11.6 66.85 -12.2 67.8 -12.8 67.7 -7.65 64.05 -2.65 59.95 M22.05 143.4 L22.45 143.7 Q22.1 141.75 20.15 140.8 20.65 142.55 22.05 143.4 M-4.1 68.6 Q-3.25 70.6 -1.6 69.45 L-1.15 68.95 Q0.25 65.65 -0.95 67.2 -2.0 68.6 -4.1 68.6" fill="#fbf6d3" fill-rule="evenodd" stroke="none"/>
    <path d="M4.65 84.25 L5.25 83.45 5.55 83.75 5.7 84.2 5.55 84.6 5.15 84.75 5.0 84.45 4.65 84.25" fill="#4e4540" fill-rule="evenodd" stroke="none"/>
    <path d="M-7.85 110.4 Q-4.0 107.65 -2.0 103.0 L-3.25 102.85 Q-0.05 99.1 -0.4 91.7 L-0.5 90.05 4.65 84.25 5.0 84.45 5.15 84.75 7.1 88.7 7.45 88.8 Q7.4 91.75 9.15 92.55 L9.15 92.3 9.65 92.9 9.75 93.45 9.15 93.45 9.15 94.0 9.15 94.6 9.1 95.15 Q7.55 99.9 4.55 103.25 L4.0 103.35 Q1.1 104.7 -2.4 105.55 L-2.5 106.05 -4.7 109.6 Q-5.0 109.6 -5.05 109.75 -6.1 111.45 -7.85 110.4" fill="#d4a393" fill-rule="evenodd" stroke="none"/>
    <path d="M5.15 84.75 L5.55 84.6 5.7 84.2 Q6.9 85.9 7.4 88.25 L7.45 88.8 7.1 88.7 5.15 84.75" fill="#6d6258" fill-rule="evenodd" stroke="none"/>
    <path d="M9.15 92.3 L9.15 92.55 Q7.4 91.75 7.45 88.8 8.55 90.0 9.1 91.7 L9.15 92.3" fill="#675b51" fill-rule="evenodd" stroke="none"/>
    <path d="M0.3 157.25 Q-1.45 154.8 -3.75 153.35 -3.15 149.9 -3.6 147.65 L-4.45 142.0 -4.8 139.35 Q-0.75 136.2 3.4 133.25 3.25 142.05 4.5 149.45 L4.55 150.05 Q10.0 147.1 12.8 141.45 14.25 138.65 14.1 134.45 14.0 130.0 14.95 126.95 17.6 129.5 17.0 135.6 L17.05 136.2 Q17.9 139.55 18.1 143.65 18.1 143.95 18.4 144.25 18.5 147.6 19.8 149.9 19.85 150.05 20.15 150.05 21.35 151.45 21.8 153.5 L21.9 154.1 21.3 154.1 Q22.2 160.4 26.35 163.5 L26.5 163.9 25.95 163.85 Q22.9 163.15 20.15 164.45 L20.15 165.05 20.15 165.65 Q19.1 164.95 18.9 163.8 18.1 159.85 14.95 161.0 14.9 159.35 13.7 159.15 8.6 158.4 4.55 159.3 L4.45 158.95 0.3 157.25 M-9.4 151.2 L-15.0 151.0 -13.0 146.0 -8.0 141.9 Q-8.3 146.1 -9.3 149.45 L-9.35 150.05 -9.4 151.2 M4.2 128.75 L-19.0 121.0 -13.0 113.0 Q-10.1 112.0 -7.85 110.4 -6.1 111.45 -5.05 109.75 -5.0 109.6 -4.7 109.6 L-2.5 106.05 -2.4 105.55 Q1.1 104.7 4.0 103.35 L4.55 103.25 Q7.55 99.9 9.1 95.15 L9.15 94.6 9.45 94.6 Q9.8 100.15 8.0 103.85 L8.0 104.4 8.0 105.0 7.9 105.5 7.45 106.15 7.45 109.6 7.45 110.2 Q8.3 111.35 8.3 113.35 L8.35 113.0 8.6 110.75 Q9.7 114.3 9.75 118.85 L9.75 119.4 9.35 118.8 Q8.6 116.85 8.3 117.8 L6.3 122.9 Q5.1 125.65 4.2 128.75 M17.25 151.75 L17.35 152.3 Q17.95 154.0 17.85 156.4 17.7 157.95 19.0 158.05 L19.55 158.1 Q19.85 153.8 17.25 151.75" fill="#b47664" fill-rule="evenodd" stroke="none"/>
    <path d="M9.75 93.45 Q10.6 94.6 10.45 96.9 10.1 101.85 8.6 105.55 L8.45 105.15 Q8.3 105.0 8.0 105.0 L8.0 104.4 8.0 103.85 Q9.8 100.15 9.45 94.6 L9.15 94.6 9.15 94.0 9.15 93.45 9.75 93.45" fill="#605046" fill-rule="evenodd" stroke="none"/>
    <path d="M66.35 53.6 L66.35 53.0 Q66.35 51.85 65.8 51.25 L65.8 50.7 65.8 48.95 67.45 53.6 67.5 54.15 67.0 54.05 66.35 53.6" fill="#070705" fill-opacity="0.7882353" fill-rule="evenodd" stroke="none"/>
    <path d="M67.5 57.6 L67.2 57.55 66.35 53.6 67.0 54.05 67.5 54.15 67.5 54.75 67.5 55.3 67.5 57.05 67.5 57.6" fill="#555439" fill-opacity="0.9882353" fill-rule="evenodd" stroke="none"/>
    <path d="M67.5 58.2 L67.5 57.6 67.5 57.05 67.5 55.3 Q68.4 56.7 68.65 58.8 L68.65 59.35 68.35 59.35 Q68.45 58.15 67.5 58.2" fill="#070805" fill-opacity="0.76862746" fill-rule="evenodd" stroke="none"/>
    <path d="M68.65 63.4 L68.55 62.9 Q67.5 61.1 67.5 58.2 68.45 58.15 68.35 59.35 L68.65 59.35 Q69.5 60.55 69.25 62.8 L69.25 63.4 68.65 63.4" fill="#44432d" fill-opacity="0.9254902" fill-rule="evenodd" stroke="none"/>
    <path d="M69.8 69.15 L69.5 69.1 68.65 63.4 69.25 63.4 Q69.25 64.55 69.7 65.2 L69.8 65.7 69.8 68.6 69.8 69.15" fill="#676643" fill-opacity="0.9843137" fill-rule="evenodd" stroke="none"/>
    <path d="M69.8 69.75 L69.8 69.15 69.8 68.6 69.8 65.7 70.85 66.95 70.95 67.45 70.7 67.45 Q70.8 69.3 69.8 69.75" fill="#080806" fill-opacity="0.8627451" fill-rule="evenodd" stroke="none"/>
    <path d="M70.4 70.9 L70.4 70.35 70.95 70.35 Q72.65 77.0 71.4 83.6 L71.1 84.8 Q70.95 85.35 70.95 85.9 L70.65 85.85 70.4 84.2 70.4 83.6 Q72.5 81.5 71.1 78.35 L70.95 77.85 70.9 77.25 Q70.4 74.35 70.4 70.9" fill="#1d1c19" fill-opacity="0.9372549" fill-rule="evenodd" stroke="none"/>
    <path d="M69.8 70.9 L69.8 70.35 69.8 69.75 Q70.8 69.3 70.7 67.45 L70.95 67.45 72.0 67.65 72.15 68.0 71.55 68.0 70.95 68.0 71.0 69.75 70.95 70.35 70.4 70.35 70.4 70.9 69.8 70.9" fill="#42413b" fill-opacity="0.9411765" fill-rule="evenodd" stroke="none"/>
    <path d="M56.55 124.6 L56.55 124.05 56.55 123.45 58.4 115.3 Q58.85 112.8 58.45 110.25 58.05 107.5 58.25 106.7 61.1 100.85 63.05 94.05 64.75 88.35 66.9 83.0 69.05 77.65 69.8 70.9 L70.4 70.9 Q70.4 74.35 70.9 77.25 L70.95 77.85 Q70.0 77.65 70.1 76.1 L70.1 75.8 Q70.05 77.45 69.6 78.55 68.55 81.2 67.85 83.7 L64.6 94.6 Q64.25 99.1 65.75 96.85 67.0 94.95 68.65 93.45 L68.7 94.0 Q69.1 96.15 68.1 96.9 L68.1 96.6 Q64.35 101.55 60.0 106.15 L61.4 110.65 61.75 110.75 Q62.0 114.5 61.45 117.1 L61.75 117.1 61.6 117.6 60.0 120.0 60.0 121.15 60.0 121.75 59.85 122.15 59.4 122.3 Q59.15 122.3 59.05 122.45 58.05 123.85 56.55 124.6" fill="#a2a052" fill-opacity="0.99607843" fill-rule="evenodd" stroke="none"/>
    <path d="M72.15 68.0 Q73.95 69.1 75.2 70.75 L75.6 70.9 Q75.55 75.55 76.45 79.5 L76.75 79.55 Q77.65 86.45 79.55 92.3 L79.65 92.85 Q79.6 94.9 80.15 96.35 L80.2 96.9 Q79.25 97.05 78.75 97.85 L77.75 99.45 Q76.5 101.6 75.0 100.95 73.1 97.05 73.0 91.7 72.95 88.55 72.15 89.4 71.85 93.15 72.45 98.6 72.95 103.0 74.2 107.2 L75.2 111.4 Q76.45 118.9 73.7 125.7 71.2 131.8 67.95 137.25 66.55 139.7 64.6 139.05 62.6 137.9 62.05 135.05 L60.95 129.3 60.9 128.7 Q61.0 125.65 60.0 124.05 59.65 131.5 58.05 137.45 L57.25 140.1 Q54.2 149.7 49.05 157.55 L48.9 157.95 Q47.85 158.95 45.55 158.7 L44.25 157.15 Q43.35 156.3 43.15 155.15 41.7 147.55 42.1 138.5 L42.55 138.35 42.65 137.9 42.65 137.35 Q43.7 135.75 45.45 134.8 L45.55 134.45 Q51.05 131.55 55.25 127.35 L55.4 126.95 Q57.75 125.25 59.3 122.8 L59.4 122.3 59.85 122.15 60.0 121.75 Q63.45 116.5 65.15 109.6 L65.2 109.05 Q67.4 104.9 68.6 99.75 L68.65 99.2 68.65 98.65 68.65 98.05 Q69.95 95.6 69.85 91.7 L69.8 91.1 Q70.8 90.4 70.45 88.2 L70.4 87.65 Q71.35 87.75 71.05 86.5 L70.95 85.9 Q70.95 85.35 71.1 84.8 L71.4 83.6 Q72.65 77.0 70.95 70.35 L71.0 69.75 70.95 68.0 71.55 68.0 72.15 68.0" fill="#928f8e" fill-opacity="0.99607843" fill-rule="evenodd" stroke="none"/>
    <path d="M59.1 64.55 Q58.85 61.95 58.85 59.35 59.85 61.55 59.15 64.85 L59.1 64.55" fill="#c5bf77" fill-rule="evenodd" stroke="none"/>
    <path d="M70.95 77.85 L71.1 78.35 Q72.5 81.5 70.4 83.6 L70.4 84.2 69.8 84.2 69.8 87.1 69.8 87.65 69.7 88.15 69.25 88.8 69.25 89.95 69.25 90.55 69.3 91.1 Q69.6 92.35 68.65 92.3 L68.65 92.85 68.65 93.45 Q67.0 94.95 65.75 96.85 64.25 99.1 64.6 94.6 L67.85 83.7 Q68.55 81.2 69.6 78.55 70.05 77.45 70.1 75.8 L70.1 76.1 Q70.0 77.65 70.95 77.85" fill="#c5c27b" fill-opacity="0.99607843" fill-rule="evenodd" stroke="none"/>
    <path d="M75.6 70.9 Q76.8 74.3 76.75 79.0 L76.75 79.55 76.45 79.5 Q75.55 75.55 75.6 70.9" fill="#161515" fill-opacity="0.81960785" fill-rule="evenodd" stroke="none"/>
    <path d="M70.4 84.2 L70.65 85.85 70.95 85.9 71.05 86.5 Q71.35 87.75 70.4 87.65 L69.8 87.65 69.8 87.1 69.8 84.2 70.4 84.2" fill="#575642" fill-rule="evenodd" stroke="none"/>
    <path d="M69.25 90.55 L69.25 89.95 69.25 88.8 69.7 88.15 69.8 87.65 70.4 87.65 70.45 88.2 Q70.8 90.4 69.8 91.1 L69.65 90.7 Q69.55 90.55 69.25 90.55" fill="#424138" fill-rule="evenodd" stroke="none"/>
    <path d="M68.65 93.45 L68.65 92.85 68.65 92.3 Q69.6 92.35 69.3 91.1 L69.25 90.55 Q69.55 90.55 69.65 90.7 L69.8 91.1 69.85 91.7 Q69.95 95.6 68.65 98.05 L68.65 98.65 68.65 99.2 68.25 99.05 68.1 98.65 68.1 98.05 68.1 96.9 Q69.1 96.15 68.7 94.0 L68.65 93.45" fill="#2e2e22" fill-rule="evenodd" stroke="none"/>
    <path d="M68.1 98.65 L67.8 98.65 Q67.05 104.5 64.6 108.45 L64.6 109.05 64.55 109.55 61.75 116.55 61.75 117.1 61.45 117.1 Q62.0 114.5 61.75 110.75 L61.4 110.65 60.0 106.15 Q64.35 101.55 68.1 96.6 L68.1 96.9 68.1 98.05 68.1 98.65" fill="#c7c37c" fill-rule="evenodd" stroke="none"/>
    <path d="M68.65 99.2 L68.6 99.75 Q67.4 104.9 65.2 109.05 L64.6 109.05 64.6 108.45 Q67.05 104.5 67.8 98.65 L68.1 98.65 68.25 99.05 68.65 99.2" fill="#3a392b" fill-rule="evenodd" stroke="none"/>
    <path d="M41.5 137.35 L42.1 137.35 42.25 137.75 42.65 137.9 42.55 138.35 42.1 138.5 Q41.7 147.55 43.15 155.15 43.35 156.3 44.25 157.15 L45.55 158.7 Q47.85 158.95 48.9 157.95 L49.05 157.55 Q54.2 149.7 57.25 140.1 L58.05 137.45 Q59.65 131.5 60.0 124.05 61.0 125.65 60.9 128.7 L60.95 129.3 62.05 135.05 Q62.6 137.9 64.6 139.05 66.55 139.7 67.95 137.25 71.2 131.8 73.7 125.7 76.45 118.9 75.2 111.4 L74.2 107.2 Q72.95 103.0 72.45 98.6 71.85 93.15 72.15 89.4 72.95 88.55 73.0 91.7 73.1 97.05 75.0 100.95 76.5 101.6 77.75 99.45 L78.75 97.85 Q79.25 97.05 80.2 96.9 L80.2 98.05 80.2 98.65 80.1 99.15 79.05 100.95 79.05 102.65 79.05 103.25 Q77.25 105.2 75.0 102.7 L74.75 102.4 Q75.65 105.5 77.35 108.45 L77.5 118.85 Q77.75 124.75 75.95 128.55 71.8 137.55 66.85 145.95 65.75 147.75 64.6 147.15 L63.1 144.75 Q61.75 142.2 61.4 138.5 61.15 136.2 60.6 136.75 61.0 141.8 59.25 144.75 52.85 155.6 47.65 167.85 46.75 169.95 46.15 169.65 43.6 169.05 42.85 166.3 L41.35 161.05 Q39.95 156.25 39.8 150.05 40.8 148.45 40.8 145.4 L41.1 142.55 Q41.35 141.0 40.35 140.8 L40.35 140.2 Q41.15 139.25 41.45 137.9 L41.5 137.35" fill="#525150" fill-opacity="0.99607843" fill-rule="evenodd" stroke="none"/>
    <path d="M76.75 79.55 Q79.3 85.1 80.2 92.3 L80.2 92.85 79.65 92.85 79.55 92.3 Q77.65 86.45 76.75 79.55" fill="#121212" fill-opacity="0.8509804" fill-rule="evenodd" stroke="none"/>
    <path d="M80.2 92.85 Q81.5 95.9 80.55 98.55 L80.2 98.65 80.2 98.05 80.2 96.9 80.15 96.35 Q79.6 94.9 79.65 92.85 L80.2 92.85" fill="#151414" fill-opacity="0.8901961" fill-rule="evenodd" stroke="none"/>
    <path d="M36.9 159.3 L36.9 158.7 Q37.9 156.8 37.75 153.5 L37.85 152.85 Q39.35 148.15 39.8 142.55 L39.8 141.95 40.25 141.3 40.35 140.8 Q41.35 141.0 41.1 142.55 L40.8 145.4 Q40.8 148.45 39.8 150.05 39.95 156.25 41.35 161.05 L42.85 166.3 Q43.6 169.05 46.15 169.65 46.75 169.95 47.65 167.85 52.85 155.6 59.25 144.75 61.0 141.8 60.6 136.75 61.15 136.2 61.4 138.5 61.75 142.2 63.1 144.75 L64.6 147.15 Q65.75 147.75 66.85 145.95 71.8 137.55 75.95 128.55 77.75 124.75 77.5 118.85 L77.35 108.45 Q75.65 105.5 74.75 102.4 L75.0 102.7 Q77.25 105.2 79.05 103.25 L79.05 103.85 Q78.9 105.65 77.9 106.7 77.8 116.1 78.45 124.6 L78.5 125.2 78.75 129.8 79.05 129.8 Q77.6 131.55 76.3 133.4 L73.55 137.7 Q71.05 142.0 68.8 146.95 68.2 148.15 67.85 149.55 L66.35 154.65 Q63.7 157.2 61.5 160.25 59.35 163.25 55.4 164.45 L55.25 165.0 Q54.2 167.35 52.5 169.1 L51.9 169.1 58.4 157.6 Q59.8 155.05 58.85 152.9 56.75 154.0 55.85 156.0 L53.45 160.65 Q46.75 171.45 40.35 182.4 L39.8 182.3 Q36.55 180.95 31.7 181.2 L31.1 181.2 27.1 181.2 27.1 181.8 Q24.7 183.45 23.15 185.95 21.6 188.45 18.4 189.3 L17.95 189.15 Q11.7 184.5 8.6 176.6 L8.45 176.1 Q7.3 173.85 5.7 172.0 L5.7 171.4 Q2.75 173.35 -0.15 175.95 -1.7 177.35 -4.0 177.95 L-3.0 172.0 -2.1 170.95 Q0.9 167.3 3.0 163.0 L2.85 162.5 7.45 162.95 14.35 163.3 Q15.95 166.1 15.55 170.85 L15.55 171.4 22.9 179.65 23.05 180.05 Q27.45 177.55 31.25 174.45 31.4 174.3 31.7 174.3 L36.2 163.25 36.3 162.75 36.8 162.1 36.9 161.6 37.2 161.5 Q37.6 160.0 36.9 159.3" fill="#272524" fill-opacity="0.99607843" fill-rule="evenodd" stroke="none"/>
    <path d="M65.2 109.05 L65.15 109.6 Q63.45 116.5 60.0 121.75 L60.0 121.15 60.0 120.0 61.6 117.6 61.75 117.1 61.75 116.55 64.55 109.55 64.6 109.05 65.2 109.05" fill="#39392b" fill-rule="evenodd" stroke="none"/>
    <path d="M54.8 126.95 L54.8 126.35 Q55.65 125.8 56.4 125.05 L56.55 124.6 Q58.05 123.85 59.05 122.45 59.15 122.3 59.4 122.3 L59.3 122.8 Q57.75 125.25 55.4 126.95 L54.8 126.95" fill="#393927" fill-rule="evenodd" stroke="none"/>
    <path d="M45.55 133.85 Q50.4 130.9 54.35 127.05 L54.8 126.95 55.4 126.95 55.25 127.35 Q51.05 131.55 45.55 134.45 L45.55 133.85" fill="#39382c" fill-rule="evenodd" stroke="none"/>
    <path d="M42.1 137.35 L42.1 136.75 Q43.45 135.2 45.1 134.0 45.25 133.85 45.55 133.85 L45.55 134.45 45.45 134.8 Q43.7 135.75 42.65 137.35 L42.65 137.9 42.25 137.75 42.1 137.35" fill="#3e3d38" fill-rule="evenodd" stroke="none"/>
    <path d="M39.8 142.55 L39.45 142.45 39.2 140.8 41.15 137.45 41.5 137.35 41.45 137.9 Q41.15 139.25 40.35 140.2 L40.35 140.8 40.25 141.3 39.8 141.95 39.8 142.55" fill="#efedce" fill-rule="evenodd" stroke="none"/>
    <path d="M78.5 125.2 Q79.5 126.5 79.1 129.25 L79.05 129.8 78.75 129.8 78.5 125.2" fill="#000000" fill-opacity="0.7882353" fill-rule="evenodd" stroke="none"/>
    <path d="M8.6 105.55 L8.65 106.1 Q8.95 107.35 8.0 107.3 L8.0 109.05 8.0 109.6 7.85 110.05 7.45 110.2 7.45 109.6 7.45 106.15 7.9 105.5 8.0 105.0 Q8.3 105.0 8.45 105.15 L8.6 105.55" fill="#49322a" fill-rule="evenodd" stroke="none"/>
    <path d="M8.0 109.6 L8.5 110.25 8.6 110.75 8.35 113.0 8.3 113.35 Q8.3 111.35 7.45 110.2 L7.85 110.05 8.0 109.6" fill="#5a3f37" fill-rule="evenodd" stroke="none"/>
    <path d="M3.4 133.25 L8.0 130.0 4.2 128.75 Q5.1 125.65 6.3 122.9 L8.3 117.8 Q8.6 116.85 9.35 118.8 L9.75 119.4 Q9.6 123.0 12.1 123.95 L12.65 124.05 Q13.85 123.7 13.8 124.6 L13.8 125.2 Q13.95 126.2 14.85 126.6 L14.95 126.95 Q14.0 130.0 14.1 134.45 14.25 138.65 12.8 141.45 10.0 147.1 4.55 150.05 L4.5 149.45 Q3.25 142.05 3.4 133.25 M8.0 136.75 Q10.8 138.05 12.15 135.35 12.65 134.45 12.2 133.45 10.5 129.5 6.85 132.15 L6.85 132.7 6.3 132.7 Q5.7 135.9 7.5 136.65 L8.0 136.75" fill="#d5a594" fill-rule="evenodd" stroke="none"/>
    <path d="M9.75 119.4 Q10.65 122.0 12.5 123.65 L12.65 124.05 12.1 123.95 Q9.6 123.0 9.75 119.4" fill="#554c44" fill-rule="evenodd" stroke="none"/>
    <path d="M13.8 125.2 Q18.3 126.45 17.55 133.3 L17.55 133.85 Q17.4 136.0 18.4 136.75 L18.4 137.9 18.4 138.5 18.4 142.55 18.4 143.1 18.4 143.7 18.4 144.25 Q18.1 143.95 18.1 143.65 17.9 139.55 17.05 136.2 L17.0 135.6 Q17.6 129.5 14.95 126.95 L14.85 126.6 Q13.95 126.2 13.8 125.2" fill="#46382f" fill-rule="evenodd" stroke="none"/>
    <path d="M6.85 132.7 L6.85 132.15 Q10.5 129.5 12.2 133.45 12.65 134.45 12.15 135.35 10.8 138.05 8.0 136.75 L7.9 136.4 Q6.35 135.55 6.85 132.7" fill="#fcf9f8" fill-rule="evenodd" stroke="none"/>
    <path d="M8.0 136.75 L7.5 136.65 Q5.7 135.9 6.3 132.7 L6.85 132.7 Q6.35 135.55 7.9 136.4 L8.0 136.75" fill="#f3e5e0" fill-rule="evenodd" stroke="none"/>
    <path d="M18.4 136.75 Q20.4 137.65 19.85 140.5 L19.7 140.15 Q19.25 139.05 18.4 138.5 L18.4 137.9 18.4 136.75" fill="#e6c56e" fill-rule="evenodd" stroke="none"/>
    <path d="M18.4 143.1 Q19.6 146.0 20.1 149.45 L20.15 150.05 Q19.85 150.05 19.8 149.9 18.5 147.6 18.4 144.25 L18.4 143.7 18.4 143.1" fill="#6c5c51" fill-rule="evenodd" stroke="none"/>
    <path d="M25.35 161.6 L25.65 161.55 Q26.85 155.15 25.9 147.7 L25.6 147.65 Q25.1 145.05 23.6 143.7 26.2 142.15 26.2 146.0 L26.25 146.6 Q26.9 150.2 28.25 152.9 L27.65 152.9 Q27.65 153.8 27.9 154.55 L28.25 154.65 28.5 157.5 28.8 157.55 Q29.55 159.65 30.75 161.45 30.85 161.6 31.1 161.6 L31.0 161.9 Q27.5 163.5 25.35 161.6" fill="#bda951" fill-rule="evenodd" stroke="none"/>
    <path d="M22.05 143.4 Q20.65 142.55 20.15 140.8 22.1 141.75 22.45 143.7 L22.05 143.4" fill="#e2c269" fill-rule="evenodd" stroke="none"/>
    <path d="M29.95 155.25 Q32.65 157.2 34.75 159.7 L35.15 159.85 35.05 160.2 34.0 160.45 34.0 161.0 33.45 161.0 33.3 160.5 Q31.85 158.25 29.95 156.4 L29.95 155.8 29.95 155.25" fill="#a6a254" fill-rule="evenodd" stroke="none"/>
    <path d="M35.15 159.85 L36.35 159.35 36.9 159.3 Q37.6 160.0 37.2 161.5 L36.9 161.6 36.75 161.1 34.0 161.0 34.0 160.45 35.05 160.2 35.15 159.85" fill="#4f4e43" fill-rule="evenodd" stroke="none"/>
    <path d="M29.95 154.1 L29.95 154.65 29.95 155.25 Q29.7 155.25 29.6 155.1 29.2 154.25 28.25 154.1 L28.25 154.65 27.9 154.55 Q27.65 153.8 27.65 152.9 L28.25 152.9 Q29.2 153.1 29.6 153.95 29.7 154.1 29.95 154.1" fill="#d5c886" fill-rule="evenodd" stroke="none"/>
    <path d="M28.25 154.65 L28.25 154.1 Q29.2 154.25 29.6 155.1 29.7 155.25 29.95 155.25 L29.95 155.8 29.95 156.4 29.8 156.8 28.8 157.55 28.5 157.5 28.25 154.65" fill="#eeeac3" fill-rule="evenodd" stroke="none"/>
    <path d="M21.9 154.1 L25.0 161.5 25.35 161.6 Q27.5 163.5 31.0 161.9 L31.1 161.6 Q32.25 161.55 32.95 161.15 33.15 161.0 33.45 161.0 L34.0 161.0 33.9 161.4 Q30.8 163.25 26.5 163.9 L26.35 163.5 Q22.2 160.4 21.3 154.1 L21.9 154.1" fill="#38342b" fill-rule="evenodd" stroke="none"/>
    <path d="M28.8 157.55 L29.8 156.8 29.95 156.4 Q31.85 158.25 33.3 160.5 L33.45 161.0 Q33.15 161.0 32.95 161.15 32.25 161.55 31.1 161.6 30.85 161.6 30.75 161.45 29.55 159.65 28.8 157.55" fill="#cdc981" fill-rule="evenodd" stroke="none"/>
    <path d="M36.3 162.75 Q36.05 162.75 35.9 162.9 32.35 166.3 27.65 168.5 L27.1 168.45 Q23.2 167.45 20.15 165.65 L20.15 165.05 20.15 164.45 Q22.9 163.15 25.95 163.85 L26.5 163.9 Q30.8 163.25 33.9 161.4 L34.0 161.0 36.75 161.1 36.9 161.6 36.8 162.1 36.3 162.75" fill="#928f8e" fill-rule="evenodd" stroke="none"/>
    <path d="M2.85 162.5 Q1.8 159.45 0.3 157.25 L4.45 158.95 4.55 159.3 Q8.6 158.4 13.7 159.15 14.9 159.35 14.95 161.0 18.1 159.85 18.9 163.8 19.1 164.95 20.15 165.65 23.2 167.45 27.1 168.45 L27.65 168.5 Q32.35 166.3 35.9 162.9 36.05 162.75 36.3 162.75 L36.2 163.25 31.7 174.3 Q31.4 174.3 31.25 174.45 27.45 177.55 23.05 180.05 L22.9 179.65 15.55 171.4 15.55 170.85 Q15.95 166.1 14.35 163.3 L7.45 162.95 2.85 162.5" fill="#5c4f4c" fill-rule="evenodd" stroke="none"/>
    <path d="M17.25 151.75 Q19.85 153.8 19.55 158.1 L19.0 158.05 Q17.7 157.95 17.85 156.4 17.95 154.0 17.35 152.3 L17.25 151.75" fill="#d2a392" fill-rule="evenodd" stroke="none"/>
    <path d="M-3.25 206.05 Q-2.9 204.25 -3.0 202.0 L2.0 194.0 2.0 188.0 Q-3.2 190.3 -6.0 190.0 L-4.0 177.95 Q-1.7 177.35 -0.15 175.95 2.75 173.35 5.7 171.4 L5.7 172.0 5.4 172.0 Q5.5 173.2 4.55 173.15 7.45 176.9 7.75 183.5 L8.0 183.55 Q8.85 181.25 9.7 184.55 L10.5 186.9 Q13.8 194.2 17.85 200.85 L17.35 201.0 Q15.25 202.6 12.05 203.15 10.05 203.0 11.15 201.25 L11.15 200.85 10.5 196.2 10.25 194.45 Q9.7 188.5 8.0 184.1 8.1 190.1 8.6 195.15 8.85 197.7 9.6 199.2 10.75 201.65 8.9 203.45 8.6 203.75 8.6 204.35 L8.25 204.45 Q7.8 205.3 6.3 204.9 L6.3 205.5 5.7 205.5 Q3.65 205.45 2.25 206.05 L1.65 206.05 -0.05 206.05 -0.65 206.05 -3.25 206.05" fill="#c7c37c" fill-opacity="0.99607843" fill-rule="evenodd" stroke="none"/>
    <path d="M5.7 172.0 Q7.3 173.85 8.45 176.1 L8.6 176.6 8.0 176.6 Q12.8 188.85 19.2 199.6 L19.55 199.7 19.5 200.0 Q18.45 200.3 17.85 200.85 13.8 194.2 10.5 186.9 L9.7 184.55 Q8.85 181.25 8.0 183.55 L7.75 183.5 Q7.45 176.9 4.55 173.15 5.5 173.2 5.4 172.0 L5.7 172.0" fill="#9d9c4c" fill-opacity="0.99607843" fill-rule="evenodd" stroke="none"/>
    <path d="M8.6 176.6 Q11.7 184.5 17.95 189.15 L18.4 189.3 Q21.6 188.45 23.15 185.95 24.7 183.45 27.1 181.8 L31.65 181.5 31.7 181.2 Q36.55 180.95 39.8 182.3 L40.35 182.4 Q46.75 171.45 53.45 160.65 L55.85 156.0 Q56.75 154.0 58.85 152.9 59.8 155.05 58.4 157.6 L51.9 169.1 51.8 169.55 45.55 177.75 45.55 178.35 45.2 178.45 Q43.9 181.0 41.5 182.4 L41.5 182.95 Q41.25 182.95 41.15 183.1 39.15 186.9 35.15 188.75 L35.15 189.3 Q34.85 189.3 34.75 189.45 30.9 193.75 25.35 196.25 L25.35 196.8 Q25.05 196.8 24.9 196.95 22.8 198.9 19.55 199.7 L19.2 199.6 Q12.8 188.85 8.0 176.6 L8.6 176.6" fill="#c5c17b" fill-opacity="0.99607843" fill-rule="evenodd" stroke="none"/>
    <path d="M8.6 204.35 Q8.6 203.75 8.9 203.45 10.75 201.65 9.6 199.2 8.85 197.7 8.6 195.15 8.1 190.1 8.0 184.1 9.7 188.5 10.25 194.45 L10.5 196.2 11.15 200.85 11.15 201.25 Q10.05 203.0 12.05 203.15 L12.0 203.45 Q10.0 203.75 8.6 204.35" fill="#969445" fill-rule="evenodd" stroke="none"/>
    <path d="M27.1 181.8 L27.1 181.2 31.1 181.2 31.7 181.2 31.65 181.5 27.1 181.8" fill="#94925f" fill-rule="evenodd" stroke="none"/>
    <path d="M35.15 189.9 L35.0 190.3 Q31.3 194.1 26.5 196.8 L25.9 196.8 25.35 196.8 25.35 196.25 Q30.9 193.75 34.75 189.45 34.85 189.3 35.15 189.3 L35.15 189.9" fill="#14140e" fill-opacity="0.8980392" fill-rule="evenodd" stroke="none"/>
    <path d="M26.5 196.8 Q22.4 199.95 17.45 202.35 12.7 204.7 6.3 205.5 L6.3 204.9 Q7.8 205.3 8.25 204.45 L8.6 204.35 Q10.0 203.75 12.0 203.45 L12.05 203.15 Q15.25 202.6 17.35 201.0 L17.85 200.85 Q18.45 200.3 19.5 200.0 L19.55 199.7 Q22.8 198.9 24.9 196.95 25.05 196.8 25.35 196.8 L25.9 196.8 26.5 196.8" fill="#0c0c09" fill-opacity="0.8627451" fill-rule="evenodd" stroke="none"/>
    <path d="M42.1 182.95 L41.95 183.45 Q39.35 187.45 35.15 189.9 L35.15 189.3 35.15 188.75 Q39.15 186.9 41.15 183.1 41.25 182.95 41.5 182.95 L42.1 182.95" fill="#060705" fill-opacity="0.827451" fill-rule="evenodd" stroke="none"/>
    <path d="M52.5 169.1 L52.35 169.6 Q49.85 174.55 46.15 178.35 L45.55 178.35 45.55 177.75 51.8 169.55 51.9 169.1 52.5 169.1" fill="#10100b" fill-opacity="0.8784314" fill-rule="evenodd" stroke="none"/>
    <path d="M46.15 178.35 L46.0 178.85 Q44.5 181.3 42.1 182.95 L41.5 182.95 41.5 182.4 Q43.9 181.0 45.2 178.45 L45.55 178.35 46.15 178.35" fill="#12120d" fill-opacity="0.8862745" fill-rule="evenodd" stroke="none"/>
    <path d="M2.25 206.65 L1.65 206.65 0.5 206.65 0.5 207.2 -0.05 207.2 -3.5 207.2 -3.35 206.65 -0.1 206.35 -0.05 206.05 1.65 206.05 2.25 206.05 2.25 206.65" fill="#14140e" fill-opacity="0.8352941" fill-rule="evenodd" stroke="none"/>
    <path d="M6.3 205.5 L6.25 205.8 2.25 206.65 2.25 206.05 Q3.65 205.45 5.7 205.5 L6.3 205.5" fill="#070705" fill-opacity="0.7372549" fill-rule="evenodd" stroke="none"/>
    <path d="M-4.1 68.6 Q-2.0 68.6 -0.95 67.2 0.25 65.65 -1.15 68.95 L-1.6 69.45 Q-3.25 70.6 -4.1 68.6" fill="#e6c97a" fill-rule="evenodd" stroke="none"/>
    <path d="M-3.25 102.85 Q-8.3 102.1 -11.0 99.0 -5.1 94.65 -0.5 90.05 L-0.4 91.7 Q-0.05 99.1 -3.25 102.85" fill="#fdfcfb" fill-rule="evenodd" stroke="none"/>
    <path d="M-3.75 153.35 Q-6.25 151.75 -9.4 151.2 L-9.35 150.05 -9.3 149.45 Q-8.3 146.1 -8.0 141.9 L-4.8 139.35 -4.45 142.0 -3.6 147.65 Q-3.15 149.9 -3.75 153.35" fill="#d4a493" fill-rule="evenodd" stroke="none"/>
    <path d="M-3.35 206.65 L-3.25 206.05 -0.65 206.05 -0.05 206.05 -0.1 206.35 -3.35 206.65" fill="#696846" fill-rule="evenodd" stroke="none"/>
  </g>
</svg>
