<?xml version="1.0" encoding="UTF-8" standalone="no"?>
<svg xmlns:xlink="http://www.w3.org/1999/xlink" height="176.65px" width="76.0px" xmlns="http://www.w3.org/2000/svg">
  <g transform="matrix(1.0, 0.0, 0.0, 1.0, 38.0, 88.3)">
    <path d="M22.7 -86.65 L21.5 -80.45 18.5 -76.95 Q20.9 -75.0 22.9 -72.35 L23.0 -71.95 27.0 -69.95 26.0 -67.95 26.0 -65.95 Q23.25 -62.0 21.1 -57.9 L21.0 -57.45 Q28.8 -53.05 32.1 -45.5 L32.5 -44.95 30.5 -43.45 21.0 -41.45 Q24.45 -22.6 20.65 -7.0 11.65 -4.15 9.15 5.25 L9.15 6.0 9.15 6.75 8.4 6.75 Q8.4 12.35 8.8 17.95 L9.15 18.0 9.25 18.7 Q10.85 27.1 17.35 30.55 L18.25 31.0 Q23.6 43.4 30.65 55.0 32.15 57.45 34.0 59.05 L34.2 61.5 Q22.55 65.35 7.65 61.4 L7.5 60.9 Q3.05 57.75 -2.8 56.15 -2.8 55.8 -2.95 55.7 L-4.3 55.4 -4.5 54.95 Q-25.0 41.65 -35.75 18.75 L-35.75 18.0 -35.75 16.5 -32.1 16.15 -32.0 15.75 Q-21.7 11.45 -20.8 -2.2 L-20.8 -2.95 -20.4 -3.05 Q-19.5 -7.25 -20.8 -9.7 L-20.8 -10.45 Q-22.15 -24.05 -32.0 -29.15 L-32.0 -29.9 -32.0 -34.4 -32.0 -35.15 -32.0 -36.65 Q-30.75 -36.9 -31.2 -38.9 L-31.25 -39.65 Q-29.2 -42.45 -28.35 -46.4 L-28.25 -47.15 Q-25.7 -50.95 -23.9 -55.4 L-23.8 -56.1 Q-20.7 -60.1 -17.95 -64.45 -17.8 -64.7 -17.8 -65.1 -15.8 -66.1 -14.95 -68.15 L-14.8 -68.85 Q-14.05 -69.2 -13.5 -69.75 L-13.3 -70.35 -9.75 -73.5 -9.55 -74.1 -8.25 -75.0 -8.05 -75.6 Q-5.75 -76.25 -4.5 -77.95 L-4.3 -78.55 Q-1.35 -80.05 1.5 -81.85 L1.65 -82.3 Q3.9 -83.05 6.0 -84.1 L6.15 -84.55 Q11.0 -86.1 16.55 -87.15 L16.65 -87.55 17.4 -87.55 18.15 -87.55 Q19.5 -86.55 22.0 -86.6 L22.7 -86.65" fill="#f5f3d5" fill-opacity="0.99607843" fill-rule="evenodd" stroke="none"/>
    <path d="M34.2 61.5 Q35.15 71.65 37.4 81.0 L38.0 81.55 37.95 85.9 37.75 85.95 35.35 86.1 35.35 86.85 34.6 86.95 27.85 87.6 27.1 87.6 20.4 87.6 19.65 87.6 17.4 87.6 17.35 87.2 Q12.75 86.65 9.15 85.35 L9.3 84.7 Q17.1 72.1 7.65 61.4 22.55 65.35 34.2 61.5 M19.65 71.15 L19.65 71.9 Q19.8 82.45 27.85 77.85 L28.2 75.7 Q27.5 64.2 19.65 71.15" fill="#c8c57e" fill-opacity="0.99607843" fill-rule="evenodd" stroke="none"/>
    <path d="M19.65 71.15 Q27.5 64.2 28.2 75.7 L27.85 77.85 Q19.8 82.45 19.65 71.9 L19.65 71.15" fill="#9b443f" fill-rule="evenodd" stroke="none"/>
    <path d="M35.35 86.85 L35.25 87.25 33.1 87.6 33.1 88.35 32.35 88.35 27.85 88.35 27.85 87.6 34.6 86.95 35.35 86.85" fill="#29291a" fill-opacity="0.75686276" fill-rule="evenodd" stroke="none"/>
    <path d="M27.85 88.35 L27.1 88.35 20.4 88.35 20.4 87.6 27.1 87.6 27.85 87.6 27.85 88.35" fill="#716f47" fill-opacity="0.8980392" fill-rule="evenodd" stroke="none"/>
    <path d="M16.65 -87.55 L16.65 -88.3 22.55 -88.3 22.65 -88.3 23.0 -88.3 22.9 -87.85 22.35 -87.75 18.15 -87.55 17.4 -87.55 16.65 -87.55" fill="#4c4c32" fill-opacity="0.8392157" fill-rule="evenodd" stroke="none"/>
    <path d="M1.65 -82.3 L1.65 -83.05 Q3.2 -84.15 5.4 -84.5 L6.15 -84.55 6.0 -84.1 Q3.9 -83.05 1.65 -82.3" fill="#1b1a17" fill-opacity="0.7372549" fill-rule="evenodd" stroke="none"/>
    <path d="M6.15 -84.55 L6.15 -85.3 Q10.4 -87.1 15.9 -87.5 L16.65 -87.55 16.55 -87.15 Q11.0 -86.1 6.15 -84.55" fill="#3a3932" fill-opacity="0.78431374" fill-rule="evenodd" stroke="none"/>
    <path d="M-8.05 -75.6 L-8.05 -76.3 -4.95 -78.4 -4.3 -78.55 -4.5 -77.95 Q-5.75 -76.25 -8.05 -75.6" fill="#1d1d19" fill-opacity="0.77254903" fill-rule="evenodd" stroke="none"/>
    <path d="M-13.3 -70.35 L-13.3 -71.1 -13.3 -71.85 -10.2 -73.9 -9.55 -74.1 -9.75 -73.5 -13.3 -70.35" fill="#090908" fill-opacity="0.6784314" fill-rule="evenodd" stroke="none"/>
    <path d="M22.9 -87.85 L22.7 -86.65 22.0 -86.6 Q19.5 -86.55 18.15 -87.55 L22.35 -87.75 22.9 -87.85" fill="#a8a771" fill-opacity="0.9647059" fill-rule="evenodd" stroke="none"/>
    <path d="M-17.8 -65.1 L-17.8 -65.85 -17.8 -66.6 Q-16.15 -67.2 -15.25 -68.65 L-14.8 -68.85 -14.95 -68.15 Q-15.8 -66.1 -17.8 -65.1" fill="#1f1f1b" fill-opacity="0.78431374" fill-rule="evenodd" stroke="none"/>
    <path d="M-28.25 -47.15 L-28.25 -47.9 -28.25 -49.4 Q-26.1 -52.45 -24.25 -55.95 L-23.8 -56.1 -23.9 -55.4 Q-25.7 -50.95 -28.25 -47.15" fill="#1b1b17" fill-opacity="0.73333335" fill-rule="evenodd" stroke="none"/>
    <path d="M-31.25 -39.65 L-31.25 -40.4 -31.25 -41.9 Q-29.7 -44.1 -28.7 -47.0 L-28.25 -47.15 -28.35 -46.4 Q-29.2 -42.45 -31.25 -39.65" fill="#2b2b25" fill-opacity="0.7764706" fill-rule="evenodd" stroke="none"/>
    <path d="M-34.25 -30.65 L-34.25 -31.4 -34.25 -32.9 Q-32.4 -35.55 -31.65 -39.6 L-31.25 -39.65 -31.2 -38.9 Q-30.75 -36.9 -32.0 -36.65 L-32.0 -35.15 -32.0 -34.4 -32.75 -34.4 -32.75 -32.9 -32.75 -32.15 -33.15 -32.15 Q-33.05 -30.55 -34.25 -30.65" fill="#252418" fill-opacity="0.77254903" fill-rule="evenodd" stroke="none"/>
    <path d="M-36.5 -18.7 L-36.5 -19.45 -36.5 -23.2 Q-35.1 -25.85 -34.65 -29.9 L-34.25 -29.9 -34.3 -29.15 Q-34.75 -23.3 -36.5 -18.7" fill="#100704" fill-opacity="0.7254902" fill-rule="evenodd" stroke="none"/>
    <path d="M-37.25 12.75 L-37.25 12.0 -37.25 11.25 -37.25 -0.7 -37.25 -1.45 -37.25 -8.95 -37.25 -9.7 -37.25 -11.2 Q-35.95 -13.65 -36.45 -17.95 L-36.5 -18.7 Q-34.75 -23.3 -34.3 -29.15 L-34.25 -29.9 -34.25 -30.65 Q-33.05 -30.55 -33.15 -32.15 L-32.75 -32.15 -32.7 -31.45 Q-32.3 -29.8 -33.5 -29.9 -33.5 -27.45 -32.5 -29.0 L-32.0 -29.15 Q-22.15 -24.05 -20.8 -10.45 L-20.8 -9.7 -20.8 -3.7 -20.8 -2.95 -20.8 -2.2 Q-21.7 11.45 -32.0 15.75 L-32.75 15.75 -36.5 15.75 -36.45 15.0 Q-36.0 13.0 -37.25 12.75" fill="#953e3b" fill-opacity="0.99607843" fill-rule="evenodd" stroke="none"/>
    <path d="M-38.0 -8.95 L-38.0 -9.7 -38.0 -12.7 Q-36.7 -14.75 -36.9 -18.7 L-36.5 -18.7 -36.45 -17.95 Q-35.95 -13.65 -37.25 -11.2 L-37.25 -9.7 -37.25 -8.95 -38.0 -8.95" fill="#1c0b0b" fill-opacity="0.68235296" fill-rule="evenodd" stroke="none"/>
    <path d="M-32.75 -32.15 L-32.75 -32.9 -32.75 -34.4 -32.0 -34.4 -32.0 -29.9 -32.0 -29.15 -32.5 -29.0 Q-33.5 -27.45 -33.5 -29.9 -32.3 -29.8 -32.7 -31.45 L-32.75 -32.15" fill="#a6a05e" fill-opacity="0.99607843" fill-rule="evenodd" stroke="none"/>
    <path d="M20.65 -7.0 L19.85 -4.1 Q18.6 0.15 17.0 4.05 21.7 6.6 22.8 12.6 L23.0 14.05 25.5 17.05 Q23.1 17.95 20.0 22.55 L18.5 23.05 16.0 25.55 18.25 31.0 17.35 30.55 Q10.85 27.1 9.25 18.7 L9.15 18.0 9.15 17.25 9.15 6.75 9.15 6.0 9.15 5.25 Q11.65 -4.15 20.65 -7.0" fill="#9a413e" fill-rule="evenodd" stroke="none"/>
    <path d="M9.15 18.0 L8.8 17.95 Q8.4 12.35 8.4 6.75 L9.15 6.75 9.15 17.25 9.15 18.0" fill="#ae685f" fill-rule="evenodd" stroke="none"/>
    <path d="M-20.8 -9.7 Q-19.5 -7.25 -20.4 -3.05 L-20.8 -2.95 -20.8 -3.7 -20.8 -9.7" fill="#d0ab97" fill-rule="evenodd" stroke="none"/>
    <path d="M-38.0 -0.7 L-38.0 -1.45 -38.0 -8.95 -37.25 -8.95 -37.25 -1.45 -37.25 -0.7 -38.0 -0.7" fill="#27100f" fill-opacity="0.8" fill-rule="evenodd" stroke="none"/>
    <path d="M-37.25 12.0 L-38.0 12.0 -38.0 11.25 -38.0 -0.7 -37.25 -0.7 -37.25 11.25 -37.25 12.0" fill="#230e0d" fill-opacity="0.75686276" fill-rule="evenodd" stroke="none"/>
    <path d="M-36.5 18.75 L-36.9 18.7 -37.25 12.75 Q-36.0 13.0 -36.45 15.0 L-36.5 15.75 -36.5 18.0 -36.5 18.75" fill="#1a0e0c" fill-opacity="0.7019608" fill-rule="evenodd" stroke="none"/>
    <path d="M-35.75 18.75 L-36.5 18.75 -36.5 18.0 -36.5 15.75 -32.75 15.75 -32.0 15.75 -32.1 16.15 -35.75 16.5 -35.75 18.0 -35.75 18.75" fill="#baa189" fill-opacity="0.96862745" fill-rule="evenodd" stroke="none"/>
    <path d="M-20.8 60.65 Q-20.8 60.3 -20.95 60.0 -22.55 57.15 -24.55 54.65 L-24.65 53.95 Q-25.3 51.7 -26.75 50.15 L-26.9 49.5 -32.75 35.2 -32.75 34.45 Q-32.75 31.45 -34.25 29.95 L-34.25 29.2 Q-34.2 25.45 -35.75 23.25 L-35.75 22.5 -35.75 18.75 Q-25.0 41.65 -4.5 54.95 L-4.3 55.4 -5.05 55.4 -8.8 55.4 -8.8 56.15 -9.55 56.25 Q-15.25 57.6 -19.3 60.65 L-19.3 61.4 -19.95 61.25 -20.8 60.65" fill="#c6c37d" fill-opacity="0.99607843" fill-rule="evenodd" stroke="none"/>
    <path d="M-34.25 29.95 L-34.65 29.85 Q-35.5 26.75 -35.75 23.25 -34.2 25.45 -34.25 29.2 L-34.25 29.95" fill="#1b1b11" fill-opacity="0.7058824" fill-rule="evenodd" stroke="none"/>
    <path d="M-32.75 35.2 L-33.2 35.1 Q-34.05 32.75 -34.25 29.95 -32.75 31.45 -32.75 34.45 L-32.75 35.2" fill="#1a1a10" fill-opacity="0.7254902" fill-rule="evenodd" stroke="none"/>
    <path d="M-24.55 54.65 L-25.1 54.5 Q-26.6 53.0 -26.75 50.15 -25.3 51.7 -24.65 53.95 L-24.55 54.65" fill="#15150d" fill-opacity="0.7372549" fill-rule="evenodd" stroke="none"/>
    <path d="M-17.05 65.9 L-17.6 65.7 Q-19.65 63.65 -20.8 60.65 L-19.95 61.25 -19.3 61.4 -17.2 65.25 Q-17.05 65.5 -17.05 65.9" fill="#261210" fill-opacity="0.8509804" fill-rule="evenodd" stroke="none"/>
    <path d="M-2.8 56.15 Q3.05 57.75 7.5 60.9 L7.65 61.4 Q17.1 72.1 9.3 84.7 L9.15 85.35 8.4 85.35 8.25 84.9 Q6.05 83.6 3.15 83.1 L3.0 82.6 Q0.85 80.9 -2.05 80.1 L-2.25 79.55 Q-5.0 76.7 -8.8 74.85 L-8.9 74.15 Q-9.75 71.7 -12.55 71.15 -12.55 70.75 -12.7 70.5 -14.35 67.65 -17.05 65.9 -17.05 65.5 -17.2 65.25 L-19.3 61.4 -19.3 60.65 Q-15.25 57.6 -9.55 56.25 L-8.8 56.15 -3.55 56.15 -2.8 56.15" fill="#9a403d" fill-opacity="0.99607843" fill-rule="evenodd" stroke="none"/>
    <path d="M-4.3 55.4 L-2.95 55.7 Q-2.8 55.8 -2.8 56.15 L-3.55 56.15 -8.8 56.15 -8.8 55.4 -5.05 55.4 -4.3 55.4" fill="#c0a973" fill-rule="evenodd" stroke="none"/>
    <path d="M-12.55 71.15 L-13.15 70.95 Q-15.65 68.95 -17.05 65.9 -14.35 67.65 -12.7 70.5 -12.55 70.75 -12.55 71.15" fill="#220e0d" fill-opacity="0.84313726" fill-rule="evenodd" stroke="none"/>
    <path d="M-8.8 74.85 L-9.35 74.7 -12.55 71.15 Q-9.75 71.7 -8.9 74.15 L-8.8 74.85" fill="#371616" fill-opacity="0.92156863" fill-rule="evenodd" stroke="none"/>
    <path d="M-2.05 80.1 L-2.75 79.95 Q-6.35 78.0 -8.8 74.85 -5.0 76.7 -2.25 79.55 L-2.05 80.1" fill="#1b0b0a" fill-opacity="0.8039216" fill-rule="evenodd" stroke="none"/>
    <path d="M3.15 83.1 L2.45 83.0 Q-0.45 82.2 -2.05 80.1 0.85 80.9 3.0 82.6 L3.15 83.1" fill="#190a0a" fill-opacity="0.7921569" fill-rule="evenodd" stroke="none"/>
    <path d="M8.4 85.35 L7.65 85.3 Q4.75 84.9 3.15 83.1 6.05 83.6 8.25 84.9 L8.4 85.35" fill="#230e0e" fill-opacity="0.81960785" fill-rule="evenodd" stroke="none"/>
    <path d="M17.4 87.6 L16.65 87.6 Q11.05 87.95 8.4 85.35 L9.15 85.35 Q12.75 86.65 17.35 87.2 L17.4 87.6" fill="#343320" fill-opacity="0.7764706" fill-rule="evenodd" stroke="none"/>
  </g>
</svg>
