<?xml version="1.0" encoding="UTF-8" standalone="no"?>
<svg xmlns:xlink="http://www.w3.org/1999/xlink" height="174.2px" width="71.0px" xmlns="http://www.w3.org/2000/svg">
  <g transform="matrix(1.0, 0.0, 0.0, 1.0, 35.5, 87.1)">
    <path d="M-0.45 -78.1 Q2.15 -78.1 3.15 -76.5 L3.3 -75.85 Q6.2 -72.05 10.15 -69.3 L10.8 -69.15 Q11.5 -66.85 13.2 -65.55 L13.8 -65.4 Q15.4 -64.75 15.95 -63.1 L16.05 -62.4 15.65 -62.4 Q15.4 -53.65 9.3 -51.15 L8.55 -51.25 Q-2.95 -53.15 -4.9 -64.65 L-4.9 -65.4 -4.9 -72.15 -4.9 -72.9 -4.9 -73.65 Q-3.5 -76.35 -0.55 -77.7 L-0.45 -78.1" fill="#99413f" fill-opacity="0.99607843" fill-rule="evenodd" stroke="none"/>
    <path d="M-17.3 62.7 L-17.5 60.25 Q-19.35 58.65 -20.85 56.2 -27.9 44.6 -33.25 32.2 -29.55 33.9 -24.4 34.15 -15.25 30.9 -12.9 21.3 -7.75 0.1 -24.4 -7.0 L-25.15 -6.95 -30.45 -5.95 -30.85 -5.8 Q-27.05 -21.4 -30.5 -40.25 L-21.0 -42.25 -19.0 -43.75 -19.4 -44.3 Q-22.7 -51.85 -30.5 -56.25 L-30.4 -56.7 Q-28.25 -60.8 -25.5 -64.75 L-25.5 -66.75 -24.5 -68.75 -28.5 -70.75 -28.6 -71.15 Q-30.6 -73.8 -33.0 -75.75 L-30.0 -79.25 -28.8 -85.45 -28.1 -85.55 -27.35 -85.6 -27.2 -85.05 Q-24.9 -77.1 -22.3 -81.95 -22.15 -82.25 -22.15 -82.6 L-20.55 -84.35 -19.05 -85.45 -18.4 -85.6 -16.15 -85.6 -15.4 -85.6 Q-7.5 -82.65 -0.6 -78.6 -0.45 -78.5 -0.45 -78.1 L-0.55 -77.7 Q-3.5 -76.35 -4.9 -73.65 L-4.9 -72.9 -4.9 -72.15 -5.65 -72.15 Q-5.65 -68.4 -5.3 -64.7 L-4.9 -64.65 Q-2.95 -53.15 8.55 -51.25 L9.3 -51.15 Q15.4 -53.65 15.65 -62.4 L16.05 -62.4 20.35 -54.85 20.55 -54.15 Q27.8 -22.6 21.35 10.95 L21.3 11.7 21.15 12.4 Q16.9 21.15 14.55 31.9 6.45 47.4 -7.0 57.35 -11.65 60.8 -17.0 62.6 L-17.3 62.7 M-20.2 -74.8 L-21.4 -75.1 Q-20.75 -74.15 -20.15 -74.05 L-19.95 -74.05 Q-17.5 -74.2 -20.2 -74.8 M-18.4 -72.15 L-18.35 -71.4 Q-17.55 -63.6 -13.15 -59.4 L-13.3 -60.1 -18.4 -72.15 M-17.65 -61.65 Q-18.15 -59.25 -17.35 -59.65 -14.8 -60.75 -17.65 -61.65 M-8.65 -22.0 L-8.7 -21.25 Q-9.45 -11.45 -1.2 -10.75 L-0.5 -10.9 Q6.65 -14.1 4.05 -23.5 L3.9 -24.05 Q-3.5 -31.7 -8.65 -22.0" fill="#f5f3d5" fill-opacity="0.99607843" fill-rule="evenodd" stroke="none"/>
    <path d="M-17.65 -87.1 L15.3 -87.1 34.75 -87.1 35.5 -87.1 35.5 -66.3 35.5 -9.25 35.5 -8.5 34.75 -8.5 34.75 -9.25 34.8 -10.0 Q35.3 -13.55 34.0 -15.25 L34.0 -16.0 Q34.2 -21.05 32.5 -24.25 L32.4 -24.95 31.0 -30.2 31.0 -30.95 Q31.0 -33.95 29.5 -35.45 L29.1 -35.55 25.75 -45.2 25.7 -45.9 Q25.3 -48.85 23.5 -50.4 L23.15 -50.5 Q22.55 -53.2 20.55 -54.15 L20.35 -54.85 16.05 -62.4 15.95 -63.1 Q15.4 -64.75 13.8 -65.4 L13.65 -66.1 Q12.8 -68.1 10.8 -69.15 L10.6 -69.75 Q7.5 -73.35 3.3 -75.85 L3.15 -76.5 Q2.15 -78.1 -0.45 -78.1 -0.45 -78.5 -0.6 -78.6 -7.5 -82.65 -15.4 -85.6 L-15.4 -86.0 Q-17.4 -85.85 -17.65 -87.1" fill="#000000" fill-opacity="0.03137255" fill-rule="evenodd" stroke="none"/>
    <path d="M-23.65 -87.1 L-20.65 -87.1 -18.4 -87.1 -17.65 -87.1 Q-17.4 -85.85 -15.4 -86.0 L-15.4 -85.6 -16.15 -85.6 -18.4 -85.6 -18.45 -86.0 -20.65 -86.2 -23.65 -86.35 -23.65 -87.1" fill="#32322a" fill-opacity="0.7490196" fill-rule="evenodd" stroke="none"/>
    <path d="M-28.8 -85.45 L-28.6 -86.65 -28.2 -86.7 Q-28.1 -86.75 -28.1 -87.1 L-24.75 -87.1 -24.4 -87.1 -23.65 -87.1 -23.65 -86.35 -24.4 -86.35 -25.45 -86.35 -26.65 -86.35 -26.65 -85.6 -27.35 -85.6 -28.1 -85.55 -28.8 -85.45" fill="#a8a771" fill-opacity="0.9647059" fill-rule="evenodd" stroke="none"/>
    <path d="M-18.4 -85.6 L-19.05 -85.45 -20.55 -84.35 -22.15 -82.6 -22.85 -82.5 Q-25.4 -81.55 -26.6 -85.4 L-26.65 -85.6 -26.65 -86.35 -25.45 -86.35 -24.4 -86.35 -23.65 -86.35 -20.65 -86.2 -18.45 -86.0 -18.4 -85.6" fill="#e8e7c2" fill-opacity="0.99607843" fill-rule="evenodd" stroke="none"/>
    <path d="M-26.65 -85.6 L-26.6 -85.4 Q-25.4 -81.55 -22.85 -82.5 L-22.15 -82.6 Q-22.15 -82.25 -22.3 -81.95 -24.9 -77.1 -27.2 -85.05 L-27.35 -85.6 -26.65 -85.6" fill="#acab62" fill-rule="evenodd" stroke="none"/>
    <path d="M-20.2 -74.8 Q-17.5 -74.2 -19.95 -74.05 L-20.15 -74.05 Q-20.75 -74.15 -21.4 -75.1 L-20.2 -74.8" fill="#bab875" fill-rule="evenodd" stroke="none"/>
    <path d="M-18.4 -72.15 L-13.3 -60.1 -13.15 -59.4 Q-17.55 -63.6 -18.35 -71.4 L-18.4 -72.15" fill="#b3b26e" fill-rule="evenodd" stroke="none"/>
    <path d="M-4.9 -64.65 L-5.3 -64.7 Q-5.65 -68.4 -5.65 -72.15 L-4.9 -72.15 -4.9 -65.4 -4.9 -64.65" fill="#b87c70" fill-rule="evenodd" stroke="none"/>
    <path d="M10.8 -69.15 Q12.8 -68.1 13.65 -66.1 L13.8 -65.4 13.2 -65.55 Q11.5 -66.85 10.8 -69.15" fill="#1d0c0b" fill-opacity="0.8352941" fill-rule="evenodd" stroke="none"/>
    <path d="M3.3 -75.85 Q7.5 -73.35 10.6 -69.75 L10.8 -69.15 10.15 -69.3 Q6.2 -72.05 3.3 -75.85" fill="#2e1312" fill-opacity="0.8862745" fill-rule="evenodd" stroke="none"/>
    <path d="M-17.65 -61.65 Q-14.8 -60.75 -17.35 -59.65 -18.15 -59.25 -17.65 -61.65" fill="#cecb94" fill-rule="evenodd" stroke="none"/>
    <path d="M-8.65 -22.0 Q-3.5 -31.7 3.9 -24.05 L4.05 -23.5 Q6.65 -14.1 -0.5 -10.9 L-1.2 -10.75 Q-9.45 -11.45 -8.7 -21.25 L-8.65 -22.0" fill="#9d4643" fill-rule="evenodd" stroke="none"/>
    <path d="M23.5 -50.4 Q25.3 -48.85 25.7 -45.9 L25.75 -45.2 Q25.4 -45.2 25.3 -45.35 24.0 -47.55 23.5 -50.4" fill="#353521" fill-opacity="0.84313726" fill-rule="evenodd" stroke="none"/>
    <path d="M20.55 -54.15 Q22.55 -53.2 23.15 -50.5 L23.5 -50.4 Q24.0 -47.55 25.3 -45.35 25.4 -45.2 25.75 -45.2 L29.1 -35.55 29.5 -35.45 Q29.7 -32.65 30.6 -30.35 30.65 -30.2 31.0 -30.2 L31.05 -29.45 Q31.55 -26.3 30.25 -24.95 L30.25 -23.5 30.25 -22.75 29.5 -22.75 29.5 -22.0 29.5 -21.25 Q29.2 -15.8 31.6 -19.85 L31.75 -20.5 32.5 -20.5 Q33.65 -18.65 33.65 -15.25 L34.0 -15.25 Q34.0 -12.25 34.35 -9.3 L34.75 -9.25 34.75 -8.5 34.75 7.95 34.75 8.7 34.25 9.55 34.0 10.2 Q28.35 5.55 21.3 11.7 L21.35 10.95 Q27.8 -22.6 20.55 -54.15 M25.75 -10.75 Q26.25 -10.25 27.0 -11.55 31.1 -18.6 25.0 -13.0 25.0 -11.5 25.75 -10.75" fill="#c7c47d" fill-opacity="0.99607843" fill-rule="evenodd" stroke="none"/>
    <path d="M29.5 -35.45 Q31.0 -33.95 31.0 -30.95 L31.0 -30.2 Q30.65 -30.2 30.6 -30.35 29.7 -32.65 29.5 -35.45" fill="#3b3a25" fill-opacity="0.83137256" fill-rule="evenodd" stroke="none"/>
    <path d="M31.0 -30.2 L32.4 -24.95 32.5 -24.25 Q32.15 -24.25 32.05 -24.05 30.75 -21.9 30.25 -22.75 L30.25 -23.5 30.25 -24.95 Q31.55 -26.3 31.05 -29.45 L31.0 -30.2" fill="#6c692f" fill-opacity="0.93333334" fill-rule="evenodd" stroke="none"/>
    <path d="M32.5 -20.5 L31.75 -20.5 31.05 -20.6 Q30.25 -20.85 29.5 -21.25 L29.5 -22.0 29.5 -22.75 30.25 -22.75 Q30.75 -21.9 32.05 -24.05 32.15 -24.25 32.5 -24.25 L32.5 -21.25 32.5 -20.5" fill="#a09c51" fill-opacity="0.99607843" fill-rule="evenodd" stroke="none"/>
    <path d="M32.5 -24.25 Q34.2 -21.05 34.0 -16.0 L34.0 -15.25 33.65 -15.25 Q33.65 -18.65 32.5 -20.5 L32.5 -21.25 32.5 -24.25" fill="#373620" fill-opacity="0.8" fill-rule="evenodd" stroke="none"/>
    <path d="M29.5 -21.25 Q30.25 -20.85 31.05 -20.6 L31.75 -20.5 31.6 -19.85 Q29.2 -15.8 29.5 -21.25" fill="#8b8736" fill-rule="evenodd" stroke="none"/>
    <path d="M25.75 -10.75 Q25.0 -11.5 25.0 -13.0 31.1 -18.6 27.0 -11.55 26.25 -10.25 25.75 -10.75" fill="#959142" fill-rule="evenodd" stroke="none"/>
    <path d="M35.5 -8.5 L35.5 9.45 35.5 10.2 34.75 10.2 34.75 9.45 34.75 8.7 34.75 7.95 34.75 -8.5 35.5 -8.5" fill="#242417" fill-opacity="0.76862746" fill-rule="evenodd" stroke="none"/>
    <path d="M34.0 -15.25 Q35.3 -13.55 34.8 -10.0 L34.75 -9.25 34.35 -9.3 Q34.0 -12.25 34.0 -15.25" fill="#343320" fill-opacity="0.78039217" fill-rule="evenodd" stroke="none"/>
    <path d="M34.75 10.2 L34.75 11.7 34.75 12.45 34.35 12.5 Q33.9 17.6 32.5 21.45 L32.5 25.2 32.5 25.9 32.5 26.65 32.1 26.75 Q31.65 29.9 30.25 31.9 L30.25 34.15 30.25 34.9 29.9 34.9 Q30.0 36.9 28.75 37.15 L28.75 39.4 28.75 40.15 28.75 40.9 Q28.7 43.05 27.25 43.9 L26.9 43.95 Q26.45 46.05 25.0 46.9 L25.0 48.4 25.0 49.15 24.6 49.25 Q23.8 52.0 22.05 53.6 L22.05 54.35 22.05 55.1 21.9 55.8 Q19.15 62.7 13.8 67.1 L13.8 66.35 Q14.2 55.45 13.8 41.65 15.1 38.1 14.6 32.65 L14.55 31.9 Q16.9 21.15 21.15 12.4 L21.3 11.7 Q28.35 5.55 34.0 10.2 L34.25 9.55 34.75 8.7 34.75 9.45 34.75 10.2" fill="#98403d" fill-opacity="0.99607843" fill-rule="evenodd" stroke="none"/>
    <path d="M34.75 12.45 L34.75 13.2 Q34.45 20.4 32.5 25.9 L32.5 25.2 32.5 21.45 Q33.9 17.6 34.35 12.5 L34.75 12.45" fill="#3a1917" fill-opacity="0.8352941" fill-rule="evenodd" stroke="none"/>
    <path d="M32.5 26.65 L32.5 27.4 Q32.15 31.9 30.25 34.9 L30.25 34.15 30.25 31.9 Q31.65 29.9 32.1 26.75 L32.5 26.65" fill="#361615" fill-opacity="0.84313726" fill-rule="evenodd" stroke="none"/>
    <path d="M30.25 34.9 L30.25 35.65 Q30.25 38.65 28.75 40.15 L28.75 39.4 28.75 37.15 Q30.0 36.9 29.9 34.9 L30.25 34.9" fill="#321414" fill-opacity="0.84705883" fill-rule="evenodd" stroke="none"/>
    <path d="M-33.25 32.2 L-35.5 26.75 -33.0 24.25 -31.5 23.75 Q-28.4 19.15 -26.0 18.25 L-28.5 15.25 -28.7 13.8 Q-29.8 7.8 -34.5 5.25 -32.9 1.35 -31.65 -2.9 L-30.85 -5.8 -30.45 -5.95 -25.15 -6.95 -24.4 -7.0 Q-7.75 0.1 -12.9 21.3 -15.25 30.9 -24.4 34.15 -29.55 33.9 -33.25 32.2" fill="#9a413e" fill-rule="evenodd" stroke="none"/>
    <path d="M13.8 67.1 L13.6 67.65 12.3 68.6 12.3 69.35 Q11.9 69.35 11.8 69.5 10.9 70.95 9.3 71.6 L9.3 72.35 9.3 73.1 8.75 73.25 Q3.15 79.25 -4.9 82.8 L-4.9 83.55 -5.6 83.7 Q-7.2 84.65 -9.4 85.05 L-9.4 85.8 -10.1 85.95 Q-11.6 86.75 -13.55 87.1 L-13.5 82.75 -14.1 82.2 Q-16.35 72.85 -17.3 62.7 L-17.0 62.6 Q-11.65 60.8 -7.0 57.35 6.45 47.4 14.55 31.9 L14.6 32.65 Q15.1 38.1 13.8 41.65 14.2 55.45 13.8 66.35 L13.8 67.1" fill="#c8c57e" fill-opacity="0.99607843" fill-rule="evenodd" stroke="none"/>
    <path d="M-4.9 83.55 L-5.1 84.15 Q-6.55 85.65 -9.4 85.8 L-9.4 85.05 Q-7.2 84.65 -5.6 83.7 L-4.9 83.55" fill="#323220" fill-opacity="0.83137256" fill-rule="evenodd" stroke="none"/>
    <path d="M12.3 69.35 L12.15 70.05 Q11.3 72.05 9.3 73.1 L9.3 72.35 9.3 71.6 Q10.9 70.95 11.8 69.5 11.9 69.35 12.3 69.35" fill="#333320" fill-opacity="0.8666667" fill-rule="evenodd" stroke="none"/>
    <path d="M27.25 43.9 L27.2 44.65 Q26.8 47.55 25.0 49.15 L25.0 48.4 25.0 46.9 Q26.45 46.05 26.9 43.95 L27.25 43.9" fill="#391716" fill-opacity="0.8745098" fill-rule="evenodd" stroke="none"/>
    <path d="M25.0 49.15 L24.95 49.85 Q24.45 53.4 22.05 55.1 L22.05 54.35 22.05 53.6 Q23.8 52.0 24.6 49.25 L25.0 49.15" fill="#2a1110" fill-opacity="0.84705883" fill-rule="evenodd" stroke="none"/>
    <path d="M-28.6 -86.65 L-28.5 -87.1 -28.1 -87.1 Q-28.1 -86.75 -28.2 -86.7 L-28.6 -86.65" fill="#4c4c32" fill-opacity="0.8392157" fill-rule="evenodd" stroke="none"/>
  </g>
</svg>
